<svg width="40" height="40" viewBox="0 0 40 40" fill="none" xmlns="http://www.w3.org/2000/svg">
<g clip-path="url(#clip0_451_13107)">
<mask id="mask0_451_13107" style="mask-type:luminance" maskUnits="userSpaceOnUse" x="0" y="0" width="40" height="40">
<path d="M38 0H2C0.89543 0 0 0.89543 0 2V38C0 39.1046 0.89543 40 2 40H38C39.1046 40 40 39.1046 40 38V2C40 0.89543 39.1046 0 38 0Z" fill="white"/>
</mask>
<g mask="url(#mask0_451_13107)">
<path d="M38 0H2C0.89543 0 0 0.89543 0 2V38C0 39.1046 0.89543 40 2 40H38C39.1046 40 40 39.1046 40 38V2C40 0.89543 39.1046 0 38 0Z" fill="#1A1A1A"/>
<path d="M14.1292 10.9375C14.9916 10.9375 15.7788 11.0143 16.4908 11.1663C17.2028 11.3183 17.8108 11.5679 18.318 11.9151C18.8252 12.2623 19.2188 12.7231 19.4988 13.2991C19.7788 13.8751 19.918 14.5855 19.918 15.4319C19.918 16.3455 19.71 17.1071 19.2956 17.7167C18.8812 18.3263 18.2668 18.8255 17.4556 19.2143C18.5724 19.5359 19.406 20.0991 19.9564 20.9023C20.5068 21.7055 20.782 22.6751 20.782 23.8095C20.782 24.7231 20.6044 25.5151 20.2492 26.1839C19.894 26.8527 19.4156 27.3983 18.814 27.8207C18.2124 28.2447 17.5276 28.5567 16.758 28.7599C15.9836 28.9631 15.1852 29.0655 14.3852 29.0639H5.59961V10.9375H14.1292ZM13.622 18.2735C14.3324 18.2735 14.9164 18.1039 15.374 17.7663C15.8316 17.4271 16.0604 16.8783 16.0588 16.1167C16.0588 15.6943 15.982 15.3471 15.83 15.0767C15.678 14.8063 15.4748 14.5935 15.2204 14.4415C14.966 14.2895 14.6748 14.1839 14.3452 14.1247C14.006 14.0655 13.662 14.0351 13.3164 14.0367H9.58681V18.2767L13.622 18.2735ZM13.8508 25.9647C14.2268 25.9663 14.6012 25.9279 14.9676 25.8511C15.3228 25.7743 15.6364 25.6479 15.9068 25.4703C16.1772 25.2927 16.3932 25.0511 16.5548 24.7471C16.7148 24.4431 16.7964 24.0527 16.7964 23.5791C16.7964 22.6495 16.534 21.9839 16.0092 21.5871C15.4844 21.1887 14.79 20.9903 13.9276 20.9903H9.58681V25.9663L13.8508 25.9647ZM25.7964 25.5839C26.3372 26.1087 27.1164 26.3711 28.1324 26.3711C28.8604 26.3711 29.486 26.1887 30.0108 25.8255C30.5356 25.4623 30.8572 25.0767 30.9756 24.6703H34.1484C33.6412 26.2447 32.862 27.3695 31.8124 28.0463C30.7628 28.7231 29.494 29.0623 28.0044 29.0623C26.9724 29.0623 26.0412 28.8975 25.2124 28.5679C24.3836 28.2383 23.6812 27.7679 23.1052 27.1583C22.5292 26.5487 22.0844 25.8223 21.7724 24.9759C21.4604 24.1295 21.3036 23.1983 21.3036 22.1839C21.3036 21.2031 21.4636 20.2895 21.7852 19.4431C22.1068 18.5967 22.5644 17.8655 23.1564 17.2479C23.7484 16.6303 24.4556 16.1439 25.2764 15.7887C26.0972 15.4335 27.0076 15.2559 28.006 15.2559C29.1228 15.2559 30.0956 15.4719 30.926 15.9039C31.7548 16.3359 32.4364 16.9151 32.9692 17.6431C33.502 18.3711 33.8876 19.1999 34.1244 20.1311C34.3612 21.0623 34.446 22.0351 34.3788 23.0511H24.91C24.9596 24.2143 25.2556 25.0607 25.7964 25.5839ZM29.8716 18.6799C29.4396 18.2063 28.7836 17.9695 27.9036 17.9695C27.3276 17.9695 26.8492 18.0671 26.47 18.2607C26.0892 18.4559 25.7852 18.6959 25.5564 18.9839C25.3276 19.2719 25.1676 19.5759 25.0748 19.8975C24.982 20.2191 24.926 20.5071 24.91 20.7599H30.774C30.6028 19.8479 30.302 19.1535 29.8716 18.6799ZM24.2924 11.8575H31.6188V13.8895H24.2924V11.8575Z" fill="white"/>
</g>
</g>
<defs>
<clipPath id="clip0_451_13107">
<rect width="40" height="40" fill="white"/>
</clipPath>
</defs>
</svg>
