<svg width="48" height="48" viewBox="0 0 48 48" fill="none" xmlns="http://www.w3.org/2000/svg">
<g clip-path="url(#clip0_552_17870)">
<path d="M17.379 36.4028C17.379 36.564 17.1935 36.6931 16.9597 36.6931C16.6936 36.7173 16.5081 36.5883 16.5081 36.4028C16.5081 36.2415 16.6936 36.1124 16.9274 36.1124C17.1694 36.0883 17.379 36.2173 17.379 36.4028ZM14.8709 36.0398C14.8145 36.2012 14.9758 36.3865 15.2178 36.435C15.4274 36.5156 15.6694 36.435 15.7178 36.2738C15.7661 36.1124 15.613 35.9269 15.371 35.8543C15.1613 35.7979 14.9274 35.8786 14.8709 36.0398ZM18.4355 35.9028C18.2017 35.9592 18.0404 36.1124 18.0645 36.2979C18.0887 36.4592 18.2985 36.564 18.5404 36.5076C18.7742 36.4512 18.9355 36.2979 18.9113 36.1366C18.8872 35.9834 18.6693 35.8786 18.4355 35.9028ZM23.742 5C12.5565 5 4 13.4918 4 24.6771C4 33.6206 9.62903 41.2736 17.6693 43.9671C18.7016 44.1527 19.0646 43.5155 19.0646 42.9914L19.0403 38.0399C19.0403 38.0399 13.3951 39.2495 12.2097 35.6367C12.2097 35.6367 11.2903 33.2898 9.96775 32.685C9.96775 32.685 8.12098 31.4191 10.0968 31.4432C10.0968 31.4432 12.1048 31.6044 13.2097 33.5238C14.9758 36.6366 17.9354 35.7414 19.0888 35.2092C19.2742 33.9189 19.7984 33.0237 20.3791 32.4915C15.871 31.9915 11.3226 31.3383 11.3226 23.5803C11.3226 21.3627 11.9355 20.2498 13.2258 18.8304C13.0161 18.3062 12.3306 16.145 13.4354 13.3547C15.121 12.8305 19 15.5321 19 15.5321C20.613 15.0805 22.3468 14.8467 24.0646 14.8467C25.7824 14.8467 27.5161 15.0805 29.1292 15.5321C29.1292 15.5321 33.0082 12.8225 34.6936 13.3547C35.7984 16.1531 35.1129 18.3062 34.9033 18.8304C36.1936 20.2578 36.9839 21.3708 36.9839 23.5803C36.9839 31.3626 32.234 31.9834 27.7258 32.4915C28.4678 33.1286 29.0968 34.3384 29.0968 36.2334L29.0727 42.9753C29.0727 43.4995 29.4435 44.1365 30.4677 43.951C38.5323 41.2736 44 33.6206 44 24.6771C44 13.4918 34.9274 5 23.742 5ZM11.8387 32.8141C11.7339 32.8947 11.7581 33.0802 11.8952 33.2335C12.0242 33.3625 12.2097 33.4189 12.3145 33.3142C12.4194 33.2335 12.3952 33.048 12.2581 32.8947C12.129 32.7656 11.9436 32.7094 11.8387 32.8141ZM10.9678 32.1609C10.9113 32.2657 10.9919 32.3948 11.1532 32.4754C11.2823 32.556 11.4436 32.5319 11.5 32.4189C11.5565 32.3141 11.4758 32.1851 11.3145 32.1045C11.1532 32.056 11.0242 32.0802 10.9678 32.1609ZM13.5806 35.0319C13.4516 35.1367 13.5 35.3786 13.6855 35.5317C13.871 35.7173 14.1049 35.7414 14.2096 35.6124C14.3145 35.5076 14.2661 35.2656 14.1049 35.1125C13.9275 34.9269 13.6855 34.9028 13.5806 35.0319ZM12.6613 33.8464C12.5323 33.927 12.5323 34.1367 12.6613 34.3221C12.7903 34.5076 13.0081 34.5883 13.1129 34.5076C13.2419 34.4028 13.2419 34.1931 13.1129 34.0077C13 33.8222 12.7903 33.7416 12.6613 33.8464Z" fill="#1A1A1A"/>
</g>
<defs>
<clipPath id="clip0_552_17870">
<rect width="40" height="39" fill="white" transform="translate(4 5)"/>
</clipPath>
</defs>
</svg>
