<svg width="40" height="40" viewBox="0 0 40 40" fill="none" xmlns="http://www.w3.org/2000/svg">
<mask id="mask0_451_13115" style="mask-type:luminance" maskUnits="userSpaceOnUse" x="1" y="1" width="38" height="38">
<path d="M39 1H1V39H39V1Z" fill="white"/>
</mask>
<g mask="url(#mask0_451_13115)">
<mask id="mask1_451_13115" style="mask-type:luminance" maskUnits="userSpaceOnUse" x="1" y="1" width="38" height="38">
<path d="M39 1H1V39H39V1Z" fill="white"/>
</mask>
<g mask="url(#mask1_451_13115)">
<mask id="mask2_451_13115" style="mask-type:luminance" maskUnits="userSpaceOnUse" x="1" y="1" width="38" height="38">
<path d="M38.4062 1H1.59375V39H38.4062V1Z" fill="white"/>
</mask>
<g mask="url(#mask2_451_13115)">
<path d="M13.9066 30.4946C13.9066 30.6429 13.7359 30.7617 13.5207 30.7617C13.2758 30.784 13.1051 30.6653 13.1051 30.4946C13.1051 30.3461 13.2758 30.2273 13.491 30.2273C13.7137 30.2051 13.9066 30.3238 13.9066 30.4946ZM11.5984 30.1605C11.5465 30.309 11.6949 30.4796 11.9176 30.5242C12.1105 30.5984 12.3332 30.5242 12.3778 30.3758C12.4222 30.2273 12.2813 30.0566 12.0586 29.9898C11.8656 29.9379 11.6504 30.0121 11.5984 30.1605ZM14.8789 30.0344C14.6637 30.0863 14.5153 30.2273 14.5375 30.398C14.5597 30.5465 14.7528 30.6429 14.9754 30.591C15.1906 30.5391 15.3391 30.398 15.3168 30.2496C15.2946 30.1086 15.0941 30.0121 14.8789 30.0344ZM19.7625 1.59375C9.46836 1.59375 1.59375 9.40898 1.59375 19.7031C1.59375 27.934 6.77421 34.9773 14.1738 37.4562C15.1238 37.627 15.4579 37.0406 15.4579 36.5582L15.4355 32.0012C15.4355 32.0012 10.2402 33.1145 9.14921 29.7895C9.14921 29.7895 8.30312 27.6296 7.08594 27.073C7.08594 27.073 5.38633 25.9079 7.20469 25.9301C7.20469 25.9301 9.05273 26.0785 10.0695 27.8449C11.6949 30.7097 14.4187 29.8859 15.4801 29.3961C15.6508 28.2086 16.1332 27.3847 16.6676 26.8949C12.5188 26.4347 8.33281 25.8336 8.33281 18.6937C8.33281 16.6528 8.89687 15.6285 10.0844 14.3222C9.89141 13.8398 9.26054 11.8508 10.2773 9.28281C11.8285 8.80039 15.3984 11.2867 15.3984 11.2867C16.8829 10.8711 18.4785 10.6559 20.0594 10.6559C21.6403 10.6559 23.2359 10.8711 24.7204 11.2867C24.7204 11.2867 28.2903 8.79296 29.8414 9.28281C30.8582 11.8582 30.2273 13.8398 30.0344 14.3222C31.2219 15.6359 31.9492 16.6602 31.9492 18.6937C31.9492 25.8559 27.5778 26.4273 23.4289 26.8949C24.1117 27.4812 24.6906 28.5946 24.6906 30.3387L24.6684 36.5434C24.6684 37.0258 25.0097 37.6121 25.9523 37.4414C33.3742 34.9773 38.4062 27.934 38.4062 19.7031C38.4062 9.40898 30.0566 1.59375 19.7625 1.59375ZM8.80781 27.1918C8.71133 27.266 8.73359 27.4367 8.85977 27.5778C8.97852 27.6965 9.14921 27.7484 9.24571 27.652C9.34219 27.5778 9.31992 27.4071 9.19375 27.266C9.075 27.1472 8.90429 27.0954 8.80781 27.1918ZM8.00625 26.5906C7.95429 26.6871 8.02852 26.8059 8.17696 26.8801C8.29571 26.9543 8.44414 26.9321 8.49609 26.8281C8.54804 26.7316 8.47383 26.6129 8.32539 26.5387C8.17696 26.4941 8.05821 26.5164 8.00625 26.5906ZM10.4109 29.2329C10.2922 29.3293 10.3367 29.552 10.5074 29.6929C10.6781 29.8637 10.8934 29.8859 10.9898 29.7671C11.0863 29.6707 11.0418 29.448 10.8934 29.3071C10.7301 29.1363 10.5074 29.1141 10.4109 29.2329ZM9.56484 28.1418C9.44609 28.216 9.44609 28.409 9.56484 28.5796C9.68359 28.7504 9.88398 28.8246 9.98046 28.7504C10.0992 28.6539 10.0992 28.4609 9.98046 28.2903C9.87656 28.1196 9.68359 28.0454 9.56484 28.1418Z" fill="#1A1A1A"/>
</g>
</g>
</g>
</svg>
