<svg width="48" height="48" viewBox="0 0 48 48" fill="none" xmlns="http://www.w3.org/2000/svg">
<rect x="4" y="4" width="40" height="40" rx="5.37634" fill="black"/>
<path fill-rule="evenodd" clip-rule="evenodd" d="M38.6223 38.6233H32.7729V28.3882C32.7729 25.5805 31.5342 24.0143 29.3129 24.0143C26.8956 24.0143 25.461 25.6463 25.461 28.3882V38.6233H19.6116V19.6125H25.461V21.7505C25.461 21.7505 27.2963 18.5304 31.4319 18.5304C35.5674 18.5304 38.6223 21.0544 38.6223 26.278V38.6233ZM12.9461 16.5723C10.9734 16.5723 9.375 14.9608 9.375 12.9734C9.375 10.986 10.9734 9.37598 12.9461 9.37598C14.9188 9.37598 16.5157 10.9875 16.5157 12.9734C16.5157 14.9593 14.9174 16.5723 12.9461 16.5723ZM9.375 38.6233H16.6868V19.6125H9.375V38.6233Z" fill="white"/>
</svg>
