<svg width="40" height="40" viewBox="0 0 40 40" fill="none" xmlns="http://www.w3.org/2000/svg">
<g clip-path="url(#clip0_483_13317)">
<g clip-path="url(#clip1_483_13317)">
<g clip-path="url(#clip2_483_13317)">
<path d="M4.36595 0.151501C2.36857 0.527972 0.601246 2.27437 0.172488 4.30313C-0.0366627 5.32797 -0.0366627 34.6718 0.172488 35.6966C0.611704 37.7777 2.37902 39.4822 4.46007 39.8587C5.32804 40.0155 34.6719 40.0155 35.5398 39.8587C37.6523 39.4822 39.4823 37.6522 39.8588 35.5398C40.0156 34.6718 40.0156 5.32797 39.8588 4.46C39.5868 2.94366 38.4784 1.41686 37.1503 0.716207C35.7803 -0.00536156 36.6274 0.026011 19.9476 0.0364686C10.9542 0.0469261 4.67968 0.0887559 4.36595 0.151501ZM16.2352 12.7528C17.7202 13.1084 19.4666 14.29 20.345 15.5241C21.3908 16.9881 21.8091 18.2849 21.8091 19.9998C21.7986 21.3071 21.6104 22.1227 21.0457 23.294C18.6195 28.3031 11.6966 28.941 8.33978 24.4757C7.32543 23.1267 6.88621 21.7777 6.88621 19.9998C6.88621 18.243 7.33588 16.8626 8.35029 15.5136C10.1803 13.077 13.1921 12.0208 16.2352 12.7528ZM26.881 13.192C29.4744 14.5097 30.3529 20.962 28.4705 24.8626C27.5921 26.6927 26.3058 27.362 25.0927 26.5881C23.0535 25.2914 22.1123 20.4286 23.1476 16.5489C23.5764 14.928 24.4966 13.5267 25.3646 13.1502C25.8352 12.941 26.4209 12.962 26.881 13.192ZM32.0784 13.7881C33.3751 15.0953 33.5424 23.4404 32.298 25.8351C31.9947 26.4312 31.6287 26.379 31.3045 25.6888C30.813 24.6535 30.5515 22.6457 30.5515 19.9476C30.5515 16.7685 30.9072 14.562 31.5346 13.8508C31.7856 13.579 31.8588 13.5685 32.0784 13.7881Z" fill="black"/>
<path d="M16.2352 12.7528C17.7202 13.1084 19.4666 14.29 20.345 15.5241C21.3908 16.9881 21.8091 18.2849 21.8091 19.9998C21.7986 21.3071 21.6104 22.1227 21.0457 23.294C18.6195 28.3031 11.6966 28.941 8.33978 24.4757C7.32543 23.1267 6.88621 21.7777 6.88621 19.9998C6.88621 18.243 7.33588 16.8626 8.35029 15.5136C10.1803 13.077 13.1921 12.0208 16.2352 12.7528Z" fill="white"/>
<path d="M26.881 13.192C29.4744 14.5097 30.3529 20.962 28.4705 24.8626C27.5921 26.6927 26.3058 27.362 25.0927 26.5881C23.0535 25.2914 22.1123 20.4286 23.1476 16.5489C23.5764 14.928 24.4966 13.5267 25.3646 13.1502C25.8352 12.941 26.4209 12.962 26.881 13.192Z" fill="white"/>
<path d="M32.0784 13.7881C33.3751 15.0953 33.5424 23.4404 32.298 25.8351C31.9947 26.4312 31.6287 26.379 31.3045 25.6888C30.813 24.6535 30.5515 22.6457 30.5515 19.9476C30.5515 16.7685 30.9072 14.562 31.5346 13.8508C31.7856 13.579 31.8588 13.5685 32.0784 13.7881Z" fill="white"/>
</g>
</g>
</g>
<defs>
<clipPath id="clip0_483_13317">
<rect width="40" height="40" fill="white"/>
</clipPath>
<clipPath id="clip1_483_13317">
<rect width="40" height="40" fill="white"/>
</clipPath>
<clipPath id="clip2_483_13317">
<rect width="40" height="40" fill="white"/>
</clipPath>
</defs>
</svg>
