<svg width="48" height="48" viewBox="0 0 48 48" fill="none" xmlns="http://www.w3.org/2000/svg">
<g clip-path="url(#clip0_553_17889)">
<path d="M8.3546 3.90967C6.35525 4.28651 4.5862 6.03463 4.15702 8.06538C3.94766 9.09122 3.94766 38.4639 4.15702 39.4897C4.59666 41.5728 6.36572 43.279 8.44881 43.6559C9.31763 43.8128 38.6903 43.8128 39.559 43.6559C41.6736 43.279 43.5054 41.4472 43.8823 39.3327C44.0392 38.4639 44.0392 9.09122 43.8823 8.2224C43.61 6.70457 42.5005 5.17628 41.1711 4.47493C39.7998 3.75266 40.6477 3.78406 23.9515 3.79453C14.9493 3.805 8.66863 3.84687 8.3546 3.90967ZM20.2355 16.5233C21.722 16.8793 23.4701 18.0621 24.3493 19.2974C25.3962 20.7628 25.8149 22.0609 25.8149 23.7775C25.8044 25.086 25.616 25.9024 25.0507 27.0749C22.6221 32.0889 15.6924 32.7274 12.3323 28.2578C11.317 26.9074 10.8773 25.5571 10.8773 23.7775C10.8773 22.0189 11.3274 20.6372 12.3428 19.2869C14.1747 16.8479 17.1894 15.7906 20.2355 16.5233ZM30.8917 16.963C33.4877 18.282 34.3671 24.7406 32.4828 28.645C31.6035 30.4769 30.316 31.1469 29.1017 30.3722C27.0605 29.0743 26.1184 24.2067 27.1547 20.3232C27.5839 18.7007 28.505 17.298 29.3739 16.9211C29.8449 16.7117 30.4312 16.7327 30.8917 16.963ZM36.0942 17.5597C37.3922 18.8681 37.5597 27.2214 36.3141 29.6185C36.0105 30.2152 35.6441 30.1629 35.3196 29.472C34.8276 28.4357 34.5658 26.426 34.5658 23.7252C34.5658 20.543 34.9219 18.3343 35.5499 17.6224C35.8012 17.3504 35.8744 17.3398 36.0942 17.5597Z" fill="#1A1A1A"/>
<path d="M20.2371 16.5264C21.7235 16.8824 23.4716 18.0651 24.3509 19.3005C25.3977 20.7659 25.8164 22.064 25.8164 23.7805C25.8059 25.0891 25.6175 25.9055 25.0523 27.078C22.6237 32.092 15.694 32.7305 12.3339 28.2608C11.3186 26.9105 10.8789 25.5602 10.8789 23.7805C10.8789 22.022 11.329 20.6403 12.3444 19.2899C14.1762 16.851 17.191 15.7937 20.2371 16.5264Z" fill="white"/>
<path d="M30.892 16.9815C33.488 18.3005 34.3673 24.7592 32.4831 28.6636C31.6038 30.4955 30.3163 31.1655 29.102 30.3908C27.0608 29.0928 26.1186 24.2252 27.155 20.3417C27.5842 18.7192 28.5053 17.3166 29.3741 16.9397C29.8452 16.7303 30.4315 16.7513 30.892 16.9815Z" fill="white"/>
<path d="M36.0948 17.5828C37.3928 18.8913 37.5602 27.2446 36.3146 29.6416C36.011 30.2383 35.6447 30.1861 35.3201 29.4952C34.8282 28.4589 34.5664 26.4491 34.5664 23.7484C34.5664 20.5661 34.9225 18.3575 35.5505 17.6456C35.8017 17.3735 35.875 17.363 36.0948 17.5828Z" fill="white"/>
</g>
<defs>
<clipPath id="clip0_553_17889">
<rect width="40" height="40" fill="white" transform="translate(4 4)"/>
</clipPath>
</defs>
</svg>
