<svg width="40" height="40" viewBox="0 0 40 40" fill="none" xmlns="http://www.w3.org/2000/svg">
<g clip-path="url(#clip0_451_13068)">
<mask id="mask0_451_13068" style="mask-type:luminance" maskUnits="userSpaceOnUse" x="0" y="0" width="40" height="40">
<path d="M40 0H0V40H40V0Z" fill="white"/>
</mask>
<g mask="url(#mask0_451_13068)">
<path d="M32.9825 0H7.01754C3.14186 0 0 3.14186 0 7.01754V32.9825C0 36.8581 3.14186 40 7.01754 40H32.9825C36.8581 40 40 36.8581 40 32.9825V7.01754C40 3.14186 36.8581 0 32.9825 0Z" fill="#1A1A1A"/>
<path d="M39.9999 27.5288V31.1616C39.7718 31.1836 39.5374 31.1949 39.2968 31.1949C35.0023 31.1949 32.5846 27.6179 32.4803 23.1419C32.4772 22.9689 32.4784 22.7969 32.4822 22.6261C32.4846 22.5196 32.4888 22.4134 32.4942 22.3077C32.4969 22.2511 32.4995 22.198 32.5038 22.1388C32.508 22.0796 32.5123 22.0204 32.5173 21.9611C32.6719 19.9849 33.308 18.2264 34.3581 16.9252C35.0104 16.1175 35.7942 15.5021 36.6832 15.0905C37.4639 14.6974 38.5613 14.4805 39.4558 14.4805H39.4945C39.664 14.4805 39.8324 14.4861 39.9999 14.4973V15.4968C39.8222 15.4481 39.632 15.422 39.4296 15.4186C37.6205 15.4559 36.5424 17.6229 36.4081 20.6253H39.9999V21.4715H36.327L36.3258 21.4723C36.1602 24.3977 37.7614 26.87 39.9999 27.5288Z" fill="white"/>
<path d="M32.6607 9.55586L32.6923 9.54894V9.30469H26.2505L20.2692 23.3629L14.2878 9.30469H7.34605V9.54894L7.37723 9.55586C8.55301 9.82125 9.14996 10.217 9.14996 11.6444V28.3546C9.14996 29.7819 8.5507 30.1777 7.37492 30.4431L7.34375 30.45V30.695H12.0535V30.4508L12.0224 30.4439C10.8466 30.1785 10.2496 29.7827 10.2496 28.3554V12.6137L17.9333 30.695H18.3691L26.2767 12.1094V28.768C26.1759 29.8954 25.5844 30.2435 24.5197 30.4839L24.4882 30.4912V30.7335H32.6923V30.4912L32.6607 30.4839C31.595 30.2435 30.9891 29.8954 30.8884 28.768L30.883 11.6444H30.8884C30.8884 10.217 31.4853 9.82125 32.6607 9.55586Z" fill="white"/>
</g>
</g>
<defs>
<clipPath id="clip0_451_13068">
<rect width="40" height="40" fill="white"/>
</clipPath>
</defs>
</svg>
