<svg width="40" height="40" viewBox="0 0 40 40" fill="none" xmlns="http://www.w3.org/2000/svg">
<g clip-path="url(#clip0_64_15491)">
<path d="M32.9825 0H7.01754C3.14186 0 0 3.14186 0 7.01754V32.9825C0 36.8581 3.14186 40 7.01754 40H32.9825C36.8581 40 40 36.8581 40 32.9825V7.01754C40 3.14186 36.8581 0 32.9825 0Z" fill="black"/>
<path d="M40 27.5288V31.1616C39.7719 31.1836 39.5375 31.1949 39.2969 31.1949C35.0024 31.1949 32.5847 27.6179 32.4804 23.1419C32.4773 22.9689 32.4785 22.7969 32.4823 22.6261C32.4847 22.5196 32.4889 22.4134 32.4943 22.3077C32.497 22.2511 32.4996 22.198 32.5039 22.1388C32.5081 22.0796 32.5124 22.0204 32.5174 21.9611C32.672 19.9849 33.3081 18.2264 34.3582 16.9252C35.0105 16.1175 35.7943 15.5021 36.6833 15.0905C37.464 14.6974 38.5614 14.4805 39.4559 14.4805H39.4946C39.6641 14.4805 39.8325 14.4861 40 14.4973V15.4968C39.8223 15.4481 39.6321 15.422 39.4297 15.4186C37.6206 15.4559 36.5425 17.6229 36.4082 20.6253H40V21.4715H36.3271L36.3259 21.4723C36.1603 24.3977 37.7615 26.87 40 27.5288Z" fill="white"/>
<path d="M32.6607 9.55586L32.6923 9.54894V9.30469H26.2505L20.2692 23.3629L14.2878 9.30469H7.34605V9.54894L7.37723 9.55586C8.55301 9.82125 9.14996 10.217 9.14996 11.6444V28.3546C9.14996 29.7819 8.5507 30.1777 7.37492 30.4431L7.34375 30.45V30.695H12.0535V30.4508L12.0224 30.4439C10.8466 30.1785 10.2496 29.7827 10.2496 28.3554V12.6137L17.9333 30.695H18.3691L26.2767 12.1094V28.768C26.1759 29.8954 25.5844 30.2435 24.5197 30.4839L24.4882 30.4912V30.7335H32.6923V30.4912L32.6607 30.4839C31.595 30.2435 30.9891 29.8954 30.8884 28.768L30.883 11.6444H30.8884C30.8884 10.217 31.4853 9.82125 32.6607 9.55586Z" fill="white"/>
</g>
<defs>
<clipPath id="clip0_64_15491">
<rect width="40" height="40" fill="white"/>
</clipPath>
</defs>
</svg>
