<svg width="48" height="48" viewBox="0 0 48 48" fill="none" xmlns="http://www.w3.org/2000/svg">
<path d="M35.5136 3.90918H12.4863C7.79946 3.90918 4 7.70864 4 12.3955V35.4228C4 40.1097 7.79946 43.9092 12.4863 43.9092H35.5136C40.2005 43.9092 44 40.1097 44 35.4228V12.3955C44 7.70864 40.2005 3.90918 35.5136 3.90918Z" fill="white"/>
<path d="M15.2793 15.3879C18.6412 15.3879 23.2434 15.2165 26.5482 15.3063C30.9791 15.4205 32.6519 17.3544 32.709 22.1198C32.7661 24.8207 32.709 32.5401 32.709 32.5401H27.9109V22.536C27.8538 20.6592 27.3234 19.7698 25.8791 19.5984C24.3532 19.427 20.0773 19.5739 20.0773 19.5739V32.5482H15.2793V15.3879Z" fill="#1A1A1A"/>
</svg>
