<svg width="40" height="40" viewBox="0 0 40 40" fill="none" xmlns="http://www.w3.org/2000/svg">
<g clip-path="url(#clip0_483_13310)">
<g clip-path="url(#clip1_483_13310)">
<g clip-path="url(#clip2_483_13310)">
<path d="M31.4157 0.0810547H8.51919C3.85894 0.0810547 0.0810547 3.85894 0.0810547 8.51919V31.4157C0.0810547 36.076 3.85894 39.8539 8.51919 39.8539H31.4157C36.076 39.8539 39.8539 36.076 39.8539 31.4157V8.51919C39.8539 3.85894 36.076 0.0810547 31.4157 0.0810547Z" fill="white"/>
<path d="M11.2939 11.4969C14.6367 11.4969 19.2128 11.3265 22.4988 11.4158C26.9045 11.5293 28.5678 13.4523 28.6246 18.1906C28.6814 20.8762 28.6246 28.5517 28.6246 28.5517H23.8538V18.6044C23.797 16.7383 23.2696 15.8539 21.8335 15.6835C20.3163 15.5131 16.0647 15.6592 16.0647 15.6592V28.5598H11.2939V11.4969Z" fill="#2D2D2D"/>
<path d="M31.4157 0.0810547H8.51919C3.85894 0.0810547 0.0810547 3.85894 0.0810547 8.51919V31.4157C0.0810547 36.076 3.85894 39.8539 8.51919 39.8539H31.4157C36.076 39.8539 39.8539 36.076 39.8539 31.4157V8.51919C39.8539 3.85894 36.076 0.0810547 31.4157 0.0810547Z" stroke="#EBEBEB" stroke-width="0.162272"/>
</g>
</g>
</g>
<defs>
<clipPath id="clip0_483_13310">
<rect width="40" height="40" fill="white"/>
</clipPath>
<clipPath id="clip1_483_13310">
<rect width="40" height="40" fill="white"/>
</clipPath>
<clipPath id="clip2_483_13310">
<rect width="40" height="40" fill="white"/>
</clipPath>
</defs>
</svg>
