<svg width="40" height="40" viewBox="0 0 40 40" fill="none" xmlns="http://www.w3.org/2000/svg">
<g clip-path="url(#clip0_451_13129)">
<mask id="mask0_451_13129" style="mask-type:luminance" maskUnits="userSpaceOnUse" x="0" y="0" width="40" height="40">
<path d="M40 0H0V40H40V0Z" fill="white"/>
</mask>
<g mask="url(#mask0_451_13129)">
<mask id="mask1_451_13129" style="mask-type:luminance" maskUnits="userSpaceOnUse" x="0" y="0" width="40" height="40">
<path d="M40 0H0V40H40V0Z" fill="white"/>
</mask>
<g mask="url(#mask1_451_13129)">
<mask id="mask2_451_13129" style="mask-type:luminance" maskUnits="userSpaceOnUse" x="0" y="0" width="40" height="40">
<path d="M40 0H0V40H40V0Z" fill="white"/>
</mask>
<g mask="url(#mask2_451_13129)">
<path d="M31.4157 0.0810547H8.51919C3.85894 0.0810547 0.0810547 3.85894 0.0810547 8.51919V31.4157C0.0810547 36.076 3.85894 39.8539 8.51919 39.8539H31.4157C36.076 39.8539 39.8539 36.076 39.8539 31.4157V8.51919C39.8539 3.85894 36.076 0.0810547 31.4157 0.0810547Z" fill="white"/>
<path d="M11.2939 11.4969C14.6367 11.4969 19.2128 11.3265 22.4988 11.4158C26.9045 11.5293 28.5678 13.4523 28.6246 18.1906C28.6814 20.8762 28.6246 28.5517 28.6246 28.5517H23.8538V18.6044C23.797 16.7383 23.2696 15.8539 21.8335 15.6835C20.3163 15.5131 16.0647 15.6592 16.0647 15.6592V28.5598H11.2939V11.4969Z" fill="#1A1A1A"/>
</g>
</g>
</g>
</g>
<defs>
<clipPath id="clip0_451_13129">
<rect width="40" height="40" fill="white"/>
</clipPath>
</defs>
</svg>
