<svg width="48" height="48" viewBox="0 0 48 48" fill="none" xmlns="http://www.w3.org/2000/svg">
<rect x="4" y="4" width="40" height="40" rx="5" fill="black"/>
<mask id="mask0_553_17891" style="mask-type:luminance" maskUnits="userSpaceOnUse" x="9" y="9" width="30" height="30">
<path d="M39 9H9V39H39V9Z" fill="white"/>
</mask>
<g mask="url(#mask0_553_17891)">
<mask id="mask1_553_17891" style="mask-type:luminance" maskUnits="userSpaceOnUse" x="9" y="9" width="30" height="30">
<path d="M39 9H9V39H39V9Z" fill="white"/>
</mask>
<g mask="url(#mask1_553_17891)">
<mask id="mask2_553_17891" style="mask-type:luminance" maskUnits="userSpaceOnUse" x="9" y="9" width="30" height="30">
<path d="M39 9H9V39H39V9Z" fill="white"/>
</mask>
<g mask="url(#mask2_553_17891)">
<path d="M31.8067 11.8125H35.9434L26.9082 22.1367L37.5371 36.1875H29.2168L22.6953 27.6679L15.2422 36.1875H11.0996L20.7617 25.1425L10.5723 11.8125H19.1035L24.9922 19.5996L31.8067 11.8125ZM30.3536 33.7148H32.6445L17.8555 14.1562H15.3945L30.3536 33.7148Z" fill="white"/>
</g>
</g>
</g>
</svg>
