<svg width="360" height="360" viewBox="-180,-194.4,360,360" style="width: 100%; height: auto; font: 4.8px sans-serif;" xmlns="http://www.w3.org/2000/svg" xmlns:xlink="http://www.w3.org/1999/xlink"><g fill="none" stroke="#555" stroke-opacity="0.4" stroke-width="1.5"><path d="M0,0C0.509,24.995,3.649,-24.732,7.299,-49.464"/><path d="M0,0C0.509,24.995,14.826,-20.129,29.652,-40.259"/><path d="M0,0C0.509,24.995,24.208,-6.241,48.417,-12.482"/><path d="M0,0C0.509,24.995,24.307,5.846,48.614,11.692"/><path d="M0,0C0.509,24.995,15.473,19.636,30.947,39.272"/><path d="M0,0C0.509,24.995,-4.452,24.6,-8.905,49.201"/><path d="M0,0C0.509,24.995,-14.496,20.368,-28.993,40.736"/><path d="M0,0C0.509,24.995,-19.252,15.948,-38.505,31.896"/><path d="M0,0C0.509,24.995,-22.877,10.082,-45.754,20.163"/><path d="M0,0C0.509,24.995,-24.993,0.61,-49.985,1.221"/><path d="M0,0C0.509,24.995,-22.537,-10.821,-45.074,-21.642"/><path d="M0,0C0.509,24.995,-11.004,-22.448,-22.008,-44.896"/><path d="M7.299,-49.464C10.948,-74.197,2.441,-74.96,3.255,-99.947"/><path d="M7.299,-49.464C10.948,-74.197,4.88,-74.841,6.506,-99.788"/><path d="M7.299,-49.464C10.948,-74.197,7.313,-74.643,9.751,-99.523"/><path d="M7.299,-49.464C10.948,-74.197,9.739,-74.365,12.985,-99.153"/><path d="M7.299,-49.464C10.948,-74.197,12.154,-74.009,16.206,-98.678"/><path d="M7.299,-49.464C10.948,-74.197,14.557,-73.574,19.409,-98.098"/><path d="M7.299,-49.464C10.948,-74.197,16.944,-73.061,22.592,-97.415"/><path d="M7.299,-49.464C10.948,-74.197,19.313,-72.471,25.751,-96.628"/><path d="M29.652,-40.259C44.478,-60.388,23.988,-71.061,31.983,-94.747"/><path d="M29.652,-40.259C44.478,-60.388,26.288,-70.242,35.05,-93.656"/><path d="M29.652,-40.259C44.478,-60.388,28.56,-69.349,38.08,-92.466"/><path d="M29.652,-40.259C44.478,-60.388,30.802,-68.383,41.07,-91.177"/><path d="M29.652,-40.259C44.478,-60.388,33.012,-67.344,44.016,-89.792"/><path d="M29.652,-40.259C44.478,-60.388,35.186,-66.234,46.915,-88.312"/><path d="M29.652,-40.259C44.478,-60.388,37.324,-65.053,49.765,-86.738"/><path d="M29.652,-40.259C44.478,-60.388,39.421,-63.804,52.562,-85.072"/><path d="M29.652,-40.259C44.478,-60.388,41.477,-62.487,55.303,-83.316"/><path d="M29.652,-40.259C44.478,-60.388,43.489,-61.104,57.986,-81.472"/><path d="M29.652,-40.259C44.478,-60.388,45.455,-59.656,60.607,-79.541"/><path d="M29.652,-40.259C44.478,-60.388,47.373,-58.145,63.164,-77.526"/><path d="M29.652,-40.259C44.478,-60.388,49.24,-56.572,65.654,-75.429"/><path d="M29.652,-40.259C44.478,-60.388,51.056,-54.939,68.074,-73.252"/><path d="M29.652,-40.259C44.478,-60.388,52.817,-53.248,70.422,-70.998"/><path d="M29.652,-40.259C44.478,-60.388,54.522,-51.501,72.696,-68.668"/><path d="M29.652,-40.259C44.478,-60.388,56.169,-49.699,74.893,-66.265"/><path d="M29.652,-40.259C44.478,-60.388,57.757,-47.844,77.01,-63.793"/><path d="M29.652,-40.259C44.478,-60.388,59.284,-45.939,79.045,-61.252"/><path d="M29.652,-40.259C44.478,-60.388,60.748,-43.985,80.997,-58.647"/><path d="M48.417,-12.482C72.625,-18.723,63.481,-39.939,84.641,-53.252"/><path d="M48.417,-12.482C72.625,-18.723,64.747,-37.852,86.33,-50.469"/><path d="M48.417,-12.482C72.625,-18.723,65.945,-35.724,87.927,-47.632"/><path d="M48.417,-12.482C72.625,-18.723,67.073,-33.559,89.431,-44.745"/><path d="M48.417,-12.482C72.625,-18.723,68.13,-31.358,90.84,-41.811"/><path d="M48.417,-12.482C72.625,-18.723,69.114,-29.124,92.153,-38.832"/><path d="M48.417,-12.482C72.625,-18.723,70.026,-26.859,93.368,-35.811"/><path d="M48.417,-12.482C72.625,-18.723,70.863,-24.565,94.484,-32.753"/><path d="M48.417,-12.482C72.625,-18.723,71.625,-22.245,95.5,-29.661"/><path d="M48.417,-12.482C72.625,-18.723,72.311,-19.902,96.415,-26.536"/><path d="M48.417,-12.482C72.625,-18.723,72.921,-17.538,97.227,-23.384"/><path d="M48.417,-12.482C72.625,-18.723,73.453,-15.155,97.937,-20.207"/><path d="M48.417,-12.482C72.625,-18.723,73.907,-12.756,98.543,-17.008"/><path d="M48.417,-12.482C72.625,-18.723,74.283,-10.344,99.044,-13.792"/><path d="M48.417,-12.482C72.625,-18.723,74.581,-7.921,99.441,-10.561"/><path d="M48.417,-12.482C72.625,-18.723,74.799,-5.489,99.732,-7.318"/><path d="M48.417,-12.482C72.625,-18.723,74.938,-3.051,99.917,-4.068"/><path d="M48.417,-12.482C72.625,-18.723,74.998,-0.61,99.997,-0.814"/><path d="M48.417,-12.482C72.625,-18.723,74.978,1.831,99.97,2.441"/><path d="M48.417,-12.482C72.625,-18.723,74.878,4.271,99.838,5.694"/><path d="M48.614,11.692C72.921,17.538,74.442,9.133,99.256,12.178"/><path d="M48.614,11.692C72.921,17.538,74.105,11.552,98.807,15.402"/><path d="M48.614,11.692C72.921,17.538,73.69,13.958,98.253,18.61"/><path d="M48.614,11.692C72.921,17.538,73.196,16.349,97.595,21.798"/><path d="M48.614,11.692C72.921,17.538,72.625,18.723,96.834,24.964"/><path d="M48.614,11.692C72.921,17.538,71.978,21.077,95.97,28.102"/><path d="M48.614,11.692C72.921,17.538,71.253,23.408,95.005,31.211"/><path d="M48.614,11.692C72.921,17.538,70.454,25.715,93.938,34.287"/><path d="M30.947,39.272C46.42,58.908,68.631,30.245,91.508,40.326"/><path d="M30.947,39.272C46.42,58.908,67.61,32.463,90.147,43.284"/><path d="M30.947,39.272C46.42,58.908,66.518,34.646,88.691,46.195"/><path d="M30.947,39.272C46.42,58.908,65.355,36.793,87.14,49.057"/><path d="M30.947,39.272C46.42,58.908,64.123,38.901,85.497,51.868"/><path d="M30.947,39.272C46.42,58.908,62.823,40.967,83.763,54.623"/><path d="M30.947,39.272C46.42,58.908,61.456,42.99,81.941,57.321"/><path d="M30.947,39.272C46.42,58.908,60.024,44.968,80.032,59.957"/><path d="M30.947,39.272C46.42,58.908,58.528,46.898,78.038,62.531"/><path d="M30.947,39.272C46.42,58.908,56.971,48.778,75.961,65.038"/><path d="M30.947,39.272C46.42,58.908,55.353,50.607,73.804,67.476"/><path d="M30.947,39.272C46.42,58.908,53.676,52.382,71.569,69.842"/><path d="M30.947,39.272C46.42,58.908,51.943,54.101,69.257,72.135"/><path d="M30.947,39.272C46.42,58.908,50.155,55.763,66.873,74.351"/><path d="M30.947,39.272C46.42,58.908,48.313,57.366,64.417,76.488"/><path d="M30.947,39.272C46.42,58.908,46.42,58.908,61.893,78.544"/><path d="M30.947,39.272C46.42,58.908,44.478,60.388,59.304,80.517"/><path d="M30.947,39.272C46.42,58.908,42.489,61.804,56.652,82.405"/><path d="M30.947,39.272C46.42,58.908,40.455,63.154,53.94,84.205"/><path d="M30.947,39.272C46.42,58.908,38.378,64.437,51.17,85.916"/><path d="M30.947,39.272C46.42,58.908,36.26,65.652,48.346,87.536"/><path d="M30.947,39.272C46.42,58.908,34.104,66.798,45.472,89.064"/><path d="M30.947,39.272C46.42,58.908,31.911,67.872,42.548,90.497"/><path d="M30.947,39.272C46.42,58.908,29.685,68.875,39.58,91.834"/><path d="M30.947,39.272C46.42,58.908,27.428,69.805,36.57,93.073"/><path d="M30.947,39.272C46.42,58.908,25.141,70.661,33.521,94.214"/><path d="M30.947,39.272C46.42,58.908,22.828,71.442,30.437,95.255"/><path d="M30.947,39.272C46.42,58.908,20.49,72.147,27.32,96.196"/><path d="M30.947,39.272C46.42,58.908,18.131,72.775,24.175,97.034"/><path d="M30.947,39.272C46.42,58.908,15.753,73.327,21.003,97.769"/><path d="M30.947,39.272C46.42,58.908,13.357,73.801,17.81,98.401"/><path d="M-8.905,49.201C-13.357,73.801,8.527,74.514,11.37,99.352"/><path d="M-8.905,49.201C-13.357,73.801,6.097,74.752,8.13,99.669"/><path d="M-8.905,49.201C-13.357,73.801,3.661,74.911,4.881,99.881"/><path d="M-8.905,49.201C-13.357,73.801,1.221,74.99,1.628,99.987"/><path d="M-8.905,49.201C-13.357,73.801,-1.221,74.99,-1.628,99.987"/><path d="M-8.905,49.201C-13.357,73.801,-3.661,74.911,-4.881,99.881"/><path d="M-8.905,49.201C-13.357,73.801,-6.097,74.752,-8.13,99.669"/><path d="M-8.905,49.201C-13.357,73.801,-8.527,74.514,-11.37,99.352"/><path d="M-8.905,49.201C-13.357,73.801,-10.948,74.197,-14.598,98.929"/><path d="M-8.905,49.201C-13.357,73.801,-13.357,73.801,-17.81,98.401"/><path d="M-8.905,49.201C-13.357,73.801,-15.753,73.327,-21.003,97.769"/><path d="M-8.905,49.201C-13.357,73.801,-18.131,72.775,-24.175,97.034"/><path d="M-8.905,49.201C-13.357,73.801,-20.49,72.147,-27.32,96.196"/><path d="M-8.905,49.201C-13.357,73.801,-22.828,71.442,-30.437,95.255"/><path d="M-8.905,49.201C-13.357,73.801,-25.141,70.661,-33.521,94.214"/><path d="M-8.905,49.201C-13.357,73.801,-27.428,69.805,-36.57,93.073"/><path d="M-8.905,49.201C-13.357,73.801,-29.685,68.875,-39.58,91.834"/><path d="M-8.905,49.201C-13.357,73.801,-31.911,67.872,-42.548,90.497"/><path d="M-8.905,49.201C-13.357,73.801,-34.104,66.798,-45.472,89.064"/><path d="M-28.993,40.736C-43.489,61.104,-38.378,64.437,-51.17,85.916"/><path d="M-28.993,40.736C-43.489,61.104,-40.455,63.154,-53.94,84.205"/><path d="M-28.993,40.736C-43.489,61.104,-42.489,61.804,-56.652,82.405"/><path d="M-28.993,40.736C-43.489,61.104,-44.478,60.388,-59.304,80.517"/><path d="M-28.993,40.736C-43.489,61.104,-46.42,58.908,-61.893,78.544"/><path d="M-28.993,40.736C-43.489,61.104,-48.313,57.366,-64.417,76.488"/><path d="M-38.505,31.896C-57.757,47.844,-51.943,54.101,-69.257,72.135"/><path d="M-38.505,31.896C-57.757,47.844,-53.676,52.382,-71.569,69.842"/><path d="M-38.505,31.896C-57.757,47.844,-55.353,50.607,-73.804,67.476"/><path d="M-38.505,31.896C-57.757,47.844,-56.971,48.778,-75.961,65.038"/><path d="M-38.505,31.896C-57.757,47.844,-58.528,46.898,-78.038,62.531"/><path d="M-38.505,31.896C-57.757,47.844,-60.024,44.968,-80.032,59.957"/><path d="M-38.505,31.896C-57.757,47.844,-61.456,42.99,-81.941,57.321"/><path d="M-38.505,31.896C-57.757,47.844,-62.823,40.967,-83.763,54.623"/><path d="M-45.754,20.163C-68.631,30.245,-65.355,36.793,-87.14,49.057"/><path d="M-45.754,20.163C-68.631,30.245,-66.518,34.646,-88.691,46.195"/><path d="M-45.754,20.163C-68.631,30.245,-67.61,32.463,-90.147,43.284"/><path d="M-45.754,20.163C-68.631,30.245,-68.631,30.245,-91.508,40.326"/><path d="M-45.754,20.163C-68.631,30.245,-69.579,27.995,-92.772,37.326"/><path d="M-45.754,20.163C-68.631,30.245,-70.454,25.715,-93.938,34.287"/><path d="M-45.754,20.163C-68.631,30.245,-71.253,23.408,-95.005,31.211"/><path d="M-49.985,1.221C-74.978,1.831,-72.625,18.723,-96.834,24.964"/><path d="M-49.985,1.221C-74.978,1.831,-73.196,16.349,-97.595,21.798"/><path d="M-49.985,1.221C-74.978,1.831,-73.69,13.958,-98.253,18.61"/><path d="M-49.985,1.221C-74.978,1.831,-74.105,11.552,-98.807,15.402"/><path d="M-49.985,1.221C-74.978,1.831,-74.442,9.133,-99.256,12.178"/><path d="M-49.985,1.221C-74.978,1.831,-74.7,6.706,-99.6,8.941"/><path d="M-49.985,1.221C-74.978,1.831,-74.878,4.271,-99.838,5.694"/><path d="M-49.985,1.221C-74.978,1.831,-74.978,1.831,-99.97,2.441"/><path d="M-49.985,1.221C-74.978,1.831,-74.998,-0.61,-99.997,-0.814"/><path d="M-49.985,1.221C-74.978,1.831,-74.938,-3.051,-99.917,-4.068"/><path d="M-49.985,1.221C-74.978,1.831,-74.799,-5.489,-99.732,-7.318"/><path d="M-49.985,1.221C-74.978,1.831,-74.581,-7.921,-99.441,-10.561"/><path d="M-49.985,1.221C-74.978,1.831,-74.283,-10.344,-99.044,-13.792"/><path d="M-49.985,1.221C-74.978,1.831,-73.907,-12.756,-98.543,-17.008"/><path d="M-49.985,1.221C-74.978,1.831,-73.453,-15.155,-97.937,-20.207"/><path d="M-45.074,-21.642C-67.61,-32.463,-72.311,-19.902,-96.415,-26.536"/><path d="M-45.074,-21.642C-67.61,-32.463,-71.625,-22.245,-95.5,-29.661"/><path d="M-45.074,-21.642C-67.61,-32.463,-70.863,-24.565,-94.484,-32.753"/><path d="M-45.074,-21.642C-67.61,-32.463,-70.026,-26.859,-93.368,-35.811"/><path d="M-45.074,-21.642C-67.61,-32.463,-69.114,-29.124,-92.153,-38.832"/><path d="M-45.074,-21.642C-67.61,-32.463,-68.13,-31.358,-90.84,-41.811"/><path d="M-45.074,-21.642C-67.61,-32.463,-67.073,-33.559,-89.431,-44.745"/><path d="M-45.074,-21.642C-67.61,-32.463,-65.945,-35.724,-87.927,-47.632"/><path d="M-45.074,-21.642C-67.61,-32.463,-64.747,-37.852,-86.33,-50.469"/><path d="M-45.074,-21.642C-67.61,-32.463,-63.481,-39.939,-84.641,-53.252"/><path d="M-45.074,-21.642C-67.61,-32.463,-62.147,-41.984,-82.863,-55.979"/><path d="M-45.074,-21.642C-67.61,-32.463,-60.748,-43.985,-80.997,-58.647"/><path d="M-22.008,-44.896C-33.012,-67.344,-57.757,-47.844,-77.01,-63.793"/><path d="M-22.008,-44.896C-33.012,-67.344,-56.169,-49.699,-74.893,-66.265"/><path d="M-22.008,-44.896C-33.012,-67.344,-54.522,-51.501,-72.696,-68.668"/><path d="M-22.008,-44.896C-33.012,-67.344,-52.817,-53.248,-70.422,-70.998"/><path d="M-22.008,-44.896C-33.012,-67.344,-51.056,-54.939,-68.074,-73.252"/><path d="M-22.008,-44.896C-33.012,-67.344,-49.24,-56.572,-65.654,-75.429"/><path d="M-22.008,-44.896C-33.012,-67.344,-47.373,-58.145,-63.164,-77.526"/><path d="M-22.008,-44.896C-33.012,-67.344,-45.455,-59.656,-60.607,-79.541"/><path d="M-22.008,-44.896C-33.012,-67.344,-43.489,-61.104,-57.986,-81.472"/><path d="M-22.008,-44.896C-33.012,-67.344,-41.477,-62.487,-55.303,-83.316"/><path d="M-22.008,-44.896C-33.012,-67.344,-39.421,-63.804,-52.562,-85.072"/><path d="M-22.008,-44.896C-33.012,-67.344,-37.324,-65.053,-49.765,-86.738"/><path d="M-22.008,-44.896C-33.012,-67.344,-35.186,-66.234,-46.915,-88.312"/><path d="M-22.008,-44.896C-33.012,-67.344,-33.012,-67.344,-44.016,-89.792"/><path d="M-22.008,-44.896C-33.012,-67.344,-30.802,-68.383,-41.07,-91.177"/><path d="M-22.008,-44.896C-33.012,-67.344,-28.56,-69.349,-38.08,-92.466"/><path d="M-22.008,-44.896C-33.012,-67.344,-26.288,-70.242,-35.05,-93.656"/><path d="M-22.008,-44.896C-33.012,-67.344,-23.988,-71.061,-31.983,-94.747"/><path d="M-22.008,-44.896C-33.012,-67.344,-21.662,-71.804,-28.882,-95.738"/><path d="M-22.008,-44.896C-33.012,-67.344,-19.313,-72.471,-25.751,-96.628"/><path d="M-22.008,-44.896C-33.012,-67.344,-16.944,-73.061,-22.592,-97.415"/><path d="M-22.008,-44.896C-33.012,-67.344,-14.557,-73.574,-19.409,-98.098"/><path d="M-22.008,-44.896C-33.012,-67.344,-12.154,-74.009,-16.206,-98.678"/><path d="M-22.008,-44.896C-33.012,-67.344,-9.739,-74.365,-12.985,-99.153"/><path d="M-22.008,-44.896C-33.012,-67.344,-7.313,-74.643,-9.751,-99.523"/><path d="M-22.008,-44.896C-33.012,-67.344,-4.88,-74.841,-6.506,-99.788"/><path d="M-22.008,-44.896C-33.012,-67.344,-2.441,-74.96,-3.255,-99.947"/></g><g><circle transform="rotate(88.83419689119171) translate(0,0)" fill="#555" r="1"/><circle transform="rotate(-81.60621761658031) translate(50,0)" fill="#555" r="1"/><circle transform="rotate(-53.626943005181346) translate(50,0)" fill="#555" r="1"/><circle transform="rotate(-14.4559585492228) translate(50,0)" fill="#555" r="1"/><circle transform="rotate(13.523316062176178) translate(50,0)" fill="#555" r="1"/><circle transform="rotate(51.7616580310881) translate(50,0)" fill="#555" r="1"/><circle transform="rotate(100.25906735751295) translate(50,0)" fill="#555" r="1"/><circle transform="rotate(125.44041450777206) translate(50,0)" fill="#555" r="1"/><circle transform="rotate(140.36269430051811) translate(50,0)" fill="#555" r="1"/><circle transform="rotate(156.21761658031087) translate(50,0)" fill="#555" r="1"/><circle transform="rotate(178.60103626943004) translate(50,0)" fill="#555" r="1"/><circle transform="rotate(205.6476683937824) translate(50,0)" fill="#555" r="1"/><circle transform="rotate(243.8860103626942) translate(50,0)" fill="#555" r="1"/><circle transform="rotate(-88.13471502590673) translate(100,0)" fill="#999" r="1"/><circle transform="rotate(-86.26943005181347) translate(100,0)" fill="#999" r="1"/><circle transform="rotate(-84.4041450777202) translate(100,0)" fill="#999" r="1"/><circle transform="rotate(-82.53886010362694) translate(100,0)" fill="#999" r="1"/><circle transform="rotate(-80.67357512953367) translate(100,0)" fill="#999" r="1"/><circle transform="rotate(-78.80829015544042) translate(100,0)" fill="#999" r="1"/><circle transform="rotate(-76.94300518134715) translate(100,0)" fill="#999" r="1"/><circle transform="rotate(-75.07772020725389) translate(100,0)" fill="#999" r="1"/><circle transform="rotate(-71.34715025906736) translate(100,0)" fill="#999" r="1"/><circle transform="rotate(-69.48186528497409) translate(100,0)" fill="#999" r="1"/><circle transform="rotate(-67.61658031088083) translate(100,0)" fill="#999" r="1"/><circle transform="rotate(-65.75129533678756) translate(100,0)" fill="#999" r="1"/><circle transform="rotate(-63.88601036269431) translate(100,0)" fill="#999" r="1"/><circle transform="rotate(-62.020725388601036) translate(100,0)" fill="#999" r="1"/><circle transform="rotate(-60.155440414507765) translate(100,0)" fill="#999" r="1"/><circle transform="rotate(-58.29015544041451) translate(100,0)" fill="#999" r="1"/><circle transform="rotate(-56.424870466321245) translate(100,0)" fill="#999" r="1"/><circle transform="rotate(-54.559585492227974) translate(100,0)" fill="#999" r="1"/><circle transform="rotate(-52.69430051813472) translate(100,0)" fill="#999" r="1"/><circle transform="rotate(-50.829015544041454) translate(100,0)" fill="#999" r="1"/><circle transform="rotate(-48.96373056994818) translate(100,0)" fill="#999" r="1"/><circle transform="rotate(-47.098445595854926) translate(100,0)" fill="#999" r="1"/><circle transform="rotate(-45.23316062176166) translate(100,0)" fill="#999" r="1"/><circle transform="rotate(-43.3678756476684) translate(100,0)" fill="#999" r="1"/><circle transform="rotate(-41.502590673575135) translate(100,0)" fill="#999" r="1"/><circle transform="rotate(-39.63730569948187) translate(100,0)" fill="#999" r="1"/><circle transform="rotate(-37.77202072538861) translate(100,0)" fill="#999" r="1"/><circle transform="rotate(-35.90673575129534) translate(100,0)" fill="#999" r="1"/><circle transform="rotate(-32.17616580310881) translate(100,0)" fill="#999" r="1"/><circle transform="rotate(-30.310880829015538) translate(100,0)" fill="#999" r="1"/><circle transform="rotate(-28.44559585492228) translate(100,0)" fill="#999" r="1"/><circle transform="rotate(-26.58031088082901) translate(100,0)" fill="#999" r="1"/><circle transform="rotate(-24.715025906735747) translate(100,0)" fill="#999" r="1"/><circle transform="rotate(-22.84974093264249) translate(100,0)" fill="#999" r="1"/><circle transform="rotate(-20.98445595854922) translate(100,0)" fill="#999" r="1"/><circle transform="rotate(-19.11917098445595) translate(100,0)" fill="#999" r="1"/><circle transform="rotate(-17.25388601036269) translate(100,0)" fill="#999" r="1"/><circle transform="rotate(-15.388601036269435) translate(100,0)" fill="#999" r="1"/><circle transform="rotate(-13.523316062176164) translate(100,0)" fill="#999" r="1"/><circle transform="rotate(-11.658031088082907) translate(100,0)" fill="#999" r="1"/><circle transform="rotate(-9.792746113989637) translate(100,0)" fill="#999" r="1"/><circle transform="rotate(-7.927461139896366) translate(100,0)" fill="#999" r="1"/><circle transform="rotate(-6.062176165803123) translate(100,0)" fill="#999" r="1"/><circle transform="rotate(-4.196891191709852) translate(100,0)" fill="#999" r="1"/><circle transform="rotate(-2.3316062176165673) translate(100,0)" fill="#999" r="1"/><circle transform="rotate(-0.4663212435233248) translate(100,0)" fill="#999" r="1"/><circle transform="rotate(1.398963730569946) translate(100,0)" fill="#999" r="1"/><circle transform="rotate(3.2642487046632027) translate(100,0)" fill="#999" r="1"/><circle transform="rotate(6.99481865284973) translate(100,0)" fill="#999" r="1"/><circle transform="rotate(8.860103626943001) translate(100,0)" fill="#999" r="1"/><circle transform="rotate(10.725388601036258) translate(100,0)" fill="#999" r="1"/><circle transform="rotate(12.590673575129529) translate(100,0)" fill="#999" r="1"/><circle transform="rotate(14.455958549222785) translate(100,0)" fill="#999" r="1"/><circle transform="rotate(16.321243523316056) translate(100,0)" fill="#999" r="1"/><circle transform="rotate(18.186528497409327) translate(100,0)" fill="#999" r="1"/><circle transform="rotate(20.051813471502584) translate(100,0)" fill="#999" r="1"/><circle transform="rotate(23.782383419689126) translate(100,0)" fill="#999" r="1"/><circle transform="rotate(25.647668393782382) translate(100,0)" fill="#999" r="1"/><circle transform="rotate(27.51295336787564) translate(100,0)" fill="#999" r="1"/><circle transform="rotate(29.378238341968924) translate(100,0)" fill="#999" r="1"/><circle transform="rotate(31.24352331606218) translate(100,0)" fill="#999" r="1"/><circle transform="rotate(33.10880829015544) translate(100,0)" fill="#999" r="1"/><circle transform="rotate(34.97409326424872) translate(100,0)" fill="#999" r="1"/><circle transform="rotate(36.83937823834198) translate(100,0)" fill="#999" r="1"/><circle transform="rotate(38.704663212435236) translate(100,0)" fill="#999" r="1"/><circle transform="rotate(40.56994818652851) translate(100,0)" fill="#999" r="1"/><circle transform="rotate(42.43523316062175) translate(100,0)" fill="#999" r="1"/><circle transform="rotate(44.30051813471502) translate(100,0)" fill="#999" r="1"/><circle transform="rotate(46.16580310880829) translate(100,0)" fill="#999" r="1"/><circle transform="rotate(48.03108808290156) translate(100,0)" fill="#999" r="1"/><circle transform="rotate(49.896373056994804) translate(100,0)" fill="#999" r="1"/><circle transform="rotate(51.7616580310881) translate(100,0)" fill="#999" r="1"/><circle transform="rotate(53.626943005181346) translate(100,0)" fill="#999" r="1"/><circle transform="rotate(55.49222797927462) translate(100,0)" fill="#999" r="1"/><circle transform="rotate(57.35751295336789) translate(100,0)" fill="#999" r="1"/><circle transform="rotate(59.22279792746113) translate(100,0)" fill="#999" r="1"/><circle transform="rotate(61.0880829015544) translate(100,0)" fill="#999" r="1"/><circle transform="rotate(62.95336787564767) translate(100,0)" fill="#999" r="1"/><circle transform="rotate(64.81865284974094) translate(100,0)" fill="#999" r="1"/><circle transform="rotate(66.68393782383419) translate(100,0)" fill="#999" r="1"/><circle transform="rotate(68.54922279792748) translate(100,0)" fill="#999" r="1"/><circle transform="rotate(70.41450777202073) translate(100,0)" fill="#999" r="1"/><circle transform="rotate(72.27979274611397) translate(100,0)" fill="#999" r="1"/><circle transform="rotate(74.14507772020727) translate(100,0)" fill="#999" r="1"/><circle transform="rotate(76.01036269430051) translate(100,0)" fill="#999" r="1"/><circle transform="rotate(77.87564766839375) translate(100,0)" fill="#999" r="1"/><circle transform="rotate(79.74093264248705) translate(100,0)" fill="#999" r="1"/><circle transform="rotate(83.47150259067357) translate(100,0)" fill="#999" r="1"/><circle transform="rotate(85.33678756476687) translate(100,0)" fill="#999" r="1"/><circle transform="rotate(87.20207253886011) translate(100,0)" fill="#999" r="1"/><circle transform="rotate(89.06735751295335) translate(100,0)" fill="#999" r="1"/><circle transform="rotate(90.93264248704665) translate(100,0)" fill="#999" r="1"/><circle transform="rotate(92.79792746113989) translate(100,0)" fill="#999" r="1"/><circle transform="rotate(94.66321243523319) translate(100,0)" fill="#999" r="1"/><circle transform="rotate(96.5284974093264) translate(100,0)" fill="#999" r="1"/><circle transform="rotate(98.3937823834197) translate(100,0)" fill="#999" r="1"/><circle transform="rotate(100.25906735751295) translate(100,0)" fill="#999" r="1"/><circle transform="rotate(102.12435233160622) translate(100,0)" fill="#999" r="1"/><circle transform="rotate(103.98963730569946) translate(100,0)" fill="#999" r="1"/><circle transform="rotate(105.85492227979276) translate(100,0)" fill="#999" r="1"/><circle transform="rotate(107.720207253886) translate(100,0)" fill="#999" r="1"/><circle transform="rotate(109.58549222797927) translate(100,0)" fill="#999" r="1"/><circle transform="rotate(111.45077720207252) translate(100,0)" fill="#999" r="1"/><circle transform="rotate(113.31606217616581) translate(100,0)" fill="#999" r="1"/><circle transform="rotate(115.18134715025906) translate(100,0)" fill="#999" r="1"/><circle transform="rotate(117.04663212435236) translate(100,0)" fill="#999" r="1"/><circle transform="rotate(120.77720207253887) translate(100,0)" fill="#999" r="1"/><circle transform="rotate(122.64248704663211) translate(100,0)" fill="#999" r="1"/><circle transform="rotate(124.50777202072541) translate(100,0)" fill="#999" r="1"/><circle transform="rotate(126.37305699481865) translate(100,0)" fill="#999" r="1"/><circle transform="rotate(128.23834196891195) translate(100,0)" fill="#999" r="1"/><circle transform="rotate(130.10362694300517) translate(100,0)" fill="#999" r="1"/><circle transform="rotate(133.8341968911917) translate(100,0)" fill="#999" r="1"/><circle transform="rotate(135.699481865285) translate(100,0)" fill="#999" r="1"/><circle transform="rotate(137.56476683937825) translate(100,0)" fill="#999" r="1"/><circle transform="rotate(139.43005181347155) translate(100,0)" fill="#999" r="1"/><circle transform="rotate(141.29533678756476) translate(100,0)" fill="#999" r="1"/><circle transform="rotate(143.160621761658) translate(100,0)" fill="#999" r="1"/><circle transform="rotate(145.02590673575128) translate(100,0)" fill="#999" r="1"/><circle transform="rotate(146.89119170984455) translate(100,0)" fill="#999" r="1"/><circle transform="rotate(150.62176165803115) translate(100,0)" fill="#999" r="1"/><circle transform="rotate(152.48704663212436) translate(100,0)" fill="#999" r="1"/><circle transform="rotate(154.35233160621758) translate(100,0)" fill="#999" r="1"/><circle transform="rotate(156.21761658031087) translate(100,0)" fill="#999" r="1"/><circle transform="rotate(158.08290155440415) translate(100,0)" fill="#999" r="1"/><circle transform="rotate(159.94818652849744) translate(100,0)" fill="#999" r="1"/><circle transform="rotate(161.8134715025907) translate(100,0)" fill="#999" r="1"/><circle transform="rotate(165.54404145077717) translate(100,0)" fill="#999" r="1"/><circle transform="rotate(167.40932642487047) translate(100,0)" fill="#999" r="1"/><circle transform="rotate(169.27461139896377) translate(100,0)" fill="#999" r="1"/><circle transform="rotate(171.139896373057) translate(100,0)" fill="#999" r="1"/><circle transform="rotate(173.0051813471503) translate(100,0)" fill="#999" r="1"/><circle transform="rotate(174.8704663212435) translate(100,0)" fill="#999" r="1"/><circle transform="rotate(176.73575129533674) translate(100,0)" fill="#999" r="1"/><circle transform="rotate(178.60103626943004) translate(100,0)" fill="#999" r="1"/><circle transform="rotate(180.46632124352334) translate(100,0)" fill="#999" r="1"/><circle transform="rotate(182.33160621761658) translate(100,0)" fill="#999" r="1"/><circle transform="rotate(184.19689119170988) translate(100,0)" fill="#999" r="1"/><circle transform="rotate(186.06217616580312) translate(100,0)" fill="#999" r="1"/><circle transform="rotate(187.9274611398963) translate(100,0)" fill="#999" r="1"/><circle transform="rotate(189.7927461139896) translate(100,0)" fill="#999" r="1"/><circle transform="rotate(191.6580310880829) translate(100,0)" fill="#999" r="1"/><circle transform="rotate(195.38860103626945) translate(100,0)" fill="#999" r="1"/><circle transform="rotate(197.2538860103627) translate(100,0)" fill="#999" r="1"/><circle transform="rotate(199.11917098445593) translate(100,0)" fill="#999" r="1"/><circle transform="rotate(200.98445595854923) translate(100,0)" fill="#999" r="1"/><circle transform="rotate(202.84974093264248) translate(100,0)" fill="#999" r="1"/><circle transform="rotate(204.71502590673578) translate(100,0)" fill="#999" r="1"/><circle transform="rotate(206.58031088082907) translate(100,0)" fill="#999" r="1"/><circle transform="rotate(208.44559585492226) translate(100,0)" fill="#999" r="1"/><circle transform="rotate(210.3108808290155) translate(100,0)" fill="#999" r="1"/><circle transform="rotate(212.1761658031088) translate(100,0)" fill="#999" r="1"/><circle transform="rotate(214.04145077720204) translate(100,0)" fill="#999" r="1"/><circle transform="rotate(215.90673575129534) translate(100,0)" fill="#999" r="1"/><circle transform="rotate(219.63730569948189) translate(100,0)" fill="#999" r="1"/><circle transform="rotate(221.50259067357513) translate(100,0)" fill="#999" r="1"/><circle transform="rotate(223.36787564766837) translate(100,0)" fill="#999" r="1"/><circle transform="rotate(225.23316062176167) translate(100,0)" fill="#999" r="1"/><circle transform="rotate(227.09844559585497) translate(100,0)" fill="#999" r="1"/><circle transform="rotate(228.9637305699482) translate(100,0)" fill="#999" r="1"/><circle transform="rotate(230.82901554404145) translate(100,0)" fill="#999" r="1"/><circle transform="rotate(232.6943005181347) translate(100,0)" fill="#999" r="1"/><circle transform="rotate(234.55958549222794) translate(100,0)" fill="#999" r="1"/><circle transform="rotate(236.42487046632124) translate(100,0)" fill="#999" r="1"/><circle transform="rotate(238.29015544041454) translate(100,0)" fill="#999" r="1"/><circle transform="rotate(240.15544041450778) translate(100,0)" fill="#999" r="1"/><circle transform="rotate(242.02072538860102) translate(100,0)" fill="#999" r="1"/><circle transform="rotate(243.8860103626942) translate(100,0)" fill="#999" r="1"/><circle transform="rotate(245.7512953367875) translate(100,0)" fill="#999" r="1"/><circle transform="rotate(247.6165803108808) translate(100,0)" fill="#999" r="1"/><circle transform="rotate(249.4818652849741) translate(100,0)" fill="#999" r="1"/><circle transform="rotate(251.3471502590674) translate(100,0)" fill="#999" r="1"/><circle transform="rotate(253.2124352331606) translate(100,0)" fill="#999" r="1"/><circle transform="rotate(255.07772020725383) translate(100,0)" fill="#999" r="1"/><circle transform="rotate(256.94300518134713) translate(100,0)" fill="#999" r="1"/><circle transform="rotate(258.80829015544043) translate(100,0)" fill="#999" r="1"/><circle transform="rotate(260.67357512953373) translate(100,0)" fill="#999" r="1"/><circle transform="rotate(262.538860103627) translate(100,0)" fill="#999" r="1"/><circle transform="rotate(264.4041450777202) translate(100,0)" fill="#999" r="1"/><circle transform="rotate(266.2694300518134) translate(100,0)" fill="#999" r="1"/><circle transform="rotate(268.1347150259067) translate(100,0)" fill="#999" r="1"/></g><g stroke-linejoin="round" stroke-width="1.2"><text transform="rotate(88.83419689119171) translate(0,0) rotate(0)" dy="0.35em" x="-6" text-anchor="end" paint-order="stroke" stroke="white" fill="currentColor">Podcasts</text><text transform="rotate(-81.60621761658031) translate(50,0) rotate(0)" dy="0.35em" x="-6" text-anchor="end" paint-order="stroke" stroke="white" fill="currentColor">AI</text><text transform="rotate(-53.626943005181346) translate(50,0) rotate(0)" dy="0.35em" x="-6" text-anchor="end" paint-order="stroke" stroke="white" fill="currentColor">Biology &amp; Nature</text><text transform="rotate(-14.4559585492228) translate(50,0) rotate(0)" dy="0.35em" x="-6" text-anchor="end" paint-order="stroke" stroke="white" fill="currentColor">Business</text><text transform="rotate(13.523316062176178) translate(50,0) rotate(0)" dy="0.35em" x="-6" text-anchor="end" paint-order="stroke" stroke="white" fill="currentColor">Career</text><text transform="rotate(51.7616580310881) translate(50,0) rotate(0)" dy="0.35em" x="-6" text-anchor="end" paint-order="stroke" stroke="white" fill="currentColor">Design &amp; Art</text><text transform="rotate(100.25906735751295) translate(50,0) rotate(180)" dy="0.35em" x="6" text-anchor="start" paint-order="stroke" stroke="white" fill="currentColor">Education</text><text transform="rotate(125.44041450777206) translate(50,0) rotate(180)" dy="0.35em" x="6" text-anchor="start" paint-order="stroke" stroke="white" fill="currentColor">Health</text><text transform="rotate(140.36269430051811) translate(50,0) rotate(180)" dy="0.35em" x="6" text-anchor="start" paint-order="stroke" stroke="white" fill="currentColor">News</text><text transform="rotate(156.21761658031087) translate(50,0) rotate(180)" dy="0.35em" x="6" text-anchor="start" paint-order="stroke" stroke="white" fill="currentColor">Others</text><text transform="rotate(178.60103626943004) translate(50,0) rotate(180)" dy="0.35em" x="6" text-anchor="start" paint-order="stroke" stroke="white" fill="currentColor">Science</text><text transform="rotate(205.6476683937824) translate(50,0) rotate(180)" dy="0.35em" x="6" text-anchor="start" paint-order="stroke" stroke="white" fill="currentColor">Startup &amp; VC</text><text transform="rotate(243.8860103626942) translate(50,0) rotate(180)" dy="0.35em" x="6" text-anchor="start" paint-order="stroke" stroke="white" fill="currentColor">Technology</text><text transform="rotate(-88.13471502590673) translate(100,0) rotate(0)" dy="0.35em" x="6" text-anchor="start" paint-order="stroke" stroke="white" fill="currentColor">AI4Dラジオ - デザインが動...</text><text transform="rotate(-86.26943005181347) translate(100,0) rotate(0)" dy="0.35em" x="6" text-anchor="start" paint-order="stroke" stroke="white" fill="currentColor">AI未来話</text><text transform="rotate(-84.4041450777202) translate(100,0) rotate(0)" dy="0.35em" x="6" text-anchor="start" paint-order="stroke" stroke="white" fill="currentColor">Generative Now |...</text><text transform="rotate(-82.53886010362694) translate(100,0) rotate(0)" dy="0.35em" x="6" text-anchor="start" paint-order="stroke" stroke="white" fill="currentColor">No Priors: Artif...</text><text transform="rotate(-80.67357512953367) translate(100,0) rotate(0)" dy="0.35em" x="6" text-anchor="start" paint-order="stroke" stroke="white" fill="currentColor">Podcast by Yuka ...</text><text transform="rotate(-78.80829015544042) translate(100,0) rotate(0)" dy="0.35em" x="6" text-anchor="start" paint-order="stroke" stroke="white" fill="currentColor">regonn&amp;curry.fm ...</text><text transform="rotate(-76.94300518134715) translate(100,0) rotate(0)" dy="0.35em" x="6" text-anchor="start" paint-order="stroke" stroke="white" fill="currentColor">ながらAIラジオ</text><text transform="rotate(-75.07772020725389) translate(100,0) rotate(0)" dy="0.35em" x="6" text-anchor="start" paint-order="stroke" stroke="white" fill="currentColor">耳で学ぶAI、ロボシンク</text><text transform="rotate(-71.34715025906736) translate(100,0) rotate(0)" dy="0.35em" x="6" text-anchor="start" paint-order="stroke" stroke="white" fill="currentColor">All Creatures Po...</text><text transform="rotate(-69.48186528497409) translate(100,0) rotate(0)" dy="0.35em" x="6" text-anchor="start" paint-order="stroke" stroke="white" fill="currentColor">Patagonia Radio</text><text transform="rotate(-67.61658031088083) translate(100,0) rotate(0)" dy="0.35em" x="6" text-anchor="start" paint-order="stroke" stroke="white" fill="currentColor">SAMURAI養鶏</text><text transform="rotate(-65.75129533678756) translate(100,0) rotate(0)" dy="0.35em" x="6" text-anchor="start" paint-order="stroke" stroke="white" fill="currentColor">Smologies with A...</text><text transform="rotate(-63.88601036269431) translate(100,0) rotate(0)" dy="0.35em" x="6" text-anchor="start" paint-order="stroke" stroke="white" fill="currentColor">The Science of B...</text><text transform="rotate(-62.020725388601036) translate(100,0) rotate(0)" dy="0.35em" x="6" text-anchor="start" paint-order="stroke" stroke="white" fill="currentColor">Weekend Birder</text><text transform="rotate(-60.155440414507765) translate(100,0) rotate(0)" dy="0.35em" x="6" text-anchor="start" paint-order="stroke" stroke="white" fill="currentColor">Whale Tales Podc...</text><text transform="rotate(-58.29015544041451) translate(100,0) rotate(0)" dy="0.35em" x="6" text-anchor="start" paint-order="stroke" stroke="white" fill="currentColor">YAMAP ポッドキャスト</text><text transform="rotate(-56.424870466321245) translate(100,0) rotate(0)" dy="0.35em" x="6" text-anchor="start" paint-order="stroke" stroke="white" fill="currentColor">YUKA on SAFARI</text><text transform="rotate(-54.559585492227974) translate(100,0) rotate(0)" dy="0.35em" x="6" text-anchor="start" paint-order="stroke" stroke="white" fill="currentColor">すごい進化ラジオ</text><text transform="rotate(-52.69430051813472) translate(100,0) rotate(0)" dy="0.35em" x="6" text-anchor="start" paint-order="stroke" stroke="white" fill="currentColor">ゼロからはじめる独立農家〜命の時...</text><text transform="rotate(-50.829015544041454) translate(100,0) rotate(0)" dy="0.35em" x="6" text-anchor="start" paint-order="stroke" stroke="white" fill="currentColor">ノウカノタネ</text><text transform="rotate(-48.96373056994818) translate(100,0) rotate(0)" dy="0.35em" x="6" text-anchor="start" paint-order="stroke" stroke="white" fill="currentColor">ベジフル大百科　The CROP...</text><text transform="rotate(-47.098445595854926) translate(100,0) rotate(0)" dy="0.35em" x="6" text-anchor="start" paint-order="stroke" stroke="white" fill="currentColor">小農ラジオ</text><text transform="rotate(-45.23316062176166) translate(100,0) rotate(0)" dy="0.35em" x="6" text-anchor="start" paint-order="stroke" stroke="white" fill="currentColor">植物マナブラジオ</text><text transform="rotate(-43.3678756476684) translate(100,0) rotate(0)" dy="0.35em" x="6" text-anchor="start" paint-order="stroke" stroke="white" fill="currentColor">生きもの地球ツアー</text><text transform="rotate(-41.502590673575135) translate(100,0) rotate(0)" dy="0.35em" x="6" text-anchor="start" paint-order="stroke" stroke="white" fill="currentColor">生物をざっくり紹介するラジオ　〜...</text><text transform="rotate(-39.63730569948187) translate(100,0) rotate(0)" dy="0.35em" x="6" text-anchor="start" paint-order="stroke" stroke="white" fill="currentColor">生物をざっくり紹介するラジオ　〜...</text><text transform="rotate(-37.77202072538861) translate(100,0) rotate(0)" dy="0.35em" x="6" text-anchor="start" paint-order="stroke" stroke="white" fill="currentColor">生物をざっくり紹介するラジオ　〜...</text><text transform="rotate(-35.90673575129534) translate(100,0) rotate(0)" dy="0.35em" x="6" text-anchor="start" paint-order="stroke" stroke="white" fill="currentColor">腸内細菌相談室</text><text transform="rotate(-32.17616580310881) translate(100,0) rotate(0)" dy="0.35em" x="6" text-anchor="start" paint-order="stroke" stroke="white" fill="currentColor">Business Wars</text><text transform="rotate(-30.310880829015538) translate(100,0) rotate(0)" dy="0.35em" x="6" text-anchor="start" paint-order="stroke" stroke="white" fill="currentColor">CEREAL TALK / シリ...</text><text transform="rotate(-28.44559585492228) translate(100,0) rotate(0)" dy="0.35em" x="6" text-anchor="start" paint-order="stroke" stroke="white" fill="currentColor">Culture First wi...</text><text transform="rotate(-26.58031088082901) translate(100,0) rotate(0)" dy="0.35em" x="6" text-anchor="start" paint-order="stroke" stroke="white" fill="currentColor">Equity</text><text transform="rotate(-24.715025906735747) translate(100,0) rotate(0)" dy="0.35em" x="6" text-anchor="start" paint-order="stroke" stroke="white" fill="currentColor">G1知見録Podcast</text><text transform="rotate(-22.84974093264249) translate(100,0) rotate(0)" dy="0.35em" x="6" text-anchor="start" paint-order="stroke" stroke="white" fill="currentColor">Lenny's Podcast:...</text><text transform="rotate(-20.98445595854922) translate(100,0) rotate(0)" dy="0.35em" x="6" text-anchor="start" paint-order="stroke" stroke="white" fill="currentColor">Planet Money</text><text transform="rotate(-19.11917098445595) translate(100,0) rotate(0)" dy="0.35em" x="6" text-anchor="start" paint-order="stroke" stroke="white" fill="currentColor">The Colin and Sa...</text><text transform="rotate(-17.25388601036269) translate(100,0) rotate(0)" dy="0.35em" x="6" text-anchor="start" paint-order="stroke" stroke="white" fill="currentColor">Think Fast Talk ...</text><text transform="rotate(-15.388601036269435) translate(100,0) rotate(0)" dy="0.35em" x="6" text-anchor="start" paint-order="stroke" stroke="white" fill="currentColor">Zero Topic - ゼロト...</text><text transform="rotate(-13.523316062176164) translate(100,0) rotate(0)" dy="0.35em" x="6" text-anchor="start" paint-order="stroke" stroke="white" fill="currentColor">【本音茶会】じっくりブランディン...</text><text transform="rotate(-11.658031088082907) translate(100,0) rotate(0)" dy="0.35em" x="6" text-anchor="start" paint-order="stroke" stroke="white" fill="currentColor">あいだのハナシ - 社会課題をビ...</text><text transform="rotate(-9.792746113989637) translate(100,0) rotate(0)" dy="0.35em" x="6" text-anchor="start" paint-order="stroke" stroke="white" fill="currentColor">オトマーケ｜音声とマーケティング...</text><text transform="rotate(-7.927461139896366) translate(100,0) rotate(0)" dy="0.35em" x="6" text-anchor="start" paint-order="stroke" stroke="white" fill="currentColor">グロービス経営大学院「ちょっと差...</text><text transform="rotate(-6.062176165803123) translate(100,0) rotate(0)" dy="0.35em" x="6" text-anchor="start" paint-order="stroke" stroke="white" fill="currentColor">プロダクトストーリー</text><text transform="rotate(-4.196891191709852) translate(100,0) rotate(0)" dy="0.35em" x="6" text-anchor="start" paint-order="stroke" stroke="white" fill="currentColor">ボーダレス・ラジオ | 面白いぞ...</text><text transform="rotate(-2.3316062176165673) translate(100,0) rotate(0)" dy="0.35em" x="6" text-anchor="start" paint-order="stroke" stroke="white" fill="currentColor">ポッドキャスト Export</text><text transform="rotate(-0.4663212435233248) translate(100,0) rotate(0)" dy="0.35em" x="6" text-anchor="start" paint-order="stroke" stroke="white" fill="currentColor">才能が見つかれば、仕事も人生もう...</text><text transform="rotate(1.398963730569946) translate(100,0) rotate(0)" dy="0.35em" x="6" text-anchor="start" paint-order="stroke" stroke="white" fill="currentColor">東京ビジネスハブ</text><text transform="rotate(3.2642487046632027) translate(100,0) rotate(0)" dy="0.35em" x="6" text-anchor="start" paint-order="stroke" stroke="white" fill="currentColor">深津貴之のGUILD TALK</text><text transform="rotate(6.99481865284973) translate(100,0) rotate(0)" dy="0.35em" x="6" text-anchor="start" paint-order="stroke" stroke="white" fill="currentColor">London Tech Talk</text><text transform="rotate(8.860103626943001) translate(100,0) rotate(0)" dy="0.35em" x="6" text-anchor="start" paint-order="stroke" stroke="white" fill="currentColor">Ray Wow FM</text><text transform="rotate(10.725388601036258) translate(100,0) rotate(0)" dy="0.35em" x="6" text-anchor="start" paint-order="stroke" stroke="white" fill="currentColor">Your Life After ...</text><text transform="rotate(12.590673575129529) translate(100,0) rotate(0)" dy="0.35em" x="6" text-anchor="start" paint-order="stroke" stroke="white" fill="currentColor">すしかな夫婦の海外ぐらし</text><text transform="rotate(14.455958549222785) translate(100,0) rotate(0)" dy="0.35em" x="6" text-anchor="start" paint-order="stroke" stroke="white" fill="currentColor">ハヤカワ五味の「なに考えてるの〜...</text><text transform="rotate(16.321243523316056) translate(100,0) rotate(0)" dy="0.35em" x="6" text-anchor="start" paint-order="stroke" stroke="white" fill="currentColor">海外ではたらく私たち20’s</text><text transform="rotate(18.186528497409327) translate(100,0) rotate(0)" dy="0.35em" x="6" text-anchor="start" paint-order="stroke" stroke="white" fill="currentColor">海外で働くことについて知れる番組...</text><text transform="rotate(20.051813471502584) translate(100,0) rotate(0)" dy="0.35em" x="6" text-anchor="start" paint-order="stroke" stroke="white" fill="currentColor">海外移住channel</text><text transform="rotate(23.782383419689126) translate(100,0) rotate(0)" dy="0.35em" x="6" text-anchor="start" paint-order="stroke" stroke="white" fill="currentColor">AXIS DESIGN RADI...</text><text transform="rotate(25.647668393782382) translate(100,0) rotate(0)" dy="0.35em" x="6" text-anchor="start" paint-order="stroke" stroke="white" fill="currentColor">Automagic Podcas...</text><text transform="rotate(27.51295336787564) translate(100,0) rotate(0)" dy="0.35em" x="6" text-anchor="start" paint-order="stroke" stroke="white" fill="currentColor">BTRAXのCEOによるサンフラ...</text><text transform="rotate(29.378238341968924) translate(100,0) rotate(0)" dy="0.35em" x="6" text-anchor="start" paint-order="stroke" stroke="white" fill="currentColor">Behind the Craft</text><text transform="rotate(31.24352331606218) translate(100,0) rotate(0)" dy="0.35em" x="6" text-anchor="start" paint-order="stroke" stroke="white" fill="currentColor">Beyond UX Design</text><text transform="rotate(33.10880829015544) translate(100,0) rotate(0)" dy="0.35em" x="6" text-anchor="start" paint-order="stroke" stroke="white" fill="currentColor">DESIGNTIDE TOKYO</text><text transform="rotate(34.97409326424872) translate(100,0) rotate(0)" dy="0.35em" x="6" text-anchor="start" paint-order="stroke" stroke="white" fill="currentColor">Design Better</text><text transform="rotate(36.83937823834198) translate(100,0) rotate(0)" dy="0.35em" x="6" text-anchor="start" paint-order="stroke" stroke="white" fill="currentColor">Design Tracks</text><text transform="rotate(38.704663212435236) translate(100,0) rotate(0)" dy="0.35em" x="6" text-anchor="start" paint-order="stroke" stroke="white" fill="currentColor">Experience Desig...</text><text transform="rotate(40.56994818652851) translate(100,0) rotate(0)" dy="0.35em" x="6" text-anchor="start" paint-order="stroke" stroke="white" fill="currentColor">Finding Our Way</text><text transform="rotate(42.43523316062175) translate(100,0) rotate(0)" dy="0.35em" x="6" text-anchor="start" paint-order="stroke" stroke="white" fill="currentColor">Future of UX | Y...</text><text transform="rotate(44.30051813471502) translate(100,0) rotate(0)" dy="0.35em" x="6" text-anchor="start" paint-order="stroke" stroke="white" fill="currentColor">Honest UX Talks</text><text transform="rotate(46.16580310880829) translate(100,0) rotate(0)" dy="0.35em" x="6" text-anchor="start" paint-order="stroke" stroke="white" fill="currentColor">NN/g UX Podcast </text><text transform="rotate(48.03108808290156) translate(100,0) rotate(0)" dy="0.35em" x="6" text-anchor="start" paint-order="stroke" stroke="white" fill="currentColor">Sera Tajima Podc...</text><text transform="rotate(49.896373056994804) translate(100,0) rotate(0)" dy="0.35em" x="6" text-anchor="start" paint-order="stroke" stroke="white" fill="currentColor">Takram Cast</text><text transform="rotate(51.7616580310881) translate(100,0) rotate(0)" dy="0.35em" x="6" text-anchor="start" paint-order="stroke" stroke="white" fill="currentColor">The Informed Lif...</text><text transform="rotate(53.626943005181346) translate(100,0) rotate(0)" dy="0.35em" x="6" text-anchor="start" paint-order="stroke" stroke="white" fill="currentColor">UX Collective</text><text transform="rotate(55.49222797927462) translate(100,0) rotate(0)" dy="0.35em" x="6" text-anchor="start" paint-order="stroke" stroke="white" fill="currentColor">YOWATARI RADIO</text><text transform="rotate(57.35751295336789) translate(100,0) rotate(0)" dy="0.35em" x="6" text-anchor="start" paint-order="stroke" stroke="white" fill="currentColor">YUMEMIアート×デザイン</text><text transform="rotate(59.22279792746113) translate(100,0) rotate(0)" dy="0.35em" x="6" text-anchor="start" paint-order="stroke" stroke="white" fill="currentColor">resize.fm</text><text transform="rotate(61.0880829015544) translate(100,0) rotate(0)" dy="0.35em" x="6" text-anchor="start" paint-order="stroke" stroke="white" fill="currentColor">【農業に売る力を！】農業デザイン...</text><text transform="rotate(62.95336787564767) translate(100,0) rotate(0)" dy="0.35em" x="6" text-anchor="start" paint-order="stroke" stroke="white" fill="currentColor">お元気ですか.fm</text><text transform="rotate(64.81865284974094) translate(100,0) rotate(0)" dy="0.35em" x="6" text-anchor="start" paint-order="stroke" stroke="white" fill="currentColor">むいのはなし</text><text transform="rotate(66.68393782383419) translate(100,0) rotate(0)" dy="0.35em" x="6" text-anchor="start" paint-order="stroke" stroke="white" fill="currentColor">アートのミーム</text><text transform="rotate(68.54922279792748) translate(100,0) rotate(0)" dy="0.35em" x="6" text-anchor="start" paint-order="stroke" stroke="white" fill="currentColor">デザぽ／デザインがしたい人のため...</text><text transform="rotate(70.41450777202073) translate(100,0) rotate(0)" dy="0.35em" x="6" text-anchor="start" paint-order="stroke" stroke="white" fill="currentColor">デザインの手前</text><text transform="rotate(72.27979274611397) translate(100,0) rotate(0)" dy="0.35em" x="6" text-anchor="start" paint-order="stroke" stroke="white" fill="currentColor">デザインシテン</text><text transform="rotate(74.14507772020727) translate(100,0) rotate(0)" dy="0.35em" x="6" text-anchor="start" paint-order="stroke" stroke="white" fill="currentColor">今日のデザインニュース</text><text transform="rotate(76.01036269430051) translate(100,0) rotate(0)" dy="0.35em" x="6" text-anchor="start" paint-order="stroke" stroke="white" fill="currentColor">原研哉 Kenya HARA</text><text transform="rotate(77.87564766839375) translate(100,0) rotate(0)" dy="0.35em" x="6" text-anchor="start" paint-order="stroke" stroke="white" fill="currentColor">舘山佳奈のUXデザインチャンネル</text><text transform="rotate(79.74093264248705) translate(100,0) rotate(0)" dy="0.35em" x="6" text-anchor="start" paint-order="stroke" stroke="white" fill="currentColor">鈴木敏夫のジブリ汗まみれ</text><text transform="rotate(83.47150259067357) translate(100,0) rotate(0)" dy="0.35em" x="6" text-anchor="start" paint-order="stroke" stroke="white" fill="currentColor">All Ears English...</text><text transform="rotate(85.33678756476687) translate(100,0) rotate(0)" dy="0.35em" x="6" text-anchor="start" paint-order="stroke" stroke="white" fill="currentColor">Business English...</text><text transform="rotate(87.20207253886011) translate(100,0) rotate(0)" dy="0.35em" x="6" text-anchor="start" paint-order="stroke" stroke="white" fill="currentColor">FEEL GOOD TV on ...</text><text transform="rotate(89.06735751295335) translate(100,0) rotate(0)" dy="0.35em" x="6" text-anchor="start" paint-order="stroke" stroke="white" fill="currentColor">Hapa英会話 Podcast</text><text transform="rotate(90.93264248704665) translate(100,0) rotate(180)" dy="0.35em" x="-6" text-anchor="end" paint-order="stroke" stroke="white" fill="currentColor">How to Be a Bett...</text><text transform="rotate(92.79792746113989) translate(100,0) rotate(180)" dy="0.35em" x="-6" text-anchor="end" paint-order="stroke" stroke="white" fill="currentColor">LISTEN to books</text><text transform="rotate(94.66321243523319) translate(100,0) rotate(180)" dy="0.35em" x="-6" text-anchor="end" paint-order="stroke" stroke="white" fill="currentColor">Learning English...</text><text transform="rotate(96.5284974093264) translate(100,0) rotate(180)" dy="0.35em" x="-6" text-anchor="end" paint-order="stroke" stroke="white" fill="currentColor">Luke's ENGLISH P...</text><text transform="rotate(98.3937823834197) translate(100,0) rotate(180)" dy="0.35em" x="-6" text-anchor="end" paint-order="stroke" stroke="white" fill="currentColor">Speaking of Psyc...</text><text transform="rotate(100.25906735751295) translate(100,0) rotate(180)" dy="0.35em" x="-6" text-anchor="end" paint-order="stroke" stroke="white" fill="currentColor">TAKRAM RADIO</text><text transform="rotate(102.12435233160622) translate(100,0) rotate(180)" dy="0.35em" x="-6" text-anchor="end" paint-order="stroke" stroke="white" fill="currentColor">TED Talks Daily</text><text transform="rotate(103.98963730569946) translate(100,0) rotate(180)" dy="0.35em" x="-6" text-anchor="end" paint-order="stroke" stroke="white" fill="currentColor">The Diary Of A C...</text><text transform="rotate(105.85492227979276) translate(100,0) rotate(180)" dy="0.35em" x="-6" text-anchor="end" paint-order="stroke" stroke="white" fill="currentColor">a scope ~リベラルアーツ...</text><text transform="rotate(107.720207253886) translate(100,0) rotate(180)" dy="0.35em" x="-6" text-anchor="end" paint-order="stroke" stroke="white" fill="currentColor">a scope 〜資本主義の未来...</text><text transform="rotate(109.58549222797927) translate(100,0) rotate(180)" dy="0.35em" x="-6" text-anchor="end" paint-order="stroke" stroke="white" fill="currentColor">いろはにマネーの「ながら学習」</text><text transform="rotate(111.45077720207252) translate(100,0) rotate(180)" dy="0.35em" x="-6" text-anchor="end" paint-order="stroke" stroke="white" fill="currentColor">ゆる言語学ラジオ</text><text transform="rotate(113.31606217616581) translate(100,0) rotate(180)" dy="0.35em" x="-6" text-anchor="end" paint-order="stroke" stroke="white" fill="currentColor">コテンラジオ Spotifyオリ...</text><text transform="rotate(115.18134715025906) translate(100,0) rotate(180)" dy="0.35em" x="-6" text-anchor="end" paint-order="stroke" stroke="white" fill="currentColor">歴史を面白く学ぶコテンラジオ （...</text><text transform="rotate(117.04663212435236) translate(100,0) rotate(180)" dy="0.35em" x="-6" text-anchor="end" paint-order="stroke" stroke="white" fill="currentColor">裏技英語</text><text transform="rotate(120.77720207253887) translate(100,0) rotate(180)" dy="0.35em" x="-6" text-anchor="end" paint-order="stroke" stroke="white" fill="currentColor">Body Electric</text><text transform="rotate(122.64248704663211) translate(100,0) rotate(180)" dy="0.35em" x="-6" text-anchor="end" paint-order="stroke" stroke="white" fill="currentColor">Huberman Lab</text><text transform="rotate(124.50777202072541) translate(100,0) rotate(180)" dy="0.35em" x="-6" text-anchor="end" paint-order="stroke" stroke="white" fill="currentColor">The Peter Attia ...</text><text transform="rotate(126.37305699481865) translate(100,0) rotate(180)" dy="0.35em" x="-6" text-anchor="end" paint-order="stroke" stroke="white" fill="currentColor">The Psychology o...</text><text transform="rotate(128.23834196891195) translate(100,0) rotate(180)" dy="0.35em" x="-6" text-anchor="end" paint-order="stroke" stroke="white" fill="currentColor">This is Stuart</text><text transform="rotate(130.10362694300517) translate(100,0) rotate(180)" dy="0.35em" x="-6" text-anchor="end" paint-order="stroke" stroke="white" fill="currentColor">ZOE Science &amp; Nu...</text><text transform="rotate(133.8341968911917) translate(100,0) rotate(180)" dy="0.35em" x="-6" text-anchor="end" paint-order="stroke" stroke="white" fill="currentColor">Level 5 by Palo ...</text><text transform="rotate(135.699481865285) translate(100,0) rotate(180)" dy="0.35em" x="-6" text-anchor="end" paint-order="stroke" stroke="white" fill="currentColor">Lobsterr FM</text><text transform="rotate(137.56476683937825) translate(100,0) rotate(180)" dy="0.35em" x="-6" text-anchor="end" paint-order="stroke" stroke="white" fill="currentColor">Morning Brew Dai...</text><text transform="rotate(139.43005181347155) translate(100,0) rotate(180)" dy="0.35em" x="-6" text-anchor="end" paint-order="stroke" stroke="white" fill="currentColor">News Connect あなた...</text><text transform="rotate(141.29533678756476) translate(100,0) rotate(180)" dy="0.35em" x="-6" text-anchor="end" paint-order="stroke" stroke="white" fill="currentColor">TechCrunch Daily...</text><text transform="rotate(143.160621761658) translate(100,0) rotate(180)" dy="0.35em" x="-6" text-anchor="end" paint-order="stroke" stroke="white" fill="currentColor">ながら日経</text><text transform="rotate(145.02590673575128) translate(100,0) rotate(180)" dy="0.35em" x="-6" text-anchor="end" paint-order="stroke" stroke="white" fill="currentColor">グローバルニュース DAILY ...</text><text transform="rotate(146.89119170984455) translate(100,0) rotate(180)" dy="0.35em" x="-6" text-anchor="end" paint-order="stroke" stroke="white" fill="currentColor">バイリンガルニュース (Bili...</text><text transform="rotate(150.62176165803115) translate(100,0) rotate(180)" dy="0.35em" x="-6" text-anchor="end" paint-order="stroke" stroke="white" fill="currentColor">99% Invisible</text><text transform="rotate(152.48704663212436) translate(100,0) rotate(180)" dy="0.35em" x="-6" text-anchor="end" paint-order="stroke" stroke="white" fill="currentColor">FREE AGENDA by h...</text><text transform="rotate(154.35233160621758) translate(100,0) rotate(180)" dy="0.35em" x="-6" text-anchor="end" paint-order="stroke" stroke="white" fill="currentColor">Kanayafrica</text><text transform="rotate(156.21761658031087) translate(100,0) rotate(180)" dy="0.35em" x="-6" text-anchor="end" paint-order="stroke" stroke="white" fill="currentColor">Ologies with Ali...</text><text transform="rotate(158.08290155440415) translate(100,0) rotate(180)" dy="0.35em" x="-6" text-anchor="end" paint-order="stroke" stroke="white" fill="currentColor">The Severance Po...</text><text transform="rotate(159.94818652849744) translate(100,0) rotate(180)" dy="0.35em" x="-6" text-anchor="end" paint-order="stroke" stroke="white" fill="currentColor">noiseless world ...</text><text transform="rotate(161.8134715025907) translate(100,0) rotate(180)" dy="0.35em" x="-6" text-anchor="end" paint-order="stroke" stroke="white" fill="currentColor">ことのあわoO</text><text transform="rotate(165.54404145077717) translate(100,0) rotate(180)" dy="0.35em" x="-6" text-anchor="end" paint-order="stroke" stroke="white" fill="currentColor">Deep Health insi...</text><text transform="rotate(167.40932642487047) translate(100,0) rotate(180)" dy="0.35em" x="-6" text-anchor="end" paint-order="stroke" stroke="white" fill="currentColor">Lex Fridman Podc...</text><text transform="rotate(169.27461139896377) translate(100,0) rotate(180)" dy="0.35em" x="-6" text-anchor="end" paint-order="stroke" stroke="white" fill="currentColor">Quanta Science P...</text><text transform="rotate(171.139896373057) translate(100,0) rotate(180)" dy="0.35em" x="-6" text-anchor="end" paint-order="stroke" stroke="white" fill="currentColor">STEAM.fm</text><text transform="rotate(173.0051813471503) translate(100,0) rotate(180)" dy="0.35em" x="-6" text-anchor="end" paint-order="stroke" stroke="white" fill="currentColor">Science Vs</text><text transform="rotate(174.8704663212435) translate(100,0) rotate(180)" dy="0.35em" x="-6" text-anchor="end" paint-order="stroke" stroke="white" fill="currentColor">Short Wave</text><text transform="rotate(176.73575129533674) translate(100,0) rotate(180)" dy="0.35em" x="-6" text-anchor="end" paint-order="stroke" stroke="white" fill="currentColor">Unexplainable</text><text transform="rotate(178.60103626943004) translate(100,0) rotate(180)" dy="0.35em" x="-6" text-anchor="end" paint-order="stroke" stroke="white" fill="currentColor">サイエントーク</text><text transform="rotate(180.46632124352334) translate(100,0) rotate(180)" dy="0.35em" x="-6" text-anchor="end" paint-order="stroke" stroke="white" fill="currentColor">サイエンマニア</text><text transform="rotate(182.33160621761658) translate(100,0) rotate(180)" dy="0.35em" x="-6" text-anchor="end" paint-order="stroke" stroke="white" fill="currentColor">ノダ☆カズキの野良歩き〜自然の面...</text><text transform="rotate(184.19689119170988) translate(100,0) rotate(180)" dy="0.35em" x="-6" text-anchor="end" paint-order="stroke" stroke="white" fill="currentColor">ポッドサイエンティスト</text><text transform="rotate(186.06217616580312) translate(100,0) rotate(180)" dy="0.35em" x="-6" text-anchor="end" paint-order="stroke" stroke="white" fill="currentColor">ミモリラジオ-自然の面白さを聴く</text><text transform="rotate(187.9274611398963) translate(100,0) rotate(180)" dy="0.35em" x="-6" text-anchor="end" paint-order="stroke" stroke="white" fill="currentColor">姿勢が変わると、人生が変わる。</text><text transform="rotate(189.7927461139896) translate(100,0) rotate(180)" dy="0.35em" x="-6" text-anchor="end" paint-order="stroke" stroke="white" fill="currentColor">科学のラジオ ～Radio Sc...</text><text transform="rotate(191.6580310880829) translate(100,0) rotate(180)" dy="0.35em" x="-6" text-anchor="end" paint-order="stroke" stroke="white" fill="currentColor">超相対性理論</text><text transform="rotate(195.38860103626945) translate(100,0) rotate(180)" dy="0.35em" x="-6" text-anchor="end" paint-order="stroke" stroke="white" fill="currentColor">ALL STAR SAAS PO...</text><text transform="rotate(197.2538860103627) translate(100,0) rotate(180)" dy="0.35em" x="-6" text-anchor="end" paint-order="stroke" stroke="white" fill="currentColor">Burning cast</text><text transform="rotate(199.11917098445593) translate(100,0) rotate(180)" dy="0.35em" x="-6" text-anchor="end" paint-order="stroke" stroke="white" fill="currentColor">DEEP TECH起業熱｜Go ...</text><text transform="rotate(200.98445595854923) translate(100,0) rotate(180)" dy="0.35em" x="-6" text-anchor="end" paint-order="stroke" stroke="white" fill="currentColor">FoundX スタートアップ支援...</text><text transform="rotate(202.84974093264248) translate(100,0) rotate(180)" dy="0.35em" x="-6" text-anchor="end" paint-order="stroke" stroke="white" fill="currentColor">Inside Algomatic</text><text transform="rotate(204.71502590673578) translate(100,0) rotate(180)" dy="0.35em" x="-6" text-anchor="end" paint-order="stroke" stroke="white" fill="currentColor">One Capital SaaS...</text><text transform="rotate(206.58031088082907) translate(100,0) rotate(180)" dy="0.35em" x="-6" text-anchor="end" paint-order="stroke" stroke="white" fill="currentColor">Repeat Rhyme / リ...</text><text transform="rotate(208.44559585492226) translate(100,0) rotate(180)" dy="0.35em" x="-6" text-anchor="end" paint-order="stroke" stroke="white" fill="currentColor">Startup Chat</text><text transform="rotate(210.3108808290155) translate(100,0) rotate(180)" dy="0.35em" x="-6" text-anchor="end" paint-order="stroke" stroke="white" fill="currentColor">Y Combinator Sta...</text><text transform="rotate(212.1761658031088) translate(100,0) rotate(180)" dy="0.35em" x="-6" text-anchor="end" paint-order="stroke" stroke="white" fill="currentColor">ハイパー起業ラジオ</text><text transform="rotate(214.04145077720204) translate(100,0) rotate(180)" dy="0.35em" x="-6" text-anchor="end" paint-order="stroke" stroke="white" fill="currentColor">前田ヒロ Startup Pod...</text><text transform="rotate(215.90673575129534) translate(100,0) rotate(180)" dy="0.35em" x="-6" text-anchor="end" paint-order="stroke" stroke="white" fill="currentColor">海外スタートアップレポート「シリ...</text><text transform="rotate(219.63730569948189) translate(100,0) rotate(180)" dy="0.35em" x="-6" text-anchor="end" paint-order="stroke" stroke="white" fill="currentColor">10X.fm</text><text transform="rotate(221.50259067357513) translate(100,0) rotate(180)" dy="0.35em" x="-6" text-anchor="end" paint-order="stroke" stroke="white" fill="currentColor">Bizchat.fm</text><text transform="rotate(223.36787564766837) translate(100,0) rotate(180)" dy="0.35em" x="-6" text-anchor="end" paint-order="stroke" stroke="white" fill="currentColor">Data Stories</text><text transform="rotate(225.23316062176167) translate(100,0) rotate(180)" dy="0.35em" x="-6" text-anchor="end" paint-order="stroke" stroke="white" fill="currentColor">Decoder with Nil...</text><text transform="rotate(227.09844559585497) translate(100,0) rotate(180)" dy="0.35em" x="-6" text-anchor="end" paint-order="stroke" stroke="white" fill="currentColor">DeepTech研究所</text><text transform="rotate(228.9637305699482) translate(100,0) rotate(180)" dy="0.35em" x="-6" text-anchor="end" paint-order="stroke" stroke="white" fill="currentColor">GCP House</text><text transform="rotate(230.82901554404145) translate(100,0) rotate(180)" dy="0.35em" x="-6" text-anchor="end" paint-order="stroke" stroke="white" fill="currentColor">ITトリオの日常 ~エンジニア3...</text><text transform="rotate(232.6943005181347) translate(100,0) rotate(180)" dy="0.35em" x="-6" text-anchor="end" paint-order="stroke" stroke="white" fill="currentColor">Joi Ito's Podcas...</text><text transform="rotate(234.55958549222794) translate(100,0) rotate(180)" dy="0.35em" x="-6" text-anchor="end" paint-order="stroke" stroke="white" fill="currentColor">LayerX NOW!</text><text transform="rotate(236.42487046632124) translate(100,0) rotate(180)" dy="0.35em" x="-6" text-anchor="end" paint-order="stroke" stroke="white" fill="currentColor">Off Topic // オフト...</text><text transform="rotate(238.29015544041454) translate(100,0) rotate(180)" dy="0.35em" x="-6" text-anchor="end" paint-order="stroke" stroke="white" fill="currentColor">Paul Graham's Es...</text><text transform="rotate(240.15544041450778) translate(100,0) rotate(180)" dy="0.35em" x="-6" text-anchor="end" paint-order="stroke" stroke="white" fill="currentColor">Rebuild</text><text transform="rotate(242.02072538860102) translate(100,0) rotate(180)" dy="0.35em" x="-6" text-anchor="end" paint-order="stroke" stroke="white" fill="currentColor">START/FM</text><text transform="rotate(243.8860103626942) translate(100,0) rotate(180)" dy="0.35em" x="-6" text-anchor="end" paint-order="stroke" stroke="white" fill="currentColor">The PolicyViz Po...</text><text transform="rotate(245.7512953367875) translate(100,0) rotate(180)" dy="0.35em" x="-6" text-anchor="end" paint-order="stroke" stroke="white" fill="currentColor">The Straw Millio...</text><text transform="rotate(247.6165803108808) translate(100,0) rotate(180)" dy="0.35em" x="-6" text-anchor="end" paint-order="stroke" stroke="white" fill="currentColor">Today I Learned ...</text><text transform="rotate(249.4818652849741) translate(100,0) rotate(180)" dy="0.35em" x="-6" text-anchor="end" paint-order="stroke" stroke="white" fill="currentColor">Waveform: The MK...</text><text transform="rotate(251.3471502590674) translate(100,0) rotate(180)" dy="0.35em" x="-6" text-anchor="end" paint-order="stroke" stroke="white" fill="currentColor">devchat.fm</text><text transform="rotate(253.2124352331606) translate(100,0) rotate(180)" dy="0.35em" x="-6" text-anchor="end" paint-order="stroke" stroke="white" fill="currentColor">『WIRED』日本版</text><text transform="rotate(255.07772020725383) translate(100,0) rotate(180)" dy="0.35em" x="-6" text-anchor="end" paint-order="stroke" stroke="white" fill="currentColor">となりのデータ分析屋さん</text><text transform="rotate(256.94300518134713) translate(100,0) rotate(180)" dy="0.35em" x="-6" text-anchor="end" paint-order="stroke" stroke="white" fill="currentColor">はろーわーるど！ - 世界で働く...</text><text transform="rotate(258.80829015544043) translate(100,0) rotate(180)" dy="0.35em" x="-6" text-anchor="end" paint-order="stroke" stroke="white" fill="currentColor">ほろよいWeb3</text><text transform="rotate(260.67357512953373) translate(100,0) rotate(180)" dy="0.35em" x="-6" text-anchor="end" paint-order="stroke" stroke="white" fill="currentColor">ゆるコンピュータ科学ラジオ</text><text transform="rotate(262.538860103627) translate(100,0) rotate(180)" dy="0.35em" x="-6" text-anchor="end" paint-order="stroke" stroke="white" fill="currentColor">デデデータ!!〜“あきない”デー...</text><text transform="rotate(264.4041450777202) translate(100,0) rotate(180)" dy="0.35em" x="-6" text-anchor="end" paint-order="stroke" stroke="white" fill="currentColor">メタバースえとせとら / Met...</text><text transform="rotate(266.2694300518134) translate(100,0) rotate(180)" dy="0.35em" x="-6" text-anchor="end" paint-order="stroke" stroke="white" fill="currentColor">中島聡のLife is Beau...</text><text transform="rotate(268.1347150259067) translate(100,0) rotate(180)" dy="0.35em" x="-6" text-anchor="end" paint-order="stroke" stroke="white" fill="currentColor">日本IBM　誰かに話したくなる“...</text></g></svg>