<svg width="224" height="224" viewBox="0 0 224 224" fill="none" xmlns="http://www.w3.org/2000/svg">
<g clip-path="url(#clip0_14_15648)">
<path d="M224 112C224 50.1441 173.856 0 112 0C50.1441 0 0 50.1441 0 112C0 173.856 50.1441 224 112 224C173.856 224 224 173.856 224 112Z" fill="white" fill-opacity="0.5"/>
<path d="M111.986 111.802C130.558 142.455 115.527 76.1374 119.067 40.4727" stroke="#555555" stroke-opacity="0.8" stroke-width="4.608"/>
<path d="M111.987 111.8C130.559 142.453 127.423 79.4547 142.859 47.1094" stroke="#555555" stroke-opacity="0.8" stroke-width="4.608"/>
<path d="M111.987 111.801C121.273 127.127 126.304 101.025 140.622 90.248" stroke="#555555" stroke-opacity="0.8" stroke-width="4.608"/>
<path d="M111.987 111.8C130.559 142.453 146.771 103.168 181.556 94.5352" stroke="#555555" stroke-opacity="0.8" stroke-width="4.608"/>
<path d="M111.986 111.799C130.558 142.452 146.467 121.573 180.949 131.348" stroke="#555555" stroke-opacity="0.8" stroke-width="4.608"/>
<path d="M111.986 111.799C130.558 142.452 132.28 141.339 152.574 170.881" stroke="#555555" stroke-opacity="0.8" stroke-width="4.608"/>
<path d="M111.986 111.799C130.558 142.452 119.322 146.88 126.658 181.961" stroke="#555555" stroke-opacity="0.8" stroke-width="4.608"/>
<path d="M111.986 111.799C130.558 142.452 109.623 147.561 107.26 183.323" stroke="#555555" stroke-opacity="0.8" stroke-width="4.608"/>
<path d="M111.987 111.799C130.559 142.452 99.2674 145.306 86.5476 178.812" stroke="#555555" stroke-opacity="0.8" stroke-width="4.608"/>
<path d="M111.989 111.799C121.275 127.125 99.1363 124.286 86.2832 136.773" stroke="#555555" stroke-opacity="0.8" stroke-width="4.608"/>
<path d="M111.984 111.8C130.556 142.452 76.1444 111.652 40.3047 111.504" stroke="#555555" stroke-opacity="0.8" stroke-width="4.608"/>
<path d="M111.988 111.8C121.274 127.126 101.719 97.1137 91.4512 82.4277" stroke="#555555" stroke-opacity="0.8" stroke-width="4.608"/>
<path d="M119.068 40.4711C120.838 22.6387 116.418 22.3103 117.304 4.41211" stroke="#555555" stroke-opacity="0.8" stroke-width="4.608"/>
<path d="M119.068 40.4733C120.839 22.6409 120.839 22.6409 122.609 4.80859" stroke="#555555" stroke-opacity="0.8" stroke-width="4.608"/>
<path d="M119.068 40.4733C120.839 22.6409 125.237 23.1877 127.887 5.46484" stroke="#555555" stroke-opacity="0.8" stroke-width="4.608"/>
<path d="M142.861 47.1069C150.58 30.9341 133.928 24.9253 138.316 7.55078" stroke="#555555" stroke-opacity="0.8" stroke-width="4.608"/>
<path d="M142.858 47.1092C150.575 30.9364 138.193 26.1187 143.435 8.98242" stroke="#555555" stroke-opacity="0.8" stroke-width="4.608"/>
<path d="M142.857 47.1097C150.576 30.9369 142.399 27.5203 148.482 10.6641" stroke="#555555" stroke-opacity="0.8" stroke-width="4.608"/>
<path d="M142.857 47.1088C150.576 30.936 146.529 29.1266 153.439 12.5918" stroke="#555555" stroke-opacity="0.8" stroke-width="4.608"/>
<path d="M142.857 47.1112C150.576 30.9384 150.576 30.9384 158.294 14.7656" stroke="#555555" stroke-opacity="0.8" stroke-width="4.608"/>
<path d="M142.857 47.1086C150.576 30.9358 154.528 32.9432 163.036 17.1719" stroke="#555555" stroke-opacity="0.8" stroke-width="4.608"/>
<path d="M142.857 47.1105C150.576 30.9377 158.375 35.1456 167.653 19.8145" stroke="#555555" stroke-opacity="0.8" stroke-width="4.608"/>
<path d="M142.858 47.1063C150.576 30.9335 162.11 37.5292 172.134 22.6758" stroke="#555555" stroke-opacity="0.8" stroke-width="4.608"/>
<path d="M142.857 47.1086C150.576 30.9358 165.721 40.1014 176.468 25.7617" stroke="#555555" stroke-opacity="0.8" stroke-width="4.608"/>
<path d="M140.624 90.2466C169.259 68.6933 160.434 58.9683 184.656 32.5527" stroke="#555555" stroke-opacity="0.8" stroke-width="4.608"/>
<path d="M140.624 90.2474C169.259 68.6941 162.987 61.4297 188.486 36.2441" stroke="#555555" stroke-opacity="0.8" stroke-width="4.608"/>
<path d="M140.624 90.2452C169.259 68.692 165.416 64.0109 192.129 40.1172" stroke="#555555" stroke-opacity="0.8" stroke-width="4.608"/>
<path d="M140.624 90.2467C169.259 68.6934 167.714 66.7133 195.576 44.1699" stroke="#555555" stroke-opacity="0.8" stroke-width="4.608"/>
<path d="M140.624 90.2452C169.259 68.6919 169.875 69.5224 198.818 48.3848" stroke="#555555" stroke-opacity="0.8" stroke-width="4.608"/>
<path d="M140.624 90.2485C169.259 68.6952 171.895 72.4405 201.848 52.7598" stroke="#555555" stroke-opacity="0.8" stroke-width="4.608"/>
<path d="M140.624 90.2445C154.942 79.4678 158.767 85.3025 174.359 76.4707" stroke="#555555" stroke-opacity="0.8" stroke-width="4.608"/>
<path d="M140.624 90.2449C169.259 68.6916 177.544 82.8053 210.322 68.3086" stroke="#555555" stroke-opacity="0.8" stroke-width="4.608"/>
<path d="M181.558 94.5379C198.95 90.222 197.111 83.8335 214.135 78.2402" stroke="#555555" stroke-opacity="0.8" stroke-width="4.608"/>
<path d="M181.557 94.5371C198.95 90.2212 198.389 88.0769 215.67 83.332" stroke="#555555" stroke-opacity="0.8" stroke-width="4.608"/>
<path d="M181.557 94.5351C198.95 90.2192 199.456 92.3769 216.95 88.4922" stroke="#555555" stroke-opacity="0.8" stroke-width="4.608"/>
<path d="M181.557 94.5355C198.95 90.2196 200.31 96.7268 217.974 93.7117" stroke="#555555" stroke-opacity="0.8" stroke-width="4.608"/>
<path d="M180.952 131.35C198.193 136.238 201.369 105.526 219.245 104.271" stroke="#555555" stroke-opacity="0.8" stroke-width="4.608"/>
<path d="M180.952 131.35C198.193 136.237 201.57 109.953 219.486 109.584" stroke="#555555" stroke-opacity="0.8" stroke-width="4.608"/>
<path d="M180.952 131.348C198.193 136.236 201.552 114.385 219.464 114.902" stroke="#555555" stroke-opacity="0.8" stroke-width="4.608"/>
<path d="M180.952 131.351C198.193 136.239 201.315 118.813 219.179 120.215" stroke="#555555" stroke-opacity="0.8" stroke-width="4.608"/>
<path d="M180.952 131.351C198.193 136.238 200.858 123.222 218.632 125.506" stroke="#555555" stroke-opacity="0.8" stroke-width="4.608"/>
<path d="M180.952 131.349C198.193 136.237 200.185 127.601 217.824 130.762" stroke="#555555" stroke-opacity="0.8" stroke-width="4.608"/>
<path d="M180.952 131.35C198.193 136.237 199.295 131.944 216.757 135.973" stroke="#555555" stroke-opacity="0.8" stroke-width="4.608"/>
<path d="M180.952 131.35C198.193 136.237 198.193 136.237 215.433 141.124" stroke="#555555" stroke-opacity="0.8" stroke-width="4.608"/>
<path d="M180.952 131.35C198.193 136.237 196.878 140.47 213.856 146.204" stroke="#555555" stroke-opacity="0.8" stroke-width="4.608"/>
<path d="M180.952 131.35C198.193 136.237 195.357 144.633 212.03 151.2" stroke="#555555" stroke-opacity="0.8" stroke-width="4.608"/>
<path d="M180.952 131.35C198.193 136.237 193.631 148.716 209.959 156.099" stroke="#555555" stroke-opacity="0.8" stroke-width="4.608"/>
<path d="M180.952 131.35C198.193 136.237 191.706 152.708 207.649 160.89" stroke="#555555" stroke-opacity="0.8" stroke-width="4.608"/>
<path d="M180.952 131.35C198.193 136.237 189.585 156.601 205.104 165.561" stroke="#555555" stroke-opacity="0.8" stroke-width="4.608"/>
<path d="M180.952 131.35C198.193 136.237 187.274 160.383 202.332 170.099" stroke="#555555" stroke-opacity="0.8" stroke-width="4.608"/>
<path d="M180.952 131.35C198.193 136.237 184.78 164.047 199.338 174.496" stroke="#555555" stroke-opacity="0.8" stroke-width="4.608"/>
<path d="M152.573 170.879C162.721 185.649 179.259 170.979 192.714 182.815" stroke="#555555" stroke-opacity="0.8" stroke-width="4.608"/>
<path d="M152.573 170.879C162.721 185.649 176.25 174.233 189.103 186.72" stroke="#555555" stroke-opacity="0.8" stroke-width="4.608"/>
<path d="M152.573 170.879C162.721 185.649 173.083 177.335 185.303 190.443" stroke="#555555" stroke-opacity="0.8" stroke-width="4.608"/>
<path d="M152.573 170.879C162.721 185.649 169.768 180.276 181.324 193.972" stroke="#555555" stroke-opacity="0.8" stroke-width="4.608"/>
<path d="M152.573 170.879C162.721 185.649 166.311 183.05 177.175 197.3" stroke="#555555" stroke-opacity="0.8" stroke-width="4.608"/>
<path d="M152.573 170.879C162.721 185.649 162.721 185.649 172.867 200.419" stroke="#555555" stroke-opacity="0.8" stroke-width="4.608"/>
<path d="M152.573 170.879C162.721 185.649 159.006 188.068 168.41 203.322" stroke="#555555" stroke-opacity="0.8" stroke-width="4.608"/>
<path d="M152.573 170.879C162.721 185.649 155.177 190.3 163.815 206" stroke="#555555" stroke-opacity="0.8" stroke-width="4.608"/>
<path d="M152.573 170.879C162.721 185.649 151.242 192.34 159.093 208.448" stroke="#555555" stroke-opacity="0.8" stroke-width="4.608"/>
<path d="M152.575 170.879C162.722 185.649 147.212 194.183 154.256 210.66" stroke="#555555" stroke-opacity="0.8" stroke-width="4.608"/>
<path d="M152.576 170.879C162.723 185.649 143.095 195.824 149.317 212.629" stroke="#555555" stroke-opacity="0.8" stroke-width="4.608"/>
<path d="M126.661 181.963C130.329 199.503 134.644 198.489 139.175 215.827" stroke="#555555" stroke-opacity="0.8" stroke-width="4.608"/>
<path d="M126.661 181.963C130.329 199.503 130.329 199.503 133.997 217.044" stroke="#555555" stroke-opacity="0.8" stroke-width="4.608"/>
<path d="M126.661 181.963C130.329 199.503 125.969 200.303 128.765 218.003" stroke="#555555" stroke-opacity="0.8" stroke-width="4.608"/>
<path d="M107.262 183.326C106.081 201.208 117.156 201.253 118.19 219.143" stroke="#555555" stroke-opacity="0.8" stroke-width="4.608"/>
<path d="M107.26 183.326C106.079 201.208 112.724 201.399 112.871 219.318" stroke="#555555" stroke-opacity="0.8" stroke-width="4.608"/>
<path d="M107.264 183.326C106.083 201.208 108.296 201.326 107.557 219.231" stroke="#555555" stroke-opacity="0.8" stroke-width="4.608"/>
<path d="M107.261 183.326C106.08 201.208 103.87 201.034 102.247 218.881" stroke="#555555" stroke-opacity="0.8" stroke-width="4.608"/>
<path d="M107.263 183.326C106.082 201.208 99.4693 200.523 96.9656 218.268" stroke="#555555" stroke-opacity="0.8" stroke-width="4.608"/>
<path d="M107.26 183.326C106.078 201.208 95.0941 199.796 91.7156 217.394" stroke="#555555" stroke-opacity="0.8" stroke-width="4.608"/>
<path d="M86.5461 178.814C80.1862 195.568 86.4845 197.695 81.384 214.873" stroke="#555555" stroke-opacity="0.8" stroke-width="4.608"/>
<path d="M86.5481 178.814C80.1882 195.568 82.2697 196.329 76.3264 213.234" stroke="#555555" stroke-opacity="0.8" stroke-width="4.608"/>
<path d="M86.5469 178.814C80.1876 195.568 78.1257 194.756 71.353 211.347" stroke="#555555" stroke-opacity="0.8" stroke-width="4.608"/>
<path d="M86.5493 178.814C80.1894 195.568 74.0663 192.98 66.4817 209.216" stroke="#555555" stroke-opacity="0.8" stroke-width="4.608"/>
<path d="M86.2818 136.773C60.5762 161.748 75.3826 173.428 57.0801 204.242" stroke="#555555" stroke-opacity="0.8" stroke-width="4.608"/>
<path d="M86.2795 136.773C60.5738 161.748 72.377 171.542 52.573 201.414" stroke="#555555" stroke-opacity="0.8" stroke-width="4.608"/>
<path d="M86.2817 136.773C60.576 161.748 69.4733 169.51 48.2161 198.366" stroke="#555555" stroke-opacity="0.8" stroke-width="4.608"/>
<path d="M86.2828 136.773C60.5771 161.748 66.6727 167.337 44.0144 195.106" stroke="#555555" stroke-opacity="0.8" stroke-width="4.608"/>
<path d="M86.2822 136.773C73.4296 149.26 75.3291 151.122 63.1094 164.229" stroke="#555555" stroke-opacity="0.8" stroke-width="4.608"/>
<path d="M86.2811 136.773C60.5754 161.748 58.168 159.144 31.2585 182.817" stroke="#555555" stroke-opacity="0.8" stroke-width="4.608"/>
<path d="M86.2801 136.773C73.427 149.26 68.3114 143.147 53.7532 153.596" stroke="#555555" stroke-opacity="0.8" stroke-width="4.608"/>
<path d="M86.2806 136.773C60.5749 161.748 48.7614 145.573 17.1492 162.46" stroke="#555555" stroke-opacity="0.8" stroke-width="4.608"/>
<path d="M86.2817 136.773C60.576 161.748 47.1699 142.404 14.761 157.707" stroke="#555555" stroke-opacity="0.8" stroke-width="4.608"/>
<path d="M40.307 111.504C22.3873 111.43 27.5813 141.866 10.7004 147.878" stroke="#555555" stroke-opacity="0.8" stroke-width="4.608"/>
<path d="M40.3087 111.504C22.389 111.43 26.1995 137.654 9.04175 142.825" stroke="#555555" stroke-opacity="0.8" stroke-width="4.608"/>
<path d="M40.3087 111.504C22.389 111.43 25.0257 133.38 7.63354 137.696" stroke="#555555" stroke-opacity="0.8" stroke-width="4.608"/>
<path d="M40.3086 111.504C22.3889 111.43 24.065 129.053 6.48047 132.504" stroke="#555555" stroke-opacity="0.8" stroke-width="4.608"/>
<path d="M40.3058 111.504C22.3861 111.43 23.3165 124.684 5.58276 127.261" stroke="#555555" stroke-opacity="0.8" stroke-width="4.608"/>
<path d="M40.3068 111.504C22.387 111.43 22.7888 120.283 4.94922 121.98" stroke="#555555" stroke-opacity="0.8" stroke-width="4.608"/>
<path d="M40.31 111.505C22.3903 111.431 22.4816 115.862 4.58008 116.675" stroke="#555555" stroke-opacity="0.8" stroke-width="4.608"/>
<path d="M40.3057 111.505C22.3861 111.431 22.3861 111.431 4.46606 111.357" stroke="#555555" stroke-opacity="0.8" stroke-width="4.608"/>
<path d="M40.3073 111.504C22.3876 111.43 22.5156 106.999 4.62109 106.039" stroke="#555555" stroke-opacity="0.8" stroke-width="4.608"/>
<path d="M40.3058 111.505C22.3861 111.431 22.8607 102.582 5.03589 100.738" stroke="#555555" stroke-opacity="0.8" stroke-width="4.608"/>
<path d="M40.3078 111.505C22.3881 111.431 23.4278 98.1856 5.71582 95.4629" stroke="#555555" stroke-opacity="0.8" stroke-width="4.608"/>
<path d="M40.3075 111.502C22.3879 111.428 24.2093 93.8198 6.65356 90.2246" stroke="#555555" stroke-opacity="0.8" stroke-width="4.608"/>
<path d="M40.307 111.505C22.3873 111.432 25.2052 89.5042 7.84888 85.0449" stroke="#555555" stroke-opacity="0.8" stroke-width="4.608"/>
<path d="M40.309 111.504C22.3893 111.43 26.416 85.2379 9.30151 79.9258" stroke="#555555" stroke-opacity="0.8" stroke-width="4.608"/>
<path d="M40.3068 111.503C22.3871 111.429 27.832 81.0369 11.0012 74.8848" stroke="#555555" stroke-opacity="0.8" stroke-width="4.608"/>
<path d="M91.4516 82.4277C70.9147 53.055 47.4252 80.6615 15.1438 65.0918" stroke="#555555" stroke-opacity="0.8" stroke-width="4.608"/>
<path d="M91.4521 82.4292C70.9158 53.0567 49.0449 77.5085 17.573 60.3613" stroke="#555555" stroke-opacity="0.8" stroke-width="4.608"/>
<path d="M91.4497 82.4283C70.9133 53.0555 50.8154 74.436 20.23 55.7539" stroke="#555555" stroke-opacity="0.8" stroke-width="4.608"/>
<path d="M91.4505 82.4264C70.9136 53.0539 52.7387 71.4555 23.1145 51.2832" stroke="#555555" stroke-opacity="0.8" stroke-width="4.608"/>
<path d="M91.4521 82.4272C70.9158 53.0546 54.8082 68.5751 26.218 46.9629" stroke="#555555" stroke-opacity="0.8" stroke-width="4.608"/>
<path d="M91.4496 82.4277C70.9133 53.0549 57.0136 65.8007 29.5269 42.8008" stroke="#555555" stroke-opacity="0.8" stroke-width="4.608"/>
<path d="M91.45 82.4252C70.9136 53.0525 59.3558 63.136 33.0403 38.8047" stroke="#555555" stroke-opacity="0.8" stroke-width="4.608"/>
<path d="M91.4489 82.4254C70.9126 53.0527 61.8255 60.5927 36.7454 34.9902" stroke="#555555" stroke-opacity="0.8" stroke-width="4.608"/>
<path d="M91.4505 82.4295C70.9136 53.0568 64.4204 58.1787 40.6375 31.3672" stroke="#555555" stroke-opacity="0.8" stroke-width="4.608"/>
<path d="M91.4498 82.4279C70.9129 53.0551 67.1301 55.8904 44.7017 27.9355" stroke="#555555" stroke-opacity="0.8" stroke-width="4.608"/>
<path d="M91.4477 82.4291C81.1795 67.7431 81.1795 67.7431 70.9114 53.0566" stroke="#555555" stroke-opacity="0.8" stroke-width="4.608"/>
<path d="M91.4489 82.4277C70.912 53.0551 76.9163 49.2849 59.3816 18.0273" stroke="#555555" stroke-opacity="0.8" stroke-width="4.608"/>
<path d="M91.4504 82.428C70.9141 53.0554 80.0527 47.6276 64.0854 15.541" stroke="#555555" stroke-opacity="0.8" stroke-width="4.608"/>
<path d="M91.4524 82.4273C70.9161 53.0547 83.2669 46.1261 68.9062 13.2891" stroke="#555555" stroke-opacity="0.8" stroke-width="4.608"/>
<path d="M91.4502 82.4275C70.9133 53.055 86.5474 44.7863 73.8281 11.2793" stroke="#555555" stroke-opacity="0.8" stroke-width="4.608"/>
<path d="M91.4501 82.4278C70.9138 53.0553 89.8928 43.6104 78.8462 9.51562" stroke="#555555" stroke-opacity="0.8" stroke-width="4.608"/>
<path d="M91.4474 82.4262C81.1787 67.7402 98.8209 59.6756 94.4328 42.3008" stroke="#555555" stroke-opacity="0.8" stroke-width="4.608"/>
<path d="M91.45 82.4302C70.9136 53.0576 101.387 40.9109 96.0873 5.46484" stroke="#555555" stroke-opacity="0.8" stroke-width="4.608"/>
<path d="M91.4501 82.4302C70.9138 53.0576 104.906 40.4733 101.365 4.80859" stroke="#555555" stroke-opacity="0.8" stroke-width="4.608"/>
<path d="M91.4516 82.428C70.9147 53.0554 108.444 40.2081 106.671 4.41211" stroke="#555555" stroke-opacity="0.8" stroke-width="4.608"/>
<path d="M174.357 76.476C189.95 67.6443 189.95 67.6443 205.542 58.8125" stroke="#555555" stroke-opacity="0.8" stroke-width="4.608"/>
<path d="M63.1086 164.23C50.8892 177.338 50.8892 177.338 38.6694 190.445" stroke="#555555" stroke-opacity="0.8" stroke-width="4.608"/>
<path d="M53.7527 153.6C39.1944 164.049 40.957 166.421 26.7512 177.345" stroke="#555555" stroke-opacity="0.8" stroke-width="4.608"/>
<path d="M53.7542 153.598C39.196 164.047 39.196 164.047 24.6379 174.496" stroke="#555555" stroke-opacity="0.8" stroke-width="4.608"/>
<path d="M53.7539 153.598C39.1956 164.047 37.5122 161.618 22.6177 171.581" stroke="#555555" stroke-opacity="0.8" stroke-width="4.608"/>
<path d="M70.9131 53.0562C60.6444 38.3699 60.6444 38.3699 50.3762 23.6836" stroke="#555555" stroke-opacity="0.8" stroke-width="4.608"/>
<path d="M94.4341 42.2999C90.0465 24.9253 90.0465 24.9253 85.6589 7.55078" stroke="#555555" stroke-opacity="0.8" stroke-width="4.608"/>
</g>
<defs>
<clipPath id="clip0_14_15648">
<rect width="224" height="224" fill="white"/>
</clipPath>
</defs>
</svg>
