<svg width="360" height="360" viewBox="-180,-194.4,360,360" style="width: 100%; height: auto; font: 4.8px sans-serif;" xmlns="http://www.w3.org/2000/svg" xmlns:xlink="http://www.w3.org/1999/xlink"><g fill="none" stroke="#555" stroke-opacity="0.4" stroke-width="1.5"><path d="M0,0C4.086,24.664,13.856,-20.809,27.712,-41.618"/><path d="M0,0C4.086,24.664,24.707,3.816,49.414,7.632"/><path d="M0,0C4.086,24.664,18.664,16.633,37.328,33.266"/><path d="M0,0C4.086,24.664,6.007,24.268,12.013,48.535"/><path d="M0,0C4.086,24.664,-13.856,20.809,-27.712,41.618"/><path d="M0,0C4.086,24.664,-22.114,11.662,-44.227,23.323"/><path d="M0,0C4.086,24.664,-19.687,-15.408,-39.374,-30.817"/><path d="M27.712,-41.618C41.568,-62.427,1.915,-74.976,2.554,-99.967"/><path d="M27.712,-41.618C41.568,-62.427,3.83,-74.902,5.106,-99.87"/><path d="M27.712,-41.618C41.568,-62.427,5.741,-74.78,7.655,-99.707"/><path d="M27.712,-41.618C41.568,-62.427,7.649,-74.609,10.199,-99.479"/><path d="M27.712,-41.618C41.568,-62.427,9.552,-74.389,12.736,-99.186"/><path d="M27.712,-41.618C41.568,-62.427,11.449,-74.121,15.265,-98.828"/><path d="M27.712,-41.618C41.568,-62.427,13.338,-73.804,17.784,-98.406"/><path d="M27.712,-41.618C41.568,-62.427,15.218,-73.44,20.291,-97.92"/><path d="M27.712,-41.618C41.568,-62.427,17.089,-73.027,22.785,-97.37"/><path d="M27.712,-41.618C41.568,-62.427,18.948,-72.567,25.265,-96.756"/><path d="M27.712,-41.618C41.568,-62.427,20.796,-72.059,27.727,-96.079"/><path d="M27.712,-41.618C41.568,-62.427,22.629,-71.505,30.172,-95.34"/><path d="M27.712,-41.618C41.568,-62.427,24.448,-70.903,32.597,-94.538"/><path d="M27.712,-41.618C41.568,-62.427,26.251,-70.256,35.001,-93.675"/><path d="M27.712,-41.618C41.568,-62.427,28.036,-69.563,37.382,-92.75"/><path d="M27.712,-41.618C41.568,-62.427,29.804,-68.824,39.738,-91.765"/><path d="M27.712,-41.618C41.568,-62.427,31.552,-68.04,42.069,-90.721"/><path d="M27.712,-41.618C41.568,-62.427,33.279,-67.212,44.372,-89.617"/><path d="M27.712,-41.618C41.568,-62.427,34.985,-66.341,46.646,-88.454"/><path d="M27.712,-41.618C41.568,-62.427,36.667,-65.425,48.89,-87.234"/><path d="M27.712,-41.618C41.568,-62.427,38.326,-64.468,51.102,-85.957"/><path d="M27.712,-41.618C41.568,-62.427,39.96,-63.468,53.28,-84.624"/><path d="M27.712,-41.618C41.568,-62.427,41.568,-62.427,55.424,-83.236"/><path d="M27.712,-41.618C41.568,-62.427,43.149,-61.345,57.532,-81.793"/><path d="M27.712,-41.618C41.568,-62.427,44.701,-60.223,59.602,-80.297"/><path d="M27.712,-41.618C41.568,-62.427,46.225,-59.061,61.633,-78.749"/><path d="M27.712,-41.618C41.568,-62.427,47.718,-57.862,63.624,-77.149"/><path d="M27.712,-41.618C41.568,-62.427,49.18,-56.624,65.574,-75.499"/><path d="M27.712,-41.618C41.568,-62.427,50.61,-55.35,67.481,-73.8"/><path d="M27.712,-41.618C41.568,-62.427,52.007,-54.039,69.343,-72.052"/><path d="M27.712,-41.618C41.568,-62.427,53.371,-52.693,71.161,-70.258"/><path d="M27.712,-41.618C41.568,-62.427,54.699,-51.313,72.932,-68.417"/><path d="M27.712,-41.618C41.568,-62.427,55.991,-49.899,74.655,-66.533"/><path d="M27.712,-41.618C41.568,-62.427,57.248,-48.453,76.33,-64.604"/><path d="M27.712,-41.618C41.568,-62.427,58.466,-46.975,77.955,-62.634"/><path d="M27.712,-41.618C41.568,-62.427,59.647,-45.467,79.529,-60.623"/><path d="M27.712,-41.618C41.568,-62.427,60.789,-43.929,81.052,-58.572"/><path d="M27.712,-41.618C41.568,-62.427,61.891,-42.362,82.521,-56.483"/><path d="M27.712,-41.618C41.568,-62.427,62.952,-40.768,83.937,-54.357"/><path d="M27.712,-41.618C41.568,-62.427,63.973,-39.147,85.297,-52.195"/><path d="M27.712,-41.618C41.568,-62.427,64.952,-37.5,86.603,-50"/><path d="M27.712,-41.618C41.568,-62.427,65.888,-35.829,87.851,-47.772"/><path d="M27.712,-41.618C41.568,-62.427,66.782,-34.135,89.043,-45.513"/><path d="M27.712,-41.618C41.568,-62.427,67.632,-32.418,90.176,-43.224"/><path d="M27.712,-41.618C41.568,-62.427,68.438,-30.68,91.25,-40.907"/><path d="M49.414,7.632C74.121,11.449,69.915,-27.146,93.22,-36.194"/><path d="M49.414,7.632C74.121,11.449,70.586,-25.351,94.114,-33.802"/><path d="M49.414,7.632C74.121,11.449,71.21,-23.54,94.947,-31.387"/><path d="M49.414,7.632C74.121,11.449,71.788,-21.714,95.717,-28.952"/><path d="M49.414,7.632C74.121,11.449,72.319,-19.874,96.425,-26.498"/><path d="M49.414,7.632C74.121,11.449,72.803,-18.02,97.071,-24.027"/><path d="M49.414,7.632C74.121,11.449,73.239,-16.155,97.653,-21.54"/><path d="M49.414,7.632C74.121,11.449,73.628,-14.279,98.171,-19.039"/><path d="M49.414,7.632C74.121,11.449,73.969,-12.394,98.625,-16.526"/><path d="M49.414,7.632C74.121,11.449,74.261,-10.501,99.015,-14.002"/><path d="M49.414,7.632C74.121,11.449,74.505,-8.601,99.34,-11.468"/><path d="M49.414,7.632C74.121,11.449,74.701,-6.696,99.601,-8.928"/><path d="M49.414,7.632C74.121,11.449,74.847,-4.786,99.796,-6.381"/><path d="M49.414,7.632C74.121,11.449,74.945,-2.873,99.927,-3.83"/><path d="M49.414,7.632C74.121,11.449,74.994,-0.958,99.992,-1.277"/><path d="M49.414,7.632C74.121,11.449,74.994,0.958,99.992,1.277"/><path d="M49.414,7.632C74.121,11.449,74.945,2.873,99.927,3.83"/><path d="M49.414,7.632C74.121,11.449,74.847,4.786,99.796,6.381"/><path d="M49.414,7.632C74.121,11.449,74.701,6.696,99.601,8.928"/><path d="M49.414,7.632C74.121,11.449,74.505,8.601,99.34,11.468"/><path d="M49.414,7.632C74.121,11.449,74.261,10.501,99.015,14.002"/><path d="M49.414,7.632C74.121,11.449,73.969,12.394,98.625,16.526"/><path d="M49.414,7.632C74.121,11.449,73.628,14.279,98.171,19.039"/><path d="M49.414,7.632C74.121,11.449,73.239,16.155,97.653,21.54"/><path d="M49.414,7.632C74.121,11.449,72.803,18.02,97.071,24.027"/><path d="M49.414,7.632C74.121,11.449,72.319,19.874,96.425,26.498"/><path d="M49.414,7.632C74.121,11.449,71.788,21.714,95.717,28.952"/><path d="M49.414,7.632C74.121,11.449,71.21,23.54,94.947,31.387"/><path d="M49.414,7.632C74.121,11.449,70.586,25.351,94.114,33.802"/><path d="M49.414,7.632C74.121,11.449,69.915,27.146,93.22,36.194"/><path d="M49.414,7.632C74.121,11.449,69.199,28.922,92.265,38.563"/><path d="M49.414,7.632C74.121,11.449,68.438,30.68,91.25,40.907"/><path d="M49.414,7.632C74.121,11.449,67.632,32.418,90.176,43.224"/><path d="M49.414,7.632C74.121,11.449,66.782,34.135,89.043,45.513"/><path d="M49.414,7.632C74.121,11.449,65.888,35.829,87.851,47.772"/><path d="M49.414,7.632C74.121,11.449,64.952,37.5,86.603,50"/><path d="M49.414,7.632C74.121,11.449,63.973,39.147,85.297,52.195"/><path d="M49.414,7.632C74.121,11.449,62.952,40.768,83.937,54.357"/><path d="M49.414,7.632C74.121,11.449,61.891,42.362,82.521,56.483"/><path d="M49.414,7.632C74.121,11.449,60.789,43.929,81.052,58.572"/><path d="M49.414,7.632C74.121,11.449,59.647,45.467,79.529,60.623"/><path d="M49.414,7.632C74.121,11.449,58.466,46.975,77.955,62.634"/><path d="M37.328,33.266C55.991,49.899,55.991,49.899,74.655,66.533"/><path d="M12.013,48.535C18.02,72.803,53.371,52.693,71.161,70.258"/><path d="M12.013,48.535C18.02,72.803,52.007,54.039,69.343,72.052"/><path d="M12.013,48.535C18.02,72.803,50.61,55.35,67.481,73.8"/><path d="M12.013,48.535C18.02,72.803,49.18,56.624,65.574,75.499"/><path d="M12.013,48.535C18.02,72.803,47.718,57.862,63.624,77.149"/><path d="M12.013,48.535C18.02,72.803,46.225,59.061,61.633,78.749"/><path d="M12.013,48.535C18.02,72.803,44.701,60.223,59.602,80.297"/><path d="M12.013,48.535C18.02,72.803,43.149,61.345,57.532,81.793"/><path d="M12.013,48.535C18.02,72.803,41.568,62.427,55.424,83.236"/><path d="M12.013,48.535C18.02,72.803,39.96,63.468,53.28,84.624"/><path d="M12.013,48.535C18.02,72.803,38.326,64.468,51.102,85.957"/><path d="M12.013,48.535C18.02,72.803,36.667,65.425,48.89,87.234"/><path d="M12.013,48.535C18.02,72.803,34.985,66.341,46.646,88.454"/><path d="M12.013,48.535C18.02,72.803,33.279,67.212,44.372,89.617"/><path d="M12.013,48.535C18.02,72.803,31.552,68.04,42.069,90.721"/><path d="M12.013,48.535C18.02,72.803,29.804,68.824,39.738,91.765"/><path d="M12.013,48.535C18.02,72.803,28.036,69.563,37.382,92.75"/><path d="M12.013,48.535C18.02,72.803,26.251,70.256,35.001,93.675"/><path d="M12.013,48.535C18.02,72.803,24.448,70.903,32.597,94.538"/><path d="M12.013,48.535C18.02,72.803,22.629,71.505,30.172,95.34"/><path d="M12.013,48.535C18.02,72.803,20.796,72.059,27.727,96.079"/><path d="M12.013,48.535C18.02,72.803,18.948,72.567,25.265,96.756"/><path d="M12.013,48.535C18.02,72.803,17.089,73.027,22.785,97.37"/><path d="M12.013,48.535C18.02,72.803,15.218,73.44,20.291,97.92"/><path d="M12.013,48.535C18.02,72.803,13.338,73.804,17.784,98.406"/><path d="M12.013,48.535C18.02,72.803,11.449,74.121,15.265,98.828"/><path d="M12.013,48.535C18.02,72.803,9.552,74.389,12.736,99.186"/><path d="M12.013,48.535C18.02,72.803,7.649,74.609,10.199,99.479"/><path d="M12.013,48.535C18.02,72.803,5.741,74.78,7.655,99.707"/><path d="M12.013,48.535C18.02,72.803,3.83,74.902,5.106,99.87"/><path d="M12.013,48.535C18.02,72.803,1.915,74.976,2.554,99.967"/><path d="M12.013,48.535C18.02,72.803,0,75,0,100"/><path d="M12.013,48.535C18.02,72.803,-1.915,74.976,-2.554,99.967"/><path d="M12.013,48.535C18.02,72.803,-3.83,74.902,-5.106,99.87"/><path d="M12.013,48.535C18.02,72.803,-5.741,74.78,-7.655,99.707"/><path d="M12.013,48.535C18.02,72.803,-7.649,74.609,-10.199,99.479"/><path d="M12.013,48.535C18.02,72.803,-9.552,74.389,-12.736,99.186"/><path d="M12.013,48.535C18.02,72.803,-11.449,74.121,-15.265,98.828"/><path d="M12.013,48.535C18.02,72.803,-13.338,73.804,-17.784,98.406"/><path d="M12.013,48.535C18.02,72.803,-15.218,73.44,-20.291,97.92"/><path d="M12.013,48.535C18.02,72.803,-17.089,73.027,-22.785,97.37"/><path d="M12.013,48.535C18.02,72.803,-18.948,72.567,-25.265,96.756"/><path d="M12.013,48.535C18.02,72.803,-20.796,72.059,-27.727,96.079"/><path d="M12.013,48.535C18.02,72.803,-22.629,71.505,-30.172,95.34"/><path d="M-27.712,41.618C-41.568,62.427,-26.251,70.256,-35.001,93.675"/><path d="M-27.712,41.618C-41.568,62.427,-28.036,69.563,-37.382,92.75"/><path d="M-27.712,41.618C-41.568,62.427,-29.804,68.824,-39.738,91.765"/><path d="M-27.712,41.618C-41.568,62.427,-31.552,68.04,-42.069,90.721"/><path d="M-27.712,41.618C-41.568,62.427,-33.279,67.212,-44.372,89.617"/><path d="M-27.712,41.618C-41.568,62.427,-34.985,66.341,-46.646,88.454"/><path d="M-27.712,41.618C-41.568,62.427,-36.667,65.425,-48.89,87.234"/><path d="M-27.712,41.618C-41.568,62.427,-38.326,64.468,-51.102,85.957"/><path d="M-27.712,41.618C-41.568,62.427,-39.96,63.468,-53.28,84.624"/><path d="M-27.712,41.618C-41.568,62.427,-41.568,62.427,-55.424,83.236"/><path d="M-27.712,41.618C-41.568,62.427,-43.149,61.345,-57.532,81.793"/><path d="M-27.712,41.618C-41.568,62.427,-44.701,60.223,-59.602,80.297"/><path d="M-27.712,41.618C-41.568,62.427,-46.225,59.061,-61.633,78.749"/><path d="M-27.712,41.618C-41.568,62.427,-47.718,57.862,-63.624,77.149"/><path d="M-27.712,41.618C-41.568,62.427,-49.18,56.624,-65.574,75.499"/><path d="M-27.712,41.618C-41.568,62.427,-50.61,55.35,-67.481,73.8"/><path d="M-27.712,41.618C-41.568,62.427,-52.007,54.039,-69.343,72.052"/><path d="M-27.712,41.618C-41.568,62.427,-53.371,52.693,-71.161,70.258"/><path d="M-27.712,41.618C-41.568,62.427,-54.699,51.313,-72.932,68.417"/><path d="M-44.227,23.323C-66.341,34.985,-57.248,48.453,-76.33,64.604"/><path d="M-44.227,23.323C-66.341,34.985,-58.466,46.975,-77.955,62.634"/><path d="M-44.227,23.323C-66.341,34.985,-59.647,45.467,-79.529,60.623"/><path d="M-44.227,23.323C-66.341,34.985,-60.789,43.929,-81.052,58.572"/><path d="M-44.227,23.323C-66.341,34.985,-61.891,42.362,-82.521,56.483"/><path d="M-44.227,23.323C-66.341,34.985,-62.952,40.768,-83.937,54.357"/><path d="M-44.227,23.323C-66.341,34.985,-63.973,39.147,-85.297,52.195"/><path d="M-44.227,23.323C-66.341,34.985,-64.952,37.5,-86.603,50"/><path d="M-44.227,23.323C-66.341,34.985,-65.888,35.829,-87.851,47.772"/><path d="M-44.227,23.323C-66.341,34.985,-66.782,34.135,-89.043,45.513"/><path d="M-44.227,23.323C-66.341,34.985,-67.632,32.418,-90.176,43.224"/><path d="M-44.227,23.323C-66.341,34.985,-68.438,30.68,-91.25,40.907"/><path d="M-44.227,23.323C-66.341,34.985,-69.199,28.922,-92.265,38.563"/><path d="M-44.227,23.323C-66.341,34.985,-69.915,27.146,-93.22,36.194"/><path d="M-44.227,23.323C-66.341,34.985,-70.586,25.351,-94.114,33.802"/><path d="M-44.227,23.323C-66.341,34.985,-71.21,23.54,-94.947,31.387"/><path d="M-44.227,23.323C-66.341,34.985,-71.788,21.714,-95.717,28.952"/><path d="M-44.227,23.323C-66.341,34.985,-72.319,19.874,-96.425,26.498"/><path d="M-39.374,-30.817C-59.061,-46.225,-73.239,16.155,-97.653,21.54"/><path d="M-39.374,-30.817C-59.061,-46.225,-73.628,14.279,-98.171,19.039"/><path d="M-39.374,-30.817C-59.061,-46.225,-73.969,12.394,-98.625,16.526"/><path d="M-39.374,-30.817C-59.061,-46.225,-74.261,10.501,-99.015,14.002"/><path d="M-39.374,-30.817C-59.061,-46.225,-74.505,8.601,-99.34,11.468"/><path d="M-39.374,-30.817C-59.061,-46.225,-74.701,6.696,-99.601,8.928"/><path d="M-39.374,-30.817C-59.061,-46.225,-74.847,4.786,-99.796,6.381"/><path d="M-39.374,-30.817C-59.061,-46.225,-74.945,2.873,-99.927,3.83"/><path d="M-39.374,-30.817C-59.061,-46.225,-74.994,0.958,-99.992,1.277"/><path d="M-39.374,-30.817C-59.061,-46.225,-74.994,-0.958,-99.992,-1.277"/><path d="M-39.374,-30.817C-59.061,-46.225,-74.945,-2.873,-99.927,-3.83"/><path d="M-39.374,-30.817C-59.061,-46.225,-74.847,-4.786,-99.796,-6.381"/><path d="M-39.374,-30.817C-59.061,-46.225,-74.701,-6.696,-99.601,-8.928"/><path d="M-39.374,-30.817C-59.061,-46.225,-74.505,-8.601,-99.34,-11.468"/><path d="M-39.374,-30.817C-59.061,-46.225,-74.261,-10.501,-99.015,-14.002"/><path d="M-39.374,-30.817C-59.061,-46.225,-73.969,-12.394,-98.625,-16.526"/><path d="M-39.374,-30.817C-59.061,-46.225,-73.628,-14.279,-98.171,-19.039"/><path d="M-39.374,-30.817C-59.061,-46.225,-73.239,-16.155,-97.653,-21.54"/><path d="M-39.374,-30.817C-59.061,-46.225,-72.803,-18.02,-97.071,-24.027"/><path d="M-39.374,-30.817C-59.061,-46.225,-72.319,-19.874,-96.425,-26.498"/><path d="M-39.374,-30.817C-59.061,-46.225,-71.788,-21.714,-95.717,-28.952"/><path d="M-39.374,-30.817C-59.061,-46.225,-71.21,-23.54,-94.947,-31.387"/><path d="M-39.374,-30.817C-59.061,-46.225,-70.586,-25.351,-94.114,-33.802"/><path d="M-39.374,-30.817C-59.061,-46.225,-69.915,-27.146,-93.22,-36.194"/><path d="M-39.374,-30.817C-59.061,-46.225,-69.199,-28.922,-92.265,-38.563"/><path d="M-39.374,-30.817C-59.061,-46.225,-68.438,-30.68,-91.25,-40.907"/><path d="M-39.374,-30.817C-59.061,-46.225,-67.632,-32.418,-90.176,-43.224"/><path d="M-39.374,-30.817C-59.061,-46.225,-66.782,-34.135,-89.043,-45.513"/><path d="M-39.374,-30.817C-59.061,-46.225,-65.888,-35.829,-87.851,-47.772"/><path d="M-39.374,-30.817C-59.061,-46.225,-64.952,-37.5,-86.603,-50"/><path d="M-39.374,-30.817C-59.061,-46.225,-63.973,-39.147,-85.297,-52.195"/><path d="M-39.374,-30.817C-59.061,-46.225,-62.952,-40.768,-83.937,-54.357"/><path d="M-39.374,-30.817C-59.061,-46.225,-61.891,-42.362,-82.521,-56.483"/><path d="M-39.374,-30.817C-59.061,-46.225,-60.789,-43.929,-81.052,-58.572"/><path d="M-39.374,-30.817C-59.061,-46.225,-59.647,-45.467,-79.529,-60.623"/><path d="M-39.374,-30.817C-59.061,-46.225,-58.466,-46.975,-77.955,-62.634"/><path d="M-39.374,-30.817C-59.061,-46.225,-57.248,-48.453,-76.33,-64.604"/><path d="M-39.374,-30.817C-59.061,-46.225,-55.991,-49.899,-74.655,-66.533"/><path d="M-39.374,-30.817C-59.061,-46.225,-54.699,-51.313,-72.932,-68.417"/><path d="M-39.374,-30.817C-59.061,-46.225,-53.371,-52.693,-71.161,-70.258"/><path d="M-39.374,-30.817C-59.061,-46.225,-52.007,-54.039,-69.343,-72.052"/><path d="M-39.374,-30.817C-59.061,-46.225,-50.61,-55.35,-67.481,-73.8"/><path d="M-39.374,-30.817C-59.061,-46.225,-49.18,-56.624,-65.574,-75.499"/><path d="M-39.374,-30.817C-59.061,-46.225,-47.718,-57.862,-63.624,-77.149"/><path d="M-39.374,-30.817C-59.061,-46.225,-46.225,-59.061,-61.633,-78.749"/><path d="M-39.374,-30.817C-59.061,-46.225,-44.701,-60.223,-59.602,-80.297"/><path d="M-39.374,-30.817C-59.061,-46.225,-43.149,-61.345,-57.532,-81.793"/><path d="M-39.374,-30.817C-59.061,-46.225,-41.568,-62.427,-55.424,-83.236"/><path d="M-39.374,-30.817C-59.061,-46.225,-39.96,-63.468,-53.28,-84.624"/><path d="M-39.374,-30.817C-59.061,-46.225,-38.326,-64.468,-51.102,-85.957"/><path d="M-39.374,-30.817C-59.061,-46.225,-36.667,-65.425,-48.89,-87.234"/><path d="M-39.374,-30.817C-59.061,-46.225,-34.985,-66.341,-46.646,-88.454"/><path d="M-39.374,-30.817C-59.061,-46.225,-33.279,-67.212,-44.372,-89.617"/><path d="M-39.374,-30.817C-59.061,-46.225,-31.552,-68.04,-42.069,-90.721"/><path d="M-39.374,-30.817C-59.061,-46.225,-29.804,-68.824,-39.738,-91.765"/><path d="M-39.374,-30.817C-59.061,-46.225,-28.036,-69.563,-37.382,-92.75"/><path d="M-39.374,-30.817C-59.061,-46.225,-26.251,-70.256,-35.001,-93.675"/><path d="M-39.374,-30.817C-59.061,-46.225,-24.448,-70.903,-32.597,-94.538"/><path d="M-39.374,-30.817C-59.061,-46.225,-22.629,-71.505,-30.172,-95.34"/><path d="M-39.374,-30.817C-59.061,-46.225,-20.796,-72.059,-27.727,-96.079"/><path d="M-39.374,-30.817C-59.061,-46.225,-18.948,-72.567,-25.265,-96.756"/><path d="M-39.374,-30.817C-59.061,-46.225,-17.089,-73.027,-22.785,-97.37"/><path d="M-39.374,-30.817C-59.061,-46.225,-15.218,-73.44,-20.291,-97.92"/><path d="M-39.374,-30.817C-59.061,-46.225,-13.338,-73.804,-17.784,-98.406"/><path d="M-39.374,-30.817C-59.061,-46.225,-11.449,-74.121,-15.265,-98.828"/><path d="M-39.374,-30.817C-59.061,-46.225,-9.552,-74.389,-12.736,-99.186"/><path d="M-39.374,-30.817C-59.061,-46.225,-7.649,-74.609,-10.199,-99.479"/><path d="M-39.374,-30.817C-59.061,-46.225,-5.741,-74.78,-7.655,-99.707"/><path d="M-39.374,-30.817C-59.061,-46.225,-3.83,-74.902,-5.106,-99.87"/><path d="M-39.374,-30.817C-59.061,-46.225,-1.915,-74.976,-2.554,-99.967"/></g><g><circle transform="rotate(80.59233449477352) translate(0,0)" fill="#555" r="1"/><circle transform="rotate(-56.34146341463415) translate(50,0)" fill="#555" r="1"/><circle transform="rotate(8.780487804878064) translate(50,0)" fill="#555" r="1"/><circle transform="rotate(41.70731707317074) translate(50,0)" fill="#555" r="1"/><circle transform="rotate(76.09756097560975) translate(50,0)" fill="#555" r="1"/><circle transform="rotate(123.65853658536585) translate(50,0)" fill="#555" r="1"/><circle transform="rotate(152.1951219512195) translate(50,0)" fill="#555" r="1"/><circle transform="rotate(218.04878048780483) translate(50,0)" fill="#555" r="1"/><circle transform="rotate(-88.53658536585365) translate(100,0)" fill="#999" r="1"/><circle transform="rotate(-87.07317073170732) translate(100,0)" fill="#999" r="1"/><circle transform="rotate(-85.60975609756098) translate(100,0)" fill="#999" r="1"/><circle transform="rotate(-84.14634146341463) translate(100,0)" fill="#999" r="1"/><circle transform="rotate(-82.6829268292683) translate(100,0)" fill="#999" r="1"/><circle transform="rotate(-81.21951219512195) translate(100,0)" fill="#999" r="1"/><circle transform="rotate(-79.7560975609756) translate(100,0)" fill="#999" r="1"/><circle transform="rotate(-78.29268292682927) translate(100,0)" fill="#999" r="1"/><circle transform="rotate(-76.82926829268293) translate(100,0)" fill="#999" r="1"/><circle transform="rotate(-75.3658536585366) translate(100,0)" fill="#999" r="1"/><circle transform="rotate(-73.90243902439025) translate(100,0)" fill="#999" r="1"/><circle transform="rotate(-72.4390243902439) translate(100,0)" fill="#999" r="1"/><circle transform="rotate(-70.97560975609755) translate(100,0)" fill="#999" r="1"/><circle transform="rotate(-69.51219512195122) translate(100,0)" fill="#999" r="1"/><circle transform="rotate(-68.04878048780488) translate(100,0)" fill="#999" r="1"/><circle transform="rotate(-66.58536585365853) translate(100,0)" fill="#999" r="1"/><circle transform="rotate(-65.1219512195122) translate(100,0)" fill="#999" r="1"/><circle transform="rotate(-63.65853658536585) translate(100,0)" fill="#999" r="1"/><circle transform="rotate(-62.195121951219505) translate(100,0)" fill="#999" r="1"/><circle transform="rotate(-60.73170731707317) translate(100,0)" fill="#999" r="1"/><circle transform="rotate(-59.26829268292683) translate(100,0)" fill="#999" r="1"/><circle transform="rotate(-57.80487804878048) translate(100,0)" fill="#999" r="1"/><circle transform="rotate(-56.34146341463415) translate(100,0)" fill="#999" r="1"/><circle transform="rotate(-54.8780487804878) translate(100,0)" fill="#999" r="1"/><circle transform="rotate(-53.41463414634146) translate(100,0)" fill="#999" r="1"/><circle transform="rotate(-51.95121951219512) translate(100,0)" fill="#999" r="1"/><circle transform="rotate(-50.487804878048784) translate(100,0)" fill="#999" r="1"/><circle transform="rotate(-49.024390243902445) translate(100,0)" fill="#999" r="1"/><circle transform="rotate(-47.5609756097561) translate(100,0)" fill="#999" r="1"/><circle transform="rotate(-46.09756097560976) translate(100,0)" fill="#999" r="1"/><circle transform="rotate(-44.63414634146341) translate(100,0)" fill="#999" r="1"/><circle transform="rotate(-43.17073170731707) translate(100,0)" fill="#999" r="1"/><circle transform="rotate(-41.70731707317073) translate(100,0)" fill="#999" r="1"/><circle transform="rotate(-40.243902439024396) translate(100,0)" fill="#999" r="1"/><circle transform="rotate(-38.78048780487805) translate(100,0)" fill="#999" r="1"/><circle transform="rotate(-37.3170731707317) translate(100,0)" fill="#999" r="1"/><circle transform="rotate(-35.85365853658536) translate(100,0)" fill="#999" r="1"/><circle transform="rotate(-34.39024390243902) translate(100,0)" fill="#999" r="1"/><circle transform="rotate(-32.926829268292686) translate(100,0)" fill="#999" r="1"/><circle transform="rotate(-31.463414634146346) translate(100,0)" fill="#999" r="1"/><circle transform="rotate(-30.000000000000007) translate(100,0)" fill="#999" r="1"/><circle transform="rotate(-28.536585365853654) translate(100,0)" fill="#999" r="1"/><circle transform="rotate(-27.073170731707314) translate(100,0)" fill="#999" r="1"/><circle transform="rotate(-25.60975609756096) translate(100,0)" fill="#999" r="1"/><circle transform="rotate(-24.14634146341463) translate(100,0)" fill="#999" r="1"/><circle transform="rotate(-21.21951219512195) translate(100,0)" fill="#999" r="1"/><circle transform="rotate(-19.756097560975604) translate(100,0)" fill="#999" r="1"/><circle transform="rotate(-18.292682926829272) translate(100,0)" fill="#999" r="1"/><circle transform="rotate(-16.829268292682926) translate(100,0)" fill="#999" r="1"/><circle transform="rotate(-15.365853658536594) translate(100,0)" fill="#999" r="1"/><circle transform="rotate(-13.902439024390233) translate(100,0)" fill="#999" r="1"/><circle transform="rotate(-12.439024390243901) translate(100,0)" fill="#999" r="1"/><circle transform="rotate(-10.975609756097569) translate(100,0)" fill="#999" r="1"/><circle transform="rotate(-9.512195121951208) translate(100,0)" fill="#999" r="1"/><circle transform="rotate(-8.04878048780489) translate(100,0)" fill="#999" r="1"/><circle transform="rotate(-6.585365853658544) translate(100,0)" fill="#999" r="1"/><circle transform="rotate(-5.121951219512198) translate(100,0)" fill="#999" r="1"/><circle transform="rotate(-3.6585365853658374) translate(100,0)" fill="#999" r="1"/><circle transform="rotate(-2.1951219512195195) translate(100,0)" fill="#999" r="1"/><circle transform="rotate(-0.7317073170731874) translate(100,0)" fill="#999" r="1"/><circle transform="rotate(0.7317073170731732) translate(100,0)" fill="#999" r="1"/><circle transform="rotate(2.1951219512195195) translate(100,0)" fill="#999" r="1"/><circle transform="rotate(3.658536585365866) translate(100,0)" fill="#999" r="1"/><circle transform="rotate(5.121951219512198) translate(100,0)" fill="#999" r="1"/><circle transform="rotate(6.585365853658544) translate(100,0)" fill="#999" r="1"/><circle transform="rotate(8.048780487804876) translate(100,0)" fill="#999" r="1"/><circle transform="rotate(9.512195121951208) translate(100,0)" fill="#999" r="1"/><circle transform="rotate(10.975609756097583) translate(100,0)" fill="#999" r="1"/><circle transform="rotate(12.439024390243901) translate(100,0)" fill="#999" r="1"/><circle transform="rotate(13.902439024390262) translate(100,0)" fill="#999" r="1"/><circle transform="rotate(15.365853658536594) translate(100,0)" fill="#999" r="1"/><circle transform="rotate(16.829268292682926) translate(100,0)" fill="#999" r="1"/><circle transform="rotate(18.292682926829286) translate(100,0)" fill="#999" r="1"/><circle transform="rotate(19.756097560975604) translate(100,0)" fill="#999" r="1"/><circle transform="rotate(21.219512195121965) translate(100,0)" fill="#999" r="1"/><circle transform="rotate(22.682926829268283) translate(100,0)" fill="#999" r="1"/><circle transform="rotate(24.14634146341463) translate(100,0)" fill="#999" r="1"/><circle transform="rotate(25.609756097560975) translate(100,0)" fill="#999" r="1"/><circle transform="rotate(27.073170731707307) translate(100,0)" fill="#999" r="1"/><circle transform="rotate(28.536585365853682) translate(100,0)" fill="#999" r="1"/><circle transform="rotate(29.999999999999986) translate(100,0)" fill="#999" r="1"/><circle transform="rotate(31.463414634146346) translate(100,0)" fill="#999" r="1"/><circle transform="rotate(32.92682926829269) translate(100,0)" fill="#999" r="1"/><circle transform="rotate(34.390243902439025) translate(100,0)" fill="#999" r="1"/><circle transform="rotate(35.85365853658537) translate(100,0)" fill="#999" r="1"/><circle transform="rotate(37.31707317073169) translate(100,0)" fill="#999" r="1"/><circle transform="rotate(38.78048780487808) translate(100,0)" fill="#999" r="1"/><circle transform="rotate(41.70731707317074) translate(100,0)" fill="#999" r="1"/><circle transform="rotate(44.634146341463406) translate(100,0)" fill="#999" r="1"/><circle transform="rotate(46.09756097560975) translate(100,0)" fill="#999" r="1"/><circle transform="rotate(47.5609756097561) translate(100,0)" fill="#999" r="1"/><circle transform="rotate(49.024390243902445) translate(100,0)" fill="#999" r="1"/><circle transform="rotate(50.48780487804879) translate(100,0)" fill="#999" r="1"/><circle transform="rotate(51.95121951219511) translate(100,0)" fill="#999" r="1"/><circle transform="rotate(53.414634146341456) translate(100,0)" fill="#999" r="1"/><circle transform="rotate(54.8780487804878) translate(100,0)" fill="#999" r="1"/><circle transform="rotate(56.34146341463415) translate(100,0)" fill="#999" r="1"/><circle transform="rotate(57.804878048780495) translate(100,0)" fill="#999" r="1"/><circle transform="rotate(59.26829268292681) translate(100,0)" fill="#999" r="1"/><circle transform="rotate(60.73170731707319) translate(100,0)" fill="#999" r="1"/><circle transform="rotate(62.195121951219534) translate(100,0)" fill="#999" r="1"/><circle transform="rotate(63.65853658536585) translate(100,0)" fill="#999" r="1"/><circle transform="rotate(65.1219512195122) translate(100,0)" fill="#999" r="1"/><circle transform="rotate(66.58536585365854) translate(100,0)" fill="#999" r="1"/><circle transform="rotate(68.04878048780486) translate(100,0)" fill="#999" r="1"/><circle transform="rotate(69.51219512195124) translate(100,0)" fill="#999" r="1"/><circle transform="rotate(70.97560975609758) translate(100,0)" fill="#999" r="1"/><circle transform="rotate(72.43902439024393) translate(100,0)" fill="#999" r="1"/><circle transform="rotate(73.90243902439022) translate(100,0)" fill="#999" r="1"/><circle transform="rotate(75.3658536585366) translate(100,0)" fill="#999" r="1"/><circle transform="rotate(76.82926829268291) translate(100,0)" fill="#999" r="1"/><circle transform="rotate(78.29268292682929) translate(100,0)" fill="#999" r="1"/><circle transform="rotate(79.7560975609756) translate(100,0)" fill="#999" r="1"/><circle transform="rotate(81.21951219512195) translate(100,0)" fill="#999" r="1"/><circle transform="rotate(82.68292682926833) translate(100,0)" fill="#999" r="1"/><circle transform="rotate(84.14634146341464) translate(100,0)" fill="#999" r="1"/><circle transform="rotate(85.60975609756096) translate(100,0)" fill="#999" r="1"/><circle transform="rotate(87.07317073170731) translate(100,0)" fill="#999" r="1"/><circle transform="rotate(88.53658536585363) translate(100,0)" fill="#999" r="1"/><circle transform="rotate(90) translate(100,0)" fill="#999" r="1"/><circle transform="rotate(91.46341463414635) translate(100,0)" fill="#999" r="1"/><circle transform="rotate(92.92682926829269) translate(100,0)" fill="#999" r="1"/><circle transform="rotate(94.39024390243904) translate(100,0)" fill="#999" r="1"/><circle transform="rotate(95.85365853658536) translate(100,0)" fill="#999" r="1"/><circle transform="rotate(97.31707317073173) translate(100,0)" fill="#999" r="1"/><circle transform="rotate(98.78048780487808) translate(100,0)" fill="#999" r="1"/><circle transform="rotate(100.2439024390244) translate(100,0)" fill="#999" r="1"/><circle transform="rotate(101.70731707317069) translate(100,0)" fill="#999" r="1"/><circle transform="rotate(103.17073170731709) translate(100,0)" fill="#999" r="1"/><circle transform="rotate(104.63414634146343) translate(100,0)" fill="#999" r="1"/><circle transform="rotate(106.09756097560975) translate(100,0)" fill="#999" r="1"/><circle transform="rotate(107.56097560975613) translate(100,0)" fill="#999" r="1"/><circle transform="rotate(110.48780487804879) translate(100,0)" fill="#999" r="1"/><circle transform="rotate(111.95121951219517) translate(100,0)" fill="#999" r="1"/><circle transform="rotate(113.41463414634146) translate(100,0)" fill="#999" r="1"/><circle transform="rotate(114.8780487804878) translate(100,0)" fill="#999" r="1"/><circle transform="rotate(116.34146341463415) translate(100,0)" fill="#999" r="1"/><circle transform="rotate(117.80487804878052) translate(100,0)" fill="#999" r="1"/><circle transform="rotate(119.26829268292681) translate(100,0)" fill="#999" r="1"/><circle transform="rotate(120.73170731707319) translate(100,0)" fill="#999" r="1"/><circle transform="rotate(122.19512195121953) translate(100,0)" fill="#999" r="1"/><circle transform="rotate(123.65853658536585) translate(100,0)" fill="#999" r="1"/><circle transform="rotate(125.1219512195122) translate(100,0)" fill="#999" r="1"/><circle transform="rotate(126.58536585365857) translate(100,0)" fill="#999" r="1"/><circle transform="rotate(128.04878048780492) translate(100,0)" fill="#999" r="1"/><circle transform="rotate(129.5121951219512) translate(100,0)" fill="#999" r="1"/><circle transform="rotate(130.97560975609755) translate(100,0)" fill="#999" r="1"/><circle transform="rotate(132.43902439024393) translate(100,0)" fill="#999" r="1"/><circle transform="rotate(133.90243902439022) translate(100,0)" fill="#999" r="1"/><circle transform="rotate(135.36585365853657) translate(100,0)" fill="#999" r="1"/><circle transform="rotate(136.82926829268294) translate(100,0)" fill="#999" r="1"/><circle transform="rotate(139.75609756097563) translate(100,0)" fill="#999" r="1"/><circle transform="rotate(141.21951219512195) translate(100,0)" fill="#999" r="1"/><circle transform="rotate(142.68292682926833) translate(100,0)" fill="#999" r="1"/><circle transform="rotate(144.14634146341461) translate(100,0)" fill="#999" r="1"/><circle transform="rotate(145.60975609756096) translate(100,0)" fill="#999" r="1"/><circle transform="rotate(147.07317073170736) translate(100,0)" fill="#999" r="1"/><circle transform="rotate(148.53658536585365) translate(100,0)" fill="#999" r="1"/><circle transform="rotate(149.99999999999997) translate(100,0)" fill="#999" r="1"/><circle transform="rotate(151.46341463414637) translate(100,0)" fill="#999" r="1"/><circle transform="rotate(152.9268292682927) translate(100,0)" fill="#999" r="1"/><circle transform="rotate(154.390243902439) translate(100,0)" fill="#999" r="1"/><circle transform="rotate(155.85365853658539) translate(100,0)" fill="#999" r="1"/><circle transform="rotate(157.3170731707317) translate(100,0)" fill="#999" r="1"/><circle transform="rotate(158.78048780487805) translate(100,0)" fill="#999" r="1"/><circle transform="rotate(160.2439024390244) translate(100,0)" fill="#999" r="1"/><circle transform="rotate(161.70731707317074) translate(100,0)" fill="#999" r="1"/><circle transform="rotate(163.17073170731706) translate(100,0)" fill="#999" r="1"/><circle transform="rotate(164.63414634146338) translate(100,0)" fill="#999" r="1"/><circle transform="rotate(167.56097560975616) translate(100,0)" fill="#999" r="1"/><circle transform="rotate(169.02439024390242) translate(100,0)" fill="#999" r="1"/><circle transform="rotate(170.4878048780488) translate(100,0)" fill="#999" r="1"/><circle transform="rotate(171.9512195121951) translate(100,0)" fill="#999" r="1"/><circle transform="rotate(173.41463414634148) translate(100,0)" fill="#999" r="1"/><circle transform="rotate(174.8780487804878) translate(100,0)" fill="#999" r="1"/><circle transform="rotate(176.34146341463412) translate(100,0)" fill="#999" r="1"/><circle transform="rotate(177.8048780487805) translate(100,0)" fill="#999" r="1"/><circle transform="rotate(179.2682926829268) translate(100,0)" fill="#999" r="1"/><circle transform="rotate(180.73170731707313) translate(100,0)" fill="#999" r="1"/><circle transform="rotate(182.1951219512195) translate(100,0)" fill="#999" r="1"/><circle transform="rotate(183.65853658536588) translate(100,0)" fill="#999" r="1"/><circle transform="rotate(185.1219512195122) translate(100,0)" fill="#999" r="1"/><circle transform="rotate(186.58536585365857) translate(100,0)" fill="#999" r="1"/><circle transform="rotate(188.0487804878049) translate(100,0)" fill="#999" r="1"/><circle transform="rotate(189.51219512195115) translate(100,0)" fill="#999" r="1"/><circle transform="rotate(190.97560975609758) translate(100,0)" fill="#999" r="1"/><circle transform="rotate(192.4390243902439) translate(100,0)" fill="#999" r="1"/><circle transform="rotate(193.90243902439022) translate(100,0)" fill="#999" r="1"/><circle transform="rotate(195.3658536585366) translate(100,0)" fill="#999" r="1"/><circle transform="rotate(196.8292682926829) translate(100,0)" fill="#999" r="1"/><circle transform="rotate(198.2926829268293) translate(100,0)" fill="#999" r="1"/><circle transform="rotate(199.7560975609756) translate(100,0)" fill="#999" r="1"/><circle transform="rotate(201.21951219512192) translate(100,0)" fill="#999" r="1"/><circle transform="rotate(202.6829268292683) translate(100,0)" fill="#999" r="1"/><circle transform="rotate(204.14634146341461) translate(100,0)" fill="#999" r="1"/><circle transform="rotate(205.609756097561) translate(100,0)" fill="#999" r="1"/><circle transform="rotate(207.0731707317073) translate(100,0)" fill="#999" r="1"/><circle transform="rotate(208.53658536585363) translate(100,0)" fill="#999" r="1"/><circle transform="rotate(210.00000000000006) translate(100,0)" fill="#999" r="1"/><circle transform="rotate(211.46341463414637) translate(100,0)" fill="#999" r="1"/><circle transform="rotate(212.92682926829264) translate(100,0)" fill="#999" r="1"/><circle transform="rotate(214.39024390243907) translate(100,0)" fill="#999" r="1"/><circle transform="rotate(215.85365853658539) translate(100,0)" fill="#999" r="1"/><circle transform="rotate(217.3170731707317) translate(100,0)" fill="#999" r="1"/><circle transform="rotate(218.78048780487802) translate(100,0)" fill="#999" r="1"/><circle transform="rotate(220.2439024390244) translate(100,0)" fill="#999" r="1"/><circle transform="rotate(221.7073170731707) translate(100,0)" fill="#999" r="1"/><circle transform="rotate(223.1707317073171) translate(100,0)" fill="#999" r="1"/><circle transform="rotate(224.6341463414634) translate(100,0)" fill="#999" r="1"/><circle transform="rotate(226.09756097560972) translate(100,0)" fill="#999" r="1"/><circle transform="rotate(227.5609756097561) translate(100,0)" fill="#999" r="1"/><circle transform="rotate(229.02439024390247) translate(100,0)" fill="#999" r="1"/><circle transform="rotate(230.4878048780488) translate(100,0)" fill="#999" r="1"/><circle transform="rotate(231.95121951219517) translate(100,0)" fill="#999" r="1"/><circle transform="rotate(233.41463414634143) translate(100,0)" fill="#999" r="1"/><circle transform="rotate(234.87804878048786) translate(100,0)" fill="#999" r="1"/><circle transform="rotate(236.34146341463412) translate(100,0)" fill="#999" r="1"/><circle transform="rotate(237.80487804878044) translate(100,0)" fill="#999" r="1"/><circle transform="rotate(239.2682926829268) translate(100,0)" fill="#999" r="1"/><circle transform="rotate(240.7317073170732) translate(100,0)" fill="#999" r="1"/><circle transform="rotate(242.1951219512195) translate(100,0)" fill="#999" r="1"/><circle transform="rotate(243.65853658536582) translate(100,0)" fill="#999" r="1"/><circle transform="rotate(245.12195121951214) translate(100,0)" fill="#999" r="1"/><circle transform="rotate(246.58536585365857) translate(100,0)" fill="#999" r="1"/><circle transform="rotate(248.0487804878049) translate(100,0)" fill="#999" r="1"/><circle transform="rotate(249.5121951219512) translate(100,0)" fill="#999" r="1"/><circle transform="rotate(250.97560975609758) translate(100,0)" fill="#999" r="1"/><circle transform="rotate(252.4390243902439) translate(100,0)" fill="#999" r="1"/><circle transform="rotate(253.90243902439028) translate(100,0)" fill="#999" r="1"/><circle transform="rotate(255.36585365853665) translate(100,0)" fill="#999" r="1"/><circle transform="rotate(256.8292682926829) translate(100,0)" fill="#999" r="1"/><circle transform="rotate(258.2926829268293) translate(100,0)" fill="#999" r="1"/><circle transform="rotate(259.7560975609756) translate(100,0)" fill="#999" r="1"/><circle transform="rotate(261.2195121951219) translate(100,0)" fill="#999" r="1"/><circle transform="rotate(262.6829268292683) translate(100,0)" fill="#999" r="1"/><circle transform="rotate(264.1463414634146) translate(100,0)" fill="#999" r="1"/><circle transform="rotate(265.60975609756093) translate(100,0)" fill="#999" r="1"/><circle transform="rotate(267.07317073170725) translate(100,0)" fill="#999" r="1"/><circle transform="rotate(268.5365853658537) translate(100,0)" fill="#999" r="1"/></g><g stroke-linejoin="round" stroke-width="1.2"><text transform="rotate(80.59233449477352) translate(0,0) rotate(0)" dy="0.35em" x="-6" text-anchor="end" paint-order="stroke" stroke="white" fill="currentColor">Podcasts</text><text transform="rotate(-56.34146341463415) translate(50,0) rotate(0)" dy="0.35em" x="-6" text-anchor="end" paint-order="stroke" stroke="white" fill="currentColor">AI</text><text transform="rotate(8.780487804878064) translate(50,0) rotate(0)" dy="0.35em" x="-6" text-anchor="end" paint-order="stroke" stroke="white" fill="currentColor">Business</text><text transform="rotate(41.70731707317074) translate(50,0) rotate(0)" dy="0.35em" x="-6" text-anchor="end" paint-order="stroke" stroke="white" fill="currentColor">Career</text><text transform="rotate(76.09756097560975) translate(50,0) rotate(0)" dy="0.35em" x="-6" text-anchor="end" paint-order="stroke" stroke="white" fill="currentColor">Design &amp; Art</text><text transform="rotate(123.65853658536585) translate(50,0) rotate(180)" dy="0.35em" x="6" text-anchor="start" paint-order="stroke" stroke="white" fill="currentColor">News</text><text transform="rotate(152.1951219512195) translate(50,0) rotate(180)" dy="0.35em" x="6" text-anchor="start" paint-order="stroke" stroke="white" fill="currentColor">Science</text><text transform="rotate(218.04878048780483) translate(50,0) rotate(180)" dy="0.35em" x="6" text-anchor="start" paint-order="stroke" stroke="white" fill="currentColor">Technology</text><text transform="rotate(-88.53658536585365) translate(100,0) rotate(0)" dy="0.35em" x="6" text-anchor="start" paint-order="stroke" stroke="white" fill="currentColor">AI4Dラジオ - デザインが動...</text><text transform="rotate(-87.07317073170732) translate(100,0) rotate(0)" dy="0.35em" x="6" text-anchor="start" paint-order="stroke" stroke="white" fill="currentColor">AI未来話</text><text transform="rotate(-85.60975609756098) translate(100,0) rotate(0)" dy="0.35em" x="6" text-anchor="start" paint-order="stroke" stroke="white" fill="currentColor">ALL AI PODCAST</text><text transform="rotate(-84.14634146341463) translate(100,0) rotate(0)" dy="0.35em" x="6" text-anchor="start" paint-order="stroke" stroke="white" fill="currentColor">BTRAXのCEOによるサンフラ...</text><text transform="rotate(-82.6829268292683) translate(100,0) rotate(0)" dy="0.35em" x="6" text-anchor="start" paint-order="stroke" stroke="white" fill="currentColor">DEEP TECH起業熱｜Go ...</text><text transform="rotate(-81.21951219512195) translate(100,0) rotate(0)" dy="0.35em" x="6" text-anchor="start" paint-order="stroke" stroke="white" fill="currentColor">Founders</text><text transform="rotate(-79.7560975609756) translate(100,0) rotate(0)" dy="0.35em" x="6" text-anchor="start" paint-order="stroke" stroke="white" fill="currentColor">Future of UX | Y...</text><text transform="rotate(-78.29268292682927) translate(100,0) rotate(0)" dy="0.35em" x="6" text-anchor="start" paint-order="stroke" stroke="white" fill="currentColor">Hapa英会話 Podcast</text><text transform="rotate(-76.82926829268293) translate(100,0) rotate(0)" dy="0.35em" x="6" text-anchor="start" paint-order="stroke" stroke="white" fill="currentColor">Huberman Lab</text><text transform="rotate(-75.3658536585366) translate(100,0) rotate(0)" dy="0.35em" x="6" text-anchor="start" paint-order="stroke" stroke="white" fill="currentColor">Inside Algomatic</text><text transform="rotate(-73.90243902439025) translate(100,0) rotate(0)" dy="0.35em" x="6" text-anchor="start" paint-order="stroke" stroke="white" fill="currentColor">Joi Ito's Podcas...</text><text transform="rotate(-72.4390243902439) translate(100,0) rotate(0)" dy="0.35em" x="6" text-anchor="start" paint-order="stroke" stroke="white" fill="currentColor">Level 5 by Palo ...</text><text transform="rotate(-70.97560975609755) translate(100,0) rotate(0)" dy="0.35em" x="6" text-anchor="start" paint-order="stroke" stroke="white" fill="currentColor">OpenAI Podcast</text><text transform="rotate(-69.51219512195122) translate(100,0) rotate(0)" dy="0.35em" x="6" text-anchor="start" paint-order="stroke" stroke="white" fill="currentColor">Repeat Rhyme / リ...</text><text transform="rotate(-68.04878048780488) translate(100,0) rotate(0)" dy="0.35em" x="6" text-anchor="start" paint-order="stroke" stroke="white" fill="currentColor">SingularRadio - ...</text><text transform="rotate(-66.58536585365853) translate(100,0) rotate(0)" dy="0.35em" x="6" text-anchor="start" paint-order="stroke" stroke="white" fill="currentColor">TED Talks Daily</text><text transform="rotate(-65.1219512195122) translate(100,0) rotate(0)" dy="0.35em" x="6" text-anchor="start" paint-order="stroke" stroke="white" fill="currentColor">TechCrunch Daily...</text><text transform="rotate(-63.65853658536585) translate(100,0) rotate(0)" dy="0.35em" x="6" text-anchor="start" paint-order="stroke" stroke="white" fill="currentColor">The Peter Attia ...</text><text transform="rotate(-62.195121951219505) translate(100,0) rotate(0)" dy="0.35em" x="6" text-anchor="start" paint-order="stroke" stroke="white" fill="currentColor">The Straw Millio...</text><text transform="rotate(-60.73170731707317) translate(100,0) rotate(0)" dy="0.35em" x="6" text-anchor="start" paint-order="stroke" stroke="white" fill="currentColor">Uncanny Valley |...</text><text transform="rotate(-59.26829268292683) translate(100,0) rotate(0)" dy="0.35em" x="6" text-anchor="start" paint-order="stroke" stroke="white" fill="currentColor">Waveform: The MK...</text><text transform="rotate(-57.80487804878048) translate(100,0) rotate(0)" dy="0.35em" x="6" text-anchor="start" paint-order="stroke" stroke="white" fill="currentColor">ZOE Science &amp; Nu...</text><text transform="rotate(-56.34146341463415) translate(100,0) rotate(0)" dy="0.35em" x="6" text-anchor="start" paint-order="stroke" stroke="white" fill="currentColor">a scope ~リベラルアーツ...</text><text transform="rotate(-54.8780487804878) translate(100,0) rotate(0)" dy="0.35em" x="6" text-anchor="start" paint-order="stroke" stroke="white" fill="currentColor">a16z Podcast</text><text transform="rotate(-53.41463414634146) translate(100,0) rotate(0)" dy="0.35em" x="6" text-anchor="start" paint-order="stroke" stroke="white" fill="currentColor">おちつきAIラジオ</text><text transform="rotate(-51.95121951219512) translate(100,0) rotate(0)" dy="0.35em" x="6" text-anchor="start" paint-order="stroke" stroke="white" fill="currentColor">ながらAIラジオ</text><text transform="rotate(-50.487804878048784) translate(100,0) rotate(0)" dy="0.35em" x="6" text-anchor="start" paint-order="stroke" stroke="white" fill="currentColor">サイエントーク</text><text transform="rotate(-49.024390243902445) translate(100,0) rotate(0)" dy="0.35em" x="6" text-anchor="start" paint-order="stroke" stroke="white" fill="currentColor">ゼロからはじめる独立農家〜命の時...</text><text transform="rotate(-47.5609756097561) translate(100,0) rotate(0)" dy="0.35em" x="6" text-anchor="start" paint-order="stroke" stroke="white" fill="currentColor">テックリードFM -AI時代の人...</text><text transform="rotate(-46.09756097560976) translate(100,0) rotate(0)" dy="0.35em" x="6" text-anchor="start" paint-order="stroke" stroke="white" fill="currentColor">デザインの味付け</text><text transform="rotate(-44.63414634146341) translate(100,0) rotate(0)" dy="0.35em" x="6" text-anchor="start" paint-order="stroke" stroke="white" fill="currentColor">デジタル･ビジネス最前線 ~ マ...</text><text transform="rotate(-43.17073170731707) translate(100,0) rotate(0)" dy="0.35em" x="6" text-anchor="start" paint-order="stroke" stroke="white" fill="currentColor">デデデータ!!〜“あきない”デー...</text><text transform="rotate(-41.70731707317073) translate(100,0) rotate(0)" dy="0.35em" x="6" text-anchor="start" paint-order="stroke" stroke="white" fill="currentColor">バイリンガルニュース (Bili...</text><text transform="rotate(-40.243902439024396) translate(100,0) rotate(0)" dy="0.35em" x="6" text-anchor="start" paint-order="stroke" stroke="white" fill="currentColor">レイ・イナモト「世界のクリエイテ...</text><text transform="rotate(-38.78048780487805) translate(100,0) rotate(0)" dy="0.35em" x="6" text-anchor="start" paint-order="stroke" stroke="white" fill="currentColor">弱音会議 - あまり強い言葉を遣...</text><text transform="rotate(-37.3170731707317) translate(100,0) rotate(0)" dy="0.35em" x="6" text-anchor="start" paint-order="stroke" stroke="white" fill="currentColor">最新技術を楽しく学ぼうテスラジオ...</text><text transform="rotate(-35.85365853658536) translate(100,0) rotate(0)" dy="0.35em" x="6" text-anchor="start" paint-order="stroke" stroke="white" fill="currentColor">歴史を面白く学ぶコテンラジオ （...</text><text transform="rotate(-34.39024390243902) translate(100,0) rotate(0)" dy="0.35em" x="6" text-anchor="start" paint-order="stroke" stroke="white" fill="currentColor">海外キャリアログ</text><text transform="rotate(-32.926829268292686) translate(100,0) rotate(0)" dy="0.35em" x="6" text-anchor="start" paint-order="stroke" stroke="white" fill="currentColor">海外移住channel</text><text transform="rotate(-31.463414634146346) translate(100,0) rotate(0)" dy="0.35em" x="6" text-anchor="start" paint-order="stroke" stroke="white" fill="currentColor">深井・けんすうのまぼろし会議</text><text transform="rotate(-30.000000000000007) translate(100,0) rotate(0)" dy="0.35em" x="6" text-anchor="start" paint-order="stroke" stroke="white" fill="currentColor">深津貴之のGUILD TALK</text><text transform="rotate(-28.536585365853654) translate(100,0) rotate(0)" dy="0.35em" x="6" text-anchor="start" paint-order="stroke" stroke="white" fill="currentColor">耳で学ぶAI、ロボシンク</text><text transform="rotate(-27.073170731707314) translate(100,0) rotate(0)" dy="0.35em" x="6" text-anchor="start" paint-order="stroke" stroke="white" fill="currentColor">聞く AI × デザイン</text><text transform="rotate(-25.60975609756096) translate(100,0) rotate(0)" dy="0.35em" x="6" text-anchor="start" paint-order="stroke" stroke="white" fill="currentColor">自然資本論〜自然資源と楽しく生き...</text><text transform="rotate(-24.14634146341463) translate(100,0) rotate(0)" dy="0.35em" x="6" text-anchor="start" paint-order="stroke" stroke="white" fill="currentColor">起業の履歴書</text><text transform="rotate(-21.21951219512195) translate(100,0) rotate(0)" dy="0.35em" x="6" text-anchor="start" paint-order="stroke" stroke="white" fill="currentColor">ALL STAR SAAS PO...</text><text transform="rotate(-19.756097560975604) translate(100,0) rotate(0)" dy="0.35em" x="6" text-anchor="start" paint-order="stroke" stroke="white" fill="currentColor">BTRAXのCEOによるサンフラ...</text><text transform="rotate(-18.292682926829272) translate(100,0) rotate(0)" dy="0.35em" x="6" text-anchor="start" paint-order="stroke" stroke="white" fill="currentColor">Beat the Odds / ...</text><text transform="rotate(-16.829268292682926) translate(100,0) rotate(0)" dy="0.35em" x="6" text-anchor="start" paint-order="stroke" stroke="white" fill="currentColor">Beyond Facts &amp; L...</text><text transform="rotate(-15.365853658536594) translate(100,0) rotate(0)" dy="0.35em" x="6" text-anchor="start" paint-order="stroke" stroke="white" fill="currentColor">CEREAL TALK / シリ...</text><text transform="rotate(-13.902439024390233) translate(100,0) rotate(0)" dy="0.35em" x="6" text-anchor="start" paint-order="stroke" stroke="white" fill="currentColor">ColdFusion</text><text transform="rotate(-12.439024390243901) translate(100,0) rotate(0)" dy="0.35em" x="6" text-anchor="start" paint-order="stroke" stroke="white" fill="currentColor">DEEP TECH起業熱｜Go ...</text><text transform="rotate(-10.975609756097569) translate(100,0) rotate(0)" dy="0.35em" x="6" text-anchor="start" paint-order="stroke" stroke="white" fill="currentColor">Founders</text><text transform="rotate(-9.512195121951208) translate(100,0) rotate(0)" dy="0.35em" x="6" text-anchor="start" paint-order="stroke" stroke="white" fill="currentColor">Future of UX | Y...</text><text transform="rotate(-8.04878048780489) translate(100,0) rotate(0)" dy="0.35em" x="6" text-anchor="start" paint-order="stroke" stroke="white" fill="currentColor">Hapa英会話 Podcast</text><text transform="rotate(-6.585365853658544) translate(100,0) rotate(0)" dy="0.35em" x="6" text-anchor="start" paint-order="stroke" stroke="white" fill="currentColor">ITトリオ ~エンジニア3人ゆる...</text><text transform="rotate(-5.121951219512198) translate(100,0) rotate(0)" dy="0.35em" x="6" text-anchor="start" paint-order="stroke" stroke="white" fill="currentColor">Inside Algomatic</text><text transform="rotate(-3.6585365853658374) translate(100,0) rotate(0)" dy="0.35em" x="6" text-anchor="start" paint-order="stroke" stroke="white" fill="currentColor">Level 5 by Palo ...</text><text transform="rotate(-2.1951219512195195) translate(100,0) rotate(0)" dy="0.35em" x="6" text-anchor="start" paint-order="stroke" stroke="white" fill="currentColor">Lobsterr FM</text><text transform="rotate(-0.7317073170731874) translate(100,0) rotate(0)" dy="0.35em" x="6" text-anchor="start" paint-order="stroke" stroke="white" fill="currentColor">ManaのWebクリエイターカフ...</text><text transform="rotate(0.7317073170731732) translate(100,0) rotate(0)" dy="0.35em" x="6" text-anchor="start" paint-order="stroke" stroke="white" fill="currentColor">News Connect あなた...</text><text transform="rotate(2.1951219512195195) translate(100,0) rotate(0)" dy="0.35em" x="6" text-anchor="start" paint-order="stroke" stroke="white" fill="currentColor">Off Topic // オフト...</text><text transform="rotate(3.658536585365866) translate(100,0) rotate(0)" dy="0.35em" x="6" text-anchor="start" paint-order="stroke" stroke="white" fill="currentColor">Repeat Rhyme / リ...</text><text transform="rotate(5.121951219512198) translate(100,0) rotate(0)" dy="0.35em" x="6" text-anchor="start" paint-order="stroke" stroke="white" fill="currentColor">START/FM</text><text transform="rotate(6.585365853658544) translate(100,0) rotate(0)" dy="0.35em" x="6" text-anchor="start" paint-order="stroke" stroke="white" fill="currentColor">SingularRadio - ...</text><text transform="rotate(8.048780487804876) translate(100,0) rotate(0)" dy="0.35em" x="6" text-anchor="start" paint-order="stroke" stroke="white" fill="currentColor">Startup Chat</text><text transform="rotate(9.512195121951208) translate(100,0) rotate(0)" dy="0.35em" x="6" text-anchor="start" paint-order="stroke" stroke="white" fill="currentColor">Takram Cast</text><text transform="rotate(10.975609756097583) translate(100,0) rotate(0)" dy="0.35em" x="6" text-anchor="start" paint-order="stroke" stroke="white" fill="currentColor">The Coral Capita...</text><text transform="rotate(12.439024390243901) translate(100,0) rotate(0)" dy="0.35em" x="6" text-anchor="start" paint-order="stroke" stroke="white" fill="currentColor">The Diary Of A C...</text><text transform="rotate(13.902439024390262) translate(100,0) rotate(0)" dy="0.35em" x="6" text-anchor="start" paint-order="stroke" stroke="white" fill="currentColor">The Straw Millio...</text><text transform="rotate(15.365853658536594) translate(100,0) rotate(0)" dy="0.35em" x="6" text-anchor="start" paint-order="stroke" stroke="white" fill="currentColor">Uncanny Valley |...</text><text transform="rotate(16.829268292682926) translate(100,0) rotate(0)" dy="0.35em" x="6" text-anchor="start" paint-order="stroke" stroke="white" fill="currentColor">VIVA VC 〜だからベンチャ...</text><text transform="rotate(18.292682926829286) translate(100,0) rotate(0)" dy="0.35em" x="6" text-anchor="start" paint-order="stroke" stroke="white" fill="currentColor">a16z Podcast</text><text transform="rotate(19.756097560975604) translate(100,0) rotate(0)" dy="0.35em" x="6" text-anchor="start" paint-order="stroke" stroke="white" fill="currentColor">『WIRED』日本版</text><text transform="rotate(21.219512195121965) translate(100,0) rotate(0)" dy="0.35em" x="6" text-anchor="start" paint-order="stroke" stroke="white" fill="currentColor">となりのデータ分析屋さん</text><text transform="rotate(22.682926829268283) translate(100,0) rotate(0)" dy="0.35em" x="6" text-anchor="start" paint-order="stroke" stroke="white" fill="currentColor">ながら日経</text><text transform="rotate(24.14634146341463) translate(100,0) rotate(0)" dy="0.35em" x="6" text-anchor="start" paint-order="stroke" stroke="white" fill="currentColor">スタートアップ オフレコ対談 -...</text><text transform="rotate(25.609756097560975) translate(100,0) rotate(0)" dy="0.35em" x="6" text-anchor="start" paint-order="stroke" stroke="white" fill="currentColor">テックリードFM -AI時代の人...</text><text transform="rotate(27.073170731707307) translate(100,0) rotate(0)" dy="0.35em" x="6" text-anchor="start" paint-order="stroke" stroke="white" fill="currentColor">デジタル･ビジネス最前線 ~ マ...</text><text transform="rotate(28.536585365853682) translate(100,0) rotate(0)" dy="0.35em" x="6" text-anchor="start" paint-order="stroke" stroke="white" fill="currentColor">デデデータ!!〜“あきない”デー...</text><text transform="rotate(29.999999999999986) translate(100,0) rotate(0)" dy="0.35em" x="6" text-anchor="start" paint-order="stroke" stroke="white" fill="currentColor">ハヤカワ五味の「なに考えてるの〜...</text><text transform="rotate(31.463414634146346) translate(100,0) rotate(0)" dy="0.35em" x="6" text-anchor="start" paint-order="stroke" stroke="white" fill="currentColor">ボーダレス・ラジオ | 面白いぞ...</text><text transform="rotate(32.92682926829269) translate(100,0) rotate(0)" dy="0.35em" x="6" text-anchor="start" paint-order="stroke" stroke="white" fill="currentColor">弱音会議 - あまり強い言葉を遣...</text><text transform="rotate(34.390243902439025) translate(100,0) rotate(0)" dy="0.35em" x="6" text-anchor="start" paint-order="stroke" stroke="white" fill="currentColor">海外スタートアップレポート「シリ...</text><text transform="rotate(35.85365853658537) translate(100,0) rotate(0)" dy="0.35em" x="6" text-anchor="start" paint-order="stroke" stroke="white" fill="currentColor">深井・けんすうのまぼろし会議</text><text transform="rotate(37.31707317073169) translate(100,0) rotate(0)" dy="0.35em" x="6" text-anchor="start" paint-order="stroke" stroke="white" fill="currentColor">自然資本論〜自然資源と楽しく生き...</text><text transform="rotate(38.78048780487808) translate(100,0) rotate(0)" dy="0.35em" x="6" text-anchor="start" paint-order="stroke" stroke="white" fill="currentColor">起業の履歴書</text><text transform="rotate(41.70731707317074) translate(100,0) rotate(0)" dy="0.35em" x="6" text-anchor="start" paint-order="stroke" stroke="white" fill="currentColor">YOWATARI RADIO</text><text transform="rotate(44.634146341463406) translate(100,0) rotate(0)" dy="0.35em" x="6" text-anchor="start" paint-order="stroke" stroke="white" fill="currentColor">AI4Dラジオ - デザインが動...</text><text transform="rotate(46.09756097560975) translate(100,0) rotate(0)" dy="0.35em" x="6" text-anchor="start" paint-order="stroke" stroke="white" fill="currentColor">Acquired</text><text transform="rotate(47.5609756097561) translate(100,0) rotate(0)" dy="0.35em" x="6" text-anchor="start" paint-order="stroke" stroke="white" fill="currentColor">All Creatures Po...</text><text transform="rotate(49.024390243902445) translate(100,0) rotate(0)" dy="0.35em" x="6" text-anchor="start" paint-order="stroke" stroke="white" fill="currentColor">Automagic Podcas...</text><text transform="rotate(50.48780487804879) translate(100,0) rotate(0)" dy="0.35em" x="6" text-anchor="start" paint-order="stroke" stroke="white" fill="currentColor">BTRAXのCEOによるサンフラ...</text><text transform="rotate(51.95121951219511) translate(100,0) rotate(0)" dy="0.35em" x="6" text-anchor="start" paint-order="stroke" stroke="white" fill="currentColor">Cheeky Pint</text><text transform="rotate(53.414634146341456) translate(100,0) rotate(0)" dy="0.35em" x="6" text-anchor="start" paint-order="stroke" stroke="white" fill="currentColor">Finding Our Way</text><text transform="rotate(54.8780487804878) translate(100,0) rotate(0)" dy="0.35em" x="6" text-anchor="start" paint-order="stroke" stroke="white" fill="currentColor">Founders</text><text transform="rotate(56.34146341463415) translate(100,0) rotate(0)" dy="0.35em" x="6" text-anchor="start" paint-order="stroke" stroke="white" fill="currentColor">Future of UX | Y...</text><text transform="rotate(57.804878048780495) translate(100,0) rotate(0)" dy="0.35em" x="6" text-anchor="start" paint-order="stroke" stroke="white" fill="currentColor">GCP House</text><text transform="rotate(59.26829268292681) translate(100,0) rotate(0)" dy="0.35em" x="6" text-anchor="start" paint-order="stroke" stroke="white" fill="currentColor">Huberman Lab</text><text transform="rotate(60.73170731707319) translate(100,0) rotate(0)" dy="0.35em" x="6" text-anchor="start" paint-order="stroke" stroke="white" fill="currentColor">Joi Ito's Podcas...</text><text transform="rotate(62.195121951219534) translate(100,0) rotate(0)" dy="0.35em" x="6" text-anchor="start" paint-order="stroke" stroke="white" fill="currentColor">Lenny's Podcast:...</text><text transform="rotate(63.65853658536585) translate(100,0) rotate(0)" dy="0.35em" x="6" text-anchor="start" paint-order="stroke" stroke="white" fill="currentColor">Ologies with Ali...</text><text transform="rotate(65.1219512195122) translate(100,0) rotate(0)" dy="0.35em" x="6" text-anchor="start" paint-order="stroke" stroke="white" fill="currentColor">OpenAI Podcast</text><text transform="rotate(66.58536585365854) translate(100,0) rotate(0)" dy="0.35em" x="6" text-anchor="start" paint-order="stroke" stroke="white" fill="currentColor">Rebuild</text><text transform="rotate(68.04878048780486) translate(100,0) rotate(0)" dy="0.35em" x="6" text-anchor="start" paint-order="stroke" stroke="white" fill="currentColor">Repeat Rhyme / リ...</text><text transform="rotate(69.51219512195124) translate(100,0) rotate(0)" dy="0.35em" x="6" text-anchor="start" paint-order="stroke" stroke="white" fill="currentColor">START/FM</text><text transform="rotate(70.97560975609758) translate(100,0) rotate(0)" dy="0.35em" x="6" text-anchor="start" paint-order="stroke" stroke="white" fill="currentColor">Smologies with A...</text><text transform="rotate(72.43902439024393) translate(100,0) rotate(0)" dy="0.35em" x="6" text-anchor="start" paint-order="stroke" stroke="white" fill="currentColor">Startup Chat</text><text transform="rotate(73.90243902439022) translate(100,0) rotate(0)" dy="0.35em" x="6" text-anchor="start" paint-order="stroke" stroke="white" fill="currentColor">TED Talks Daily</text><text transform="rotate(75.3658536585366) translate(100,0) rotate(0)" dy="0.35em" x="6" text-anchor="start" paint-order="stroke" stroke="white" fill="currentColor">Takram Cast</text><text transform="rotate(76.82926829268291) translate(100,0) rotate(0)" dy="0.35em" x="6" text-anchor="start" paint-order="stroke" stroke="white" fill="currentColor">The Diary Of A C...</text><text transform="rotate(78.29268292682929) translate(100,0) rotate(0)" dy="0.35em" x="6" text-anchor="start" paint-order="stroke" stroke="white" fill="currentColor">The Peter Attia ...</text><text transform="rotate(79.7560975609756) translate(100,0) rotate(0)" dy="0.35em" x="6" text-anchor="start" paint-order="stroke" stroke="white" fill="currentColor">VIVA VC 〜だからベンチャ...</text><text transform="rotate(81.21951219512195) translate(100,0) rotate(0)" dy="0.35em" x="6" text-anchor="start" paint-order="stroke" stroke="white" fill="currentColor">Waveform: The MK...</text><text transform="rotate(82.68292682926833) translate(100,0) rotate(0)" dy="0.35em" x="6" text-anchor="start" paint-order="stroke" stroke="white" fill="currentColor">YOWATARI RADIO</text><text transform="rotate(84.14634146341464) translate(100,0) rotate(0)" dy="0.35em" x="6" text-anchor="start" paint-order="stroke" stroke="white" fill="currentColor">a scope ~リベラルアーツ...</text><text transform="rotate(85.60975609756096) translate(100,0) rotate(0)" dy="0.35em" x="6" text-anchor="start" paint-order="stroke" stroke="white" fill="currentColor">『WIRED』日本版</text><text transform="rotate(87.07317073170731) translate(100,0) rotate(0)" dy="0.35em" x="6" text-anchor="start" paint-order="stroke" stroke="white" fill="currentColor">おちつきAIラジオ</text><text transform="rotate(88.53658536585363) translate(100,0) rotate(0)" dy="0.35em" x="6" text-anchor="start" paint-order="stroke" stroke="white" fill="currentColor">お元気ですか.fm</text><text transform="rotate(90) translate(100,0) rotate(180)" dy="0.35em" x="-6" text-anchor="end" paint-order="stroke" stroke="white" fill="currentColor">よくわからないデザインと工学</text><text transform="rotate(91.46341463414635) translate(100,0) rotate(180)" dy="0.35em" x="-6" text-anchor="end" paint-order="stroke" stroke="white" fill="currentColor">よもやま談義</text><text transform="rotate(92.92682926829269) translate(100,0) rotate(180)" dy="0.35em" x="-6" text-anchor="end" paint-order="stroke" stroke="white" fill="currentColor">スタートアップ オフレコ対談 -...</text><text transform="rotate(94.39024390243904) translate(100,0) rotate(180)" dy="0.35em" x="-6" text-anchor="end" paint-order="stroke" stroke="white" fill="currentColor">デザインの味付け</text><text transform="rotate(95.85365853658536) translate(100,0) rotate(180)" dy="0.35em" x="-6" text-anchor="end" paint-order="stroke" stroke="white" fill="currentColor">デジタル･ビジネス最前線 ~ マ...</text><text transform="rotate(97.31707317073173) translate(100,0) rotate(180)" dy="0.35em" x="-6" text-anchor="end" paint-order="stroke" stroke="white" fill="currentColor">ハヤカワ五味の「なに考えてるの〜...</text><text transform="rotate(98.78048780487808) translate(100,0) rotate(180)" dy="0.35em" x="-6" text-anchor="end" paint-order="stroke" stroke="white" fill="currentColor">バイリンガルニュース (Bili...</text><text transform="rotate(100.2439024390244) translate(100,0) rotate(180)" dy="0.35em" x="-6" text-anchor="end" paint-order="stroke" stroke="white" fill="currentColor">ボーダレス・ラジオ | 面白いぞ...</text><text transform="rotate(101.70731707317069) translate(100,0) rotate(180)" dy="0.35em" x="-6" text-anchor="end" paint-order="stroke" stroke="white" fill="currentColor">レイ・イナモト「世界のクリエイテ...</text><text transform="rotate(103.17073170731709) translate(100,0) rotate(180)" dy="0.35em" x="-6" text-anchor="end" paint-order="stroke" stroke="white" fill="currentColor">土中ラジオ</text><text transform="rotate(104.63414634146343) translate(100,0) rotate(180)" dy="0.35em" x="-6" text-anchor="end" paint-order="stroke" stroke="white" fill="currentColor">深津貴之のGUILD TALK</text><text transform="rotate(106.09756097560975) translate(100,0) rotate(180)" dy="0.35em" x="-6" text-anchor="end" paint-order="stroke" stroke="white" fill="currentColor">聞く AI × デザイン</text><text transform="rotate(107.56097560975613) translate(100,0) rotate(180)" dy="0.35em" x="-6" text-anchor="end" paint-order="stroke" stroke="white" fill="currentColor">自然資本論〜自然資源と楽しく生き...</text><text transform="rotate(110.48780487804879) translate(100,0) rotate(180)" dy="0.35em" x="-6" text-anchor="end" paint-order="stroke" stroke="white" fill="currentColor">All Creatures Po...</text><text transform="rotate(111.95121951219517) translate(100,0) rotate(180)" dy="0.35em" x="-6" text-anchor="end" paint-order="stroke" stroke="white" fill="currentColor">Lenny's Podcast:...</text><text transform="rotate(113.41463414634146) translate(100,0) rotate(180)" dy="0.35em" x="-6" text-anchor="end" paint-order="stroke" stroke="white" fill="currentColor">News Connect あなた...</text><text transform="rotate(114.8780487804878) translate(100,0) rotate(180)" dy="0.35em" x="-6" text-anchor="end" paint-order="stroke" stroke="white" fill="currentColor">Off Topic // オフト...</text><text transform="rotate(116.34146341463415) translate(100,0) rotate(180)" dy="0.35em" x="-6" text-anchor="end" paint-order="stroke" stroke="white" fill="currentColor">One Capital SaaS...</text><text transform="rotate(117.80487804878052) translate(100,0) rotate(180)" dy="0.35em" x="-6" text-anchor="end" paint-order="stroke" stroke="white" fill="currentColor">Podcast by Yuka ...</text><text transform="rotate(119.26829268292681) translate(100,0) rotate(180)" dy="0.35em" x="-6" text-anchor="end" paint-order="stroke" stroke="white" fill="currentColor">The Coral Capita...</text><text transform="rotate(120.73170731707319) translate(100,0) rotate(180)" dy="0.35em" x="-6" text-anchor="end" paint-order="stroke" stroke="white" fill="currentColor">Uncanny Valley |...</text><text transform="rotate(122.19512195121953) translate(100,0) rotate(180)" dy="0.35em" x="-6" text-anchor="end" paint-order="stroke" stroke="white" fill="currentColor">a scope ~リベラルアーツ...</text><text transform="rotate(123.65853658536585) translate(100,0) rotate(180)" dy="0.35em" x="-6" text-anchor="end" paint-order="stroke" stroke="white" fill="currentColor">a16z Podcast</text><text transform="rotate(125.1219512195122) translate(100,0) rotate(180)" dy="0.35em" x="-6" text-anchor="end" paint-order="stroke" stroke="white" fill="currentColor">おちつきAIラジオ</text><text transform="rotate(126.58536585365857) translate(100,0) rotate(180)" dy="0.35em" x="-6" text-anchor="end" paint-order="stroke" stroke="white" fill="currentColor">ながら日経</text><text transform="rotate(128.04878048780492) translate(100,0) rotate(180)" dy="0.35em" x="-6" text-anchor="end" paint-order="stroke" stroke="white" fill="currentColor">テックリードFM -AI時代の人...</text><text transform="rotate(129.5121951219512) translate(100,0) rotate(180)" dy="0.35em" x="-6" text-anchor="end" paint-order="stroke" stroke="white" fill="currentColor">デジタル･ビジネス最前線 ~ マ...</text><text transform="rotate(130.97560975609755) translate(100,0) rotate(180)" dy="0.35em" x="-6" text-anchor="end" paint-order="stroke" stroke="white" fill="currentColor">バイリンガルニュース (Bili...</text><text transform="rotate(132.43902439024393) translate(100,0) rotate(180)" dy="0.35em" x="-6" text-anchor="end" paint-order="stroke" stroke="white" fill="currentColor">土中ラジオ</text><text transform="rotate(133.90243902439022) translate(100,0) rotate(180)" dy="0.35em" x="-6" text-anchor="end" paint-order="stroke" stroke="white" fill="currentColor">最新技術を楽しく学ぼうテスラジオ...</text><text transform="rotate(135.36585365853657) translate(100,0) rotate(180)" dy="0.35em" x="-6" text-anchor="end" paint-order="stroke" stroke="white" fill="currentColor">海外スタートアップレポート「シリ...</text><text transform="rotate(136.82926829268294) translate(100,0) rotate(180)" dy="0.35em" x="-6" text-anchor="end" paint-order="stroke" stroke="white" fill="currentColor">深井・けんすうのまぼろし会議</text><text transform="rotate(139.75609756097563) translate(100,0) rotate(180)" dy="0.35em" x="-6" text-anchor="end" paint-order="stroke" stroke="white" fill="currentColor">ColdFusion</text><text transform="rotate(141.21951219512195) translate(100,0) rotate(180)" dy="0.35em" x="-6" text-anchor="end" paint-order="stroke" stroke="white" fill="currentColor">DEEP TECH起業熱｜Go ...</text><text transform="rotate(142.68292682926833) translate(100,0) rotate(180)" dy="0.35em" x="-6" text-anchor="end" paint-order="stroke" stroke="white" fill="currentColor">Huberman Lab</text><text transform="rotate(144.14634146341461) translate(100,0) rotate(180)" dy="0.35em" x="-6" text-anchor="end" paint-order="stroke" stroke="white" fill="currentColor">News Connect あなた...</text><text transform="rotate(145.60975609756096) translate(100,0) rotate(180)" dy="0.35em" x="-6" text-anchor="end" paint-order="stroke" stroke="white" fill="currentColor">Ologies with Ali...</text><text transform="rotate(147.07317073170736) translate(100,0) rotate(180)" dy="0.35em" x="-6" text-anchor="end" paint-order="stroke" stroke="white" fill="currentColor">Short Wave</text><text transform="rotate(148.53658536585365) translate(100,0) rotate(180)" dy="0.35em" x="-6" text-anchor="end" paint-order="stroke" stroke="white" fill="currentColor">SingularRadio - ...</text><text transform="rotate(149.99999999999997) translate(100,0) rotate(180)" dy="0.35em" x="-6" text-anchor="end" paint-order="stroke" stroke="white" fill="currentColor">Smologies with A...</text><text transform="rotate(151.46341463414637) translate(100,0) rotate(180)" dy="0.35em" x="-6" text-anchor="end" paint-order="stroke" stroke="white" fill="currentColor">Uncanny Valley |...</text><text transform="rotate(152.9268292682927) translate(100,0) rotate(180)" dy="0.35em" x="-6" text-anchor="end" paint-order="stroke" stroke="white" fill="currentColor">ZOE Science &amp; Nu...</text><text transform="rotate(154.390243902439) translate(100,0) rotate(180)" dy="0.35em" x="-6" text-anchor="end" paint-order="stroke" stroke="white" fill="currentColor">a scope ~リベラルアーツ...</text><text transform="rotate(155.85365853658539) translate(100,0) rotate(180)" dy="0.35em" x="-6" text-anchor="end" paint-order="stroke" stroke="white" fill="currentColor">『WIRED』日本版</text><text transform="rotate(157.3170731707317) translate(100,0) rotate(180)" dy="0.35em" x="-6" text-anchor="end" paint-order="stroke" stroke="white" fill="currentColor">となりのデータ分析屋さん</text><text transform="rotate(158.78048780487805) translate(100,0) rotate(180)" dy="0.35em" x="-6" text-anchor="end" paint-order="stroke" stroke="white" fill="currentColor">ながらAIラジオ</text><text transform="rotate(160.2439024390244) translate(100,0) rotate(180)" dy="0.35em" x="-6" text-anchor="end" paint-order="stroke" stroke="white" fill="currentColor">ゆるコンピュータ科学ラジオ</text><text transform="rotate(161.70731707317074) translate(100,0) rotate(180)" dy="0.35em" x="-6" text-anchor="end" paint-order="stroke" stroke="white" fill="currentColor">サイエントーク</text><text transform="rotate(163.17073170731706) translate(100,0) rotate(180)" dy="0.35em" x="-6" text-anchor="end" paint-order="stroke" stroke="white" fill="currentColor">シドニーの猫</text><text transform="rotate(164.63414634146338) translate(100,0) rotate(180)" dy="0.35em" x="-6" text-anchor="end" paint-order="stroke" stroke="white" fill="currentColor">デデデータ!!〜“あきない”デー...</text><text transform="rotate(167.56097560975616) translate(100,0) rotate(180)" dy="0.35em" x="-6" text-anchor="end" paint-order="stroke" stroke="white" fill="currentColor">AI未来話</text><text transform="rotate(169.02439024390242) translate(100,0) rotate(180)" dy="0.35em" x="-6" text-anchor="end" paint-order="stroke" stroke="white" fill="currentColor">ALL STAR SAAS PO...</text><text transform="rotate(170.4878048780488) translate(100,0) rotate(180)" dy="0.35em" x="-6" text-anchor="end" paint-order="stroke" stroke="white" fill="currentColor">All Creatures Po...</text><text transform="rotate(171.9512195121951) translate(100,0) rotate(180)" dy="0.35em" x="-6" text-anchor="end" paint-order="stroke" stroke="white" fill="currentColor">BTRAXのCEOによるサンフラ...</text><text transform="rotate(173.41463414634148) translate(100,0) rotate(180)" dy="0.35em" x="-6" text-anchor="end" paint-order="stroke" stroke="white" fill="currentColor">Beat the Odds / ...</text><text transform="rotate(174.8780487804878) translate(100,0) rotate(180)" dy="0.35em" x="-6" text-anchor="end" paint-order="stroke" stroke="white" fill="currentColor">Beyond Facts &amp; L...</text><text transform="rotate(176.34146341463412) translate(100,0) rotate(180)" dy="0.35em" x="-6" text-anchor="end" paint-order="stroke" stroke="white" fill="currentColor">ColdFusion</text><text transform="rotate(177.8048780487805) translate(100,0) rotate(180)" dy="0.35em" x="-6" text-anchor="end" paint-order="stroke" stroke="white" fill="currentColor">DEEP TECH起業熱｜Go ...</text><text transform="rotate(179.2682926829268) translate(100,0) rotate(180)" dy="0.35em" x="-6" text-anchor="end" paint-order="stroke" stroke="white" fill="currentColor">Finding Our Way</text><text transform="rotate(180.73170731707313) translate(100,0) rotate(180)" dy="0.35em" x="-6" text-anchor="end" paint-order="stroke" stroke="white" fill="currentColor">Founders</text><text transform="rotate(182.1951219512195) translate(100,0) rotate(180)" dy="0.35em" x="-6" text-anchor="end" paint-order="stroke" stroke="white" fill="currentColor">Future of UX | Y...</text><text transform="rotate(183.65853658536588) translate(100,0) rotate(180)" dy="0.35em" x="-6" text-anchor="end" paint-order="stroke" stroke="white" fill="currentColor">GCP House</text><text transform="rotate(185.1219512195122) translate(100,0) rotate(180)" dy="0.35em" x="-6" text-anchor="end" paint-order="stroke" stroke="white" fill="currentColor">Huberman Lab</text><text transform="rotate(186.58536585365857) translate(100,0) rotate(180)" dy="0.35em" x="-6" text-anchor="end" paint-order="stroke" stroke="white" fill="currentColor">ITトリオ ~エンジニア3人ゆる...</text><text transform="rotate(188.0487804878049) translate(100,0) rotate(180)" dy="0.35em" x="-6" text-anchor="end" paint-order="stroke" stroke="white" fill="currentColor">Inside Algomatic</text><text transform="rotate(189.51219512195115) translate(100,0) rotate(180)" dy="0.35em" x="-6" text-anchor="end" paint-order="stroke" stroke="white" fill="currentColor">Joi Ito's Podcas...</text><text transform="rotate(190.97560975609758) translate(100,0) rotate(180)" dy="0.35em" x="-6" text-anchor="end" paint-order="stroke" stroke="white" fill="currentColor">Lenny's Podcast:...</text><text transform="rotate(192.4390243902439) translate(100,0) rotate(180)" dy="0.35em" x="-6" text-anchor="end" paint-order="stroke" stroke="white" fill="currentColor">Level 5 by Palo ...</text><text transform="rotate(193.90243902439022) translate(100,0) rotate(180)" dy="0.35em" x="-6" text-anchor="end" paint-order="stroke" stroke="white" fill="currentColor">Lobsterr FM</text><text transform="rotate(195.3658536585366) translate(100,0) rotate(180)" dy="0.35em" x="-6" text-anchor="end" paint-order="stroke" stroke="white" fill="currentColor">ManaのWebクリエイターカフ...</text><text transform="rotate(196.8292682926829) translate(100,0) rotate(180)" dy="0.35em" x="-6" text-anchor="end" paint-order="stroke" stroke="white" fill="currentColor">News Connect あなた...</text><text transform="rotate(198.2926829268293) translate(100,0) rotate(180)" dy="0.35em" x="-6" text-anchor="end" paint-order="stroke" stroke="white" fill="currentColor">Off Topic // オフト...</text><text transform="rotate(199.7560975609756) translate(100,0) rotate(180)" dy="0.35em" x="-6" text-anchor="end" paint-order="stroke" stroke="white" fill="currentColor">Ologies with Ali...</text><text transform="rotate(201.21951219512192) translate(100,0) rotate(180)" dy="0.35em" x="-6" text-anchor="end" paint-order="stroke" stroke="white" fill="currentColor">One Capital SaaS...</text><text transform="rotate(202.6829268292683) translate(100,0) rotate(180)" dy="0.35em" x="-6" text-anchor="end" paint-order="stroke" stroke="white" fill="currentColor">OpenAI Podcast</text><text transform="rotate(204.14634146341461) translate(100,0) rotate(180)" dy="0.35em" x="-6" text-anchor="end" paint-order="stroke" stroke="white" fill="currentColor">Podcast by Yuka ...</text><text transform="rotate(205.609756097561) translate(100,0) rotate(180)" dy="0.35em" x="-6" text-anchor="end" paint-order="stroke" stroke="white" fill="currentColor">Rebuild</text><text transform="rotate(207.0731707317073) translate(100,0) rotate(180)" dy="0.35em" x="-6" text-anchor="end" paint-order="stroke" stroke="white" fill="currentColor">Repeat Rhyme / リ...</text><text transform="rotate(208.53658536585363) translate(100,0) rotate(180)" dy="0.35em" x="-6" text-anchor="end" paint-order="stroke" stroke="white" fill="currentColor">SANU RADIO</text><text transform="rotate(210.00000000000006) translate(100,0) rotate(180)" dy="0.35em" x="-6" text-anchor="end" paint-order="stroke" stroke="white" fill="currentColor">Short Wave</text><text transform="rotate(211.46341463414637) translate(100,0) rotate(180)" dy="0.35em" x="-6" text-anchor="end" paint-order="stroke" stroke="white" fill="currentColor">SingularRadio - ...</text><text transform="rotate(212.92682926829264) translate(100,0) rotate(180)" dy="0.35em" x="-6" text-anchor="end" paint-order="stroke" stroke="white" fill="currentColor">Smologies with A...</text><text transform="rotate(214.39024390243907) translate(100,0) rotate(180)" dy="0.35em" x="-6" text-anchor="end" paint-order="stroke" stroke="white" fill="currentColor">Startup Chat</text><text transform="rotate(215.85365853658539) translate(100,0) rotate(180)" dy="0.35em" x="-6" text-anchor="end" paint-order="stroke" stroke="white" fill="currentColor">Takram Cast</text><text transform="rotate(217.3170731707317) translate(100,0) rotate(180)" dy="0.35em" x="-6" text-anchor="end" paint-order="stroke" stroke="white" fill="currentColor">TechCrunch Daily...</text><text transform="rotate(218.78048780487802) translate(100,0) rotate(180)" dy="0.35em" x="-6" text-anchor="end" paint-order="stroke" stroke="white" fill="currentColor">The Coral Capita...</text><text transform="rotate(220.2439024390244) translate(100,0) rotate(180)" dy="0.35em" x="-6" text-anchor="end" paint-order="stroke" stroke="white" fill="currentColor">The Diary Of A C...</text><text transform="rotate(221.7073170731707) translate(100,0) rotate(180)" dy="0.35em" x="-6" text-anchor="end" paint-order="stroke" stroke="white" fill="currentColor">The Peter Attia ...</text><text transform="rotate(223.1707317073171) translate(100,0) rotate(180)" dy="0.35em" x="-6" text-anchor="end" paint-order="stroke" stroke="white" fill="currentColor">Today I Learned ...</text><text transform="rotate(224.6341463414634) translate(100,0) rotate(180)" dy="0.35em" x="-6" text-anchor="end" paint-order="stroke" stroke="white" fill="currentColor">Uncanny Valley |...</text><text transform="rotate(226.09756097560972) translate(100,0) rotate(180)" dy="0.35em" x="-6" text-anchor="end" paint-order="stroke" stroke="white" fill="currentColor">VIVA VC 〜だからベンチャ...</text><text transform="rotate(227.5609756097561) translate(100,0) rotate(180)" dy="0.35em" x="-6" text-anchor="end" paint-order="stroke" stroke="white" fill="currentColor">Waveform: The MK...</text><text transform="rotate(229.02439024390247) translate(100,0) rotate(180)" dy="0.35em" x="-6" text-anchor="end" paint-order="stroke" stroke="white" fill="currentColor">YUKA on SAFARI</text><text transform="rotate(230.4878048780488) translate(100,0) rotate(180)" dy="0.35em" x="-6" text-anchor="end" paint-order="stroke" stroke="white" fill="currentColor">ZOE Science &amp; Nu...</text><text transform="rotate(231.95121951219517) translate(100,0) rotate(180)" dy="0.35em" x="-6" text-anchor="end" paint-order="stroke" stroke="white" fill="currentColor">a scope ~リベラルアーツ...</text><text transform="rotate(233.41463414634143) translate(100,0) rotate(180)" dy="0.35em" x="-6" text-anchor="end" paint-order="stroke" stroke="white" fill="currentColor">a16z Podcast</text><text transform="rotate(234.87804878048786) translate(100,0) rotate(180)" dy="0.35em" x="-6" text-anchor="end" paint-order="stroke" stroke="white" fill="currentColor">『WIRED』日本版</text><text transform="rotate(236.34146341463412) translate(100,0) rotate(180)" dy="0.35em" x="-6" text-anchor="end" paint-order="stroke" stroke="white" fill="currentColor">おちつきAIラジオ</text><text transform="rotate(237.80487804878044) translate(100,0) rotate(180)" dy="0.35em" x="-6" text-anchor="end" paint-order="stroke" stroke="white" fill="currentColor">お元気ですか.fm</text><text transform="rotate(239.2682926829268) translate(100,0) rotate(180)" dy="0.35em" x="-6" text-anchor="end" paint-order="stroke" stroke="white" fill="currentColor">となりのデータ分析屋さん</text><text transform="rotate(240.7317073170732) translate(100,0) rotate(180)" dy="0.35em" x="-6" text-anchor="end" paint-order="stroke" stroke="white" fill="currentColor">ながらAIラジオ</text><text transform="rotate(242.1951219512195) translate(100,0) rotate(180)" dy="0.35em" x="-6" text-anchor="end" paint-order="stroke" stroke="white" fill="currentColor">ゆるコンピュータ科学ラジオ</text><text transform="rotate(243.65853658536582) translate(100,0) rotate(180)" dy="0.35em" x="-6" text-anchor="end" paint-order="stroke" stroke="white" fill="currentColor">よくわからないデザインと工学</text><text transform="rotate(245.12195121951214) translate(100,0) rotate(180)" dy="0.35em" x="-6" text-anchor="end" paint-order="stroke" stroke="white" fill="currentColor">シドニーの猫</text><text transform="rotate(246.58536585365857) translate(100,0) rotate(180)" dy="0.35em" x="-6" text-anchor="end" paint-order="stroke" stroke="white" fill="currentColor">スタートアップ オフレコ対談 -...</text><text transform="rotate(248.0487804878049) translate(100,0) rotate(180)" dy="0.35em" x="-6" text-anchor="end" paint-order="stroke" stroke="white" fill="currentColor">ゼロからはじめる独立農家〜命の時...</text><text transform="rotate(249.5121951219512) translate(100,0) rotate(180)" dy="0.35em" x="-6" text-anchor="end" paint-order="stroke" stroke="white" fill="currentColor">テックリードFM -AI時代の人...</text><text transform="rotate(250.97560975609758) translate(100,0) rotate(180)" dy="0.35em" x="-6" text-anchor="end" paint-order="stroke" stroke="white" fill="currentColor">デジタル･ビジネス最前線 ~ マ...</text><text transform="rotate(252.4390243902439) translate(100,0) rotate(180)" dy="0.35em" x="-6" text-anchor="end" paint-order="stroke" stroke="white" fill="currentColor">デデデータ!!〜“あきない”デー...</text><text transform="rotate(253.90243902439028) translate(100,0) rotate(180)" dy="0.35em" x="-6" text-anchor="end" paint-order="stroke" stroke="white" fill="currentColor">バイリンガルニュース (Bili...</text><text transform="rotate(255.36585365853665) translate(100,0) rotate(180)" dy="0.35em" x="-6" text-anchor="end" paint-order="stroke" stroke="white" fill="currentColor">ボーダレス・ラジオ | 面白いぞ...</text><text transform="rotate(256.8292682926829) translate(100,0) rotate(180)" dy="0.35em" x="-6" text-anchor="end" paint-order="stroke" stroke="white" fill="currentColor">ミモリラジオ-自然の面白さを聴く</text><text transform="rotate(258.2926829268293) translate(100,0) rotate(180)" dy="0.35em" x="-6" text-anchor="end" paint-order="stroke" stroke="white" fill="currentColor">ムーザルのプログラミング絶望ラジ...</text><text transform="rotate(259.7560975609756) translate(100,0) rotate(180)" dy="0.35em" x="-6" text-anchor="end" paint-order="stroke" stroke="white" fill="currentColor">レイ・イナモト「世界のクリエイテ...</text><text transform="rotate(261.2195121951219) translate(100,0) rotate(180)" dy="0.35em" x="-6" text-anchor="end" paint-order="stroke" stroke="white" fill="currentColor">最新技術を楽しく学ぼうテスラジオ...</text><text transform="rotate(262.6829268292683) translate(100,0) rotate(180)" dy="0.35em" x="-6" text-anchor="end" paint-order="stroke" stroke="white" fill="currentColor">海外キャリアログ</text><text transform="rotate(264.1463414634146) translate(100,0) rotate(180)" dy="0.35em" x="-6" text-anchor="end" paint-order="stroke" stroke="white" fill="currentColor">海外スタートアップレポート「シリ...</text><text transform="rotate(265.60975609756093) translate(100,0) rotate(180)" dy="0.35em" x="-6" text-anchor="end" paint-order="stroke" stroke="white" fill="currentColor">海外移住channel</text><text transform="rotate(267.07317073170725) translate(100,0) rotate(180)" dy="0.35em" x="-6" text-anchor="end" paint-order="stroke" stroke="white" fill="currentColor">耳で学ぶAI、ロボシンク</text><text transform="rotate(268.5365853658537) translate(100,0) rotate(180)" dy="0.35em" x="-6" text-anchor="end" paint-order="stroke" stroke="white" fill="currentColor">自然資本論〜自然資源と楽しく生き...</text></g></svg>