<svg preserveAspectRatio="none" width="100%" height="100%" overflow="visible" style="display: block;" viewBox="0 0 22 9" fill="none" xmlns="http://www.w3.org/2000/svg">
<path id="Vector" d="M2.89469 0C3.31316 0 3.70993 0.0775666 4.08505 0.232636C4.46011 0.384119 4.79189 0.622233 5.08064 0.946841C5.37266 1.26786 5.6021 1.68092 5.76767 2.18589C5.93388 2.68727 6.01667 3.29145 6.01667 3.99849V4.0093C6.01667 4.88581 5.89021 5.63606 5.63796 6.26012C5.3857 6.88411 5.02263 7.36392 4.55006 7.69935C4.08147 8.03119 3.52057 8.19715 2.86764 8.19715C2.3879 8.19715 1.95508 8.11058 1.56907 7.93739C1.18671 7.76068 0.869341 7.51899 0.616824 7.21237C0.367957 6.90216 0.200176 6.54868 0.113614 6.15192L0.102797 6.0924H1.47169L1.49333 6.1465C1.5619 6.32686 1.65929 6.48558 1.78554 6.6226C1.91539 6.75968 2.07046 6.86612 2.25082 6.94186C2.43482 7.01402 2.64041 7.05006 2.86764 7.05006C3.27887 7.05006 3.6143 6.92922 3.87405 6.68758C4.13733 6.4423 4.33392 6.1158 4.46402 5.70822C4.59699 5.29705 4.67325 4.84253 4.69085 4.34473C4.69476 4.29063 4.69672 4.23836 4.69672 4.18784C4.69672 4.13374 4.69672 4.0814 4.69672 4.03095L4.45294 2.72697C4.45294 2.43117 4.38443 2.16243 4.24735 1.9208C4.11028 1.6791 3.9245 1.48792 3.69004 1.34725C3.45923 1.20659 3.19772 1.13626 2.90551 1.13626C2.62418 1.13626 2.36625 1.20476 2.13179 1.34184C1.89733 1.47892 1.7098 1.66645 1.56907 1.90457C1.42841 2.13903 1.35808 2.4023 1.35808 2.69451V2.70533C1.35808 3.0083 1.42482 3.27705 1.55825 3.51151C1.69175 3.74238 1.87387 3.9245 2.10474 4.05799C2.33562 4.19142 2.59895 4.25817 2.89469 4.25817C3.19048 4.25817 3.45558 4.19325 3.69004 4.0634C3.9245 3.93356 4.11028 3.7532 4.24735 3.52232C4.38443 3.29145 4.45294 3.02994 4.45294 2.73779V2.72697H4.77755V4.1662H4.58852C4.49466 4.37178 4.35556 4.56297 4.17161 4.73974C3.98767 4.91645 3.76044 5.05893 3.48987 5.16714C3.22295 5.27534 2.90916 5.32951 2.54844 5.32951C2.05064 5.32951 1.61059 5.21766 1.22823 4.99402C0.845872 4.77038 0.544664 4.46376 0.324674 4.07423C0.108203 3.68463 0 3.24459 0 2.75402V2.7432C0 2.21294 0.122678 1.7422 0.367959 1.33103C0.616825 0.916206 0.959486 0.591532 1.39595 0.357071C1.83599 0.119024 2.33562 0 2.89469 0ZM8.47339 6.95268C8.22765 6.95268 8.02233 6.87153 7.85611 6.70923C7.69381 6.54327 7.61298 6.34127 7.61298 6.10322C7.61298 5.86153 7.69381 5.65953 7.85611 5.49722C8.02233 5.33127 8.22765 5.24829 8.47339 5.24829C8.72173 5.24829 8.92771 5.33127 9.09001 5.49722C9.25232 5.65953 9.33315 5.86153 9.33315 6.10322C9.33315 6.34127 9.25232 6.54327 9.09001 6.70923C8.92771 6.87153 8.72173 6.95268 8.47339 6.95268ZM8.47339 2.93796C8.22765 2.93796 8.02233 2.85681 7.85611 2.69451C7.69381 2.52856 7.61298 2.32655 7.61298 2.08851C7.61298 1.84681 7.69381 1.64481 7.85611 1.48251C8.02233 1.31656 8.22765 1.23364 8.47339 1.23364C8.72173 1.23364 8.92771 1.31656 9.09001 1.48251C9.25232 1.64481 9.33315 1.84681 9.33315 2.08851C9.33315 2.32655 9.25232 2.52856 9.09001 2.69451C8.92771 2.85681 8.72173 2.93796 8.47339 2.93796ZM14.7172 8.00231V6.50357H10.8969V5.36197C11.1028 5.01207 11.3082 4.66035 11.5141 4.30686C11.7234 3.95338 11.9339 3.60166 12.1471 3.25182C12.3635 2.89827 12.5779 2.5502 12.7911 2.20753C13.0075 1.86128 13.2219 1.52038 13.4344 1.18495C13.6508 0.845871 13.8672 0.515789 14.0836 0.194766H16.0482V5.35115H17.1029V6.50357H16.0482V8.00231H14.7172ZM12.1953 5.38361H14.7387V1.30938H14.6572C14.4989 1.55467 14.3346 1.80712 14.1651 2.06687C13.9989 2.32656 13.8314 2.59172 13.6619 2.86223C13.4924 3.13273 13.3249 3.40506 13.1587 3.67922C12.9925 3.94979 12.8289 4.22212 12.6666 4.49622C12.5043 4.76679 12.3472 5.03547 12.1953 5.30246V5.38361ZM20.3333 8.00231V1.56907H20.2356L18.2931 2.93796V1.62858L20.3333 0.194766H21.7237V8.00231H20.3333Z" fill="var(--fill-0, black)"/>
</svg>
