<svg preserveAspectRatio="none" width="100%" height="100%" overflow="visible" style="display: block;" viewBox="0 0 12 9" fill="none" xmlns="http://www.w3.org/2000/svg">
<path id="Vector" fill-rule="evenodd" clip-rule="evenodd" d="M5.58743 1.60761C7.20852 1.60767 8.76768 2.20872 9.94227 3.28645C10.0309 3.36969 10.1724 3.36864 10.2597 3.2841L11.1051 2.46058C11.1494 2.41769 11.1736 2.35962 11.1736 2.2992C11.1729 2.23884 11.1481 2.18102 11.1032 2.13865C8.01939 -0.712884 3.15418 -0.712884 0.0703981 2.13865C0.0260741 2.18102 0.000651824 2.23877 0 2.2992C0 2.35962 0.0241048 2.41769 0.0684288 2.46058L0.914499 3.2841C1.00119 3.36877 1.14265 3.36982 1.2313 3.28645C2.40654 2.20866 3.96569 1.60761 5.58743 1.60761ZM5.58482 4.3585C6.46935 4.35844 7.32259 4.69198 7.97832 5.29433C8.06762 5.37985 8.20712 5.37796 8.29381 5.29016L9.1327 4.43021C9.17702 4.3851 9.20114 4.32389 9.20049 4.26034C9.19984 4.19672 9.17441 4.1361 9.12944 4.09191C7.13225 2.20755 4.03935 2.20755 2.04216 4.09191C1.99719 4.1361 1.97176 4.19678 1.97111 4.2604C1.97046 4.32402 1.99523 4.38516 2.0389 4.43021L2.87781 5.29016C2.9645 5.37796 3.10397 5.37985 3.19262 5.29433C3.84836 4.69237 4.70095 4.35883 5.58482 4.3585ZM7.23068 6.17937C7.23198 6.24807 7.20721 6.31423 7.16354 6.36234L5.74452 7.96244C5.70345 8.00944 5.64675 8.0359 5.58743 8.0359C5.52811 8.0359 5.4714 8.00944 5.42969 7.96244L4.01066 6.36234C3.96699 6.31423 3.94288 6.24801 3.94418 6.17931C3.94549 6.11067 3.97222 6.04562 4.01784 5.9996C4.92388 5.14317 6.25098 5.14317 7.15702 5.9996C7.20264 6.04569 7.22937 6.11073 7.23068 6.17937Z" fill="var(--fill-0, black)"/>
</svg>
