<svg preserveAspectRatio="none" width="100%" height="100%" overflow="visible" style="display: block;" viewBox="0 0 14 14" fill="none" xmlns="http://www.w3.org/2000/svg">
<g id="SVG">
<path id="Vector" d="M8.71767 11.4426V10.3529C8.71767 9.77483 8.48805 9.22047 8.07932 8.81174C7.67058 8.40301 7.11622 8.17338 6.53819 8.17338H3.26895C2.69092 8.17338 2.13656 8.40301 1.72782 8.81174C1.31909 9.22047 1.08947 9.77483 1.08947 10.3529V11.4426" stroke="var(--stroke-0, #497D00)" stroke-width="1.08974" stroke-linecap="round" stroke-linejoin="round"/>
<path id="Vector_2" d="M8.71852 1.70516C9.18589 1.82632 9.5998 2.09924 9.89527 2.48109C10.1907 2.86293 10.3511 3.33208 10.3511 3.8149C10.3511 4.29772 10.1907 4.76687 9.89527 5.14871C9.5998 5.53056 9.18589 5.80348 8.71852 5.92464" stroke="var(--stroke-0, #497D00)" stroke-width="1.08974" stroke-linecap="round" stroke-linejoin="round"/>
<path id="Vector_3" d="M11.9878 11.442V10.3523C11.9874 9.86937 11.8267 9.40026 11.5308 9.0186C11.2349 8.63694 10.8207 8.36435 10.3531 8.24362" stroke="var(--stroke-0, #497D00)" stroke-width="1.08974" stroke-linecap="round" stroke-linejoin="round"/>
<path id="Vector_4" d="M4.90357 5.99389C6.10727 5.99389 7.08306 5.01811 7.08306 3.81441C7.08306 2.61071 6.10727 1.63492 4.90357 1.63492C3.69987 1.63492 2.72408 2.61071 2.72408 3.81441C2.72408 5.01811 3.69987 5.99389 4.90357 5.99389Z" stroke="var(--stroke-0, #497D00)" stroke-width="1.08974" stroke-linecap="round" stroke-linejoin="round"/>
</g>
</svg>
