<svg preserveAspectRatio="none" width="100%" height="100%" overflow="visible" style="display: block;" viewBox="0 0 14 14" fill="none" xmlns="http://www.w3.org/2000/svg">
<g id="SVG">
<path id="Vector" d="M8.7185 11.4428V10.353C8.7185 9.775 8.48887 9.22064 8.08014 8.81191C7.67141 8.40317 7.11705 8.17355 6.53901 8.17355H3.26978C2.69175 8.17355 2.13738 8.40317 1.72865 8.81191C1.31992 9.22064 1.09029 9.775 1.09029 10.353V11.4428" stroke="var(--stroke-0, #497D00)" stroke-width="1.08974" stroke-linecap="round" stroke-linejoin="round"/>
<path id="Vector_2" d="M8.71935 1.70533C9.18672 1.82649 9.60062 2.09941 9.8961 2.48126C10.1916 2.8631 10.3519 3.33225 10.3519 3.81507C10.3519 4.29789 10.1916 4.76704 9.8961 5.14888C9.60062 5.53073 9.18672 5.80365 8.71935 5.92481" stroke="var(--stroke-0, #497D00)" stroke-width="1.08974" stroke-linecap="round" stroke-linejoin="round"/>
<path id="Vector_3" d="M11.9886 11.4422V10.3524C11.9882 9.86954 11.8275 9.40043 11.5316 9.01877C11.2358 8.63711 10.8215 8.36451 10.354 8.24379" stroke="var(--stroke-0, #497D00)" stroke-width="1.08974" stroke-linecap="round" stroke-linejoin="round"/>
<path id="Vector_4" d="M4.9044 5.99406C6.10809 5.99406 7.08388 5.01827 7.08388 3.81458C7.08388 2.61088 6.10809 1.63509 4.9044 1.63509C3.7007 1.63509 2.72491 2.61088 2.72491 3.81458C2.72491 5.01827 3.7007 5.99406 4.9044 5.99406Z" stroke="var(--stroke-0, #497D00)" stroke-width="1.08974" stroke-linecap="round" stroke-linejoin="round"/>
</g>
</svg>
