<svg width="453" height="452" viewBox="0 0 453 452" fill="none" xmlns="http://www.w3.org/2000/svg">
<path opacity="0.5" d="M226.391 225.879V22.5878C301.038 22.5878 364.822 59.4734 402.147 124.231L226.391 225.879Z" fill="#F7FEE7"/>
<path opacity="0.5" d="M226.391 225.88L402.151 124.232C439.476 188.987 439.476 262.769 402.151 327.52L226.391 225.88Z" fill="#ECFCCB"/>
<g opacity="0.5">
<path d="M226.391 225.879L402.151 327.519C364.825 392.276 301.042 429.17 226.391 429.17V225.879Z" fill="#F7FEE7"/>
<path d="M226.391 225.879L402.151 327.519C364.825 392.276 301.042 429.17 226.391 429.17V225.879Z" fill="#D9F99D"/>
</g>
<g opacity="0.5">
<path d="M226.391 225.879V429.17C151.748 429.17 87.9602 392.276 50.6348 327.519L226.391 225.879Z" fill="#F7FEE7"/>
<path d="M226.391 225.879V429.17C151.748 429.17 87.9602 392.276 50.6348 327.519L226.391 225.879Z" fill="#BEF264"/>
</g>
<g opacity="0.5">
<path d="M226.39 225.88L50.634 327.52C13.3121 262.769 13.3121 188.987 50.634 124.232L226.39 225.88Z" fill="#F7FEE7"/>
<path d="M226.39 225.88L50.634 327.52C13.3121 262.769 13.3121 188.987 50.634 124.232L226.39 225.88Z" fill="#A3E635"/>
</g>
<g opacity="0.5">
<path d="M226.391 225.879L50.6348 124.231C87.9605 59.4735 151.748 22.5879 226.391 22.5879V225.879Z" fill="#F7FEE7"/>
<path d="M226.391 225.879L50.6348 124.231C87.9605 59.4735 151.748 22.5879 226.391 22.5879V225.879Z" fill="#84CC16"/>
</g>
<path d="M226.391 225.879V0M226.391 225.879L421.676 112.937M226.391 225.879L421.68 338.812M226.391 225.879V451.758M226.391 225.879L31.1055 338.812M226.391 225.879L31.1055 112.938" stroke="#365314" stroke-width="2"/>
</svg>
