<svg preserveAspectRatio="none" width="100%" height="100%" overflow="visible" style="display: block;" viewBox="0 0 13 8" fill="none" xmlns="http://www.w3.org/2000/svg">
<path id="Vector" fill-rule="evenodd" clip-rule="evenodd" d="M12.515 0.747189C12.515 0.334519 12.2034 0 11.8195 0H11.1247C10.7407 0 10.4292 0.334519 10.4292 0.747189V7.22234C10.4292 7.63501 10.7407 7.96946 11.1247 7.96946H11.8195C12.2034 7.96946 12.515 7.63501 12.515 7.22234V0.747189ZM7.66936 1.59391H8.36486C8.74879 1.59391 9.05969 1.93644 9.05969 2.35902V7.20442C9.05969 7.62693 8.74879 7.96946 8.36486 7.96946H7.66936C7.28543 7.96946 6.97387 7.62693 6.97387 7.20442V2.35902C6.97387 1.93644 7.28543 1.59391 7.66936 1.59391ZM4.84565 3.32065H4.15017C3.76624 3.32065 3.45532 3.66755 3.45532 4.09541V7.1947C3.45532 7.62256 3.76624 7.96946 4.15017 7.96946H4.84565C5.22958 7.96946 5.54116 7.62256 5.54116 7.1947V4.09541C5.54116 3.66755 5.22958 3.32065 4.84565 3.32065ZM1.39034 4.91456H0.695487C0.311563 4.91456 0 5.25644 0 5.6783V7.20578C0 7.62758 0.311563 7.96946 0.695487 7.96946H1.39034C1.77426 7.96946 2.08584 7.62758 2.08584 7.20578V5.6783C2.08584 5.25644 1.77426 4.91456 1.39034 4.91456Z" fill="var(--fill-0, black)"/>
</svg>
