<svg width="144" height="101" viewBox="0 0 144 101" fill="none" xmlns="http://www.w3.org/2000/svg">
<path d="M104.727 14.4102V6.01016H105.459L109.299 12.5622H108.915L112.719 6.01016H113.451V14.4102H112.599V7.34216H112.803L109.299 13.3422H108.879L105.351 7.34216H105.579V14.4102H104.727ZM118.576 14.4702C117.968 14.4702 117.42 14.3342 116.932 14.0622C116.452 13.7822 116.072 13.4022 115.792 12.9222C115.512 12.4342 115.372 11.8782 115.372 11.2542C115.372 10.6222 115.512 10.0662 115.792 9.58616C116.072 9.10616 116.452 8.73016 116.932 8.45816C117.412 8.18616 117.96 8.05016 118.576 8.05016C119.2 8.05016 119.752 8.18616 120.232 8.45816C120.72 8.73016 121.1 9.10616 121.372 9.58616C121.652 10.0662 121.792 10.6222 121.792 11.2542C121.792 11.8782 121.652 12.4342 121.372 12.9222C121.1 13.4022 120.72 13.7822 120.232 14.0622C119.744 14.3342 119.192 14.4702 118.576 14.4702ZM118.576 13.7142C119.032 13.7142 119.436 13.6142 119.788 13.4142C120.14 13.2062 120.416 12.9182 120.616 12.5502C120.824 12.1742 120.928 11.7422 120.928 11.2542C120.928 10.7582 120.824 10.3262 120.616 9.95816C120.416 9.59016 120.14 9.30616 119.788 9.10616C119.436 8.89816 119.036 8.79416 118.588 8.79416C118.14 8.79416 117.74 8.89816 117.388 9.10616C117.036 9.30616 116.756 9.59016 116.548 9.95816C116.34 10.3262 116.236 10.7582 116.236 11.2542C116.236 11.7422 116.34 12.1742 116.548 12.5502C116.756 12.9182 117.036 13.2062 117.388 13.4142C117.74 13.6142 118.136 13.7142 118.576 13.7142ZM123.532 14.4102V8.11016H124.348V9.82616L124.264 9.52616C124.44 9.04616 124.736 8.68216 125.152 8.43416C125.568 8.17816 126.084 8.05016 126.7 8.05016V8.87816C126.668 8.87816 126.636 8.87816 126.604 8.87816C126.572 8.87016 126.54 8.86616 126.508 8.86616C125.844 8.86616 125.324 9.07016 124.948 9.47816C124.572 9.87816 124.384 10.4502 124.384 11.1942V14.4102H123.532ZM130.872 14.4702C130.216 14.4702 129.64 14.3342 129.144 14.0622C128.648 13.7822 128.26 13.4022 127.98 12.9222C127.7 12.4342 127.56 11.8782 127.56 11.2542C127.56 10.6302 127.692 10.0782 127.956 9.59816C128.228 9.11816 128.596 8.74216 129.06 8.47016C129.532 8.19016 130.06 8.05016 130.644 8.05016C131.236 8.05016 131.76 8.18616 132.216 8.45816C132.68 8.72216 133.044 9.09816 133.308 9.58616C133.572 10.0662 133.704 10.6222 133.704 11.2542C133.704 11.2942 133.7 11.3382 133.692 11.3862C133.692 11.4262 133.692 11.4702 133.692 11.5182H128.208V10.8822H133.236L132.9 11.1342C132.9 10.6782 132.8 10.2742 132.6 9.92216C132.408 9.56216 132.144 9.28216 131.808 9.08216C131.472 8.88216 131.084 8.78216 130.644 8.78216C130.212 8.78216 129.824 8.88216 129.48 9.08216C129.136 9.28216 128.868 9.56216 128.676 9.92216C128.484 10.2822 128.388 10.6942 128.388 11.1582V11.2902C128.388 11.7702 128.492 12.1942 128.7 12.5622C128.916 12.9222 129.212 13.2062 129.588 13.4142C129.972 13.6142 130.408 13.7142 130.896 13.7142C131.28 13.7142 131.636 13.6462 131.964 13.5102C132.3 13.3742 132.588 13.1662 132.828 12.8862L133.308 13.4382C133.028 13.7742 132.676 14.0302 132.252 14.2062C131.836 14.3822 131.376 14.4702 130.872 14.4702Z" fill="#1F2937"/>
<path d="M5.368 58.6914V50.2914H6.256V57.9234H10.96V58.6914H5.368ZM14.8367 58.7514C14.1807 58.7514 13.6047 58.6154 13.1087 58.3434C12.6127 58.0634 12.2247 57.6834 11.9447 57.2034C11.6647 56.7154 11.5247 56.1594 11.5247 55.5354C11.5247 54.9114 11.6567 54.3594 11.9207 53.8794C12.1927 53.3994 12.5607 53.0234 13.0247 52.7514C13.4967 52.4714 14.0247 52.3314 14.6087 52.3314C15.2007 52.3314 15.7247 52.4674 16.1807 52.7394C16.6447 53.0034 17.0087 53.3794 17.2727 53.8674C17.5367 54.3474 17.6687 54.9034 17.6687 55.5354C17.6687 55.5754 17.6647 55.6194 17.6567 55.6674C17.6567 55.7074 17.6567 55.7514 17.6567 55.7994H12.1727V55.1634H17.2007L16.8647 55.4154C16.8647 54.9594 16.7647 54.5554 16.5647 54.2034C16.3727 53.8434 16.1087 53.5634 15.7727 53.3634C15.4367 53.1634 15.0487 53.0634 14.6087 53.0634C14.1767 53.0634 13.7887 53.1634 13.4447 53.3634C13.1007 53.5634 12.8327 53.8434 12.6407 54.2034C12.4487 54.5634 12.3527 54.9754 12.3527 55.4394V55.5714C12.3527 56.0514 12.4567 56.4754 12.6647 56.8434C12.8807 57.2034 13.1767 57.4874 13.5527 57.6954C13.9367 57.8954 14.3727 57.9954 14.8607 57.9954C15.2447 57.9954 15.6007 57.9274 15.9287 57.7914C16.2647 57.6554 16.5527 57.4474 16.7927 57.1674L17.2727 57.7194C16.9927 58.0554 16.6407 58.3114 16.2167 58.4874C15.8007 58.6634 15.3407 58.7514 14.8367 58.7514ZM21.0948 58.7514C20.5748 58.7514 20.0828 58.6794 19.6188 58.5354C19.1548 58.3834 18.7908 58.1954 18.5268 57.9714L18.9108 57.2994C19.1668 57.4914 19.4948 57.6594 19.8948 57.8034C20.2948 57.9394 20.7148 58.0074 21.1548 58.0074C21.7548 58.0074 22.1868 57.9154 22.4508 57.7314C22.7148 57.5394 22.8468 57.2874 22.8468 56.9754C22.8468 56.7434 22.7708 56.5634 22.6188 56.4354C22.4748 56.2994 22.2828 56.1994 22.0428 56.1354C21.8028 56.0634 21.5348 56.0034 21.2388 55.9554C20.9428 55.9074 20.6468 55.8514 20.3508 55.7874C20.0628 55.7234 19.7988 55.6314 19.5588 55.5114C19.3188 55.3834 19.1228 55.2114 18.9708 54.9954C18.8268 54.7794 18.7548 54.4914 18.7548 54.1314C18.7548 53.7874 18.8508 53.4794 19.0428 53.2074C19.2348 52.9354 19.5148 52.7234 19.8828 52.5714C20.2588 52.4114 20.7148 52.3314 21.2508 52.3314C21.6588 52.3314 22.0668 52.3874 22.4748 52.4994C22.8828 52.6034 23.2188 52.7434 23.4828 52.9194L23.1108 53.6034C22.8308 53.4114 22.5308 53.2754 22.2108 53.1954C21.8908 53.1074 21.5708 53.0634 21.2508 53.0634C20.6828 53.0634 20.2628 53.1634 19.9908 53.3634C19.7268 53.5554 19.5948 53.8034 19.5948 54.1074C19.5948 54.3474 19.6668 54.5354 19.8108 54.6714C19.9628 54.8074 20.1588 54.9154 20.3988 54.9954C20.6468 55.0674 20.9148 55.1274 21.2028 55.1754C21.4988 55.2234 21.7908 55.2834 22.0788 55.3554C22.3748 55.4194 22.6428 55.5114 22.8828 55.6314C23.1308 55.7434 23.3268 55.9074 23.4708 56.1234C23.6228 56.3314 23.6988 56.6074 23.6988 56.9514C23.6988 57.3194 23.5948 57.6394 23.3868 57.9114C23.1868 58.1754 22.8908 58.3834 22.4988 58.5354C22.1148 58.6794 21.6468 58.7514 21.0948 58.7514ZM26.9542 58.7514C26.4342 58.7514 25.9422 58.6794 25.4782 58.5354C25.0142 58.3834 24.6502 58.1954 24.3862 57.9714L24.7702 57.2994C25.0262 57.4914 25.3542 57.6594 25.7542 57.8034C26.1542 57.9394 26.5742 58.0074 27.0142 58.0074C27.6142 58.0074 28.0462 57.9154 28.3102 57.7314C28.5742 57.5394 28.7062 57.2874 28.7062 56.9754C28.7062 56.7434 28.6302 56.5634 28.4782 56.4354C28.3342 56.2994 28.1422 56.1994 27.9022 56.1354C27.6622 56.0634 27.3942 56.0034 27.0982 55.9554C26.8022 55.9074 26.5062 55.8514 26.2102 55.7874C25.9222 55.7234 25.6582 55.6314 25.4182 55.5114C25.1782 55.3834 24.9822 55.2114 24.8302 54.9954C24.6862 54.7794 24.6142 54.4914 24.6142 54.1314C24.6142 53.7874 24.7102 53.4794 24.9022 53.2074C25.0942 52.9354 25.3742 52.7234 25.7422 52.5714C26.1182 52.4114 26.5742 52.3314 27.1102 52.3314C27.5182 52.3314 27.9262 52.3874 28.3342 52.4994C28.7422 52.6034 29.0782 52.7434 29.3422 52.9194L28.9702 53.6034C28.6902 53.4114 28.3902 53.2754 28.0702 53.1954C27.7502 53.1074 27.4302 53.0634 27.1102 53.0634C26.5422 53.0634 26.1222 53.1634 25.8502 53.3634C25.5862 53.5554 25.4542 53.8034 25.4542 54.1074C25.4542 54.3474 25.5262 54.5354 25.6702 54.6714C25.8222 54.8074 26.0182 54.9154 26.2582 54.9954C26.5062 55.0674 26.7742 55.1274 27.0622 55.1754C27.3582 55.2234 27.6502 55.2834 27.9382 55.3554C28.2342 55.4194 28.5022 55.5114 28.7422 55.6314C28.9902 55.7434 29.1862 55.9074 29.3302 56.1234C29.4822 56.3314 29.5582 56.6074 29.5582 56.9514C29.5582 57.3194 29.4542 57.6394 29.2462 57.9114C29.0462 58.1754 28.7502 58.3834 28.3582 58.5354C27.9742 58.6794 27.5062 58.7514 26.9542 58.7514Z" fill="#1F2937"/>
<path d="M97.4696 19.9597L41.85 51.6772" stroke="url(#paint0_linear_519_15902)" stroke-width="1.2"/>
<path d="M37.4838 85.6316L129.448 33.2628" stroke="#9CA3AF" stroke-opacity="0.5" stroke-width="1.44" stroke-dasharray="2.16 2.16"/>
<circle cx="50.5012" cy="77.409" r="5.30083" transform="matrix(0.5 0.866024 -0.866027 0.5 92.2889 -5.0307)" fill="#E5E7EB"/>
<circle cx="69.923" cy="66.4286" r="5.30083" transform="matrix(0.5 0.866024 -0.866027 0.5 92.4905 -27.3407)" fill="#D1D5DB"/>
<circle cx="89.3723" cy="55.4286" r="5.30083" transform="matrix(0.5 0.866024 -0.866027 0.5 92.6888 -49.6842)" fill="#A8A29E"/>
<circle cx="89.3723" cy="55.4286" r="5.30083" transform="matrix(0.5 0.866024 -0.866027 0.5 92.6888 -49.6842)" fill="#9CA3AF"/>
<circle cx="108.814" cy="44.4598" r="5.30083" transform="matrix(0.5 0.866024 -0.866027 0.5 92.9102 -72.0053)" fill="#6B7280"/>
<circle cx="128.247" cy="33.4754" r="5.30083" transform="matrix(0.5 0.866024 -0.866027 0.5 93.1143 -94.3275)" fill="#394150"/>
<circle cx="128.247" cy="33.4754" r="5.30083" transform="matrix(0.5 0.866024 -0.866027 0.5 93.1143 -94.3275)" fill="#4B5563"/>
<defs>
<linearGradient id="paint0_linear_519_15902" x1="44.3" y1="54.9284" x2="95.0196" y2="16.7085" gradientUnits="userSpaceOnUse">
<stop stop-color="#E7E5E4"/>
<stop offset="1" stop-color="#475569"/>
</linearGradient>
</defs>
</svg>
