<svg width="177" height="102" viewBox="0 0 177 102" fill="none" xmlns="http://www.w3.org/2000/svg">
<path d="M101.114 16V7.6H101.846L105.686 14.152H105.302L109.106 7.6H109.838V16H108.986V8.932H109.19L105.686 14.932H105.266L101.738 8.932H101.966V16H101.114ZM114.963 16.06C114.355 16.06 113.807 15.924 113.319 15.652C112.839 15.372 112.459 14.992 112.179 14.512C111.899 14.024 111.759 13.468 111.759 12.844C111.759 12.212 111.899 11.656 112.179 11.176C112.459 10.696 112.839 10.32 113.319 10.048C113.799 9.776 114.347 9.64 114.963 9.64C115.587 9.64 116.139 9.776 116.619 10.048C117.107 10.32 117.487 10.696 117.759 11.176C118.039 11.656 118.179 12.212 118.179 12.844C118.179 13.468 118.039 14.024 117.759 14.512C117.487 14.992 117.107 15.372 116.619 15.652C116.131 15.924 115.579 16.06 114.963 16.06ZM114.963 15.304C115.419 15.304 115.823 15.204 116.175 15.004C116.527 14.796 116.803 14.508 117.003 14.14C117.211 13.764 117.315 13.332 117.315 12.844C117.315 12.348 117.211 11.916 117.003 11.548C116.803 11.18 116.527 10.896 116.175 10.696C115.823 10.488 115.423 10.384 114.975 10.384C114.527 10.384 114.127 10.488 113.775 10.696C113.423 10.896 113.143 11.18 112.935 11.548C112.727 11.916 112.623 12.348 112.623 12.844C112.623 13.332 112.727 13.764 112.935 14.14C113.143 14.508 113.423 14.796 113.775 15.004C114.127 15.204 114.523 15.304 114.963 15.304ZM119.918 16V9.7H120.734V11.416L120.65 11.116C120.826 10.636 121.122 10.272 121.538 10.024C121.954 9.768 122.47 9.64 123.086 9.64V10.468C123.054 10.468 123.022 10.468 122.99 10.468C122.958 10.46 122.926 10.456 122.894 10.456C122.23 10.456 121.71 10.66 121.334 11.068C120.958 11.468 120.77 12.04 120.77 12.784V16H119.918ZM127.259 16.06C126.603 16.06 126.027 15.924 125.531 15.652C125.035 15.372 124.647 14.992 124.367 14.512C124.087 14.024 123.947 13.468 123.947 12.844C123.947 12.22 124.079 11.668 124.343 11.188C124.615 10.708 124.983 10.332 125.447 10.06C125.919 9.78 126.447 9.64 127.031 9.64C127.623 9.64 128.147 9.776 128.603 10.048C129.067 10.312 129.431 10.688 129.695 11.176C129.959 11.656 130.091 12.212 130.091 12.844C130.091 12.884 130.087 12.928 130.079 12.976C130.079 13.016 130.079 13.06 130.079 13.108H124.595V12.472H129.623L129.287 12.724C129.287 12.268 129.187 11.864 128.987 11.512C128.795 11.152 128.531 10.872 128.195 10.672C127.859 10.472 127.471 10.372 127.031 10.372C126.599 10.372 126.211 10.472 125.867 10.672C125.523 10.872 125.255 11.152 125.063 11.512C124.871 11.872 124.775 12.284 124.775 12.748V12.88C124.775 13.36 124.879 13.784 125.087 14.152C125.303 14.512 125.599 14.796 125.975 15.004C126.359 15.204 126.795 15.304 127.283 15.304C127.667 15.304 128.023 15.236 128.351 15.1C128.687 14.964 128.975 14.756 129.215 14.476L129.695 15.028C129.415 15.364 129.063 15.62 128.639 15.796C128.223 15.972 127.763 16.06 127.259 16.06Z" fill="#1F2937"/>
<path d="M11.6883 55.8516V47.4516H12.5763V55.0836H17.2803V55.8516H11.6883ZM21.157 55.9116C20.501 55.9116 19.925 55.7756 19.429 55.5036C18.933 55.2236 18.545 54.8436 18.265 54.3636C17.985 53.8756 17.845 53.3196 17.845 52.6956C17.845 52.0716 17.977 51.5196 18.241 51.0396C18.513 50.5596 18.881 50.1836 19.345 49.9116C19.817 49.6316 20.345 49.4916 20.929 49.4916C21.521 49.4916 22.045 49.6276 22.501 49.8996C22.965 50.1636 23.329 50.5396 23.593 51.0276C23.857 51.5076 23.989 52.0636 23.989 52.6956C23.989 52.7356 23.985 52.7796 23.977 52.8276C23.977 52.8676 23.977 52.9116 23.977 52.9596H18.493V52.3236H23.521L23.185 52.5756C23.185 52.1196 23.085 51.7156 22.885 51.3636C22.693 51.0036 22.429 50.7236 22.093 50.5236C21.757 50.3236 21.369 50.2236 20.929 50.2236C20.497 50.2236 20.109 50.3236 19.765 50.5236C19.421 50.7236 19.153 51.0036 18.961 51.3636C18.769 51.7236 18.673 52.1356 18.673 52.5996V52.7316C18.673 53.2116 18.777 53.6356 18.985 54.0036C19.201 54.3636 19.497 54.6476 19.873 54.8556C20.257 55.0556 20.693 55.1556 21.181 55.1556C21.565 55.1556 21.921 55.0876 22.249 54.9516C22.585 54.8156 22.873 54.6076 23.113 54.3276L23.593 54.8796C23.313 55.2156 22.961 55.4716 22.537 55.6476C22.121 55.8236 21.661 55.9116 21.157 55.9116ZM27.4152 55.9116C26.8952 55.9116 26.4032 55.8396 25.9392 55.6956C25.4752 55.5436 25.1112 55.3556 24.8472 55.1316L25.2312 54.4596C25.4872 54.6516 25.8152 54.8196 26.2152 54.9636C26.6152 55.0996 27.0352 55.1676 27.4752 55.1676C28.0752 55.1676 28.5072 55.0756 28.7712 54.8916C29.0352 54.6996 29.1672 54.4476 29.1672 54.1356C29.1672 53.9036 29.0912 53.7236 28.9392 53.5956C28.7952 53.4596 28.6032 53.3596 28.3632 53.2956C28.1232 53.2236 27.8552 53.1636 27.5592 53.1156C27.2632 53.0676 26.9672 53.0116 26.6712 52.9476C26.3832 52.8836 26.1192 52.7916 25.8792 52.6716C25.6392 52.5436 25.4432 52.3716 25.2912 52.1556C25.1472 51.9396 25.0752 51.6516 25.0752 51.2916C25.0752 50.9476 25.1712 50.6396 25.3632 50.3676C25.5552 50.0956 25.8352 49.8836 26.2032 49.7316C26.5792 49.5716 27.0352 49.4916 27.5712 49.4916C27.9792 49.4916 28.3872 49.5476 28.7952 49.6596C29.2032 49.7636 29.5392 49.9036 29.8032 50.0796L29.4312 50.7636C29.1512 50.5716 28.8512 50.4356 28.5312 50.3556C28.2112 50.2676 27.8912 50.2236 27.5712 50.2236C27.0032 50.2236 26.5832 50.3236 26.3112 50.5236C26.0472 50.7156 25.9152 50.9636 25.9152 51.2676C25.9152 51.5076 25.9872 51.6956 26.1312 51.8316C26.2832 51.9676 26.4792 52.0756 26.7192 52.1556C26.9672 52.2276 27.2352 52.2876 27.5232 52.3356C27.8192 52.3836 28.1112 52.4436 28.3992 52.5156C28.6952 52.5796 28.9632 52.6716 29.2032 52.7916C29.4512 52.9036 29.6472 53.0676 29.7912 53.2836C29.9432 53.4916 30.0192 53.7676 30.0192 54.1116C30.0192 54.4796 29.9152 54.7996 29.7072 55.0716C29.5072 55.3356 29.2112 55.5436 28.8192 55.6956C28.4352 55.8396 27.9672 55.9116 27.4152 55.9116ZM33.2745 55.9116C32.7545 55.9116 32.2625 55.8396 31.7985 55.6956C31.3345 55.5436 30.9705 55.3556 30.7065 55.1316L31.0905 54.4596C31.3465 54.6516 31.6745 54.8196 32.0745 54.9636C32.4745 55.0996 32.8945 55.1676 33.3345 55.1676C33.9345 55.1676 34.3665 55.0756 34.6305 54.8916C34.8945 54.6996 35.0265 54.4476 35.0265 54.1356C35.0265 53.9036 34.9505 53.7236 34.7985 53.5956C34.6545 53.4596 34.4625 53.3596 34.2225 53.2956C33.9825 53.2236 33.7145 53.1636 33.4185 53.1156C33.1225 53.0676 32.8265 53.0116 32.5305 52.9476C32.2425 52.8836 31.9785 52.7916 31.7385 52.6716C31.4985 52.5436 31.3025 52.3716 31.1505 52.1556C31.0065 51.9396 30.9345 51.6516 30.9345 51.2916C30.9345 50.9476 31.0305 50.6396 31.2225 50.3676C31.4145 50.0956 31.6945 49.8836 32.0625 49.7316C32.4385 49.5716 32.8945 49.4916 33.4305 49.4916C33.8385 49.4916 34.2465 49.5476 34.6545 49.6596C35.0625 49.7636 35.3985 49.9036 35.6625 50.0796L35.2905 50.7636C35.0105 50.5716 34.7105 50.4356 34.3905 50.3556C34.0705 50.2676 33.7505 50.2236 33.4305 50.2236C32.8625 50.2236 32.4425 50.3236 32.1705 50.5236C31.9065 50.7156 31.7745 50.9636 31.7745 51.2676C31.7745 51.5076 31.8465 51.6956 31.9905 51.8316C32.1425 51.9676 32.3385 52.0756 32.5785 52.1556C32.8265 52.2276 33.0945 52.2876 33.3825 52.3356C33.6785 52.3836 33.9705 52.4436 34.2585 52.5156C34.5545 52.5796 34.8225 52.6716 35.0625 52.7916C35.3105 52.9036 35.5065 53.0676 35.6505 53.2836C35.8025 53.4916 35.8785 53.7676 35.8785 54.1116C35.8785 54.4796 35.7745 54.7996 35.5665 55.0716C35.3665 55.3356 35.0705 55.5436 34.6785 55.6956C34.2945 55.8396 33.8265 55.9116 33.2745 55.9116Z" fill="#1F2937"/>
<path d="M94.4445 19.7935L44.3869 48.3391" stroke="#9CA3AF" stroke-width="1.2"/>
<circle cx="10.4805" cy="92.6523" r="5" transform="rotate(180 10.4805 92.6523)" fill="#9CA3AF"/>
<circle cx="10.4805" cy="92.6523" r="5" transform="rotate(180 10.4805 92.6523)" fill="#4B5563"/>
<circle cx="35.4414" cy="79.4102" r="5" transform="rotate(180 35.4414 79.4102)" fill="#9CA3AF"/>
<circle cx="35.4414" cy="79.4102" r="5" transform="rotate(180 35.4414 79.4102)" fill="#4B5563"/>
<circle cx="35.4414" cy="92.6484" r="5" transform="rotate(180 35.4414 92.6484)" fill="#9CA3AF"/>
<circle cx="35.4414" cy="92.6484" r="5" transform="rotate(180 35.4414 92.6484)" fill="#4B5563"/>
<circle cx="60.4023" cy="66.1719" r="5" transform="rotate(180 60.4023 66.1719)" fill="#9CA3AF"/>
<circle cx="60.4023" cy="66.1719" r="5" transform="rotate(180 60.4023 66.1719)" fill="#4B5563"/>
<circle cx="60.4023" cy="79.4102" r="5" transform="rotate(180 60.4023 79.4102)" fill="#9CA3AF"/>
<circle cx="60.4023" cy="79.4102" r="5" transform="rotate(180 60.4023 79.4102)" fill="#4B5563"/>
<circle cx="60.4023" cy="92.6523" r="5" transform="rotate(180 60.4023 92.6523)" fill="#9CA3AF"/>
<circle cx="60.4023" cy="92.6523" r="5" transform="rotate(180 60.4023 92.6523)" fill="#4B5563"/>
<circle cx="85.3594" cy="52.9297" r="5" transform="rotate(180 85.3594 52.9297)" fill="#9CA3AF"/>
<circle cx="85.3594" cy="52.9297" r="5" transform="rotate(180 85.3594 52.9297)" fill="#4B5563"/>
<circle cx="85.3594" cy="66.168" r="5" transform="rotate(180 85.3594 66.168)" fill="#9CA3AF"/>
<circle cx="85.3594" cy="66.168" r="5" transform="rotate(180 85.3594 66.168)" fill="#4B5563"/>
<circle cx="85.3594" cy="79.4102" r="5" transform="rotate(180 85.3594 79.4102)" fill="#9CA3AF"/>
<circle cx="85.3594" cy="79.4102" r="5" transform="rotate(180 85.3594 79.4102)" fill="#4B5563"/>
<circle cx="85.3594" cy="92.6484" r="5" transform="rotate(180 85.3594 92.6484)" fill="#9CA3AF"/>
<circle cx="85.3594" cy="92.6484" r="5" transform="rotate(180 85.3594 92.6484)" fill="#4B5563"/>
<circle cx="110.32" cy="39.6914" r="5" transform="rotate(180 110.32 39.6914)" fill="#9CA3AF"/>
<circle cx="110.32" cy="39.6914" r="5" transform="rotate(180 110.32 39.6914)" fill="#4B5563"/>
<circle cx="110.32" cy="52.9297" r="5" transform="rotate(180 110.32 52.9297)" fill="#9CA3AF"/>
<circle cx="110.32" cy="52.9297" r="5" transform="rotate(180 110.32 52.9297)" fill="#4B5563"/>
<circle cx="110.32" cy="66.1719" r="5" transform="rotate(180 110.32 66.1719)" fill="#9CA3AF"/>
<circle cx="110.32" cy="66.1719" r="5" transform="rotate(180 110.32 66.1719)" fill="#4B5563"/>
<circle cx="110.32" cy="79.4102" r="5" transform="rotate(180 110.32 79.4102)" fill="#9CA3AF"/>
<circle cx="110.32" cy="79.4102" r="5" transform="rotate(180 110.32 79.4102)" fill="#4B5563"/>
<circle cx="110.32" cy="92.6523" r="5" transform="rotate(180 110.32 92.6523)" fill="#9CA3AF"/>
<circle cx="110.32" cy="92.6523" r="5" transform="rotate(180 110.32 92.6523)" fill="#4B5563"/>
<circle cx="135.281" cy="26.4492" r="5" transform="rotate(180 135.281 26.4492)" fill="#9CA3AF"/>
<circle cx="135.281" cy="26.4492" r="5" transform="rotate(180 135.281 26.4492)" fill="#4B5563"/>
<circle cx="135.281" cy="39.6875" r="5" transform="rotate(180 135.281 39.6875)" fill="#9CA3AF"/>
<circle cx="135.281" cy="39.6875" r="5" transform="rotate(180 135.281 39.6875)" fill="#4B5563"/>
<circle cx="135.281" cy="52.9297" r="5" transform="rotate(180 135.281 52.9297)" fill="#9CA3AF"/>
<circle cx="135.281" cy="52.9297" r="5" transform="rotate(180 135.281 52.9297)" fill="#4B5563"/>
<circle cx="135.281" cy="66.168" r="5" transform="rotate(180 135.281 66.168)" fill="#9CA3AF"/>
<circle cx="135.281" cy="66.168" r="5" transform="rotate(180 135.281 66.168)" fill="#4B5563"/>
<circle cx="135.281" cy="79.4102" r="5" transform="rotate(180 135.281 79.4102)" fill="#9CA3AF"/>
<circle cx="135.281" cy="79.4102" r="5" transform="rotate(180 135.281 79.4102)" fill="#4B5563"/>
<circle cx="135.281" cy="92.6484" r="5" transform="rotate(180 135.281 92.6484)" fill="#9CA3AF"/>
<circle cx="135.281" cy="92.6484" r="5" transform="rotate(180 135.281 92.6484)" fill="#4B5563"/>
<circle cx="160.242" cy="13.2109" r="5" transform="rotate(180 160.242 13.2109)" fill="#9CA3AF"/>
<circle cx="160.242" cy="13.2109" r="5" transform="rotate(180 160.242 13.2109)" fill="#4B5563"/>
<circle cx="160.242" cy="26.4492" r="5" transform="rotate(180 160.242 26.4492)" fill="#9CA3AF"/>
<circle cx="160.242" cy="26.4492" r="5" transform="rotate(180 160.242 26.4492)" fill="#4B5563"/>
<circle cx="160.242" cy="39.6914" r="5" transform="rotate(180 160.242 39.6914)" fill="#9CA3AF"/>
<circle cx="160.242" cy="39.6914" r="5" transform="rotate(180 160.242 39.6914)" fill="#4B5563"/>
<circle cx="160.242" cy="52.9297" r="5" transform="rotate(180 160.242 52.9297)" fill="#9CA3AF"/>
<circle cx="160.242" cy="52.9297" r="5" transform="rotate(180 160.242 52.9297)" fill="#4B5563"/>
<circle cx="160.242" cy="66.1719" r="5" transform="rotate(180 160.242 66.1719)" fill="#9CA3AF"/>
<circle cx="160.242" cy="66.1719" r="5" transform="rotate(180 160.242 66.1719)" fill="#4B5563"/>
<circle cx="160.242" cy="79.4102" r="5" transform="rotate(180 160.242 79.4102)" fill="#9CA3AF"/>
<circle cx="160.242" cy="79.4102" r="5" transform="rotate(180 160.242 79.4102)" fill="#4B5563"/>
<circle cx="160.242" cy="92.6523" r="5" transform="rotate(180 160.242 92.6523)" fill="#9CA3AF"/>
<circle cx="160.242" cy="92.6523" r="5" transform="rotate(180 160.242 92.6523)" fill="#4B5563"/>
</svg>
