<svg xmlns="http://www.w3.org/2000/svg" viewBox="0 0 200 200" width="200" height="200">
  <rect x="0" y="0" width="50" height="50" fill="#FF69B4"/>
  <rect x="50" y="0" width="50" height="50" fill="#FF6347"/>
  <rect x="100" y="0" width="50" height="50" fill="#FF69B4"/>
  <rect x="150" y="0" width="50" height="50" fill="#FF6347"/>
  <rect x="0" y="50" width="50" height="50" fill="#FF6347"/>
  <rect x="50" y="50" width="50" height="50" fill="#FF69B4"/>
  <rect x="100" y="50" width="50" height="50" fill="#FF6347"/>
  <rect x="150" y="50" width="50" height="50" fill="#FF69B4"/>
  <rect x="0" y="100" width="50" height="50" fill="#FF69B4"/>
  <rect x="50" y="100" width="50" height="50" fill="#FF6347"/>
  <rect x="100" y="100" width="50" height="50" fill="#FF69B4"/>
  <rect x="150" y="100" width="50" height="50" fill="#FF6347"/>
  <rect x="0" y="150" width="50" height="50" fill="#FF6347"/>
  <rect x="50" y="150" width="50" height="50" fill="#FF69B4"/>
  <rect x="100" y="150" width="50" height="50" fill="#FF6347"/>
  <rect x="150" y="150" width="50" height="50" fill="#FF69B4"/>
</svg>
