<svg xmlns="http://www.w3.org/2000/svg" viewBox="0 0 200 200" width="200" height="200">
  <circle cx="100" cy="100" r="20" fill="#F24E1E"/>
  <g transform="translate(100,100)">
    <polygon points="0,-85 4,-25 -4,-25" fill="#F24E1E" transform="rotate(0)"/>
    <polygon points="0,-85 4,-25 -4,-25" fill="#F24E1E" transform="rotate(15)"/>
    <polygon points="0,-85 4,-25 -4,-25" fill="#F24E1E" transform="rotate(30)"/>
    <polygon points="0,-85 4,-25 -4,-25" fill="#F24E1E" transform="rotate(45)"/>
    <polygon points="0,-85 4,-25 -4,-25" fill="#F24E1E" transform="rotate(60)"/>
    <polygon points="0,-85 4,-25 -4,-25" fill="#F24E1E" transform="rotate(75)"/>
    <polygon points="0,-85 4,-25 -4,-25" fill="#F24E1E" transform="rotate(90)"/>
    <polygon points="0,-85 4,-25 -4,-25" fill="#F24E1E" transform="rotate(105)"/>
    <polygon points="0,-85 4,-25 -4,-25" fill="#F24E1E" transform="rotate(120)"/>
    <polygon points="0,-85 4,-25 -4,-25" fill="#F24E1E" transform="rotate(135)"/>
    <polygon points="0,-85 4,-25 -4,-25" fill="#F24E1E" transform="rotate(150)"/>
    <polygon points="0,-85 4,-25 -4,-25" fill="#F24E1E" transform="rotate(165)"/>
    <polygon points="0,-85 4,-25 -4,-25" fill="#F24E1E" transform="rotate(180)"/>
    <polygon points="0,-85 4,-25 -4,-25" fill="#F24E1E" transform="rotate(195)"/>
    <polygon points="0,-85 4,-25 -4,-25" fill="#F24E1E" transform="rotate(210)"/>
    <polygon points="0,-85 4,-25 -4,-25" fill="#F24E1E" transform="rotate(225)"/>
    <polygon points="0,-85 4,-25 -4,-25" fill="#F24E1E" transform="rotate(240)"/>
    <polygon points="0,-85 4,-25 -4,-25" fill="#F24E1E" transform="rotate(255)"/>
    <polygon points="0,-85 4,-25 -4,-25" fill="#F24E1E" transform="rotate(270)"/>
    <polygon points="0,-85 4,-25 -4,-25" fill="#F24E1E" transform="rotate(285)"/>
    <polygon points="0,-85 4,-25 -4,-25" fill="#F24E1E" transform="rotate(300)"/>
    <polygon points="0,-85 4,-25 -4,-25" fill="#F24E1E" transform="rotate(315)"/>
    <polygon points="0,-85 4,-25 -4,-25" fill="#F24E1E" transform="rotate(330)"/>
    <polygon points="0,-85 4,-25 -4,-25" fill="#F24E1E" transform="rotate(345)"/>
  </g>
</svg>
