<svg preserveAspectRatio="none" width="100%" height="100%" overflow="visible" style="display: block;" viewBox="0 0 13 10" fill="none" xmlns="http://www.w3.org/2000/svg">
<g id="Group">
<path id="Vector" d="M10.2879 3.34501C10.2881 3.3324 10.2881 3.32002 10.2881 3.30741C10.2881 1.69328 8.97487 0.38 7.36074 0.38C6.26274 0.38 5.27372 0.984622 4.77044 1.94188C4.53241 1.80475 4.26084 1.73111 3.98296 1.73111C3.11397 1.73111 2.40667 2.43842 2.40667 3.30741C2.40667 3.33556 2.40734 3.3637 2.40892 3.39185C1.22107 3.69473 0.38 4.76345 0.38 6.00963C0.38 7.49968 1.59217 8.71185 3.08222 8.71185H10.063C10.0925 8.71185 10.1208 8.70577 10.1465 8.69451C11.5154 8.53959 12.54 7.39632 12.54 6.00963C12.54 4.69207 11.567 3.56164 10.2879 3.34501ZM10.0427 8.25225C10.0272 8.2536 10.0121 8.25698 9.99766 8.26148H3.08222C1.84055 8.26148 0.83037 7.2513 0.83037 6.00963C0.83037 4.91095 1.61469 3.97778 2.69558 3.79065C2.75525 3.7803 2.80817 3.74652 2.8424 3.69653C2.87663 3.64654 2.88969 3.58506 2.87798 3.52561C2.86402 3.45378 2.85704 3.38037 2.85704 3.30741C2.85704 2.68657 3.36213 2.18148 3.98296 2.18148C4.25116 2.18148 4.51102 2.27741 4.71414 2.45125C4.76908 2.49787 4.84249 2.51566 4.91343 2.49922C4.98369 2.48233 5.04133 2.43256 5.06881 2.36591C5.45252 1.43319 6.35214 0.83037 7.36074 0.83037C8.72649 0.83037 9.83778 1.94166 9.83778 3.30741C9.83778 3.37969 9.83463 3.45153 9.82855 3.52201C9.82337 3.58168 9.84206 3.64068 9.88034 3.68662C9.91884 3.73256 9.97379 3.76116 10.0335 3.76633C11.1864 3.86542 12.0896 4.85083 12.0896 6.00963C12.0896 7.18307 11.2096 8.14709 10.0427 8.25225Z" fill="var(--fill-0, black)" stroke="var(--stroke-0, black)" stroke-width="0.76"/>
</g>
</svg>
