<svg preserveAspectRatio="none" width="100%" height="100%" overflow="visible" style="display: block;" viewBox="0 0 9 9" fill="none" xmlns="http://www.w3.org/2000/svg">
<g id="Octicons-mark-github 1" clip-path="url(#clip0_293_5325)">
<path id="Vector" opacity="0.2" fill-rule="evenodd" clip-rule="evenodd" d="M4.5 -0.000976562C2.01375 -0.000976562 0 2.01277 0 4.49902C0 6.49027 1.28812 8.17215 3.07687 8.7684C3.30187 8.80777 3.38625 8.67277 3.38625 8.55465C3.38625 8.44777 3.38063 8.0934 3.38063 7.71652C2.25 7.92465 1.9575 7.4409 1.8675 7.18777C1.81687 7.0584 1.5975 6.65902 1.40625 6.55215C1.24875 6.46777 1.02375 6.25965 1.40063 6.25402C1.755 6.2484 2.00813 6.58027 2.0925 6.71527C2.4975 7.3959 3.14438 7.20465 3.40313 7.08652C3.4425 6.79402 3.56062 6.59715 3.69 6.48465C2.68875 6.37215 1.6425 5.98402 1.6425 4.26277C1.6425 3.7734 1.81688 3.3684 2.10375 3.0534C2.05875 2.9409 1.90125 2.47965 2.14875 1.8609C2.14875 1.8609 2.52563 1.74277 3.38625 2.32215C3.74625 2.2209 4.12875 2.17027 4.51125 2.17027C4.89375 2.17027 5.27625 2.2209 5.63625 2.32215C6.49688 1.73715 6.87375 1.8609 6.87375 1.8609C7.12125 2.47965 6.96375 2.9409 6.91875 3.0534C7.20563 3.3684 7.38 3.76777 7.38 4.26277C7.38 5.98965 6.32813 6.37215 5.32688 6.48465C5.49 6.62527 5.63063 6.89527 5.63063 7.31715C5.63063 7.91902 5.625 8.40277 5.625 8.55465C5.625 8.67277 5.70938 8.8134 5.93438 8.7684C7.71188 8.17215 9 6.48465 9 4.49902C9 2.01277 6.98625 -0.000976562 4.5 -0.000976562Z" fill="var(--fill-0, #1F2937)"/>
</g>
<defs>
<clipPath id="clip0_293_5325">
<rect width="9" height="9" fill="white"/>
</clipPath>
</defs>
</svg>
