<svg preserveAspectRatio="none" width="100%" height="100%" overflow="visible" style="display: block;" viewBox="0 0 48 48" fill="none" xmlns="http://www.w3.org/2000/svg">
<g id="icon.svg" clip-path="url(#clip0_349_143656)">
<path id="Vector" d="M46.1538 24C46.1538 11.7648 36.2352 1.84615 24 1.84615C11.7648 1.84615 1.84615 11.7648 1.84615 24C1.84615 36.2352 11.7648 46.1538 24 46.1538C36.2352 46.1538 46.1538 36.2352 46.1538 24Z" fill="var(--fill-0, white)"/>
<path id="Vector_2" d="M46.1538 24C46.1538 11.7648 36.2352 1.84615 24 1.84615C11.7648 1.84615 1.84615 11.7648 1.84615 24C1.84615 36.2352 11.7648 46.1538 24 46.1538C36.2352 46.1538 46.1538 36.2352 46.1538 24Z" stroke="var(--stroke-0, black)" stroke-width="2.76923"/>
<path id="Vector_3" d="M18.8377 19.2409C18.9933 18.0791 18.1777 17.011 17.0158 16.8553C15.8539 16.6996 14.7859 17.5153 14.6302 18.6772L18.8377 19.2409ZM14.6644 35.4069V37.5294H18.9094V35.4069H14.6644ZM16.7339 18.959C14.6302 18.6772 14.6302 18.6771 14.6302 18.6772C14.6302 18.677 14.6301 18.6774 14.6302 18.6772C14.6301 18.6775 14.63 18.6786 14.6299 18.6792C14.6298 18.6802 14.6297 18.6815 14.6294 18.6832C14.629 18.6865 14.6284 18.691 14.6276 18.6967C14.6261 18.7083 14.6239 18.7246 14.6213 18.7454C14.6159 18.7868 14.6083 18.846 14.5993 18.9192C14.5811 19.0654 14.5567 19.2693 14.5314 19.5021C14.4824 19.9522 14.4236 20.5674 14.4078 21.0831L18.651 21.2127C18.6614 20.8702 18.7049 20.391 18.7516 19.9612C18.7741 19.754 18.796 19.5716 18.812 19.4415C18.8202 19.3765 18.8267 19.325 18.8312 19.2904C18.8334 19.273 18.8351 19.26 18.8362 19.2516C18.8368 19.2474 18.8372 19.2444 18.8374 19.2426C18.8376 19.2416 18.8376 19.2412 18.8377 19.2409C18.8377 19.241 18.8377 19.2409 16.7339 18.959ZM14.4078 21.0831C14.3677 22.3986 14.6284 23.4392 14.7998 24.1891C14.9724 24.9441 15.0666 25.4415 15.0118 26.0717L19.241 26.4388C19.3571 25.1007 19.1221 24.048 18.9381 23.2432C18.753 22.4333 18.6298 21.9043 18.651 21.2127L14.4078 21.0831ZM15.0118 26.0717C14.9465 26.824 14.8714 27.3449 14.7917 27.8871C14.7102 28.4404 14.6213 29.0309 14.5481 29.846L18.776 30.2258C18.8373 29.5434 18.9098 29.0598 18.9914 28.5054C19.0746 27.9399 19.1646 27.3193 19.241 26.4388L15.0118 26.0717ZM14.5481 29.846C14.4311 31.1478 14.4685 32.4576 14.528 33.4794C14.558 33.9942 14.5948 34.4524 14.6225 34.8018C14.6366 34.9806 14.6476 35.1222 14.6552 35.2369C14.659 35.2932 14.6614 35.3362 14.6629 35.3685C14.6645 35.4028 14.6644 35.413 14.6644 35.4069H18.9094C18.9094 35.1486 18.8784 34.7727 18.8543 34.4673C18.8262 34.1121 18.793 33.6968 18.766 33.2325C18.7114 32.2961 18.6864 31.2245 18.776 30.2258L14.5481 29.846Z" fill="var(--fill-0, black)"/>
<path id="Vector_4" d="M16.5268 15.6672C17.8942 15.6672 19.0028 14.5586 19.0028 13.1911C19.0028 11.8237 17.8942 10.7151 16.5268 10.7151C15.1593 10.7151 14.0507 11.8237 14.0507 13.1911C14.0507 14.5586 15.1593 15.6672 16.5268 15.6672Z" fill="var(--fill-0, black)"/>
<path id="Vector_5" d="M32.5168 37.5348L26.2986 29.0923L29.0837 25.8694L37.5438 37.5348H32.5168Z" fill="var(--fill-0, black)"/>
<path id="Vector_6" d="M21.8771 37.5348V12.2598H26.221V37.5348H21.8771Z" fill="var(--fill-0, black)"/>
<path id="Vector_7" d="M36.7574 17.2883C37.6909 16.8632 38.103 15.7619 37.6779 14.8284C37.2528 13.8949 36.1515 13.4828 35.218 13.9079L36.7574 17.2883ZM35.9877 15.5981C35.218 13.9079 35.2184 13.9077 35.218 13.9079C35.2179 13.908 35.2166 13.9086 35.2163 13.9086C35.2157 13.909 35.2149 13.9093 35.2142 13.9097C35.2126 13.9103 35.2109 13.9111 35.2087 13.9122C35.2046 13.914 35.1994 13.9164 35.1932 13.9193C35.1809 13.9251 35.1643 13.9328 35.1438 13.9424C35.103 13.9618 35.0466 13.989 34.9761 14.0237C34.8354 14.0931 34.6384 14.1933 34.3987 14.3229C33.921 14.5813 33.2658 14.961 32.5461 15.4517C31.1449 16.4071 29.3314 17.8956 28.2056 19.8637L31.4298 21.708C32.1434 20.4606 33.4148 19.3551 34.6387 18.5206C35.2316 18.1163 35.7741 17.8019 36.1658 17.5901C36.3609 17.4846 36.5166 17.4055 36.6198 17.3546C36.6714 17.3291 36.7098 17.3107 36.7333 17.2997C36.745 17.294 36.7532 17.2902 36.7574 17.2883C36.7594 17.2874 36.7602 17.287 36.7603 17.287C36.7608 17.2868 36.7603 17.2869 36.7603 17.287C36.7602 17.2871 36.759 17.2876 36.7587 17.2878C36.7588 17.2877 36.7585 17.2878 36.7587 17.2878C36.7583 17.2878 36.7574 17.2883 35.9877 15.5981ZM28.2056 19.8637C27.6037 20.916 27.5363 22.0406 28.0618 23.0552C28.4778 23.8583 29.1922 24.4086 29.5727 24.702C30.0973 25.1063 30.2921 25.2438 30.4179 25.3928C30.4409 25.4202 30.2674 25.1696 30.3582 24.8715L33.9118 25.9524C34.2966 24.6876 33.817 23.6613 33.2563 22.9971C32.7986 22.4547 32.1321 21.9849 31.8404 21.7602C31.4047 21.4242 31.3479 21.3234 31.3601 21.3469C31.4818 21.5819 31.3781 21.7985 31.4298 21.708L28.2056 19.8637ZM30.3582 24.8715C30.3943 24.7524 30.3831 24.916 29.8552 25.2594C29.3895 25.5624 28.7542 25.8545 28.0564 26.1142C27.3718 26.369 26.6948 26.568 26.1833 26.704C25.9293 26.7715 25.7207 26.8223 25.578 26.8557C25.5067 26.8724 25.4522 26.8847 25.4169 26.8925C25.3993 26.8963 25.3865 26.8991 25.3789 26.9008C25.3751 26.9016 25.3726 26.9022 25.3714 26.9023C25.3713 26.9023 25.3709 26.9025 25.3714 26.9023C25.3717 26.9023 25.3721 26.9022 25.7533 28.7199C26.1346 30.5376 26.1349 30.5375 26.1353 30.5374C26.135 30.5375 26.1354 30.5374 26.1353 30.5374C26.1358 30.5373 26.1372 30.537 26.138 30.5369C26.1395 30.5365 26.1413 30.5361 26.1435 30.5357C26.1478 30.5347 26.1536 30.5335 26.1606 30.532C26.1749 30.5289 26.1944 30.5247 26.219 30.5192C26.2682 30.5083 26.3376 30.4927 26.4246 30.4723C26.5983 30.4317 26.8433 30.372 27.1377 30.2937C27.7227 30.1382 28.5211 29.9046 29.3521 29.5953C30.1697 29.291 31.0898 28.8875 31.8807 28.373C32.6093 27.899 33.5557 27.1232 33.9118 25.9524L30.3582 24.8715Z" fill="var(--fill-0, black)"/>
<path id="Vector_8" d="M33.1532 37.5311H37.5309" stroke="var(--stroke-0, #AAAAAA)" stroke-width="0.265315"/>
</g>
<defs>
<clipPath id="clip0_349_143656">
<rect width="48" height="48" fill="white"/>
</clipPath>
</defs>
</svg>
