<svg preserveAspectRatio="none" width="100%" height="100%" overflow="visible" style="display: block;" viewBox="0 0 22 22" fill="none" xmlns="http://www.w3.org/2000/svg">
<path id="Vector" d="M11 17.6655L7.03 20.0455C6.71894 20.2324 6.36289 20.3311 6 20.3311C5.63712 20.3311 5.28107 20.2324 4.97 20.0455L1.97 18.2455C1.67476 18.0681 1.43033 17.8175 1.26039 17.5179C1.09045 17.2184 1.00076 16.88 1 16.5355V13.2955C1.00076 12.9511 1.09045 12.6127 1.26039 12.3131C1.43033 12.0135 1.67476 11.7629 1.97 11.5855L6 9.16553M11 17.6655V12.1655M11 17.6655L14.97 20.0455C15.2811 20.2324 15.6371 20.3311 16 20.3311C16.3629 20.3311 16.7189 20.2324 17.03 20.0455L20.03 18.2455C20.3252 18.0681 20.5697 17.8175 20.7396 17.5179C20.9096 17.2184 20.9992 16.88 21 16.5355V13.2955C20.9992 12.9511 20.9096 12.6127 20.7396 12.3131C20.5697 12.0135 20.3252 11.7629 20.03 11.5855L16 9.16553M11 12.1655L6 9.16553M11 12.1655L6.00001 15.1654M11 12.1655L16 9.16553M11 12.1655L16 15.1655M11 12.1655L10.9998 6.66543M6 9.16553V4.79562C6.00076 4.45119 6.09045 4.11279 6.26039 3.81321C6.43033 3.51362 6.67476 3.263 6.97 3.08562L9.97 1.28562C10.2811 1.09873 10.6371 1 11 1C11.3629 1 11.7189 1.09873 12.03 1.28562L15.03 3.08562C15.3252 3.263 15.5697 3.51362 15.7396 3.81321C15.9096 4.11279 15.9992 4.45119 16 4.79562V9.16553M6.00001 15.1654L1.26001 12.3154M6.00001 15.1654L6 20.3355M16 15.1655L20.74 12.3154M16 15.1655V20.3355M10.9998 6.66543L6.25977 3.81543M10.9998 6.66543L15.74 3.81543" stroke="var(--stroke-0, #0A0A0A)" stroke-width="2" stroke-linecap="round" stroke-linejoin="round"/>
</svg>
