<svg preserveAspectRatio="none" width="100%" height="100%" overflow="visible" style="display: block;" viewBox="0 0 32 35" fill="none" xmlns="http://www.w3.org/2000/svg">
<g id="Union">
<path d="M22.5617 0.0751951C22.8349 -0.0809523 23.1837 0.0139384 23.34 0.287109C23.496 0.560339 23.4012 0.909206 23.1281 1.06543L20.1544 2.7627C23.879 3.78215 27.1148 6.12216 29.2501 9.35547C31.4927 12.7514 32.3527 16.8768 31.6525 20.8857C30.9522 24.8947 28.7447 28.4843 25.4835 30.9189C22.2223 33.3535 18.1532 34.4496 14.1105 33.9814C10.0678 33.5132 6.35684 31.5168 3.73842 28.4014C1.11996 25.2858 -0.207955 21.2866 0.0265042 17.2236C0.261001 13.1606 2.04063 9.34051 5.00014 6.54687C7.90157 3.80823 11.7226 2.25894 15.7062 2.19922C16.0074 2.19494 16.2554 2.40815 16.3126 2.6875L16.3253 2.81055C16.3253 3.10843 16.1143 3.35235 15.839 3.41211L15.7169 3.42578C12.0424 3.48269 8.51836 4.91308 5.84193 7.43945C3.11032 10.018 1.46861 13.5438 1.25209 17.2939C1.03565 21.0442 2.26104 24.7355 4.67787 27.6113C7.09486 30.4871 10.5204 32.3305 14.2521 32.7627C17.9835 33.1947 21.739 32.1835 24.7492 29.9365C27.7594 27.6892 29.797 24.3753 30.4435 20.6748C31.0899 16.9744 30.2966 13.1669 28.2267 10.0322C26.3045 7.12142 23.416 4.99586 20.0851 4.01953L21.6476 7.14258C21.7882 7.42411 21.6742 7.76648 21.3927 7.90723C21.1114 8.04735 20.7688 7.93349 20.6281 7.65234L18.5587 3.5127C18.3081 3.0114 18.4932 2.40135 18.9796 2.12305L22.5617 0.0751951Z" fill="var(--fill-0, #CBD5E1)"/>
<path d="M22.5617 0.0751951C22.8349 -0.0809523 23.1837 0.0139384 23.34 0.287109C23.496 0.560339 23.4012 0.909206 23.1281 1.06543L20.1544 2.7627C23.879 3.78215 27.1148 6.12216 29.2501 9.35547C31.4927 12.7514 32.3527 16.8768 31.6525 20.8857C30.9522 24.8947 28.7447 28.4843 25.4835 30.9189C22.2223 33.3535 18.1532 34.4496 14.1105 33.9814C10.0678 33.5132 6.35684 31.5168 3.73842 28.4014C1.11996 25.2858 -0.207955 21.2866 0.0265042 17.2236C0.261001 13.1606 2.04063 9.34051 5.00014 6.54687C7.90157 3.80823 11.7226 2.25894 15.7062 2.19922C16.0074 2.19494 16.2554 2.40815 16.3126 2.6875L16.3253 2.81055C16.3253 3.10843 16.1143 3.35235 15.839 3.41211L15.7169 3.42578C12.0424 3.48269 8.51836 4.91308 5.84193 7.43945C3.11032 10.018 1.46861 13.5438 1.25209 17.2939C1.03565 21.0442 2.26104 24.7355 4.67787 27.6113C7.09486 30.4871 10.5204 32.3305 14.2521 32.7627C17.9835 33.1947 21.739 32.1835 24.7492 29.9365C27.7594 27.6892 29.797 24.3753 30.4435 20.6748C31.0899 16.9744 30.2966 13.1669 28.2267 10.0322C26.3045 7.12142 23.416 4.99586 20.0851 4.01953L21.6476 7.14258C21.7882 7.42411 21.6742 7.76648 21.3927 7.90723C21.1114 8.04735 20.7688 7.93349 20.6281 7.65234L18.5587 3.5127C18.3081 3.0114 18.4932 2.40135 18.9796 2.12305L22.5617 0.0751951Z" fill="var(--fill-1, #111827)"/>
</g>
</svg>
