<svg preserveAspectRatio="none" width="100%" height="100%" overflow="visible" style="display: block;" viewBox="0 0 8 9" fill="none" xmlns="http://www.w3.org/2000/svg">
<path id="Vector" opacity="0.2" d="M2.25 0.375V1.875M5.25 0.375V1.875M0.375 3.375H7.125M4.875 7.875V6.375C4.875 6.17609 4.95402 5.98532 5.09467 5.84467C5.23532 5.70402 5.42609 5.625 5.625 5.625H7.125M7.125 6V1.875C7.125 1.67609 7.04598 1.48532 6.90533 1.34467C6.76468 1.20402 6.57391 1.125 6.375 1.125H1.125C0.926088 1.125 0.735322 1.20402 0.59467 1.34467C0.454018 1.48532 0.375 1.67609 0.375 1.875V7.125C0.375 7.32391 0.454018 7.51468 0.59467 7.65533C0.735322 7.79598 0.926088 7.875 1.125 7.875H5.25L7.125 6Z" stroke="var(--stroke-0, #1F2937)" stroke-width="0.75" stroke-linecap="round" stroke-linejoin="round"/>
</svg>
