<svg preserveAspectRatio="none" width="100%" height="100%" overflow="visible" style="display: block;" viewBox="0 0 15 14" fill="none" xmlns="http://www.w3.org/2000/svg">
<path id="Vector" d="M10.07 12.73V11.4C10.07 10.6945 9.78975 10.0179 9.2909 9.5191C8.79206 9.02025 8.11548 8.74 7.41 8.74H3.42C2.71452 8.74 2.03794 9.02025 1.5391 9.5191C1.04025 10.0179 0.76 10.6945 0.76 11.4V12.73M10.07 6.08L11.4 7.41L14.06 4.75M8.075 3.42C8.075 4.88908 6.88408 6.08 5.415 6.08C3.94592 6.08 2.755 4.88908 2.755 3.42C2.755 1.95092 3.94592 0.76 5.415 0.76C6.88408 0.76 8.075 1.95092 8.075 3.42Z" stroke="var(--stroke-0, black)" stroke-width="1.52" stroke-linecap="round" stroke-linejoin="round"/>
</svg>
