<svg preserveAspectRatio="none" width="100%" height="100%" overflow="visible" style="display: block;" viewBox="0 0 9 8" fill="none" xmlns="http://www.w3.org/2000/svg">
<path id="Vector" opacity="0.2" d="M5.85 7.35V6.6C5.85 6.20218 5.69196 5.82064 5.41066 5.53934C5.12936 5.25804 4.74782 5.1 4.35 5.1H2.1C1.70218 5.1 1.32064 5.25804 1.03934 5.53934C0.758035 5.82064 0.6 6.20218 0.6 6.6V7.35M5.85 3.6L6.6 4.35L8.1 2.85M4.725 2.1C4.725 2.92843 4.05343 3.6 3.225 3.6C2.39657 3.6 1.725 2.92843 1.725 2.1C1.725 1.27157 2.39657 0.6 3.225 0.6C4.05343 0.6 4.725 1.27157 4.725 2.1Z" stroke="var(--stroke-0, #1F2937)" stroke-width="1.2" stroke-linecap="round" stroke-linejoin="round"/>
</svg>
