<svg preserveAspectRatio="none" width="100%" height="100%" overflow="visible" style="display: block;" viewBox="0 0 16 16" fill="none" xmlns="http://www.w3.org/2000/svg">
<g id="Octicons-mark-github 1" clip-path="url(#clip0_293_5215)">
<path id="Vector" fill-rule="evenodd" clip-rule="evenodd" d="M7.98094 -0.000939405C3.57199 -0.000939405 0.000936592 3.57011 0.000936592 7.97906C0.000936592 11.5102 2.28521 14.4927 5.45726 15.5501C5.85626 15.6199 6.00589 15.3805 6.00589 15.171C6.00589 14.9815 5.99591 14.3531 5.99591 13.6848C3.99094 14.0538 3.47224 13.196 3.31264 12.7471C3.22286 12.5177 2.83384 11.8095 2.49469 11.6199C2.21539 11.4703 1.81639 11.1012 2.48471 11.0913C3.11314 11.0813 3.56201 11.6698 3.71164 11.9092C4.42984 13.1162 5.57696 12.777 6.03581 12.5676C6.10564 12.0489 6.31511 11.6997 6.54454 11.5002C4.76899 11.3007 2.91364 10.6125 2.91364 7.56011C2.91364 6.69229 3.22286 5.97409 3.73159 5.41549C3.65179 5.21599 3.37249 4.39804 3.81139 3.30079C3.81139 3.30079 4.47971 3.09131 6.00589 4.11874C6.64429 3.93919 7.32259 3.84941 8.00089 3.84941C8.67919 3.84941 9.35749 3.93919 9.99589 4.11874C11.5221 3.08134 12.1904 3.30079 12.1904 3.30079C12.6293 4.39804 12.35 5.21599 12.2702 5.41549C12.7789 5.97409 13.0881 6.68231 13.0881 7.56011C13.0881 10.6224 11.2228 11.3007 9.44726 11.5002C9.73654 11.7496 9.98591 12.2284 9.98591 12.9765C9.98591 14.0439 9.97594 14.9017 9.97594 15.171C9.97594 15.3805 10.1256 15.6299 10.5246 15.5501C13.6767 14.4927 15.9609 11.5002 15.9609 7.97906C15.9609 3.57011 12.3899 -0.000939405 7.98094 -0.000939405Z" fill="var(--fill-0, #1B1F23)"/>
</g>
<defs>
<clipPath id="clip0_293_5215">
<rect width="15.96" height="15.96" fill="white"/>
</clipPath>
</defs>
</svg>
