<svg preserveAspectRatio="none" width="100%" height="100%" overflow="visible" style="display: block;" viewBox="0 0 50 54" fill="none" xmlns="http://www.w3.org/2000/svg">
<path id="Union" d="M35.4741 0.0987016C35.8336 -0.106505 36.292 0.01862 36.4975 0.377999C36.7029 0.737562 36.5777 1.19591 36.2182 1.40144L31.1128 4.31745C37.1201 5.84842 42.3495 9.56364 45.7719 14.7462C49.2812 20.0604 50.6256 26.5158 49.5298 32.7891C48.4339 39.0625 44.9805 44.6796 39.8774 48.4893C34.7741 52.2991 28.4068 54.013 22.0805 53.2803C15.7543 52.5477 9.94757 49.4242 5.85007 44.5489C1.75265 39.6736 -0.325448 33.4156 0.0414808 27.0577C0.408499 20.6999 3.19274 14.7231 7.82371 10.3516C12.364 6.06587 18.3428 3.6404 24.5766 3.54694C24.9666 3.54124 25.2834 3.83786 25.3218 4.21198L25.3257 4.28815C25.3256 4.64884 25.0704 4.94501 24.7358 5.01765L24.5874 5.03425C18.7292 5.12491 13.1111 7.405 8.84422 11.4327C4.48927 15.5436 1.87098 21.1648 1.52586 27.1436C1.18085 33.1225 3.13561 39.0072 6.98875 43.5919C10.842 48.1765 16.3023 51.1148 22.2514 51.8038C28.2006 52.4927 34.1886 50.8806 38.9878 47.2979C43.7867 43.7152 47.0343 38.4327 48.0649 32.5333C49.0954 26.6338 47.8309 20.563 44.5307 15.5655C41.3909 10.811 36.6344 7.36931 31.1587 5.86726L33.8218 11.1944C34.0068 11.5648 33.857 12.015 33.4868 12.2003C33.1164 12.3855 32.6652 12.2357 32.48 11.8653L29.2124 5.32819C28.8523 4.60766 29.1175 3.73078 29.8169 3.33112L35.4741 0.0987016Z" fill="var(--fill-0, #4B5563)"/>
</svg>
