<svg preserveAspectRatio="none" width="100%" height="100%" overflow="visible" style="display: block;" viewBox="0 0 10 7" fill="none" xmlns="http://www.w3.org/2000/svg">
<g id="Group">
<path id="Vector" opacity="0.2" d="M7.63317 2.4945C7.63333 2.48517 7.63333 2.476 7.63333 2.46667C7.63333 1.272 6.66133 0.3 5.46667 0.3C4.654 0.3 3.922 0.7475 3.5495 1.456C3.37333 1.3545 3.17233 1.3 2.96667 1.3C2.3235 1.3 1.8 1.8235 1.8 2.46667C1.8 2.4875 1.8005 2.50833 1.80167 2.52917C0.9225 2.75333 0.3 3.54433 0.3 4.46667C0.3 5.5695 1.19717 6.46667 2.3 6.46667H7.46667C7.4885 6.46667 7.5095 6.46217 7.5285 6.45383C8.54167 6.33917 9.3 5.493 9.3 4.46667C9.3 3.4915 8.57983 2.65483 7.63317 2.4945ZM7.45167 6.1265C7.44017 6.1275 7.429 6.13 7.41833 6.13333H2.3C1.381 6.13333 0.633333 5.38567 0.633333 4.46667C0.633333 3.6535 1.21383 2.96283 2.01383 2.82433C2.058 2.81667 2.09717 2.79167 2.1225 2.75467C2.14783 2.71767 2.1575 2.67217 2.14883 2.62817C2.1385 2.575 2.13333 2.52067 2.13333 2.46667C2.13333 2.00717 2.50717 1.63333 2.96667 1.63333C3.16517 1.63333 3.3575 1.70433 3.50783 1.833C3.5485 1.8675 3.60283 1.88067 3.65533 1.8685C3.70733 1.856 3.75 1.81917 3.77033 1.76983C4.05433 1.0795 4.72017 0.633333 5.46667 0.633333C6.4775 0.633333 7.3 1.45583 7.3 2.46667C7.3 2.52017 7.29767 2.57333 7.29317 2.6255C7.28933 2.66967 7.30317 2.71333 7.3315 2.74733C7.36 2.78133 7.40067 2.8025 7.44483 2.80633C8.29817 2.87967 8.96667 3.609 8.96667 4.46667C8.96667 5.33517 8.31533 6.04867 7.45167 6.1265Z" stroke="var(--stroke-0, #1F2937)" stroke-width="0.6"/>
</g>
</svg>
