<svg preserveAspectRatio="none" width="100%" height="100%" overflow="visible" style="display: block;" viewBox="0 0 22 16" fill="none" xmlns="http://www.w3.org/2000/svg">
<path id="Vector" d="M1.00003 2C1.60003 2.5 2.20003 3 3.50003 3C6.00003 3 6.00003 1 8.50003 1C11.1 1 10.9 3 13.5 3C16 3 16 1 18.5 1C19.8 1 20.4 1.5 21 2M1.00003 8C1.60003 8.5 2.20003 9 3.50003 9C6.00003 9 6.00003 7 8.50003 7C11.1 7 10.9 9 13.5 9C16 9 16 7 18.5 7C19.8 7 20.4 7.5 21 8M1.00003 14C1.60003 14.5 2.20003 15 3.50003 15C6.00003 15 6.00003 13 8.50003 13C11.1 13 10.9 15 13.5 15C16 15 16 13 18.5 13C19.8 13 20.4 13.5 21 14" stroke="var(--stroke-0, #0A0A0A)" stroke-width="2" stroke-linecap="round" stroke-linejoin="round"/>
</svg>
