<svg width="200" height="200" viewBox="0 0 200 200" fill="none" xmlns="http://www.w3.org/2000/svg">
<path d="M83.5601 187.623L105.945 17.5898" stroke="#9CA3AF" stroke-width="0.5" stroke-linecap="round"/>
<path d="M117.946 18.7793L73.5586 184.436" stroke="#9CA3AF" stroke-width="0.5" stroke-linecap="round"/>
<path d="M130.068 22.3847L64.4375 180.83" stroke="#9CA3AF" stroke-width="0.5" stroke-linecap="round"/>
<path d="M141.125 27.3458L55.375 175.869" stroke="#9CA3AF" stroke-width="0.5" stroke-linecap="round"/>
<path d="M152.453 33.5747L48.0508 169.635" stroke="#9CA3AF" stroke-width="0.5" stroke-linecap="round"/>
<path d="M162.386 40.9714L41.1172 162.24" stroke="#9CA3AF" stroke-width="0.5" stroke-linecap="round"/>
<path d="M33.5686 156.653L173.992 48.9023" stroke="#9CA3AF" stroke-width="0.5" stroke-linecap="round"/>
<path d="M83.8555 184.705L83.3555 188.503" stroke="#6B7280" stroke-width="2" stroke-linecap="round"/>
<path d="M74.3555 182.422L73.8555 184.288" stroke="#D1D5DB" stroke-width="2" stroke-linecap="round"/>
<path d="M65.3555 179.354L64.3555 181.354" stroke="#D1D5DB" stroke-width="2" stroke-linecap="round"/>
<path d="M56.3555 174.854L55.3555 176.354" stroke="#D1D5DB" stroke-width="2" stroke-linecap="round"/>
<path d="M48.3555 169.354L46.8555 170.854" stroke="#D1D5DB" stroke-width="2" stroke-linecap="round"/>
<path d="M40.8555 162.854L39.3555 164.354" stroke="#D1D5DB" stroke-width="2" stroke-linecap="round"/>
<path d="M34.3555 155.271L32.3555 156.938" stroke="#D1D5DB" stroke-width="2.5" stroke-linecap="round"/>
<circle cx="104.268" cy="31.6458" r="1.5" transform="rotate(7.5 104.268 31.6458)" fill="#D1D5DB"/>
<circle cx="104.791" cy="27.681" r="1.5" transform="rotate(7.5 104.791 27.681)" fill="#9CA3AF"/>
<circle cx="105.311" cy="23.7142" r="1.5" transform="rotate(7.5 105.311 23.7142)" fill="#57534E"/>
<circle cx="105.834" cy="19.7494" r="1.5" transform="rotate(7.5 105.834 19.7494)" fill="#6B7280"/>
<circle cx="106.358" cy="15.7826" r="1.5" transform="rotate(7.5 106.358 15.7826)" fill="#9CA3AF"/>
<circle cx="114.217" cy="33.2922" r="1.5" transform="rotate(15 114.217 33.2922)" fill="#E5E7EB"/>
<circle cx="115.252" cy="29.427" r="1.5" transform="rotate(15 115.252 29.427)" fill="#D1D5DB"/>
<circle cx="116.287" cy="25.5637" r="1.5" transform="rotate(15 116.287 25.5637)" fill="#9CA3AF"/>
<circle cx="117.322" cy="21.7004" r="1.5" transform="rotate(15 117.322 21.7004)" fill="#57534E"/>
<circle cx="118.358" cy="17.8371" r="1.5" transform="rotate(15 118.358 17.8371)" fill="#6B7280"/>
<circle cx="119.397" cy="13.9738" r="1.5" transform="rotate(15 119.397 13.9738)" fill="#9CA3AF"/>
<circle opacity="0.8" cx="1.5" cy="1.5" r="1.5" transform="matrix(0.866025 0.5 0.5 -0.866025 142.988 21.543)" fill="#6B7280"/>
<circle opacity="0.8" cx="1.5" cy="1.5" r="1.5" transform="matrix(0.866025 0.5 0.5 -0.866025 140.988 25.0078)" fill="#57534E"/>
<circle opacity="0.8" cx="1.5" cy="1.5" r="1.5" transform="matrix(0.866025 0.5 0.5 -0.866025 138.988 28.4707)" fill="#57534E"/>
<circle opacity="0.8" cx="1.5" cy="1.5" r="1.5" transform="matrix(0.866025 0.5 0.5 -0.866025 136.988 31.9355)" fill="#57534E"/>
<circle opacity="0.8" cx="1.5" cy="1.5" r="1.5" transform="matrix(0.866025 0.5 0.5 -0.866025 134.988 35.4004)" fill="#9CA3AF"/>
<circle opacity="0.8" cx="1.5" cy="1.5" r="1.5" transform="matrix(0.866025 0.5 0.5 -0.866025 132.988 38.8633)" fill="#D1D5DB"/>
<circle opacity="0.8" cx="1.5" cy="1.5" r="1.5" transform="matrix(0.866025 0.5 0.5 -0.866025 130.988 42.3281)" fill="#E5E7EB"/>
<circle opacity="0.8" cx="1.5" cy="1.5" r="1.5" transform="matrix(0.707107 0.707107 0.707107 -0.707107 161.445 40.1543)" fill="#9CA3AF"/>
<circle opacity="0.8" cx="1.5" cy="1.5" r="1.5" transform="matrix(0.707107 0.707107 0.707107 -0.707107 158.617 42.9824)" fill="#9CA3AF"/>
<circle opacity="0.8" cx="1.5" cy="1.5" r="1.5" transform="matrix(0.707107 0.707107 0.707107 -0.707107 155.789 45.8105)" fill="#57534E"/>
<circle opacity="0.8" cx="1.5" cy="1.5" r="1.5" transform="matrix(0.707107 0.707107 0.707107 -0.707107 152.961 48.6387)" fill="#6B7280"/>
<circle opacity="0.8" cx="1.5" cy="1.5" r="1.5" transform="matrix(0.707107 0.707107 0.707107 -0.707107 150.133 51.4688)" fill="#9CA3AF"/>
<circle opacity="0.8" cx="1.5" cy="1.5" r="1.5" transform="matrix(0.707107 0.707107 0.707107 -0.707107 147.305 54.2969)" fill="#D1D5DB"/>
<circle cx="1.5" cy="1.5" r="1.5" transform="matrix(0.923879 0.382683 0.382683 -0.923879 128.523 22.6074)" fill="#9CA3AF"/>
<circle cx="1.5" cy="1.5" r="1.5" transform="matrix(0.923879 0.382683 0.382683 -0.923879 126.992 26.3027)" fill="#57534E"/>
<circle cx="1.5" cy="1.5" r="1.5" transform="matrix(0.923879 0.382683 0.382683 -0.923879 125.465 30)" fill="#9CA3AF"/>
<circle cx="1.5" cy="1.5" r="1.5" transform="matrix(0.923879 0.382683 0.382683 -0.923879 123.934 33.6953)" fill="#D1D5DB"/>
<circle cx="1.5" cy="1.5" r="1.5" transform="matrix(0.923879 0.382683 0.382683 -0.923879 122.402 37.3906)" fill="#E5E7EB"/>
<circle opacity="0.8" cx="142.027" cy="47.2418" r="1.5" transform="rotate(37.5 142.027 47.2418)" fill="#D1D5DB"/>
<circle opacity="0.8" cx="144.46" cy="44.068" r="1.5" transform="rotate(37.5 144.46 44.068)" fill="#9CA3AF"/>
<circle opacity="0.8" cx="146.894" cy="40.8942" r="1.5" transform="rotate(37.5 146.894 40.8942)" fill="#6B7280"/>
<circle opacity="0.8" cx="149.332" cy="37.7204" r="1.5" transform="rotate(37.5 149.332 37.7204)" fill="#57534E"/>
<circle opacity="0.8" cx="151.765" cy="34.5465" r="1.5" transform="rotate(37.5 151.765 34.5465)" fill="#9CA3AF"/>
<circle opacity="0.8" cx="1.5" cy="1.5" r="1.5" transform="matrix(0.608761 0.793353 0.793353 -0.608761 170.137 49.5664)" fill="#9CA3AF"/>
<circle opacity="0.8" cx="1.5" cy="1.5" r="1.5" transform="matrix(0.608761 0.793353 0.793353 -0.608761 166.965 52.002)" fill="#6B7280"/>
<circle opacity="0.8" cx="1.5" cy="1.5" r="1.5" transform="matrix(0.608761 0.793353 0.793353 -0.608761 163.789 54.4375)" fill="#57534E"/>
<circle opacity="0.8" cx="1.5" cy="1.5" r="1.5" transform="matrix(0.608761 0.793353 0.793353 -0.608761 160.617 56.873)" fill="#57534E"/>
<circle opacity="0.8" cx="1.5" cy="1.5" r="1.5" transform="matrix(0.608761 0.793353 0.793353 -0.608761 157.445 59.3066)" fill="#9CA3AF"/>
<circle opacity="0.8" cx="1.5" cy="1.5" r="1.5" transform="matrix(0.608761 0.793353 0.793353 -0.608761 154.27 61.7422)" fill="#E5E7EB"/>
<path d="M100.018 8.91147C99.6451 8.91147 99.2881 8.85547 98.9475 8.74347C98.6068 8.6268 98.3385 8.47747 98.1425 8.29547L98.4015 7.74947C98.5881 7.9128 98.8261 8.04814 99.1155 8.15547C99.4048 8.2628 99.7058 8.31647 100.018 8.31647C100.303 8.31647 100.534 8.2838 100.711 8.21847C100.889 8.15314 101.019 8.06447 101.103 7.95247C101.187 7.8358 101.229 7.70514 101.229 7.56047C101.229 7.39247 101.173 7.25714 101.061 7.15447C100.954 7.0518 100.812 6.97014 100.634 6.90947C100.462 6.84414 100.27 6.78814 100.06 6.74147C99.8505 6.6948 99.6381 6.64114 99.4235 6.58047C99.2135 6.51514 99.0198 6.43347 98.8425 6.33547C98.6698 6.23747 98.5298 6.1068 98.4225 5.94347C98.3151 5.77547 98.2615 5.5608 98.2615 5.29947C98.2615 5.04747 98.3268 4.81647 98.4575 4.60647C98.5928 4.3918 98.7981 4.22147 99.0735 4.09547C99.3535 3.9648 99.7081 3.89947 100.137 3.89947C100.422 3.89947 100.704 3.9368 100.984 4.01147C101.264 4.08614 101.507 4.19347 101.712 4.33347L101.481 4.89347C101.271 4.75347 101.05 4.65314 100.816 4.59247C100.583 4.52714 100.357 4.49447 100.137 4.49447C99.8621 4.49447 99.6358 4.52947 99.4585 4.59947C99.2811 4.66947 99.1505 4.7628 99.0665 4.87947C98.9871 4.99614 98.9475 5.1268 98.9475 5.27147C98.9475 5.44414 99.0011 5.5818 99.1085 5.68447C99.2205 5.78714 99.3628 5.8688 99.5355 5.92947C99.7128 5.99014 99.9065 6.04614 100.116 6.09747C100.326 6.14414 100.536 6.1978 100.746 6.25847C100.961 6.31914 101.155 6.39847 101.327 6.49647C101.505 6.59447 101.647 6.72514 101.754 6.88847C101.862 7.0518 101.915 7.2618 101.915 7.51847C101.915 7.7658 101.848 7.9968 101.712 8.21147C101.577 8.42147 101.367 8.5918 101.082 8.72247C100.802 8.84847 100.448 8.91147 100.018 8.91147ZM104.401 8.89747C104.084 8.89747 103.804 8.83914 103.561 8.72247C103.323 8.6058 103.136 8.42847 103.001 8.19047C102.87 7.9478 102.805 7.64447 102.805 7.28047V5.14547H103.477V7.20347C103.477 7.56747 103.563 7.84047 103.736 8.02247C103.913 8.20447 104.161 8.29547 104.478 8.29547C104.711 8.29547 104.914 8.2488 105.087 8.15547C105.26 8.05747 105.393 7.91747 105.486 7.73547C105.579 7.5488 105.626 7.3248 105.626 7.06347V5.14547H106.298V8.85547H105.661V7.85447L105.766 8.12047C105.645 8.3678 105.463 8.55914 105.22 8.69447C104.977 8.8298 104.704 8.89747 104.401 8.89747ZM109.558 5.11047C109.862 5.11047 110.128 5.1688 110.356 5.28547C110.59 5.40214 110.772 5.57947 110.902 5.81747C111.033 6.05547 111.098 6.35647 111.098 6.72047V8.85547H110.426V6.79747C110.426 6.43814 110.338 6.16747 110.16 5.98547C109.988 5.80347 109.743 5.71247 109.425 5.71247C109.187 5.71247 108.98 5.75914 108.802 5.85247C108.625 5.9458 108.487 6.08347 108.389 6.26547C108.296 6.44747 108.249 6.6738 108.249 6.94447V8.85547H107.577V5.14547H108.221V6.14647L108.116 5.88047C108.238 5.6378 108.424 5.4488 108.676 5.31347C108.928 5.17814 109.222 5.11047 109.558 5.11047Z" fill="black"/>
<path d="M118.09 8.85547V3.95547H118.664L120.862 7.65847H120.554L122.724 3.95547H123.298L123.305 8.85547H122.633L122.626 5.01247H122.787L120.855 8.26047H120.533L118.587 5.01247H118.762V8.85547H118.09Z" fill="black"/>
<path d="M134.563 12.8555V8.56447H132.883V7.95547H136.936V8.56447H135.256V12.8555H134.563Z" fill="black"/>
<path d="M147.217 17.3555L145.579 12.4555H146.3L147.805 16.9775H147.441L149.002 12.4555H149.646L151.172 16.9775H150.822L152.348 12.4555H153.013L151.375 17.3555H150.64L149.212 13.1625H149.401L147.966 17.3555H147.217Z" fill="black"/>
<path d="M162.063 25.8555V21.5645H160.383V20.9555H164.436V21.5645H162.756V25.8555H162.063Z" fill="black"/>
<path d="M172.22 31.7725H174.747V32.3745H172.22V31.7725ZM172.29 34.3555H171.59V29.4555H175.048V30.0645H172.29V34.3555Z" fill="black"/>
<path d="M180.518 45.9115C180.145 45.9115 179.788 45.8555 179.447 45.7435C179.107 45.6268 178.838 45.4775 178.642 45.2955L178.901 44.7495C179.088 44.9128 179.326 45.0481 179.615 45.1555C179.905 45.2628 180.206 45.3165 180.518 45.3165C180.803 45.3165 181.034 45.2838 181.211 45.2185C181.389 45.1531 181.519 45.0645 181.603 44.9525C181.687 44.8358 181.729 44.7051 181.729 44.5605C181.729 44.3925 181.673 44.2571 181.561 44.1545C181.454 44.0518 181.312 43.9701 181.134 43.9095C180.962 43.8441 180.77 43.7881 180.56 43.7415C180.35 43.6948 180.138 43.6411 179.923 43.5805C179.713 43.5151 179.52 43.4335 179.342 43.3355C179.17 43.2375 179.03 43.1068 178.922 42.9435C178.815 42.7755 178.761 42.5608 178.761 42.2995C178.761 42.0475 178.827 41.8165 178.957 41.6065C179.093 41.3918 179.298 41.2215 179.573 41.0955C179.853 40.9648 180.208 40.8995 180.637 40.8995C180.922 40.8995 181.204 40.9368 181.484 41.0115C181.764 41.0861 182.007 41.1935 182.212 41.3335L181.981 41.8935C181.771 41.7535 181.55 41.6531 181.316 41.5925C181.083 41.5271 180.857 41.4945 180.637 41.4945C180.362 41.4945 180.136 41.5295 179.958 41.5995C179.781 41.6695 179.65 41.7628 179.566 41.8795C179.487 41.9961 179.447 42.1268 179.447 42.2715C179.447 42.4441 179.501 42.5818 179.608 42.6845C179.72 42.7871 179.863 42.8688 180.035 42.9295C180.213 42.9901 180.406 43.0461 180.616 43.0975C180.826 43.1441 181.036 43.1978 181.246 43.2585C181.461 43.3191 181.655 43.3985 181.827 43.4965C182.005 43.5945 182.147 43.7251 182.254 43.8885C182.362 44.0518 182.415 44.2618 182.415 44.5185C182.415 44.7658 182.348 44.9968 182.212 45.2115C182.077 45.4215 181.867 45.5918 181.582 45.7225C181.302 45.8485 180.948 45.9115 180.518 45.9115Z" fill="black"/>
<path d="M26.4005 161.894C26.1338 161.894 25.8788 161.854 25.6355 161.774C25.3921 161.69 25.2005 161.584 25.0605 161.454L25.2455 161.064C25.3788 161.18 25.5488 161.277 25.7555 161.354C25.9621 161.43 26.1771 161.469 26.4005 161.469C26.6038 161.469 26.7688 161.445 26.8955 161.399C27.0221 161.352 27.1155 161.289 27.1755 161.209C27.2355 161.125 27.2655 161.032 27.2655 160.929C27.2655 160.809 27.2255 160.712 27.1455 160.639C27.0688 160.565 26.9671 160.507 26.8405 160.464C26.7171 160.417 26.5805 160.377 26.4305 160.344C26.2805 160.31 26.1288 160.272 25.9755 160.229C25.8255 160.182 25.6871 160.124 25.5605 160.054C25.4371 159.984 25.3371 159.89 25.2605 159.774C25.1838 159.654 25.1455 159.5 25.1455 159.314C25.1455 159.134 25.1921 158.969 25.2855 158.819C25.3821 158.665 25.5288 158.544 25.7255 158.454C25.9255 158.36 26.1788 158.314 26.4855 158.314C26.6888 158.314 26.8905 158.34 27.0905 158.394C27.2905 158.447 27.4638 158.524 27.6105 158.624L27.4455 159.024C27.2955 158.924 27.1371 158.852 26.9705 158.809C26.8038 158.762 26.6421 158.739 26.4855 158.739C26.2888 158.739 26.1271 158.764 26.0005 158.814C25.8738 158.864 25.7805 158.93 25.7205 159.014C25.6638 159.097 25.6355 159.19 25.6355 159.294C25.6355 159.417 25.6738 159.515 25.7505 159.589C25.8305 159.662 25.9321 159.72 26.0555 159.764C26.1821 159.807 26.3205 159.847 26.4705 159.884C26.6205 159.917 26.7705 159.955 26.9205 159.999C27.0738 160.042 27.2121 160.099 27.3355 160.169C27.4621 160.239 27.5638 160.332 27.6405 160.449C27.7171 160.565 27.7555 160.715 27.7555 160.899C27.7555 161.075 27.7071 161.24 27.6105 161.394C27.5138 161.544 27.3638 161.665 27.1605 161.759C26.9605 161.849 26.7071 161.894 26.4005 161.894Z" fill="black"/>
<path d="M33.3305 169.009H35.1355V169.439H33.3305V169.009ZM33.3805 170.854H32.8805V167.354H35.3505V167.789H33.3805V170.854Z" fill="black"/>
<path d="M41.0755 177.354V174.289H39.8755V173.854H42.7705V174.289H41.5705V177.354H41.0755Z" fill="black"/>
<path d="M48.1855 183.854L47.0155 180.354H47.5305L48.6055 183.584H48.3455L49.4605 180.354H49.9205L51.0105 183.584H50.7605L51.8505 180.354H52.3255L51.1555 183.854H50.6305L49.6105 180.859H49.7455L48.7205 183.854H48.1855Z" fill="black"/>
<path d="M60.0755 188.854V185.789H58.8755V185.354H61.7705V185.789H60.5705V188.854H60.0755Z" fill="black"/>
<path d="M69.8805 193.354V189.854H70.2905L71.8605 192.499H71.6405L73.1905 189.854H73.6005L73.6055 193.354H73.1255L73.1205 190.609H73.2355L71.8555 192.929H71.6255L70.2355 190.609H70.3605V193.354H69.8805Z" fill="black"/>
<path d="M82.4005 196.894C82.1338 196.894 81.8788 196.854 81.6355 196.774C81.3921 196.69 81.2005 196.584 81.0605 196.454L81.2455 196.064C81.3788 196.18 81.5488 196.277 81.7555 196.354C81.9621 196.43 82.1771 196.469 82.4005 196.469C82.6038 196.469 82.7688 196.445 82.8955 196.399C83.0221 196.352 83.1155 196.289 83.1755 196.209C83.2355 196.125 83.2655 196.032 83.2655 195.929C83.2655 195.809 83.2255 195.712 83.1455 195.639C83.0688 195.565 82.9671 195.507 82.8405 195.464C82.7171 195.417 82.5805 195.377 82.4305 195.344C82.2805 195.31 82.1288 195.272 81.9755 195.229C81.8255 195.182 81.6871 195.124 81.5605 195.054C81.4371 194.984 81.3371 194.89 81.2605 194.774C81.1838 194.654 81.1455 194.5 81.1455 194.314C81.1455 194.134 81.1921 193.969 81.2855 193.819C81.3821 193.665 81.5288 193.544 81.7255 193.454C81.9255 193.36 82.1788 193.314 82.4855 193.314C82.6888 193.314 82.8905 193.34 83.0905 193.394C83.2905 193.447 83.4638 193.524 83.6105 193.624L83.4455 194.024C83.2955 193.924 83.1371 193.852 82.9705 193.809C82.8038 193.762 82.6421 193.739 82.4855 193.739C82.2888 193.739 82.1271 193.764 82.0005 193.814C81.8738 193.864 81.7805 193.93 81.7205 194.014C81.6638 194.097 81.6355 194.19 81.6355 194.294C81.6355 194.417 81.6738 194.515 81.7505 194.589C81.8305 194.662 81.9321 194.72 82.0555 194.764C82.1821 194.807 82.3205 194.847 82.4705 194.884C82.6205 194.917 82.7705 194.955 82.9205 194.999C83.0738 195.042 83.2121 195.099 83.3355 195.169C83.4621 195.239 83.5638 195.332 83.6405 195.449C83.7171 195.565 83.7555 195.715 83.7555 195.899C83.7555 196.075 83.7071 196.24 83.6105 196.394C83.5138 196.544 83.3638 196.665 83.1605 196.759C82.9605 196.849 82.7071 196.894 82.4005 196.894Z" fill="black"/>
<circle cx="83.5131" cy="186.081" r="5.5" transform="rotate(30 83.5131 186.081)" stroke="#78716C" stroke-width="0.5" stroke-linecap="round"/>
</svg>
