<svg width="192" height="192" viewBox="0 0 192 192" fill="none" xmlns="http://www.w3.org/2000/svg">
<circle cx="90.1078" cy="105.455" r="57.3" stroke="#D1D5DB" stroke-width="0.6"/>
<path d="M83.3618 162.828L98.3984 48.6133" stroke="#9CA3AF" stroke-width="0.48" stroke-linecap="round"/>
<path d="M105.418 50.1394L75.6016 161.414" stroke="#9CA3AF" stroke-width="0.48" stroke-linecap="round"/>
<path d="M112.484 52.5847L68.3984 159.016" stroke="#9CA3AF" stroke-width="0.48" stroke-linecap="round"/>
<path d="M118.799 55.6479L61.1992 155.414" stroke="#9CA3AF" stroke-width="0.48" stroke-linecap="round"/>
<path d="M125.329 59.219L55.1992 150.613" stroke="#9CA3AF" stroke-width="0.48" stroke-linecap="round"/>
<path d="M130.658 64.3538L49.1992 145.812" stroke="#9CA3AF" stroke-width="0.48" stroke-linecap="round"/>
<path d="M44.2073 140.344L135.602 70.2148" stroke="#9CA3AF" stroke-width="0.48" stroke-linecap="round"/>
<path d="M83.3768 163.199L82.8008 167.574" stroke="#6B7280" stroke-width="2.4" stroke-linecap="round"/>
<path d="M75.5764 161.326L74.8564 163.911" stroke="#D1D5DB" stroke-width="2.4" stroke-linecap="round"/>
<path d="M68.3512 159.215L67.1992 161.519" stroke="#D1D5DB" stroke-width="2.88" stroke-linecap="round"/>
<path d="M60.9645 155.227L59.8125 156.955" stroke="#D1D5DB" stroke-width="2.88" stroke-linecap="round"/>
<path d="M55.3491 150.094L53.6211 151.822" stroke="#D1D5DB" stroke-width="2.88" stroke-linecap="round"/>
<path d="M49.1108 146.207L47.3828 147.935" stroke="#D1D5DB" stroke-width="2.88" stroke-linecap="round"/>
<path d="M45.2181 139.871L42.9141 141.791" stroke="#D1D5DB" stroke-width="2.88" stroke-linecap="round"/>
<circle cx="98.5046" cy="46.6784" r="3" transform="rotate(7.5 98.5046 46.6784)" fill="#D1D5DB"/>
<circle cx="99.4109" cy="39.7761" r="3" transform="rotate(7.5 99.4109 39.7761)" fill="#9CA3AF"/>
<circle cx="100.321" cy="32.8776" r="3" transform="rotate(7.5 100.321 32.8776)" fill="#57534E"/>
<circle cx="101.227" cy="25.9753" r="3" transform="rotate(7.5 101.227 25.9753)" fill="#6B7280"/>
<circle cx="102.137" cy="19.0769" r="3" transform="rotate(7.5 102.137 19.0769)" fill="#9CA3AF"/>
<circle cx="106.043" cy="49.725" r="3" transform="rotate(15 106.043 49.725)" fill="#E5E7EB"/>
<circle cx="107.844" cy="43.0024" r="3" transform="rotate(15 107.844 43.0024)" fill="#D1D5DB"/>
<circle cx="109.645" cy="36.2797" r="3" transform="rotate(15 109.645 36.2797)" fill="#9CA3AF"/>
<circle cx="111.446" cy="29.557" r="3" transform="rotate(15 111.446 29.557)" fill="#57534E"/>
<circle cx="113.25" cy="22.8344" r="3" transform="rotate(15 113.25 22.8344)" fill="#6B7280"/>
<circle cx="115.051" cy="16.1117" r="3" transform="rotate(15 115.051 16.1117)" fill="#9CA3AF"/>
<circle cx="3" cy="3" r="3" transform="matrix(0.866025 0.5 0.5 -0.866025 135.676 20.4844)" fill="#6B7280"/>
<circle cx="3" cy="3" r="3" transform="matrix(0.866025 0.5 0.5 -0.866025 132.195 26.5156)" fill="#57534E"/>
<circle cx="3" cy="3" r="3" transform="matrix(0.866025 0.5 0.5 -0.866025 128.715 32.543)" fill="#57534E"/>
<circle cx="3" cy="3" r="3" transform="matrix(0.866025 0.5 0.5 -0.866025 125.238 38.5703)" fill="#57534E"/>
<circle cx="3" cy="3" r="3" transform="matrix(0.866025 0.5 0.5 -0.866025 121.758 44.5977)" fill="#9CA3AF"/>
<circle cx="3" cy="3" r="3" transform="matrix(0.866025 0.5 0.5 -0.866025 118.277 50.625)" fill="#D1D5DB"/>
<circle cx="3" cy="3" r="3" transform="matrix(0.866025 0.5 0.5 -0.866025 114.797 56.6523)" fill="#E5E7EB"/>
<circle cx="3" cy="3" r="3" transform="matrix(0.707107 0.707107 0.707107 -0.707107 151.723 39.6133)" fill="#9CA3AF"/>
<circle cx="3" cy="3" r="3" transform="matrix(0.707107 0.707107 0.707107 -0.707107 146.801 44.5312)" fill="#9CA3AF"/>
<circle cx="3" cy="3" r="3" transform="matrix(0.707107 0.707107 0.707107 -0.707107 141.879 49.4531)" fill="#57534E"/>
<circle cx="3" cy="3" r="3" transform="matrix(0.707107 0.707107 0.707107 -0.707107 136.961 54.375)" fill="#6B7280"/>
<circle cx="3" cy="3" r="3" transform="matrix(0.707107 0.707107 0.707107 -0.707107 132.039 59.2969)" fill="#9CA3AF"/>
<circle cx="3" cy="3" r="3" transform="matrix(0.707107 0.707107 0.707107 -0.707107 127.117 64.2188)" fill="#D1D5DB"/>
<circle cx="3" cy="3" r="3" transform="matrix(0.923879 0.382683 0.382683 -0.923879 119.512 28.8008)" fill="#9CA3AF"/>
<circle cx="3" cy="3" r="3" transform="matrix(0.923879 0.382683 0.382683 -0.923879 116.848 35.2305)" fill="#57534E"/>
<circle cx="3" cy="3" r="3" transform="matrix(0.923879 0.382683 0.382683 -0.923879 114.184 41.6602)" fill="#9CA3AF"/>
<circle cx="3" cy="3" r="3" transform="matrix(0.923879 0.382683 0.382683 -0.923879 111.52 48.0898)" fill="#D1D5DB"/>
<circle cx="3" cy="3" r="3" transform="matrix(0.923879 0.382683 0.382683 -0.923879 108.855 54.5234)" fill="#E5E7EB"/>
<circle cx="125.398" cy="58.8782" r="3" transform="rotate(37.5 125.398 58.8782)" fill="#D1D5DB"/>
<circle cx="129.632" cy="53.3548" r="3" transform="rotate(37.5 129.632 53.3548)" fill="#9CA3AF"/>
<circle cx="133.87" cy="47.8353" r="3" transform="rotate(37.5 133.87 47.8353)" fill="#6B7280"/>
<circle cx="138.108" cy="42.3118" r="3" transform="rotate(37.5 138.108 42.3118)" fill="#57534E"/>
<circle cx="142.343" cy="36.7884" r="3" transform="rotate(37.5 142.343 36.7884)" fill="#9CA3AF"/>
<circle cx="3" cy="3" r="3" transform="matrix(0.608761 0.793353 0.793353 -0.608761 159.16 48.8555)" fill="#9CA3AF"/>
<circle cx="3" cy="3" r="3" transform="matrix(0.608761 0.793353 0.793353 -0.608761 153.637 53.0898)" fill="#6B7280"/>
<circle cx="3" cy="3" r="3" transform="matrix(0.608761 0.793353 0.793353 -0.608761 148.117 57.3281)" fill="#57534E"/>
<circle cx="3" cy="3" r="3" transform="matrix(0.608761 0.793353 0.793353 -0.608761 142.594 61.5664)" fill="#57534E"/>
<circle cx="3" cy="3" r="3" transform="matrix(0.608761 0.793353 0.793353 -0.608761 137.07 65.8008)" fill="#9CA3AF"/>
<circle cx="3" cy="3" r="3" transform="matrix(0.608761 0.793353 0.793353 -0.608761 131.551 70.0391)" fill="#E5E7EB"/>
</svg>
