<svg width="183" height="183" viewBox="0 0 183 183" fill="none" xmlns="http://www.w3.org/2000/svg">
<rect x="4" y="4" width="175" height="175" rx="87.5" fill="white"/>
<rect x="4" y="4" width="175" height="175" rx="87.5" stroke="url(#paint0_linear_810_25212)" stroke-width="8"/>
<path d="M72.0424 73.5627C72.6292 69.1836 69.5549 65.1579 65.1758 64.5711C60.7966 63.9843 56.771 67.0586 56.1841 71.4377L72.0424 73.5627ZM63.3423 80.7502L55.3461 80.5059L63.3423 80.7502ZM65.5924 100L73.5625 100.692L65.5924 100ZM63.8423 114.25L71.8103 114.966L63.8423 114.25ZM56.313 134.494V142.494H72.313V134.494H56.313ZM64.1133 72.5002C56.1841 71.4377 56.1841 71.438 56.1841 71.4383C56.1841 71.4384 56.184 71.4387 56.184 71.439C56.1839 71.4395 56.1838 71.4401 56.1838 71.4407C56.1836 71.442 56.1834 71.4436 56.1831 71.4455C56.1826 71.4493 56.1819 71.4543 56.1811 71.4605C56.1795 71.4729 56.1772 71.4901 56.1743 71.5118C56.1686 71.5552 56.1605 71.6169 56.1504 71.6951C56.1302 71.8514 56.1017 72.0743 56.0675 72.3503C55.9992 72.9011 55.9072 73.6698 55.8118 74.5472C55.6273 76.2436 55.4055 78.5622 55.3461 80.5059L71.3386 80.9946C71.378 79.7039 71.5417 77.8975 71.718 76.2775C71.8029 75.4967 71.8851 74.8093 71.946 74.3186C71.9763 74.0739 72.0011 73.8797 72.018 73.7491C72.0265 73.6838 72.0329 73.6345 72.0371 73.6029C72.0392 73.5871 72.0407 73.5757 72.0416 73.5689C72.042 73.5656 72.0423 73.5633 72.0425 73.5623C72.0425 73.5618 72.0426 73.5615 72.0426 73.5616C72.0426 73.5617 72.0425 73.5618 72.0425 73.562C72.0425 73.5621 72.0425 73.5622 72.0425 73.5623C72.0424 73.5625 72.0424 73.5627 64.1133 72.5002ZM55.3461 80.5059C55.1945 85.4644 56.1773 89.3865 56.8233 92.213C57.4738 95.0586 57.8286 96.9334 57.6224 99.3084L73.5625 100.692C74.0003 95.6486 73.1144 91.681 72.421 88.6476C71.7233 85.595 71.2589 83.6013 71.3386 80.9946L55.3461 80.5059ZM57.6224 99.3084C57.3763 102.144 57.0934 104.107 56.7925 106.151C56.4855 108.236 56.1504 110.462 55.8744 113.535L71.8103 114.966C72.0413 112.393 72.3142 110.571 72.6218 108.482C72.9357 106.35 73.2744 104.011 73.5625 100.692L57.6224 99.3084ZM55.8744 113.535C55.4337 118.441 55.5747 123.378 55.7991 127.229C55.9122 129.17 56.0507 130.896 56.1548 132.213C56.2081 132.887 56.2497 133.421 56.2785 133.853C56.2926 134.065 56.3019 134.227 56.3075 134.349C56.3134 134.478 56.313 134.517 56.313 134.494H72.313C72.313 133.52 72.196 132.103 72.105 130.952C71.9992 129.614 71.874 128.048 71.772 126.298C71.5664 122.769 71.4722 118.73 71.8103 114.966L55.8744 113.535Z" fill="black"/>
<path d="M72.0424 73.5627C72.6292 69.1836 69.5549 65.1579 65.1758 64.5711C60.7966 63.9843 56.771 67.0586 56.1841 71.4377L72.0424 73.5627ZM63.3423 80.7502L55.3461 80.5059L63.3423 80.7502ZM65.5924 100L73.5625 100.692L65.5924 100ZM63.8423 114.25L71.8103 114.966L63.8423 114.25ZM56.313 134.494V142.494H72.313V134.494H56.313ZM64.1133 72.5002C56.1841 71.4377 56.1841 71.438 56.1841 71.4383C56.1841 71.4384 56.184 71.4387 56.184 71.439C56.1839 71.4395 56.1838 71.4401 56.1838 71.4407C56.1836 71.442 56.1834 71.4436 56.1831 71.4455C56.1826 71.4493 56.1819 71.4543 56.1811 71.4605C56.1795 71.4729 56.1772 71.4901 56.1743 71.5118C56.1686 71.5552 56.1605 71.6169 56.1504 71.6951C56.1302 71.8514 56.1017 72.0743 56.0675 72.3503C55.9992 72.9011 55.9072 73.6698 55.8118 74.5472C55.6273 76.2436 55.4055 78.5622 55.3461 80.5059L71.3386 80.9946C71.378 79.7039 71.5417 77.8975 71.718 76.2775C71.8029 75.4967 71.8851 74.8093 71.946 74.3186C71.9763 74.0739 72.0011 73.8797 72.018 73.7491C72.0265 73.6838 72.0329 73.6345 72.0371 73.6029C72.0392 73.5871 72.0407 73.5757 72.0416 73.5689C72.042 73.5656 72.0423 73.5633 72.0425 73.5623C72.0425 73.5618 72.0426 73.5615 72.0426 73.5616C72.0426 73.5617 72.0425 73.5618 72.0425 73.562C72.0425 73.5621 72.0425 73.5622 72.0425 73.5623C72.0424 73.5625 72.0424 73.5627 64.1133 72.5002ZM55.3461 80.5059C55.1945 85.4644 56.1773 89.3865 56.8233 92.213C57.4738 95.0586 57.8286 96.9334 57.6224 99.3084L73.5625 100.692C74.0003 95.6486 73.1144 91.681 72.421 88.6476C71.7233 85.595 71.2589 83.6013 71.3386 80.9946L55.3461 80.5059ZM57.6224 99.3084C57.3763 102.144 57.0934 104.107 56.7925 106.151C56.4855 108.236 56.1504 110.462 55.8744 113.535L71.8103 114.966C72.0413 112.393 72.3142 110.571 72.6218 108.482C72.9357 106.35 73.2744 104.011 73.5625 100.692L57.6224 99.3084ZM55.8744 113.535C55.4337 118.441 55.5747 123.378 55.7991 127.229C55.9122 129.17 56.0507 130.896 56.1548 132.213C56.2081 132.887 56.2497 133.421 56.2785 133.853C56.2926 134.065 56.3019 134.227 56.3075 134.349C56.3134 134.478 56.313 134.517 56.313 134.494H72.313C72.313 133.52 72.196 132.103 72.105 130.952C71.9992 129.614 71.874 128.048 71.772 126.298C71.5664 122.769 71.4722 118.73 71.8103 114.966L55.8744 113.535Z" fill="url(#paint1_linear_810_25212)"/>
<circle cx="63.3324" cy="50.7606" r="8.53248" fill="black"/>
<circle cx="63.3324" cy="50.7606" r="8.53248" fill="url(#paint2_linear_810_25212)"/>
<circle cx="63.3324" cy="50.7606" r="8.53248" stroke="black" stroke-width="1.59984"/>
<circle cx="63.3324" cy="50.7606" r="8.53248" stroke="url(#paint3_linear_810_25212)" stroke-width="1.59984"/>
<path d="M123.197 142.811L123.347 143.014H123.6H142.547H143.527L142.951 142.22L115.47 104.326L115.32 104.12H115.065H105.412H105.183L105.033 104.293L99.7848 110.366L99.5238 110.668L99.7605 110.99L123.197 142.811Z" fill="url(#paint4_linear_810_25212)"/>
<path d="M123.197 142.811L123.347 143.014H123.6H142.547H143.527L142.951 142.22L115.47 104.326L115.32 104.12H115.065H105.412H105.183L105.033 104.293L99.7848 110.366L99.5238 110.668L99.7605 110.99L123.197 142.811Z" stroke="black"/>
<path d="M123.197 142.811L123.347 143.014H123.6H142.547H143.527L142.951 142.22L115.47 104.326L115.32 104.12H115.065H105.412H105.183L105.033 104.293L99.7848 110.366L99.5238 110.668L99.7605 110.99L123.197 142.811Z" stroke="url(#paint5_linear_810_25212)"/>
<path d="M139.998 66.1131C144.019 64.282 145.794 59.5379 143.963 55.517C142.132 51.496 137.388 49.7208 133.367 51.5519L139.998 66.1131ZM113.428 78.3857L106.483 74.4135L113.428 78.3857ZM122.162 95.8218L129.815 98.1498L129.815 98.1498L122.162 95.8218ZM136.683 58.8325C133.367 51.5519 133.366 51.5527 133.364 51.5535C133.363 51.5538 133.361 51.5546 133.36 51.5552C133.357 51.5564 133.354 51.5578 133.351 51.5592C133.345 51.5621 133.338 51.5655 133.329 51.5693C133.313 51.577 133.292 51.5865 133.267 51.5979C133.218 51.6206 133.154 51.6508 133.074 51.6884C132.916 51.7635 132.698 51.868 132.428 52.0015C131.887 52.2682 131.133 52.6516 130.218 53.1466C128.394 54.1332 125.894 55.5817 123.148 57.4544C117.819 61.0882 110.838 66.8013 106.483 74.4135L120.372 82.3578C122.95 77.8502 127.596 73.7867 132.162 70.6738C134.362 69.1733 136.377 68.006 137.83 67.22C138.553 66.8288 139.129 66.5368 139.508 66.3497C139.697 66.2562 139.837 66.1893 139.921 66.1495C139.963 66.1297 139.991 66.1166 140.004 66.1105C140.011 66.1075 140.014 66.1062 140.013 66.1066C140.012 66.1068 140.011 66.1075 140.008 66.1085C140.007 66.1091 140.006 66.1097 140.004 66.1105C140.003 66.1109 140.002 66.1115 140.001 66.1117C140 66.1124 139.998 66.1131 136.683 58.8325ZM106.483 74.4135C104.067 78.6386 103.766 83.2385 105.921 87.399C107.604 90.6486 110.474 92.8438 111.894 93.9379C113.934 95.5104 114.54 95.9389 114.925 96.3949C114.991 96.4726 114.706 96.1661 114.519 95.4978C114.302 94.7257 114.358 93.9872 114.508 93.4938L129.815 98.1498C131.393 92.962 129.41 88.75 127.152 86.0751C125.338 83.9247 122.698 82.0648 121.662 81.2658C120.005 79.9884 119.968 79.7292 120.129 80.0403C120.762 81.2624 120.325 82.4399 120.372 82.3578L106.483 74.4135ZM114.508 93.4938C114.75 92.6978 114.959 93.1495 113.023 94.4088C111.356 95.4937 109.038 96.5644 106.44 97.5314C103.899 98.4771 101.381 99.2178 99.4719 99.7253C98.5259 99.9768 97.7494 100.166 97.2197 100.29C96.9553 100.352 96.7536 100.397 96.6245 100.426C96.56 100.44 96.5137 100.45 96.4868 100.456C96.4734 100.459 96.4648 100.46 96.4613 100.461C96.4595 100.462 96.459 100.462 96.4598 100.462C96.4602 100.461 96.4609 100.461 96.4619 100.461C96.4625 100.461 96.4635 100.461 96.4637 100.461C96.4648 100.461 96.466 100.46 98.1084 108.29C99.7508 116.119 99.7521 116.119 99.7536 116.119C99.7542 116.119 99.7557 116.118 99.7568 116.118C99.7592 116.118 99.7619 116.117 99.7649 116.116C99.7709 116.115 99.7782 116.114 99.7869 116.112C99.8042 116.108 99.8267 116.103 99.8543 116.097C99.9095 116.086 99.985 116.069 100.08 116.048C100.269 116.006 100.534 115.946 100.866 115.869C101.53 115.713 102.463 115.486 103.583 115.188C105.808 114.597 108.85 113.707 112.021 112.526C115.135 111.368 118.68 109.817 121.748 107.821C124.549 105.999 128.367 102.91 129.815 98.1498L114.508 93.4938Z" fill="url(#paint6_linear_810_25212)"/>
<path d="M83 142.514V143.014H83.5H99.8725H100.372V142.514V47.25V46.75H99.8725H83.5H83V47.25V142.514Z" fill="black"/>
<path d="M83 142.514V143.014H83.5H99.8725H100.372V142.514V47.25V46.75H99.8725H83.5H83V47.25V142.514Z" fill="url(#paint7_linear_810_25212)"/>
<path d="M83 142.514V143.014H83.5H99.8725H100.372V142.514V47.25V46.75H99.8725H83.5H83V47.25V142.514Z" stroke="url(#paint8_linear_810_25212)"/>
<defs>
<linearGradient id="paint0_linear_810_25212" x1="91.5" y1="8" x2="91.5" y2="175" gradientUnits="userSpaceOnUse">
<stop stop-color="#E3ECCC"/>
<stop offset="1" stop-color="#ACCDA9"/>
</linearGradient>
<linearGradient id="paint1_linear_810_25212" x1="64.5051" y1="72.5002" x2="64.5051" y2="134.494" gradientUnits="userSpaceOnUse">
<stop stop-color="#E3ECCC"/>
<stop offset="1" stop-color="#ACCDA9"/>
</linearGradient>
<linearGradient id="paint2_linear_810_25212" x1="63.3324" y1="41.4282" x2="63.3324" y2="60.093" gradientUnits="userSpaceOnUse">
<stop stop-color="#E3ECCC"/>
<stop offset="1" stop-color="#ACCDA9"/>
</linearGradient>
<linearGradient id="paint3_linear_810_25212" x1="63.3324" y1="41.4282" x2="63.3324" y2="60.093" gradientUnits="userSpaceOnUse">
<stop stop-color="#E3ECCC"/>
<stop offset="1" stop-color="#ACCDA9"/>
</linearGradient>
<linearGradient id="paint4_linear_810_25212" x1="121.355" y1="98.5459" x2="121.355" y2="142.514" gradientUnits="userSpaceOnUse">
<stop stop-color="#E3ECCC"/>
<stop offset="1" stop-color="#ACCDA9"/>
</linearGradient>
<linearGradient id="paint5_linear_810_25212" x1="121.355" y1="98.5459" x2="121.355" y2="142.514" gradientUnits="userSpaceOnUse">
<stop stop-color="#E3ECCC"/>
<stop offset="1" stop-color="#ACCDA9"/>
</linearGradient>
<linearGradient id="paint6_linear_810_25212" x1="117.396" y1="58.8325" x2="117.396" y2="108.29" gradientUnits="userSpaceOnUse">
<stop stop-color="#E3ECCC"/>
<stop offset="1" stop-color="#ACCDA9"/>
</linearGradient>
<linearGradient id="paint7_linear_810_25212" x1="91.6862" y1="47.25" x2="91.6862" y2="142.514" gradientUnits="userSpaceOnUse">
<stop stop-color="#E3ECCC"/>
<stop offset="1" stop-color="#ACCDA9"/>
</linearGradient>
<linearGradient id="paint8_linear_810_25212" x1="91.6862" y1="47.25" x2="91.6862" y2="142.514" gradientUnits="userSpaceOnUse">
<stop stop-color="#E3ECCC"/>
<stop offset="1" stop-color="#ACCDA9"/>
</linearGradient>
</defs>
</svg>
