<svg width="52" height="52" viewBox="0 0 52 52" fill="none" xmlns="http://www.w3.org/2000/svg">
<rect x="2" y="2" width="48" height="48" rx="24" fill="white"/>
<rect x="2" y="2" width="48" height="48" rx="24" stroke="black" stroke-width="3"/>
<path d="M20.4075 20.8443C20.5761 19.5857 19.6925 18.4286 18.4338 18.2599C17.1751 18.0912 16.0181 18.9749 15.8494 20.2336L20.4075 20.8443ZM15.8864 38.3575V40.6569H20.4852V38.3575H15.8864ZM17.9068 22.9102L20.2052 22.9804L17.9068 22.9102ZM18.5536 28.4431L16.2628 28.2443L18.5536 28.4431ZM18.0506 32.5389L15.7604 32.3332L18.0506 32.5389ZM18.1284 20.5389C15.8494 20.2336 15.8494 20.2336 15.8494 20.2337C15.8494 20.2337 15.8494 20.2338 15.8494 20.2339C15.8493 20.2341 15.8493 20.2342 15.8493 20.2344C15.8492 20.2348 15.8492 20.2352 15.8491 20.2358C15.849 20.2369 15.8488 20.2383 15.8485 20.2401C15.8481 20.2437 15.8474 20.2486 15.8466 20.2548C15.8449 20.2673 15.8426 20.285 15.8397 20.3075C15.8339 20.3524 15.8257 20.4165 15.8159 20.4958C15.7962 20.6542 15.7698 20.8751 15.7424 21.1273C15.6893 21.6149 15.6256 22.2813 15.6085 22.84L20.2052 22.9804C20.2165 22.6094 20.2636 22.0902 20.3142 21.6246C20.3386 21.4002 20.3623 21.2026 20.3797 21.0616C20.3885 20.9912 20.3956 20.9354 20.4005 20.8979C20.4029 20.8791 20.4047 20.865 20.4059 20.8559C20.4065 20.8513 20.407 20.8481 20.4072 20.8461C20.4074 20.8451 20.4074 20.8445 20.4075 20.8442C20.4075 20.844 20.4075 20.844 20.4075 20.844C20.4075 20.844 20.4075 20.844 20.4075 20.8441C20.4075 20.8441 20.4075 20.8442 20.4075 20.8442C20.4075 20.8443 20.4075 20.8443 18.1284 20.5389ZM15.6085 22.84C15.565 24.2652 15.8474 25.3925 16.0331 26.2049C16.2201 27.0228 16.3221 27.5616 16.2628 28.2443L20.8444 28.642C20.9702 27.1924 20.7156 26.052 20.5163 25.1801C20.3157 24.3027 20.1823 23.7297 20.2052 22.9804L15.6085 22.84ZM16.2628 28.2443C16.192 29.0593 16.1107 29.6236 16.0243 30.211C15.936 30.8104 15.8397 31.4501 15.7604 32.3332L20.3407 32.7446C20.4071 32.0053 20.4856 31.4815 20.574 30.8809C20.6642 30.2682 20.7616 29.5959 20.8444 28.642L16.2628 28.2443ZM15.7604 32.3332C15.6337 33.7435 15.6742 35.1624 15.7387 36.2694C15.7712 36.8271 15.811 37.3234 15.841 37.702C15.8563 37.8957 15.8682 38.0491 15.8765 38.1733C15.8806 38.2343 15.8832 38.2809 15.8848 38.3159C15.8865 38.353 15.8864 38.3641 15.8864 38.3575H20.4852C20.4852 38.0777 20.4516 37.6704 20.4255 37.3396C20.395 36.9548 20.3591 36.5049 20.3298 36.0019C20.2707 34.9874 20.2436 33.8265 20.3407 32.7446L15.7604 32.3332Z" fill="black"/>
<circle cx="17.904" cy="14.2904" r="2.68237" fill="black"/>
<path d="M35.2265 40.6627L28.4902 31.5167L31.5073 28.0252L40.6724 40.6627H35.2265Z" fill="black"/>
<path d="M23.7002 40.6627V13.2814H28.4061V40.6627H23.7002Z" fill="black"/>
<path d="M39.8205 18.729C40.8318 18.2685 41.2782 17.0754 40.8177 16.0641C40.3572 15.0528 39.1641 14.6064 38.1528 15.0669L39.8205 18.729ZM32.3025 22.518L34.049 23.517L32.3025 22.518ZM34.8129 27.5296L36.7378 28.1151L34.8129 27.5296ZM38.9867 16.8979C38.1528 15.0669 38.1524 15.0671 38.1519 15.0673C38.1518 15.0674 38.1513 15.0676 38.151 15.0677C38.1503 15.0681 38.1495 15.0684 38.1487 15.0688C38.147 15.0695 38.1451 15.0704 38.1428 15.0715C38.1383 15.0735 38.1327 15.0761 38.126 15.0792C38.1126 15.0855 38.0947 15.0939 38.0725 15.1043C38.0283 15.1253 37.9671 15.1547 37.8908 15.1923C37.7384 15.2675 37.5249 15.3761 37.2653 15.5165C36.7477 15.7964 36.038 16.2077 35.2583 16.7393C33.7403 17.7744 31.7757 19.3869 30.5561 21.519L34.049 23.517C34.822 22.1656 36.1994 20.968 37.5253 20.064C38.1676 19.626 38.7553 19.2854 39.1796 19.0559C39.391 18.9416 39.5596 18.856 39.6715 18.8008C39.7274 18.7732 39.769 18.7533 39.7944 18.7413C39.8071 18.7352 39.8158 18.7312 39.8203 18.7291C39.8225 18.7281 39.8236 18.7276 39.8237 18.7276C39.8237 18.7275 39.8234 18.7277 39.8229 18.7279C39.8227 18.728 39.8223 18.7282 39.8219 18.7284C39.8217 18.7284 39.8214 18.7286 39.8213 18.7287C39.8209 18.7288 39.8205 18.729 38.9867 16.8979ZM30.5561 21.519C29.904 22.659 29.831 23.8773 30.4003 24.9765C30.8509 25.8465 31.6249 26.4427 32.0371 26.7605C32.6054 27.1985 32.8164 27.3474 32.9527 27.5089C32.9776 27.5385 32.7897 27.2671 32.888 26.9441L36.7378 28.1151C37.1546 26.7449 36.6351 25.6331 36.0277 24.9135C35.5318 24.3259 34.8098 23.817 34.4938 23.5735C34.0218 23.2096 33.9602 23.1003 33.9734 23.1258C34.1053 23.3804 33.9929 23.615 34.049 23.517L30.5561 21.519ZM32.888 26.9441C32.9272 26.8151 32.915 26.9923 32.3431 27.3644C31.8386 27.6926 31.1504 28.009 30.3944 28.2904C29.6528 28.5664 28.9194 28.782 28.3652 28.9293C28.0901 29.0025 27.8641 29.0575 27.7095 29.0937C27.6323 29.1118 27.5732 29.1251 27.535 29.1335C27.5159 29.1377 27.502 29.1407 27.4938 29.1425C27.4897 29.1434 27.487 29.144 27.4857 29.1442C27.4851 29.1444 27.4848 29.1444 27.4849 29.1444C27.485 29.1444 27.4851 29.1444 27.4854 29.1443C27.4855 29.1443 27.4857 29.1442 27.4858 29.1442C27.4861 29.1442 27.4864 29.1441 27.8994 31.1132C28.3125 33.0824 28.3128 33.0823 28.3132 33.0822C28.3133 33.0822 28.3137 33.0821 28.314 33.082C28.3146 33.0819 28.3153 33.0817 28.3162 33.0816C28.3178 33.0812 28.3197 33.0808 28.3221 33.0803C28.3268 33.0793 28.3331 33.078 28.3407 33.0763C28.3561 33.073 28.3773 33.0684 28.4039 33.0625C28.4572 33.0507 28.5324 33.0338 28.6266 33.0117C28.8148 32.9677 29.0802 32.903 29.3992 32.8182C30.0329 32.6497 30.8979 32.3966 31.7981 32.0616C32.6838 31.7319 33.6806 31.2948 34.5374 30.7374C35.3267 30.2239 36.352 29.3835 36.7378 28.1151L32.888 26.9441Z" fill="black"/>
<path d="M35.916 40.6587H40.6585" stroke="#AAAAAA" stroke-width="0.287425"/>
</svg>
