<svg width="54" height="54" viewBox="0 0 54 54" fill="none" xmlns="http://www.w3.org/2000/svg">
<rect x="1.5" y="1.5" width="51" height="51" rx="25.5" fill="white"/>
<rect x="1.5" y="1.5" width="51" height="51" rx="25.5" stroke="black" stroke-width="3"/>
<path d="M20.0094 21.3159C19.9156 20.0496 18.813 19.099 17.5467 19.1928C16.2803 19.2866 15.3298 20.3892 15.4236 21.6555L20.0094 21.3159ZM16.2744 40V42.2992H20.8728V40H16.2744ZM18.5736 25.842L20.8435 25.4762L18.5736 25.842ZM17.5021 34.1916L15.2063 34.317L17.5021 34.1916ZM15.4236 21.6555C15.5082 22.7981 15.6824 23.5836 15.8642 24.2919C16.0405 24.9789 16.1818 25.4512 16.3037 26.2078L20.8435 25.4762C20.6789 24.4548 20.463 23.7132 20.3181 23.1487C20.1787 22.6055 20.0676 22.1019 20.0094 21.3159L15.4236 21.6555ZM16.3037 26.2078C16.4809 27.3074 16.293 28.1636 15.9524 29.3812C15.6157 30.5846 15.0923 32.2304 15.2063 34.317L19.7978 34.0662C19.7323 32.8666 20.006 31.9592 20.3807 30.6201C20.7513 29.2953 21.1889 27.6198 20.8435 25.4762L16.3037 26.2078ZM15.2063 34.317C15.2849 35.755 15.6237 36.9244 15.8698 37.8109C16.1258 38.7333 16.2744 39.33 16.2744 40H20.8728C20.8728 38.628 20.5487 37.475 20.3006 36.5809C20.0424 35.651 19.8454 34.937 19.7978 34.0662L15.2063 34.317Z" fill="black"/>
<circle cx="17.6834" cy="15.7" r="2.7" fill="black"/>
<path d="M24.0811 42.3598V15.3602H28.7213V42.3598H24.0811ZM36.5798 42.3598L29.9375 33.3412L32.9125 29.8984L41.9498 42.3598H36.5798ZM28.0477 36.1852V30.7591H28.8336L36.243 22.5264H41.613L32.3699 32.5741H31.5092L28.0477 36.1852Z" fill="black"/>
</svg>
