<svg width="32" height="32" viewBox="0 0 32 32" fill="none" xmlns="http://www.w3.org/2000/svg">
<g clip-path="url(#clip0_567_13582)">
<path d="M17 26.7914C21.4183 26.7914 25 23.2097 25 18.7914C25 14.3732 21.4183 10.7914 17 10.7914C12.5817 10.7914 9 14.3732 9 18.7914C9 23.2097 12.5817 26.7914 17 26.7914Z" fill="white" stroke="#333333" stroke-width="1.5"/>
<path d="M29.9285 9.69612C30.2265 9.60927 30.3813 9.33208 30.2976 9.02056C29.8706 7.33496 28.7463 5.60222 27.2011 4.33249C25.651 3.05879 23.7274 2.279 22.0015 2.2037C21.6797 2.18193 21.433 2.38368 21.4055 2.69276C21.3781 3.00184 21.5966 3.23801 21.9496 3.26119C23.518 3.36076 25.156 4.03529 26.5226 5.15821C27.8891 6.28112 28.8557 7.76294 29.2703 9.27656C29.3605 9.60961 29.6355 9.78698 29.9285 9.69612Z" fill="#333333" fill-opacity="0.85" stroke="#333333" stroke-width="0.2"/>
<path d="M26.4687 10.5899C26.7411 10.5143 26.9039 10.2275 26.8202 9.91602C26.5813 8.92699 25.9146 7.87763 24.944 7.08008C23.9686 6.27856 22.8147 5.832 21.7933 5.78542C21.4714 5.76365 21.2265 5.98298 21.2052 6.26484C21.1803 6.60028 21.4093 6.85318 21.7703 6.86671C22.6366 6.9151 23.4977 7.2749 24.2655 7.9058C25.0285 8.53272 25.5396 9.30867 25.7687 10.1522C25.8559 10.4988 26.1396 10.6753 26.4687 10.5899Z" fill="#333333" fill-opacity="0.85" stroke="#333333" stroke-width="0.2"/>
<path d="M1.04975 17.8849C0.806343 17.9337 0.593836 17.7946 0.537793 17.5427C0.215973 16.1893 0.371148 14.5442 0.996318 13.0714C1.62344 11.594 2.69838 10.3284 3.89417 9.63553C4.11431 9.50084 4.36396 9.55249 4.49796 9.76145C4.63195 9.97042 4.56454 10.2188 4.32279 10.3661C3.24764 11.0178 2.33621 12.1029 1.78333 13.4054C1.23044 14.708 1.09419 16.1167 1.36104 17.3435C1.42042 17.6131 1.29119 17.8408 1.04975 17.8849Z" fill="#333333" fill-opacity="0.85" stroke="#333333" stroke-width="0.5"/>
<path d="M3.83441 17.2365C3.61331 17.2839 3.39158 17.1409 3.33554 16.889C3.13848 16.0992 3.22236 15.1082 3.61504 14.1831C4.00968 13.2534 4.66234 12.5092 5.3693 12.0977C5.58945 11.963 5.84438 12.0278 5.9639 12.2198C6.10582 12.4484 6.03714 12.7126 5.7862 12.8559C5.18994 13.2112 4.71268 13.7853 4.40205 14.5171C4.09337 15.2443 4.0185 15.9839 4.16856 16.6668C4.23519 16.9449 4.09941 17.1752 3.83441 17.2365Z" fill="#333333" fill-opacity="0.85" stroke="#333333" stroke-width="0.5"/>
</g>
<defs>
<clipPath id="clip0_567_13582">
<rect width="32" height="32" fill="white"/>
</clipPath>
</defs>
</svg>
