<svg width="159" height="164" viewBox="0 0 159 164" fill="none" xmlns="http://www.w3.org/2000/svg">
<g opacity="0.1">
<mask id="path-1-inside-1_533_23005" fill="white">
<path d="M35.5409 121.796C40.4027 129.544 47.0291 136.03 54.8783 140.726C62.7275 145.422 71.5765 148.193 80.702 148.814L84.634 90.9883L35.5409 121.796Z"/>
</mask>
<path d="M35.5409 121.796C40.4027 129.544 47.0291 136.03 54.8783 140.726C62.7275 145.422 71.5765 148.193 80.702 148.814L84.634 90.9883L35.5409 121.796Z" stroke="white" stroke-width="2.772" mask="url(#path-1-inside-1_533_23005)"/>
</g>
<mask id="path-2-inside-2_533_23005" fill="white">
<path d="M88.3982 33.6714C88.4198 33.352 88.1783 33.0753 87.8587 33.0569C77.3566 32.4519 66.8838 34.7165 57.5652 39.6132C48.0755 44.5997 40.1547 52.1205 34.6834 61.3393C29.2122 70.558 26.4049 81.1136 26.5736 91.8323C26.7393 102.358 29.7683 112.636 35.3302 121.565C35.4994 121.836 35.858 121.916 36.128 121.744V121.744C36.398 121.572 36.4772 121.214 36.308 120.942C30.8612 112.194 27.8949 102.125 27.7326 91.8141C27.5673 81.3097 30.3185 70.9653 35.6803 61.9309C41.0421 52.8965 48.8045 45.5261 58.1044 40.6393C67.2332 35.8424 77.4923 33.6229 87.7805 34.2135C88.1001 34.2318 88.3766 33.9907 88.3982 33.6714V33.6714Z"/>
</mask>
<path d="M88.3982 33.6714C88.4198 33.352 88.1783 33.0753 87.8587 33.0569C77.3566 32.4519 66.8838 34.7165 57.5652 39.6132C48.0755 44.5997 40.1547 52.1205 34.6834 61.3393C29.2122 70.558 26.4049 81.1136 26.5736 91.8323C26.7393 102.358 29.7683 112.636 35.3302 121.565C35.4994 121.836 35.858 121.916 36.128 121.744V121.744C36.398 121.572 36.4772 121.214 36.308 120.942C30.8612 112.194 27.8949 102.125 27.7326 91.8141C27.5673 81.3097 30.3185 70.9653 35.6803 61.9309C41.0421 52.8965 48.8045 45.5261 58.1044 40.6393C67.2332 35.8424 77.4923 33.6229 87.7805 34.2135C88.1001 34.2318 88.3766 33.9907 88.3982 33.6714V33.6714Z" stroke="#D1D5DB" stroke-width="3.15" stroke-linejoin="round" mask="url(#path-2-inside-2_533_23005)"/>
<mask id="path-3-inside-3_533_23005" fill="white">
<path d="M80.6565 148.172C80.6349 148.492 80.8764 148.768 81.196 148.787C91.6981 149.392 102.171 147.127 111.489 142.231C120.979 137.244 128.9 129.723 134.371 120.504C139.842 111.286 142.65 100.73 142.481 90.0114C142.315 79.4859 139.286 69.2081 133.724 60.2792C133.555 60.0075 133.197 59.9281 132.927 60.1V60.1C132.657 60.272 132.578 60.6302 132.747 60.9019C138.194 69.6499 141.16 79.7185 141.322 90.0296C141.487 100.534 138.736 110.878 133.374 119.913C128.013 128.947 120.25 136.318 110.95 141.204C101.821 146.001 91.5624 148.221 81.2742 147.63C80.9546 147.612 80.6781 147.853 80.6565 148.172V148.172Z"/>
</mask>
<path d="M80.6565 148.172C80.6349 148.492 80.8764 148.768 81.196 148.787C91.6981 149.392 102.171 147.127 111.489 142.231C120.979 137.244 128.9 129.723 134.371 120.504C139.842 111.286 142.65 100.73 142.481 90.0114C142.315 79.4859 139.286 69.2081 133.724 60.2792C133.555 60.0075 133.197 59.9281 132.927 60.1V60.1C132.657 60.272 132.578 60.6302 132.747 60.9019C138.194 69.6499 141.16 79.7185 141.322 90.0296C141.487 100.534 138.736 110.878 133.374 119.913C128.013 128.947 120.25 136.318 110.95 141.204C101.821 146.001 91.5624 148.221 81.2742 147.63C80.9546 147.612 80.6781 147.853 80.6565 148.172V148.172Z" stroke="#D1D5DB" stroke-width="3.15" stroke-linejoin="round" mask="url(#path-3-inside-3_533_23005)"/>
<path d="M92.2734 39.7461L78.8423 141.766" stroke="#9CA3AF" stroke-width="0.84" stroke-linecap="round"/>
<path d="M71.7425 140.952L98.375 41.5586" stroke="#9CA3AF" stroke-width="0.84" stroke-linecap="round"/>
<path d="M65.3133 138.759L104.691 43.6914" stroke="#9CA3AF" stroke-width="0.84" stroke-linecap="round"/>
<path d="M58.6828 135.552L110.133 46.4375" stroke="#9CA3AF" stroke-width="0.84" stroke-linecap="round"/>
<path d="M53.0772 131.492L115.719 49.8555" stroke="#9CA3AF" stroke-width="0.84" stroke-linecap="round"/>
<path d="M47.7817 126.976L120.543 54.2148" stroke="#9CA3AF" stroke-width="0.84" stroke-linecap="round"/>
<path d="M125.082 59.3867L43.446 122.028" stroke="#9CA3AF" stroke-width="0.84" stroke-linecap="round"/>
<path d="M77.9 147.246L77.332 151.56" stroke="#6B7280" stroke-width="4.2" stroke-linecap="round"/>
<path opacity="0.2" d="M70.2085 145.403L69.4985 147.952" stroke="#D1D5DB" stroke-width="4.2" stroke-linecap="round"/>
<path opacity="0.2" d="M63.0852 143.316L61.9492 145.588" stroke="#D1D5DB" stroke-width="4.2" stroke-linecap="round"/>
<path opacity="0.2" d="M55.8001 139.379L54.6641 141.083" stroke="#D1D5DB" stroke-width="4.2" stroke-linecap="round"/>
<path opacity="0.2" d="M50.2665 135.453L48.5625 137.157" stroke="#D1D5DB" stroke-width="4.2" stroke-linecap="round"/>
<path opacity="0.2" d="M44.1103 130.492L42.4062 132.196" stroke="#D1D5DB" stroke-width="4.2" stroke-linecap="round"/>
<path opacity="0.2" d="M40.2759 124.246L38.0039 126.139" stroke="#D1D5DB" stroke-width="4.2" stroke-linecap="round"/>
<circle cx="93.0716" cy="32.6359" r="3.15" transform="rotate(8 93.0716 32.6359)" fill="#D1D5DB"/>
<circle cx="94.388" cy="23.2804" r="3.15" transform="rotate(8 94.388 23.2804)" fill="#4B5563"/>
<circle cx="95.7005" cy="13.921" r="3.15" transform="rotate(8 95.7005 13.921)" fill="#9CA3AF"/>
<circle opacity="0.2" cx="100.411" cy="33.5728" r="3.15" transform="rotate(15 100.411 33.5728)" fill="#E5E7EB"/>
<circle opacity="0.2" cx="102.856" cy="24.4439" r="3.15" transform="rotate(15 102.856 24.4439)" fill="#D1D5DB"/>
<circle opacity="0.2" cx="105.306" cy="15.315" r="3.15" transform="rotate(15 105.306 15.315)" fill="#57534E"/>
<circle opacity="0.2" cx="107.751" cy="6.18998" r="3.15" transform="rotate(15 107.751 6.18998)" fill="#9CA3AF"/>
<circle opacity="0.2" cx="3.15" cy="3.15" r="3.15" transform="matrix(0.866025 0.5 0.5 -0.866025 128.945 7.33984)" fill="#6B7280"/>
<circle opacity="0.2" cx="3.15" cy="3.15" r="3.15" transform="matrix(0.866025 0.5 0.5 -0.866025 124.223 15.5234)" fill="#57534E"/>
<circle opacity="0.2" cx="3.15" cy="3.15" r="3.15" transform="matrix(0.866025 0.5 0.5 -0.866025 119.496 23.707)" fill="#9CA3AF"/>
<circle opacity="0.2" cx="3.15" cy="3.15" r="3.15" transform="matrix(0.866025 0.5 0.5 -0.866025 114.773 31.8906)" fill="#D1D5DB"/>
<circle opacity="0.2" cx="3.15" cy="3.15" r="3.15" transform="matrix(0.866025 0.5 0.5 -0.866025 110.047 40.0781)" fill="#E5E7EB"/>
<circle opacity="0.2" cx="3.15" cy="3.15" r="3.15" transform="matrix(0.707107 0.707107 0.707107 -0.707107 141.395 28.875)" fill="#9CA3AF"/>
<circle opacity="0.2" cx="3.15" cy="3.15" r="3.15" transform="matrix(0.707107 0.707107 0.707107 -0.707107 134.711 35.5586)" fill="#57534E"/>
<circle opacity="0.2" cx="3.15" cy="3.15" r="3.15" transform="matrix(0.707107 0.707107 0.707107 -0.707107 128.027 42.2422)" fill="#9CA3AF"/>
<circle opacity="0.2" cx="3.15" cy="3.15" r="3.15" transform="matrix(0.707107 0.707107 0.707107 -0.707107 121.348 48.9219)" fill="#D1D5DB"/>
<circle opacity="0.2" cx="3.15" cy="3.15" r="3.15" transform="matrix(0.923879 0.382683 0.382683 -0.923879 110.117 21.2109)" fill="#9CA3AF"/>
<circle opacity="0.2" cx="3.15" cy="3.15" r="3.15" transform="matrix(0.923879 0.382683 0.382683 -0.923879 106.5 29.9414)" fill="#9CA3AF"/>
<circle opacity="0.2" cx="3.15" cy="3.15" r="3.15" transform="matrix(0.923879 0.382683 0.382683 -0.923879 102.883 38.6719)" fill="#E5E7EB"/>
<circle opacity="0.2" cx="120.41" cy="43.6628" r="3.15" transform="rotate(37.5 120.41 43.6628)" fill="#D1D5DB"/>
<circle opacity="0.2" cx="126.163" cy="36.1667" r="3.15" transform="rotate(37.5 126.163 36.1667)" fill="#6B7280"/>
<circle opacity="0.2" cx="131.917" cy="28.6706" r="3.15" transform="rotate(37.5 131.917 28.6706)" fill="#9CA3AF"/>
<circle opacity="0.2" cx="3.15" cy="3.15" r="3.15" transform="matrix(0.608761 0.793353 0.793353 -0.608761 150.57 36.6133)" fill="#9CA3AF"/>
<circle opacity="0.2" cx="3.15" cy="3.15" r="3.15" transform="matrix(0.608761 0.793353 0.793353 -0.608761 143.074 42.3672)" fill="#57534E"/>
<circle opacity="0.2" cx="3.15" cy="3.15" r="3.15" transform="matrix(0.608761 0.793353 0.793353 -0.608761 135.578 48.1211)" fill="#9CA3AF"/>
<circle opacity="0.2" cx="3.15" cy="3.15" r="3.15" transform="matrix(0.608761 0.793353 0.793353 -0.608761 128.082 53.875)" fill="#E5E7EB"/>
<path d="M11.1843 90.5592C11.0493 91.3713 10.8136 92.1318 10.4772 92.8408C10.1311 93.5483 9.74629 94.1002 9.32274 94.4967L7.68618 93.4051C8.06785 93.0215 8.40921 92.5517 8.71025 91.9958C9.00322 91.4285 9.20033 90.8404 9.30157 90.2313C9.3787 89.7673 9.39707 89.3879 9.35666 89.0931C9.3082 88.787 9.21304 88.5526 9.0712 88.3899C8.92935 88.2273 8.75208 88.1283 8.5394 88.0929C8.26872 88.0479 8.03836 88.1189 7.84833 88.3059C7.64863 88.4912 7.47152 88.7499 7.31699 89.0819C7.1528 89.4122 6.99185 89.7828 6.83414 90.1937C6.66837 90.5934 6.48246 90.9946 6.27641 91.3975C6.07196 91.7907 5.83448 92.1436 5.56394 92.4563C5.29341 92.7689 4.96565 93.0075 4.58067 93.172C4.19729 93.3269 3.73492 93.3593 3.19355 93.2693C2.6135 93.1729 2.11235 92.9306 1.69007 92.5425C1.25973 92.1432 0.95661 91.606 0.780709 90.931C0.596748 90.2447 0.584312 89.4231 0.7434 88.466C0.849459 87.828 1.03125 87.2124 1.28877 86.6194C1.53663 86.0248 1.84977 85.5156 2.2282 85.0917L3.8913 86.1132C3.54188 86.542 3.26496 86.9827 3.06054 87.4355C2.84646 87.8867 2.70165 88.3395 2.62612 88.7939C2.5506 89.2482 2.5419 89.6293 2.60003 89.937C2.65816 90.2447 2.76379 90.4758 2.91691 90.6304C3.06037 90.7834 3.24327 90.8784 3.46562 90.9153C3.72664 90.9587 3.95699 90.8877 4.15669 90.7024C4.34672 90.5154 4.519 90.2559 4.67352 89.924C4.82805 89.592 4.9882 89.2262 5.15397 88.8266C5.32135 88.4173 5.50243 88.0153 5.6972 87.6205C5.89358 87.216 6.12704 86.8574 6.39757 86.5448C6.6681 86.2321 6.99506 85.9983 7.37844 85.8435C7.76342 85.679 8.22176 85.6409 8.75347 85.7293C9.32384 85.8241 9.81937 86.0704 10.24 86.4682C10.6607 86.8659 10.963 87.408 11.147 88.0942C11.3326 88.7708 11.345 89.5925 11.1843 90.5592Z" fill="#4B5563"/>
<path d="M13.6217 78.9971L4.02945 75.2726L4.25824 74.6834L13.675 73.2147L13.5526 73.5299L7.58902 66.1051L7.8125 65.5296L17.4101 69.2404L17.1441 69.9256L8.60161 66.6244L8.6761 66.4326L14.3054 73.4595L14.1724 73.8021L5.27083 75.2027L5.35064 74.9971L13.8878 78.312L13.6217 78.9971Z" fill="black"/>
<path d="M22.7243 59.8758L14.6618 54.6394L12.6441 57.746L12.077 57.3777L16.5208 50.5356L17.0879 50.904L15.0701 54.0106L23.1327 59.2471L22.7243 59.8758Z" fill="black"/>
<path d="M31.7499 48.0002L22.0482 43.101L22.6151 42.5454L31.8718 47.2426L31.5884 47.5204L27.15 38.0999L27.6644 37.5957L36.9736 42.2415L36.7007 42.509L32.2099 33.14L32.7347 32.6255L37.4501 42.4126L36.8832 42.9682L27.8739 38.4814L28.0104 38.3476L32.3168 47.4445L31.7499 48.0002Z" fill="black"/>
<path d="M48.0628 34.5175L42.9881 26.3522L39.8418 28.3076L39.4849 27.7333L46.4141 23.4267L46.7711 24.0011L43.6248 25.9564L48.6995 34.1218L48.0628 34.5175Z" fill="black"/>
<path d="M57.9472 23.4048L63.1255 21.3494L63.375 21.9779L58.1967 24.0333L57.9472 23.4048ZM59.9544 28.2227L59.2576 28.4992L55.4614 18.9351L61.8557 16.3971L62.1052 17.0256L56.4077 19.287L59.9544 28.2227Z" fill="black"/>
<path d="M75.8325 23.3825C75.0833 23.5341 74.3472 23.553 73.6243 23.4393C72.9091 23.314 72.3281 23.0866 71.8815 22.757L72.1021 22.1425C72.5198 22.4279 73.0517 22.6353 73.6978 22.7645C74.3515 22.8822 75.0145 22.8731 75.6869 22.737C76.3593 22.601 76.8893 22.4038 77.277 22.1454C77.6723 21.8754 77.9407 21.5711 78.0821 21.2326C78.2332 20.8921 78.2718 20.5393 78.198 20.1743C78.1105 19.742 77.9253 19.4196 77.6423 19.2069C77.3593 18.9942 77.0149 18.8489 76.6092 18.771C76.2035 18.6931 75.7691 18.646 75.3059 18.6297C74.8426 18.6135 74.3736 18.5934 73.8989 18.5694C73.4221 18.5359 72.977 18.461 72.5636 18.3447C72.1501 18.2284 71.795 18.0302 71.4984 17.7503C71.2095 17.4588 71.0116 17.0489 70.9047 16.5206C70.8075 16.0403 70.843 15.5732 71.0111 15.1193C71.1792 14.6653 71.5022 14.26 71.98 13.9034C72.4577 13.5468 73.1096 13.2849 73.9357 13.1178C74.4928 13.0051 75.0568 12.9759 75.6278 13.0304C76.2083 13.0829 76.7189 13.2096 77.1595 13.4104L77.0052 14.0565C76.5243 13.8539 76.0253 13.7349 75.5082 13.6995C74.9988 13.6526 74.5183 13.6748 74.0669 13.7661C73.4233 13.8963 72.9087 14.0954 72.523 14.3635C72.1373 14.6315 71.8746 14.9396 71.7351 15.2877C71.5936 15.6263 71.5608 15.9829 71.6366 16.3575C71.7241 16.7898 71.9045 17.1132 72.1779 17.3279C72.4609 17.5406 72.8052 17.6859 73.2109 17.7638C73.6166 17.8417 74.0559 17.8878 74.5287 17.9021C75.0016 17.9164 75.4715 17.9413 75.9386 17.9768C76.4038 18.0026 76.8431 18.0737 77.2566 18.1901C77.6701 18.3064 78.0251 18.5045 78.3217 18.7844C78.6183 19.0644 78.8191 19.4637 78.924 19.9824C79.0193 20.4531 78.979 20.9211 78.8032 21.3866C78.6255 21.8425 78.2929 22.2498 77.8056 22.6083C77.3258 22.9554 76.6682 23.2134 75.8325 23.3825Z" fill="black"/>
</svg>
