<svg width="165" height="165" viewBox="0 0 165 165" fill="none" xmlns="http://www.w3.org/2000/svg">
<path d="M103.766 26.5V15.3H105.078L110.102 23.764H109.398L114.358 15.3H115.67L115.686 26.5H114.15L114.134 17.716H114.502L110.086 25.14H109.35L104.902 17.716H105.302V26.5H103.766ZM122.455 26.596C121.602 26.596 120.845 26.4093 120.183 26.036C119.522 25.6627 118.999 25.1507 118.615 24.5C118.231 23.8387 118.039 23.092 118.039 22.26C118.039 21.4173 118.231 20.6707 118.615 20.02C118.999 19.3693 119.522 18.8627 120.183 18.5C120.845 18.1267 121.602 17.94 122.455 17.94C123.298 17.94 124.05 18.1267 124.711 18.5C125.383 18.8627 125.906 19.3693 126.279 20.02C126.663 20.66 126.855 21.4067 126.855 22.26C126.855 23.1027 126.663 23.8493 126.279 24.5C125.906 25.1507 125.383 25.6627 124.711 26.036C124.05 26.4093 123.298 26.596 122.455 26.596ZM122.455 25.252C122.999 25.252 123.485 25.1293 123.911 24.884C124.349 24.6387 124.69 24.292 124.935 23.844C125.181 23.3853 125.303 22.8573 125.303 22.26C125.303 21.652 125.181 21.1293 124.935 20.692C124.69 20.244 124.349 19.8973 123.911 19.652C123.485 19.4067 122.999 19.284 122.455 19.284C121.911 19.284 121.426 19.4067 120.999 19.652C120.573 19.8973 120.231 20.244 119.975 20.692C119.719 21.1293 119.591 21.652 119.591 22.26C119.591 22.8573 119.719 23.3853 119.975 23.844C120.231 24.292 120.573 24.6387 120.999 24.884C121.426 25.1293 121.911 25.252 122.455 25.252ZM128.979 26.5V18.02H130.451V20.324L130.307 19.748C130.542 19.1613 130.937 18.7133 131.491 18.404C132.046 18.0947 132.729 17.94 133.539 17.94V19.428C133.475 19.4173 133.411 19.412 133.347 19.412C133.294 19.412 133.241 19.412 133.187 19.412C132.366 19.412 131.715 19.6573 131.235 20.148C130.755 20.6387 130.515 21.348 130.515 22.276V26.5H128.979ZM139.13 26.596C138.224 26.596 137.424 26.4093 136.73 26.036C136.048 25.6627 135.514 25.1507 135.13 24.5C134.757 23.8493 134.57 23.1027 134.57 22.26C134.57 21.4173 134.752 20.6707 135.114 20.02C135.488 19.3693 135.994 18.8627 136.634 18.5C137.285 18.1267 138.016 17.94 138.826 17.94C139.648 17.94 140.373 18.1213 141.002 18.484C141.632 18.8467 142.122 19.3587 142.474 20.02C142.837 20.6707 143.018 21.4333 143.018 22.308C143.018 22.372 143.013 22.4467 143.002 22.532C143.002 22.6173 142.997 22.6973 142.986 22.772H135.77V21.668H142.186L141.562 22.052C141.573 21.508 141.461 21.0227 141.226 20.596C140.992 20.1693 140.666 19.8387 140.25 19.604C139.845 19.3587 139.37 19.236 138.826 19.236C138.293 19.236 137.818 19.3587 137.402 19.604C136.986 19.8387 136.661 20.1747 136.426 20.612C136.192 21.0387 136.074 21.5293 136.074 22.084V22.34C136.074 22.9053 136.202 23.412 136.458 23.86C136.725 24.2973 137.093 24.6387 137.562 24.884C138.032 25.1293 138.57 25.252 139.178 25.252C139.68 25.252 140.133 25.1667 140.538 24.996C140.954 24.8253 141.317 24.5693 141.626 24.228L142.474 25.22C142.09 25.668 141.61 26.0093 141.034 26.244C140.469 26.4787 139.834 26.596 139.13 26.596Z" fill="#1F2937"/>
<path d="M12.4691 98.2109V87.0109H14.0691V96.8189H20.1331V98.2109H12.4691ZM25.4117 98.3069C24.505 98.3069 23.705 98.1203 23.0117 97.7469C22.329 97.3736 21.7957 96.8616 21.4117 96.2109C21.0384 95.5603 20.8517 94.8136 20.8517 93.9709C20.8517 93.1283 21.033 92.3816 21.3957 91.7309C21.769 91.0803 22.2757 90.5736 22.9157 90.2109C23.5664 89.8376 24.297 89.6509 25.1077 89.6509C25.929 89.6509 26.6544 89.8323 27.2837 90.1949C27.913 90.5576 28.4037 91.0696 28.7557 91.7309C29.1184 92.3816 29.2997 93.1443 29.2997 94.0189C29.2997 94.0829 29.2944 94.1576 29.2837 94.2429C29.2837 94.3283 29.2784 94.4083 29.2677 94.4829H22.0517V93.3789H28.4677L27.8437 93.7629C27.8544 93.2189 27.7424 92.7336 27.5077 92.3069C27.273 91.8803 26.9477 91.5496 26.5317 91.3149C26.1264 91.0696 25.6517 90.9469 25.1077 90.9469C24.5744 90.9469 24.0997 91.0696 23.6837 91.3149C23.2677 91.5496 22.9424 91.8856 22.7077 92.3229C22.473 92.7496 22.3557 93.2403 22.3557 93.7949V94.0509C22.3557 94.6163 22.4837 95.1229 22.7397 95.5709C23.0064 96.0083 23.3744 96.3496 23.8437 96.5949C24.313 96.8403 24.8517 96.9629 25.4597 96.9629C25.961 96.9629 26.4144 96.8776 26.8197 96.7069C27.2357 96.5363 27.5984 96.2803 27.9077 95.9389L28.7557 96.9309C28.3717 97.3789 27.8917 97.7203 27.3157 97.9549C26.7504 98.1896 26.1157 98.3069 25.4117 98.3069ZM33.8646 98.3069C33.1606 98.3069 32.4886 98.2109 31.8486 98.0189C31.2192 97.8269 30.7232 97.5923 30.3606 97.3149L31.0006 96.0989C31.3632 96.3443 31.8112 96.5523 32.3446 96.7229C32.8779 96.8936 33.4219 96.9789 33.9766 96.9789C34.6912 96.9789 35.2032 96.8776 35.5126 96.6749C35.8326 96.4723 35.9926 96.1896 35.9926 95.8269C35.9926 95.5603 35.8966 95.3523 35.7046 95.2029C35.5126 95.0536 35.2566 94.9416 34.9366 94.8669C34.6272 94.7923 34.2806 94.7283 33.8966 94.6749C33.5126 94.6109 33.1286 94.5363 32.7446 94.4509C32.3606 94.3549 32.0086 94.2269 31.6886 94.0669C31.3686 93.8963 31.1126 93.6669 30.9206 93.3789C30.7286 93.0803 30.6326 92.6856 30.6326 92.1949C30.6326 91.6829 30.7766 91.2349 31.0646 90.8509C31.3526 90.4669 31.7579 90.1736 32.2806 89.9709C32.8139 89.7576 33.4432 89.6509 34.1686 89.6509C34.7232 89.6509 35.2832 89.7203 35.8486 89.8589C36.4246 89.9869 36.8939 90.1736 37.2566 90.4189L36.6006 91.6349C36.2166 91.3789 35.8166 91.2029 35.4006 91.1069C34.9846 91.0109 34.5686 90.9629 34.1526 90.9629C33.4806 90.9629 32.9792 91.0749 32.6486 91.2989C32.3179 91.5123 32.1526 91.7896 32.1526 92.1309C32.1526 92.4189 32.2486 92.6429 32.4406 92.8029C32.6432 92.9523 32.8992 93.0696 33.2086 93.1549C33.5286 93.2403 33.8806 93.3149 34.2646 93.3789C34.6486 93.4323 35.0326 93.5069 35.4166 93.6029C35.8006 93.6883 36.1472 93.8109 36.4566 93.9709C36.7766 94.1309 37.0326 94.3549 37.2246 94.6429C37.4272 94.9309 37.5286 95.3149 37.5286 95.7949C37.5286 96.3069 37.3792 96.7496 37.0806 97.1229C36.7819 97.4963 36.3606 97.7896 35.8166 98.0029C35.2726 98.2056 34.6219 98.3069 33.8646 98.3069ZM41.8802 98.3069C41.1762 98.3069 40.5042 98.2109 39.8642 98.0189C39.2349 97.8269 38.7389 97.5923 38.3762 97.3149L39.0162 96.0989C39.3789 96.3443 39.8269 96.5523 40.3602 96.7229C40.8935 96.8936 41.4375 96.9789 41.9922 96.9789C42.7069 96.9789 43.2189 96.8776 43.5282 96.6749C43.8482 96.4723 44.0082 96.1896 44.0082 95.8269C44.0082 95.5603 43.9122 95.3523 43.7202 95.2029C43.5282 95.0536 43.2722 94.9416 42.9522 94.8669C42.6429 94.7923 42.2962 94.7283 41.9122 94.6749C41.5282 94.6109 41.1442 94.5363 40.7602 94.4509C40.3762 94.3549 40.0242 94.2269 39.7042 94.0669C39.3842 93.8963 39.1282 93.6669 38.9362 93.3789C38.7442 93.0803 38.6482 92.6856 38.6482 92.1949C38.6482 91.6829 38.7922 91.2349 39.0802 90.8509C39.3682 90.4669 39.7735 90.1736 40.2962 89.9709C40.8295 89.7576 41.4589 89.6509 42.1842 89.6509C42.7389 89.6509 43.2989 89.7203 43.8642 89.8589C44.4402 89.9869 44.9095 90.1736 45.2722 90.4189L44.6162 91.6349C44.2322 91.3789 43.8322 91.2029 43.4162 91.1069C43.0002 91.0109 42.5842 90.9629 42.1682 90.9629C41.4962 90.9629 40.9949 91.0749 40.6642 91.2989C40.3335 91.5123 40.1682 91.7896 40.1682 92.1309C40.1682 92.4189 40.2642 92.6429 40.4562 92.8029C40.6589 92.9523 40.9149 93.0696 41.2242 93.1549C41.5442 93.2403 41.8962 93.3149 42.2802 93.3789C42.6642 93.4323 43.0482 93.5069 43.4322 93.6029C43.8162 93.6883 44.1629 93.8109 44.4722 93.9709C44.7922 94.1309 45.0482 94.3549 45.2402 94.6429C45.4429 94.9309 45.5442 95.3149 45.5442 95.7949C45.5442 96.3069 45.3949 96.7496 45.0962 97.1229C44.7975 97.4963 44.3762 97.7896 43.8322 98.0029C43.2882 98.2056 42.6375 98.3069 41.8802 98.3069Z" fill="#1F2937"/>
<path d="M101.175 36.7712C101.247 36.2236 100.862 35.7213 100.314 35.6492L91.3911 34.4744C90.8436 34.4024 90.3412 34.7878 90.2691 35.3354C90.1971 35.8829 90.5825 36.3852 91.1301 36.4573L99.0616 37.5015L98.0174 45.4331C97.9453 45.9807 98.3308 46.483 98.8783 46.5551C99.4259 46.6272 99.9282 46.2417 100 45.6942L101.175 36.7712ZM100.184 36.6406L99.5748 35.8473L43.2467 79.0693L43.8555 79.8627L44.4643 80.656L100.792 37.434L100.184 36.6406Z" fill="url(#paint0_linear_565_18487)"/>
<path d="M49.595 143.214L141.178 71.3504" stroke="#9CA3AF" stroke-opacity="0.5" stroke-width="1.584" stroke-dasharray="2.38 2.38"/>
<ellipse cx="62.4243" cy="132.157" rx="5.83091" ry="5.83091" transform="matrix(0.621988 0.783025 -0.783028 0.621988 127.08 1.07728)" fill="#E5E7EB"/>
<ellipse cx="81.7758" cy="117.068" rx="5.83091" ry="5.83091" transform="matrix(0.621988 0.783025 -0.783028 0.621988 122.579 -19.7796)" fill="#D1D5DB"/>
<ellipse cx="101.159" cy="101.95" rx="5.83091" ry="5.83091" transform="matrix(0.621988 0.783025 -0.783028 0.621988 118.069 -40.6713)" fill="#9CA3AF"/>
<ellipse cx="120.534" cy="86.8722" rx="5.83091" ry="5.83091" transform="matrix(0.621988 0.783025 -0.783028 0.621988 113.587 -61.5422)" fill="#6B7280"/>
<ellipse cx="139.901" cy="71.7745" rx="5.83091" ry="5.83091" transform="matrix(0.621988 0.783025 -0.783028 0.621988 109.086 -82.4143)" fill="#394150"/>
<ellipse cx="139.901" cy="71.7745" rx="5.83091" ry="5.83091" transform="matrix(0.621988 0.783025 -0.783028 0.621988 109.086 -82.4143)" fill="#4B5563"/>
<defs>
<linearGradient id="paint0_linear_565_18487" x1="100.488" y1="37.0373" x2="44.1599" y2="80.2594" gradientUnits="userSpaceOnUse">
<stop stop-color="#475569"/>
<stop offset="1" stop-color="#E7E5E4"/>
</linearGradient>
</defs>
</svg>
