<svg width="298" height="164" viewBox="0 0 298 164" fill="none" xmlns="http://www.w3.org/2000/svg">
<path opacity="0.2" d="M131.666 73.1678L70.4297 38.1758" stroke="#4B5563" stroke-width="1.1664" stroke-linecap="round"/>
<path opacity="0.2" d="M131.663 84.832L71.5938 119.241" stroke="#4B5563" stroke-width="1.1664" stroke-linecap="round"/>
<path opacity="0.2" d="M142.16 91.2461L142.16 154.815" stroke="#4B5563" stroke-width="1.1664" stroke-linecap="round"/>
<path opacity="0.2" d="M152.074 84.832L212.727 119.824" stroke="#4B5563" stroke-width="1.1664" stroke-linecap="round"/>
<path opacity="0.2" d="M152.074 73.1678L212.727 38.1758" stroke="#4B5563" stroke-width="1.1664" stroke-linecap="round"/>
<path opacity="0.2" d="M142.16 67.3356L142.16 3.18359" stroke="#4B5563" stroke-width="1.1664" stroke-linecap="round"/>
<path d="M131.759 52.46C131.293 52.1937 130.699 52.3553 130.433 52.8213C130.166 53.2874 130.329 53.8811 130.795 54.1475L134.804 56.4375C129.207 58.0959 124.355 61.6771 121.122 66.5732C117.626 71.868 116.285 78.2994 117.377 84.5498C118.469 90.8004 121.911 96.3975 126.995 100.193C132.08 103.989 138.424 105.697 144.727 104.967C151.03 104.237 156.815 101.124 160.897 96.2666C164.98 91.4091 167.05 85.1745 166.685 78.8398C166.319 72.5051 163.545 66.5499 158.931 62.1943C154.407 57.9243 148.45 55.5082 142.239 55.415C141.537 55.4048 140.969 55.9381 140.901 56.6074L140.895 56.7432C140.895 57.4355 141.419 57.9912 142.076 58.0674L142.21 58.0762C147.752 58.1619 153.067 60.3183 157.104 64.1289C161.225 68.0183 163.702 73.3364 164.028 78.9932C164.355 84.6499 162.506 90.218 158.86 94.5557C155.215 98.8929 150.048 101.672 144.42 102.324C138.792 102.976 133.126 101.451 128.586 98.0615C124.046 94.672 120.973 89.6742 119.998 84.0928C119.023 78.5112 120.22 72.7673 123.342 68.0391C126.148 63.7893 130.321 60.6495 135.142 59.1172L133.026 63.3467C132.786 63.8268 132.982 64.4104 133.462 64.6504C133.942 64.8902 134.526 64.6958 134.766 64.2158L137.942 57.8623C138.35 57.0466 138.049 56.054 137.258 55.6016L131.759 52.46Z" fill="#4B5563"/>
<path d="M107.015 129.247V127.087L115.295 116.263H118.631L110.471 127.087L108.911 126.606H122.231V129.247H107.015ZM116.231 133.062V129.247L116.327 126.606V123.223H119.255V133.062H116.231Z" fill="black"/>
<path d="M184.988 87.5742V85.4862L191.66 79.1502C192.22 78.6222 192.636 78.1582 192.908 77.7582C193.18 77.3582 193.356 76.9902 193.436 76.6542C193.532 76.3022 193.58 75.9742 193.58 75.6702C193.58 74.9022 193.316 74.3102 192.788 73.8942C192.26 73.4622 191.484 73.2462 190.46 73.2462C189.644 73.2462 188.9 73.3902 188.228 73.6782C187.572 73.9662 187.004 74.4062 186.524 74.9982L184.34 73.3182C184.996 72.4382 185.876 71.7582 186.98 71.2782C188.1 70.7822 189.348 70.5342 190.724 70.5342C191.94 70.5342 192.996 70.7342 193.892 71.1342C194.804 71.5182 195.5 72.0702 195.98 72.7902C196.476 73.5102 196.724 74.3662 196.724 75.3582C196.724 75.9022 196.652 76.4462 196.508 76.9902C196.364 77.5182 196.092 78.0782 195.692 78.6702C195.292 79.2622 194.708 79.9262 193.94 80.6622L188.204 86.1102L187.556 84.9342H197.372V87.5742H184.988Z" fill="black"/>
<path d="M169.781 130.021C168.597 130.021 167.437 129.853 166.301 129.517C165.181 129.165 164.237 128.685 163.469 128.077L164.813 125.653C165.421 126.149 166.157 126.549 167.021 126.853C167.885 127.157 168.789 127.309 169.733 127.309C170.853 127.309 171.725 127.085 172.349 126.637C172.973 126.173 173.285 125.549 173.285 124.765C173.285 123.997 172.997 123.389 172.421 122.941C171.845 122.493 170.917 122.269 169.637 122.269H168.101V120.133L172.901 114.421L173.309 115.597H164.285V112.981H175.733V115.069L170.933 120.781L169.301 119.821H170.237C172.301 119.821 173.845 120.285 174.869 121.213C175.909 122.125 176.429 123.301 176.429 124.741C176.429 125.685 176.189 126.557 175.709 127.357C175.229 128.157 174.493 128.805 173.501 129.301C172.525 129.781 171.285 130.021 169.781 130.021Z" fill="black"/>
<path d="M87.6318 87.8142C86.4478 87.8142 85.2878 87.6462 84.1518 87.3102C83.0318 86.9582 82.0878 86.4782 81.3198 85.8702L82.6398 83.4462C83.2478 83.9422 83.9838 84.3422 84.8478 84.6462C85.7278 84.9502 86.6398 85.1022 87.5838 85.1022C88.6878 85.1022 89.5518 84.8702 90.1758 84.4062C90.8158 83.9422 91.1358 83.3182 91.1358 82.5342C91.1358 82.0062 90.9998 81.5422 90.7278 81.1422C90.4718 80.7422 90.0078 80.4382 89.3358 80.2302C88.6798 80.0222 87.7758 79.9182 86.6238 79.9182H82.5678L83.4318 70.7742H93.2958V73.3902H84.5838L86.2158 71.9022L85.5678 78.7422L83.9358 77.2782H87.3198C88.9838 77.2782 90.3198 77.5022 91.3278 77.9502C92.3518 78.3822 93.0958 78.9902 93.5598 79.7742C94.0398 80.5422 94.2798 81.4222 94.2798 82.4142C94.2798 83.3902 94.0398 84.2862 93.5598 85.1022C93.0798 85.9182 92.3438 86.5742 91.3518 87.0702C90.3758 87.5662 89.1358 87.8142 87.6318 87.8142Z" fill="black"/>
<path d="M169.189 45.2891V29.6891L170.557 31.1051H165.637V28.4891H172.309V45.2891H169.189Z" fill="black"/>
<path d="M114.789 44.072C113.269 44.072 111.965 43.752 110.877 43.112C109.789 42.456 108.957 41.512 108.381 40.28C107.805 39.048 107.517 37.528 107.517 35.72C107.517 33.8 107.861 32.176 108.549 30.848C109.253 29.52 110.221 28.512 111.453 27.824C112.701 27.136 114.133 26.792 115.749 26.792C116.597 26.792 117.405 26.88 118.173 27.056C118.957 27.232 119.621 27.504 120.165 27.872L119.013 30.224C118.549 29.92 118.045 29.712 117.501 29.6C116.973 29.472 116.413 29.408 115.821 29.408C114.237 29.408 112.981 29.896 112.053 30.872C111.125 31.848 110.661 33.288 110.661 35.192C110.661 35.496 110.669 35.856 110.685 36.272C110.701 36.672 110.757 37.08 110.853 37.496L109.893 36.44C110.181 35.784 110.573 35.24 111.069 34.808C111.581 34.36 112.181 34.024 112.869 33.8C113.573 33.576 114.333 33.464 115.149 33.464C116.253 33.464 117.237 33.68 118.101 34.112C118.965 34.528 119.653 35.128 120.165 35.912C120.677 36.68 120.933 37.584 120.933 38.624C120.933 39.728 120.661 40.688 120.117 41.504C119.573 42.32 118.837 42.952 117.909 43.4C116.981 43.848 115.941 44.072 114.789 44.072ZM114.621 41.624C115.261 41.624 115.829 41.512 116.325 41.288C116.821 41.048 117.205 40.712 117.477 40.28C117.765 39.848 117.909 39.344 117.909 38.768C117.909 37.888 117.605 37.192 116.997 36.68C116.389 36.168 115.573 35.912 114.549 35.912C113.877 35.912 113.285 36.04 112.773 36.296C112.277 36.536 111.877 36.872 111.573 37.304C111.285 37.736 111.141 38.232 111.141 38.792C111.141 39.304 111.277 39.776 111.549 40.208C111.821 40.64 112.213 40.984 112.725 41.24C113.253 41.496 113.885 41.624 114.621 41.624Z" fill="black"/>
<path d="M192.035 19.16C190.499 19.16 189.294 18.728 188.419 17.864C187.555 17 187.123 15.752 187.123 14.12V7.8H189.203V14.04C189.203 15.192 189.448 16.0293 189.939 16.552C190.44 17.0747 191.144 17.336 192.051 17.336C192.958 17.336 193.656 17.0747 194.147 16.552C194.638 16.0293 194.883 15.192 194.883 14.04V7.8H196.931V14.12C196.931 15.752 196.494 17 195.619 17.864C194.755 18.728 193.56 19.16 192.035 19.16ZM202.292 19.112C201.577 19.112 200.889 19.0213 200.228 18.84C199.577 18.648 199.06 18.4187 198.676 18.152L199.444 16.632C199.828 16.8773 200.287 17.08 200.82 17.24C201.353 17.4 201.887 17.48 202.42 17.48C203.049 17.48 203.503 17.3947 203.78 17.224C204.068 17.0533 204.212 16.824 204.212 16.536C204.212 16.3013 204.116 16.1253 203.924 16.008C203.732 15.88 203.481 15.784 203.172 15.72C202.863 15.656 202.516 15.5973 202.132 15.544C201.759 15.4907 201.38 15.4213 200.996 15.336C200.623 15.24 200.281 15.1067 199.972 14.936C199.663 14.7547 199.412 14.5147 199.22 14.216C199.028 13.9173 198.932 13.5227 198.932 13.032C198.932 12.488 199.087 12.0187 199.396 11.624C199.705 11.2187 200.137 10.9093 200.692 10.696C201.257 10.472 201.924 10.36 202.692 10.36C203.268 10.36 203.849 10.424 204.436 10.552C205.023 10.68 205.508 10.8613 205.892 11.096L205.124 12.616C204.719 12.3707 204.308 12.2053 203.892 12.12C203.487 12.024 203.081 11.976 202.676 11.976C202.068 11.976 201.615 12.0667 201.316 12.248C201.028 12.4293 200.884 12.6587 200.884 12.936C200.884 13.192 200.98 13.384 201.172 13.512C201.364 13.64 201.615 13.7413 201.924 13.816C202.233 13.8907 202.575 13.9547 202.948 14.008C203.332 14.0507 203.711 14.12 204.084 14.216C204.457 14.312 204.799 14.4453 205.108 14.616C205.428 14.776 205.684 15.0053 205.876 15.304C206.068 15.6027 206.164 15.992 206.164 16.472C206.164 17.0053 206.004 17.4693 205.684 17.864C205.375 18.2587 204.932 18.568 204.356 18.792C203.78 19.0053 203.092 19.112 202.292 19.112ZM211.902 19.112C210.953 19.112 210.121 18.9253 209.406 18.552C208.702 18.168 208.153 17.6453 207.758 16.984C207.374 16.3227 207.182 15.5707 207.182 14.728C207.182 13.8747 207.369 13.1227 207.742 12.472C208.126 11.8107 208.649 11.2933 209.31 10.92C209.982 10.5467 210.745 10.36 211.598 10.36C212.43 10.36 213.172 10.5413 213.822 10.904C214.473 11.2667 214.985 11.7787 215.358 12.44C215.732 13.1013 215.918 13.88 215.918 14.776C215.918 14.8613 215.913 14.9573 215.902 15.064C215.902 15.1707 215.897 15.272 215.886 15.368H208.766V14.04H214.83L214.046 14.456C214.057 13.9653 213.956 13.5333 213.742 13.16C213.529 12.7867 213.236 12.4933 212.862 12.28C212.5 12.0667 212.078 11.96 211.598 11.96C211.108 11.96 210.676 12.0667 210.302 12.28C209.94 12.4933 209.652 12.792 209.438 13.176C209.236 13.5493 209.134 13.992 209.134 14.504V14.824C209.134 15.336 209.252 15.7893 209.486 16.184C209.721 16.5787 210.052 16.8827 210.478 17.096C210.905 17.3093 211.396 17.416 211.95 17.416C212.43 17.416 212.862 17.3413 213.246 17.192C213.63 17.0427 213.972 16.808 214.27 16.488L215.342 17.72C214.958 18.168 214.473 18.5147 213.886 18.76C213.31 18.9947 212.649 19.112 211.902 19.112ZM217.839 19V10.456H219.743V12.808L219.519 12.12C219.775 11.544 220.175 11.1067 220.719 10.808C221.274 10.5093 221.962 10.36 222.783 10.36V12.264C222.698 12.2427 222.618 12.232 222.543 12.232C222.469 12.2213 222.394 12.216 222.319 12.216C221.562 12.216 220.959 12.44 220.511 12.888C220.063 13.3253 219.839 13.9813 219.839 14.856V19H217.839ZM227.588 19L232.628 7.8H234.676L239.732 19H237.556L233.22 8.904H234.052L229.732 19H227.588ZM229.908 16.408L230.468 14.776H236.516L237.076 16.408H229.908ZM244.806 19.112C243.91 19.112 243.11 18.9253 242.406 18.552C241.713 18.168 241.169 17.6453 240.774 16.984C240.38 16.3227 240.182 15.5707 240.182 14.728C240.182 13.8747 240.38 13.1227 240.774 12.472C241.169 11.8107 241.713 11.2933 242.406 10.92C243.11 10.5467 243.91 10.36 244.806 10.36C245.638 10.36 246.369 10.5307 246.998 10.872C247.638 11.2027 248.124 11.6933 248.454 12.344L246.918 13.24C246.662 12.8347 246.348 12.536 245.974 12.344C245.612 12.152 245.217 12.056 244.79 12.056C244.3 12.056 243.857 12.1627 243.462 12.376C243.068 12.5893 242.758 12.8987 242.534 13.304C242.31 13.6987 242.198 14.1733 242.198 14.728C242.198 15.2827 242.31 15.7627 242.534 16.168C242.758 16.5627 243.068 16.8667 243.462 17.08C243.857 17.2933 244.3 17.4 244.79 17.4C245.217 17.4 245.612 17.304 245.974 17.112C246.348 16.92 246.662 16.6213 246.918 16.216L248.454 17.112C248.124 17.752 247.638 18.248 246.998 18.6C246.369 18.9413 245.638 19.112 244.806 19.112ZM253.508 19.112C252.57 19.112 251.844 18.872 251.332 18.392C250.82 17.9013 250.564 17.1813 250.564 16.232V8.568H252.564V16.184C252.564 16.5893 252.666 16.904 252.868 17.128C253.082 17.352 253.375 17.464 253.748 17.464C254.196 17.464 254.57 17.3467 254.868 17.112L255.428 18.536C255.194 18.728 254.906 18.872 254.564 18.968C254.223 19.064 253.871 19.112 253.508 19.112ZM249.156 12.12V10.52H254.852V12.12H249.156ZM257.074 19V10.456H259.074V19H257.074ZM258.082 9.048C257.708 9.048 257.399 8.93067 257.154 8.696C256.919 8.46133 256.802 8.17867 256.802 7.848C256.802 7.50667 256.919 7.224 257.154 7C257.399 6.76533 257.708 6.648 258.082 6.648C258.455 6.648 258.759 6.76 258.994 6.984C259.239 7.19733 259.362 7.46933 259.362 7.8C259.362 8.152 259.244 8.45067 259.01 8.696C258.775 8.93067 258.466 9.048 258.082 9.048ZM265.539 19.112C264.664 19.112 263.885 18.9253 263.203 18.552C262.52 18.168 261.981 17.6453 261.587 16.984C261.192 16.3227 260.995 15.5707 260.995 14.728C260.995 13.8747 261.192 13.1227 261.587 12.472C261.981 11.8107 262.52 11.2933 263.203 10.92C263.885 10.5467 264.664 10.36 265.539 10.36C266.424 10.36 267.208 10.5467 267.891 10.92C268.584 11.2933 269.123 11.8053 269.507 12.456C269.901 13.1067 270.099 13.864 270.099 14.728C270.099 15.5707 269.901 16.3227 269.507 16.984C269.123 17.6453 268.584 18.168 267.891 18.552C267.208 18.9253 266.424 19.112 265.539 19.112ZM265.539 17.4C266.029 17.4 266.467 17.2933 266.851 17.08C267.235 16.8667 267.533 16.5573 267.747 16.152C267.971 15.7467 268.083 15.272 268.083 14.728C268.083 14.1733 267.971 13.6987 267.747 13.304C267.533 12.8987 267.235 12.5893 266.851 12.376C266.467 12.1627 266.035 12.056 265.555 12.056C265.064 12.056 264.627 12.1627 264.243 12.376C263.869 12.5893 263.571 12.8987 263.347 13.304C263.123 13.6987 263.011 14.1733 263.011 14.728C263.011 15.272 263.123 15.7467 263.347 16.152C263.571 16.5573 263.869 16.8667 264.243 17.08C264.627 17.2933 265.059 17.4 265.539 17.4ZM276.859 10.36C277.542 10.36 278.15 10.4933 278.683 10.76C279.227 11.0267 279.654 11.4373 279.963 11.992C280.273 12.536 280.427 13.24 280.427 14.104V19H278.427V14.36C278.427 13.6027 278.246 13.0373 277.883 12.664C277.531 12.2907 277.035 12.104 276.395 12.104C275.926 12.104 275.51 12.2 275.147 12.392C274.785 12.584 274.502 12.872 274.299 13.256C274.107 13.6293 274.011 14.104 274.011 14.68V19H272.011V10.456H273.915V12.76L273.579 12.056C273.878 11.512 274.31 11.096 274.875 10.808C275.451 10.5093 276.113 10.36 276.859 10.36Z" fill="black"/>
<path d="M244.246 75V66.456H246.246V75H244.246ZM245.254 65.048C244.88 65.048 244.571 64.9307 244.326 64.696C244.091 64.4613 243.974 64.1787 243.974 63.848C243.974 63.5067 244.091 63.224 244.326 63C244.571 62.7653 244.88 62.648 245.254 62.648C245.627 62.648 245.931 62.76 246.166 62.984C246.411 63.1973 246.534 63.4693 246.534 63.8C246.534 64.152 246.416 64.4507 246.182 64.696C245.947 64.9307 245.638 65.048 245.254 65.048ZM254.311 75.16C253.436 75.16 252.631 75.016 251.895 74.728C251.159 74.44 250.519 74.04 249.975 73.528C249.431 73.0053 249.009 72.3973 248.711 71.704C248.412 71 248.263 70.232 248.263 69.4C248.263 68.568 248.412 67.8053 248.711 67.112C249.009 66.408 249.431 65.8 249.975 65.288C250.519 64.7653 251.159 64.36 251.895 64.072C252.631 63.784 253.431 63.64 254.295 63.64C255.169 63.64 255.969 63.784 256.695 64.072C257.431 64.36 258.071 64.7653 258.615 65.288C259.159 65.8 259.58 66.408 259.879 67.112C260.177 67.8053 260.327 68.568 260.327 69.4C260.327 70.232 260.177 71 259.879 71.704C259.58 72.408 259.159 73.016 258.615 73.528C258.071 74.04 257.431 74.44 256.695 74.728C255.969 75.016 255.175 75.16 254.311 75.16ZM254.295 73.336C254.86 73.336 255.383 73.24 255.863 73.048C256.343 72.856 256.759 72.584 257.111 72.232C257.463 71.8693 257.735 71.4533 257.927 70.984C258.129 70.504 258.231 69.976 258.231 69.4C258.231 68.824 258.129 68.3013 257.927 67.832C257.735 67.352 257.463 66.936 257.111 66.584C256.759 66.2213 256.343 65.944 255.863 65.752C255.383 65.56 254.86 65.464 254.295 65.464C253.729 65.464 253.207 65.56 252.727 65.752C252.257 65.944 251.841 66.2213 251.479 66.584C251.127 66.936 250.849 67.352 250.647 67.832C250.455 68.3013 250.359 68.824 250.359 69.4C250.359 69.9653 250.455 70.488 250.647 70.968C250.849 71.448 251.127 71.8693 251.479 72.232C251.831 72.584 252.247 72.856 252.727 73.048C253.207 73.24 253.729 73.336 254.295 73.336ZM266.003 75.16C265.129 75.16 264.291 75.0373 263.491 74.792C262.691 74.536 262.057 74.2107 261.587 73.816L262.307 72.2C262.755 72.552 263.31 72.8453 263.971 73.08C264.633 73.3147 265.31 73.432 266.003 73.432C266.59 73.432 267.065 73.368 267.427 73.24C267.79 73.112 268.057 72.9413 268.227 72.728C268.398 72.504 268.483 72.2533 268.483 71.976C268.483 71.6347 268.361 71.3627 268.115 71.16C267.87 70.9467 267.55 70.7813 267.155 70.664C266.771 70.536 266.339 70.4187 265.859 70.312C265.39 70.2053 264.915 70.0827 264.435 69.944C263.966 69.7947 263.534 69.608 263.139 69.384C262.755 69.1493 262.441 68.84 262.195 68.456C261.95 68.072 261.827 67.5813 261.827 66.984C261.827 66.376 261.987 65.8213 262.307 65.32C262.638 64.808 263.134 64.4027 263.795 64.104C264.467 63.7947 265.315 63.64 266.339 63.64C267.011 63.64 267.678 63.7253 268.339 63.896C269.001 64.0667 269.577 64.312 270.067 64.632L269.411 66.248C268.91 65.9493 268.393 65.7307 267.859 65.592C267.326 65.4427 266.814 65.368 266.323 65.368C265.747 65.368 265.278 65.4373 264.915 65.576C264.563 65.7147 264.302 65.896 264.131 66.12C263.971 66.344 263.891 66.6 263.891 66.888C263.891 67.2293 264.009 67.5067 264.243 67.72C264.489 67.9227 264.803 68.0827 265.187 68.2C265.582 68.3173 266.019 68.4347 266.499 68.552C266.979 68.6587 267.454 68.7813 267.923 68.92C268.403 69.0587 268.835 69.24 269.219 69.464C269.614 69.688 269.929 69.992 270.163 70.376C270.409 70.76 270.531 71.2453 270.531 71.832C270.531 72.4293 270.366 72.984 270.035 73.496C269.715 73.9973 269.219 74.4027 268.547 74.712C267.875 75.0107 267.027 75.16 266.003 75.16ZM221.988 95.16C221.113 95.16 220.276 95.0373 219.476 94.792C218.676 94.536 218.041 94.2107 217.572 93.816L218.292 92.2C218.74 92.552 219.294 92.8453 219.956 93.08C220.617 93.3147 221.294 93.432 221.988 93.432C222.574 93.432 223.049 93.368 223.412 93.24C223.774 93.112 224.041 92.9413 224.212 92.728C224.382 92.504 224.468 92.2533 224.468 91.976C224.468 91.6347 224.345 91.3627 224.1 91.16C223.854 90.9467 223.534 90.7813 223.14 90.664C222.756 90.536 222.324 90.4187 221.844 90.312C221.374 90.2053 220.9 90.0827 220.42 89.944C219.95 89.7947 219.518 89.608 219.124 89.384C218.74 89.1493 218.425 88.84 218.18 88.456C217.934 88.072 217.812 87.5813 217.812 86.984C217.812 86.376 217.972 85.8213 218.292 85.32C218.622 84.808 219.118 84.4027 219.78 84.104C220.452 83.7947 221.3 83.64 222.324 83.64C222.996 83.64 223.662 83.7253 224.324 83.896C224.985 84.0667 225.561 84.312 226.052 84.632L225.396 86.248C224.894 85.9493 224.377 85.7307 223.844 85.592C223.31 85.4427 222.798 85.368 222.308 85.368C221.732 85.368 221.262 85.4373 220.9 85.576C220.548 85.7147 220.286 85.896 220.116 86.12C219.956 86.344 219.876 86.6 219.876 86.888C219.876 87.2293 219.993 87.5067 220.228 87.72C220.473 87.9227 220.788 88.0827 221.172 88.2C221.566 88.3173 222.004 88.4347 222.484 88.552C222.964 88.6587 223.438 88.7813 223.908 88.92C224.388 89.0587 224.82 89.24 225.204 89.464C225.598 89.688 225.913 89.992 226.148 90.376C226.393 90.76 226.516 91.2453 226.516 91.832C226.516 92.4293 226.35 92.984 226.02 93.496C225.7 93.9973 225.204 94.4027 224.532 94.712C223.86 95.0107 223.012 95.16 221.988 95.16ZM233.234 86.36C233.917 86.36 234.525 86.4933 235.058 86.76C235.602 87.0267 236.029 87.4373 236.338 87.992C236.648 88.536 236.802 89.24 236.802 90.104V95H234.802V90.36C234.802 89.6027 234.621 89.0373 234.258 88.664C233.906 88.2907 233.41 88.104 232.77 88.104C232.301 88.104 231.885 88.2 231.522 88.392C231.16 88.584 230.877 88.872 230.674 89.256C230.482 89.6293 230.386 90.104 230.386 90.68V95H228.386V83.128H230.386V88.76L229.954 88.056C230.253 87.512 230.685 87.096 231.25 86.808C231.826 86.5093 232.488 86.36 233.234 86.36ZM243.195 95.112C242.32 95.112 241.542 94.9253 240.859 94.552C240.176 94.168 239.638 93.6453 239.243 92.984C238.848 92.3227 238.651 91.5707 238.651 90.728C238.651 89.8747 238.848 89.1227 239.243 88.472C239.638 87.8107 240.176 87.2933 240.859 86.92C241.542 86.5467 242.32 86.36 243.195 86.36C244.08 86.36 244.864 86.5467 245.547 86.92C246.24 87.2933 246.779 87.8053 247.163 88.456C247.558 89.1067 247.755 89.864 247.755 90.728C247.755 91.5707 247.558 92.3227 247.163 92.984C246.779 93.6453 246.24 94.168 245.547 94.552C244.864 94.9253 244.08 95.112 243.195 95.112ZM243.195 93.4C243.686 93.4 244.123 93.2933 244.507 93.08C244.891 92.8667 245.19 92.5573 245.403 92.152C245.627 91.7467 245.739 91.272 245.739 90.728C245.739 90.1733 245.627 89.6987 245.403 89.304C245.19 88.8987 244.891 88.5893 244.507 88.376C244.123 88.1627 243.691 88.056 243.211 88.056C242.72 88.056 242.283 88.1627 241.899 88.376C241.526 88.5893 241.227 88.8987 241.003 89.304C240.779 89.6987 240.667 90.1733 240.667 90.728C240.667 91.272 240.779 91.7467 241.003 92.152C241.227 92.5573 241.526 92.8667 241.899 93.08C242.283 93.2933 242.715 93.4 243.195 93.4ZM249.667 95V86.456H251.571V88.808L251.347 88.12C251.603 87.544 252.003 87.1067 252.547 86.808C253.102 86.5093 253.79 86.36 254.611 86.36V88.264C254.526 88.2427 254.446 88.232 254.371 88.232C254.297 88.2213 254.222 88.216 254.147 88.216C253.39 88.216 252.787 88.44 252.339 88.888C251.891 89.3253 251.667 89.9813 251.667 90.856V95H249.667ZM259.837 95.112C258.898 95.112 258.173 94.872 257.661 94.392C257.149 93.9013 256.893 93.1813 256.893 92.232V84.568H258.893V92.184C258.893 92.5893 258.994 92.904 259.197 93.128C259.41 93.352 259.703 93.464 260.077 93.464C260.525 93.464 260.898 93.3467 261.197 93.112L261.757 94.536C261.522 94.728 261.234 94.872 260.893 94.968C260.551 95.064 260.199 95.112 259.837 95.112ZM255.485 88.12V86.52H261.181V88.12H255.485ZM267.041 95.112C266.145 95.112 265.345 94.9253 264.641 94.552C263.947 94.168 263.403 93.6453 263.009 92.984C262.614 92.3227 262.417 91.5707 262.417 90.728C262.417 89.8747 262.614 89.1227 263.009 88.472C263.403 87.8107 263.947 87.2933 264.641 86.92C265.345 86.5467 266.145 86.36 267.041 86.36C267.873 86.36 268.603 86.5307 269.233 86.872C269.873 87.2027 270.358 87.6933 270.689 88.344L269.153 89.24C268.897 88.8347 268.582 88.536 268.209 88.344C267.846 88.152 267.451 88.056 267.025 88.056C266.534 88.056 266.091 88.1627 265.697 88.376C265.302 88.5893 264.993 88.8987 264.769 89.304C264.545 89.6987 264.433 90.1733 264.433 90.728C264.433 91.2827 264.545 91.7627 264.769 92.168C264.993 92.5627 265.302 92.8667 265.697 93.08C266.091 93.2933 266.534 93.4 267.025 93.4C267.451 93.4 267.846 93.304 268.209 93.112C268.582 92.92 268.897 92.6213 269.153 92.216L270.689 93.112C270.358 93.752 269.873 94.248 269.233 94.6C268.603 94.9413 267.873 95.112 267.041 95.112ZM276.033 95.112C275.308 95.112 274.668 94.9787 274.113 94.712C273.559 94.4347 273.127 94.0187 272.817 93.464C272.508 92.8987 272.353 92.1893 272.353 91.336V86.456H274.353V91.064C274.353 91.832 274.524 92.408 274.865 92.792C275.217 93.1653 275.713 93.352 276.353 93.352C276.823 93.352 277.228 93.256 277.569 93.064C277.921 92.872 278.193 92.584 278.385 92.2C278.588 91.816 278.689 91.3413 278.689 90.776V86.456H280.689V95H278.785V92.696L279.121 93.4C278.833 93.9547 278.412 94.3813 277.857 94.68C277.303 94.968 276.695 95.112 276.033 95.112ZM286.524 95.112C285.585 95.112 284.86 94.872 284.348 94.392C283.836 93.9013 283.58 93.1813 283.58 92.232V84.568H285.58V92.184C285.58 92.5893 285.681 92.904 285.884 93.128C286.097 93.352 286.391 93.464 286.764 93.464C287.212 93.464 287.585 93.3467 287.884 93.112L288.444 94.536C288.209 94.728 287.921 94.872 287.58 94.968C287.239 95.064 286.887 95.112 286.524 95.112ZM282.172 88.12V86.52H287.868V88.12H282.172ZM292.729 95.112C292.015 95.112 291.327 95.0213 290.665 94.84C290.015 94.648 289.497 94.4187 289.113 94.152L289.881 92.632C290.265 92.8773 290.724 93.08 291.257 93.24C291.791 93.4 292.324 93.48 292.857 93.48C293.487 93.48 293.94 93.3947 294.217 93.224C294.505 93.0533 294.649 92.824 294.649 92.536C294.649 92.3013 294.553 92.1253 294.361 92.008C294.169 91.88 293.919 91.784 293.609 91.72C293.3 91.656 292.953 91.5973 292.569 91.544C292.196 91.4907 291.817 91.4213 291.433 91.336C291.06 91.24 290.719 91.1067 290.409 90.936C290.1 90.7547 289.849 90.5147 289.657 90.216C289.465 89.9173 289.369 89.5227 289.369 89.032C289.369 88.488 289.524 88.0187 289.833 87.624C290.143 87.2187 290.575 86.9093 291.129 86.696C291.695 86.472 292.361 86.36 293.129 86.36C293.705 86.36 294.287 86.424 294.873 86.552C295.46 86.68 295.945 86.8613 296.329 87.096L295.561 88.616C295.156 88.3707 294.745 88.2053 294.329 88.12C293.924 88.024 293.519 87.976 293.113 87.976C292.505 87.976 292.052 88.0667 291.753 88.248C291.465 88.4293 291.321 88.6587 291.321 88.936C291.321 89.192 291.417 89.384 291.609 89.512C291.801 89.64 292.052 89.7413 292.361 89.816C292.671 89.8907 293.012 89.9547 293.385 90.008C293.769 90.0507 294.148 90.12 294.521 90.216C294.895 90.312 295.236 90.4453 295.545 90.616C295.865 90.776 296.121 91.0053 296.313 91.304C296.505 91.6027 296.601 91.992 296.601 92.472C296.601 93.0053 296.441 93.4693 296.121 93.864C295.812 94.2587 295.369 94.568 294.793 94.792C294.217 95.0053 293.529 95.112 292.729 95.112Z" fill="black"/>
<path d="M187.464 140V131.456H189.464V140H187.464ZM188.472 130.048C188.099 130.048 187.79 129.931 187.544 129.696C187.31 129.461 187.192 129.179 187.192 128.848C187.192 128.507 187.31 128.224 187.544 128C187.79 127.765 188.099 127.648 188.472 127.648C188.846 127.648 189.15 127.76 189.384 127.984C189.63 128.197 189.752 128.469 189.752 128.8C189.752 129.152 189.635 129.451 189.4 129.696C189.166 129.931 188.856 130.048 188.472 130.048ZM197.465 140.16C196.612 140.16 195.817 140.021 195.081 139.744C194.356 139.456 193.721 139.056 193.177 138.544C192.644 138.021 192.228 137.408 191.929 136.704C191.631 136 191.481 135.232 191.481 134.4C191.481 133.568 191.631 132.8 191.929 132.096C192.228 131.392 192.649 130.784 193.193 130.272C193.737 129.749 194.372 129.349 195.097 129.072C195.823 128.784 196.617 128.64 197.481 128.64C198.399 128.64 199.236 128.8 199.993 129.12C200.751 129.429 201.391 129.893 201.913 130.512L200.569 131.776C200.164 131.339 199.711 131.013 199.209 130.8C198.708 130.576 198.164 130.464 197.577 130.464C196.991 130.464 196.452 130.56 195.961 130.752C195.481 130.944 195.06 131.216 194.697 131.568C194.345 131.92 194.068 132.336 193.865 132.816C193.673 133.296 193.577 133.824 193.577 134.4C193.577 134.976 193.673 135.504 193.865 135.984C194.068 136.464 194.345 136.88 194.697 137.232C195.06 137.584 195.481 137.856 195.961 138.048C196.452 138.24 196.991 138.336 197.577 138.336C198.164 138.336 198.708 138.229 199.209 138.016C199.711 137.792 200.164 137.456 200.569 137.008L201.913 138.288C201.391 138.896 200.751 139.36 199.993 139.68C199.236 140 198.393 140.16 197.465 140.16ZM203.714 140V128.128H205.714V140H203.714ZM212.179 140.112C211.305 140.112 210.526 139.925 209.843 139.552C209.161 139.168 208.622 138.645 208.227 137.984C207.833 137.323 207.635 136.571 207.635 135.728C207.635 134.875 207.833 134.123 208.227 133.472C208.622 132.811 209.161 132.293 209.843 131.92C210.526 131.547 211.305 131.36 212.179 131.36C213.065 131.36 213.849 131.547 214.531 131.92C215.225 132.293 215.763 132.805 216.147 133.456C216.542 134.107 216.739 134.864 216.739 135.728C216.739 136.571 216.542 137.323 216.147 137.984C215.763 138.645 215.225 139.168 214.531 139.552C213.849 139.925 213.065 140.112 212.179 140.112ZM212.179 138.4C212.67 138.4 213.107 138.293 213.491 138.08C213.875 137.867 214.174 137.557 214.387 137.152C214.611 136.747 214.723 136.272 214.723 135.728C214.723 135.173 214.611 134.699 214.387 134.304C214.174 133.899 213.875 133.589 213.491 133.376C213.107 133.163 212.675 133.056 212.195 133.056C211.705 133.056 211.267 133.163 210.883 133.376C210.51 133.589 210.211 133.899 209.987 134.304C209.763 134.699 209.651 135.173 209.651 135.728C209.651 136.272 209.763 136.747 209.987 137.152C210.211 137.557 210.51 137.867 210.883 138.08C211.267 138.293 211.699 138.4 212.179 138.4ZM222.268 140.112C221.543 140.112 220.903 139.979 220.348 139.712C219.793 139.435 219.361 139.019 219.052 138.464C218.743 137.899 218.588 137.189 218.588 136.336V131.456H220.588V136.064C220.588 136.832 220.759 137.408 221.1 137.792C221.452 138.165 221.948 138.352 222.588 138.352C223.057 138.352 223.463 138.256 223.804 138.064C224.156 137.872 224.428 137.584 224.62 137.2C224.823 136.816 224.924 136.341 224.924 135.776V131.456H226.924V140H225.02V137.696L225.356 138.4C225.068 138.955 224.647 139.381 224.092 139.68C223.537 139.968 222.929 140.112 222.268 140.112ZM233.158 140.112C232.337 140.112 231.596 139.931 230.934 139.568C230.284 139.195 229.772 138.683 229.398 138.032C229.025 137.381 228.838 136.613 228.838 135.728C228.838 134.843 229.025 134.075 229.398 133.424C229.772 132.773 230.284 132.267 230.934 131.904C231.596 131.541 232.337 131.36 233.158 131.36C233.873 131.36 234.513 131.52 235.078 131.84C235.644 132.149 236.092 132.624 236.422 133.264C236.753 133.904 236.918 134.725 236.918 135.728C236.918 136.72 236.758 137.541 236.438 138.192C236.118 138.832 235.676 139.312 235.11 139.632C234.545 139.952 233.894 140.112 233.158 140.112ZM233.398 138.4C233.878 138.4 234.305 138.293 234.678 138.08C235.062 137.867 235.366 137.557 235.59 137.152C235.825 136.747 235.942 136.272 235.942 135.728C235.942 135.173 235.825 134.699 235.59 134.304C235.366 133.899 235.062 133.589 234.678 133.376C234.305 133.163 233.878 133.056 233.398 133.056C232.918 133.056 232.486 133.163 232.102 133.376C231.729 133.589 231.425 133.899 231.19 134.304C230.966 134.699 230.854 135.173 230.854 135.728C230.854 136.272 230.966 136.747 231.19 137.152C231.425 137.557 231.729 137.867 232.102 138.08C232.486 138.293 232.918 138.4 233.398 138.4ZM235.99 140V137.984L236.07 135.712L235.91 133.44V128.128H237.894V140H235.99ZM192.461 160V148.8H197.357C198.573 148.8 199.64 149.035 200.557 149.504C201.474 149.973 202.189 150.624 202.701 151.456C203.213 152.288 203.469 153.269 203.469 154.4C203.469 155.52 203.213 156.501 202.701 157.344C202.189 158.176 201.474 158.827 200.557 159.296C199.64 159.765 198.573 160 197.357 160H192.461ZM194.541 158.24H197.261C198.104 158.24 198.829 158.08 199.437 157.76C200.056 157.44 200.53 156.992 200.861 156.416C201.202 155.84 201.373 155.168 201.373 154.4C201.373 153.621 201.202 152.949 200.861 152.384C200.53 151.808 200.056 151.36 199.437 151.04C198.829 150.72 198.104 150.56 197.261 150.56H194.541V158.24ZM205.488 160V151.456H207.392V153.808L207.168 153.12C207.424 152.544 207.824 152.107 208.368 151.808C208.922 151.509 209.61 151.36 210.432 151.36V153.264C210.346 153.243 210.266 153.232 210.192 153.232C210.117 153.221 210.042 153.216 209.968 153.216C209.21 153.216 208.608 153.44 208.16 153.888C207.712 154.325 207.488 154.981 207.488 155.856V160H205.488ZM212.128 160V151.456H214.128V160H212.128ZM213.136 150.048C212.763 150.048 212.454 149.931 212.208 149.696C211.974 149.461 211.856 149.179 211.856 148.848C211.856 148.507 211.974 148.224 212.208 148C212.454 147.765 212.763 147.648 213.136 147.648C213.51 147.648 213.814 147.76 214.048 147.984C214.294 148.197 214.416 148.469 214.416 148.8C214.416 149.152 214.299 149.451 214.064 149.696C213.83 149.931 213.52 150.048 213.136 150.048ZM219.025 160L215.361 151.456H217.441L220.593 158.992H219.569L222.833 151.456H224.753L221.089 160H219.025ZM229.785 160.112C228.836 160.112 228.004 159.925 227.289 159.552C226.585 159.168 226.036 158.645 225.641 157.984C225.257 157.323 225.065 156.571 225.065 155.728C225.065 154.875 225.252 154.123 225.625 153.472C226.009 152.811 226.532 152.293 227.193 151.92C227.865 151.547 228.628 151.36 229.481 151.36C230.313 151.36 231.054 151.541 231.705 151.904C232.356 152.267 232.868 152.779 233.241 153.44C233.614 154.101 233.801 154.88 233.801 155.776C233.801 155.861 233.796 155.957 233.785 156.064C233.785 156.171 233.78 156.272 233.769 156.368H226.649V155.04H232.713L231.929 155.456C231.94 154.965 231.838 154.533 231.625 154.16C231.412 153.787 231.118 153.493 230.745 153.28C230.382 153.067 229.961 152.96 229.481 152.96C228.99 152.96 228.558 153.067 228.185 153.28C227.822 153.493 227.534 153.792 227.321 154.176C227.118 154.549 227.017 154.992 227.017 155.504V155.824C227.017 156.336 227.134 156.789 227.369 157.184C227.604 157.579 227.934 157.883 228.361 158.096C228.788 158.309 229.278 158.416 229.833 158.416C230.313 158.416 230.745 158.341 231.129 158.192C231.513 158.043 231.854 157.808 232.153 157.488L233.225 158.72C232.841 159.168 232.356 159.515 231.769 159.76C231.193 159.995 230.532 160.112 229.785 160.112Z" fill="black"/>
<path d="M19.8549 140L16.1429 128.8H18.3029L21.6149 138.928H20.5429L23.9829 128.8H25.9029L29.2469 138.928H28.2069L31.5989 128.8H33.5829L29.8709 140H27.6629L24.6069 130.864H25.1829L22.0789 140H19.8549ZM38.4608 140.112C37.5115 140.112 36.6795 139.925 35.9648 139.552C35.2608 139.168 34.7115 138.645 34.3168 137.984C33.9328 137.323 33.7408 136.571 33.7408 135.728C33.7408 134.875 33.9275 134.123 34.3008 133.472C34.6848 132.811 35.2075 132.293 35.8688 131.92C36.5408 131.547 37.3035 131.36 38.1568 131.36C38.9888 131.36 39.7301 131.541 40.3808 131.904C41.0315 132.267 41.5435 132.779 41.9168 133.44C42.2901 134.101 42.4768 134.88 42.4768 135.776C42.4768 135.861 42.4715 135.957 42.4608 136.064C42.4608 136.171 42.4555 136.272 42.4448 136.368H35.3248V135.04H41.3888L40.6048 135.456C40.6155 134.965 40.5141 134.533 40.3008 134.16C40.0875 133.787 39.7941 133.493 39.4208 133.28C39.0581 133.067 38.6368 132.96 38.1568 132.96C37.6661 132.96 37.2341 133.067 36.8608 133.28C36.4981 133.493 36.2101 133.792 35.9968 134.176C35.7941 134.549 35.6928 134.992 35.6928 135.504V135.824C35.6928 136.336 35.8101 136.789 36.0448 137.184C36.2795 137.579 36.6101 137.883 37.0368 138.096C37.4635 138.309 37.9541 138.416 38.5088 138.416C38.9888 138.416 39.4208 138.341 39.8048 138.192C40.1888 138.043 40.5301 137.808 40.8288 137.488L41.9008 138.72C41.5168 139.168 41.0315 139.515 40.4448 139.76C39.8688 139.995 39.2075 140.112 38.4608 140.112ZM48.4139 140.112C47.4646 140.112 46.6326 139.925 45.9179 139.552C45.2139 139.168 44.6646 138.645 44.2699 137.984C43.8859 137.323 43.6939 136.571 43.6939 135.728C43.6939 134.875 43.8806 134.123 44.2539 133.472C44.6379 132.811 45.1606 132.293 45.8219 131.92C46.4939 131.547 47.2566 131.36 48.1099 131.36C48.9419 131.36 49.6833 131.541 50.3339 131.904C50.9846 132.267 51.4966 132.779 51.8699 133.44C52.2433 134.101 52.4299 134.88 52.4299 135.776C52.4299 135.861 52.4246 135.957 52.4139 136.064C52.4139 136.171 52.4086 136.272 52.3979 136.368H45.2779V135.04H51.3419L50.5579 135.456C50.5686 134.965 50.4673 134.533 50.2539 134.16C50.0406 133.787 49.7473 133.493 49.3739 133.28C49.0113 133.067 48.5899 132.96 48.1099 132.96C47.6193 132.96 47.1873 133.067 46.8139 133.28C46.4513 133.493 46.1633 133.792 45.9499 134.176C45.7473 134.549 45.6459 134.992 45.6459 135.504V135.824C45.6459 136.336 45.7633 136.789 45.9979 137.184C46.2326 137.579 46.5633 137.883 46.9899 138.096C47.4166 138.309 47.9073 138.416 48.4619 138.416C48.9419 138.416 49.3739 138.341 49.7579 138.192C50.1419 138.043 50.4833 137.808 50.7819 137.488L51.8539 138.72C51.4699 139.168 50.9846 139.515 50.3979 139.76C49.8219 139.995 49.1606 140.112 48.4139 140.112ZM55.9831 138.096L56.0311 135.584L60.4951 131.456H62.8951L59.1031 135.264L58.0471 136.144L55.9831 138.096ZM54.3511 140V128.128H56.3511V140H54.3511ZM60.7991 140L57.6791 136.144L58.9431 134.544L63.2311 140H60.7991ZM64.5229 140V128.128H66.5229V140H64.5229ZM69.8519 143.216C69.4359 143.216 69.0199 143.147 68.6039 143.008C68.1879 142.869 67.8413 142.677 67.5639 142.432L68.3639 140.96C68.5666 141.141 68.7959 141.285 69.0519 141.392C69.3079 141.499 69.5693 141.552 69.8359 141.552C70.1986 141.552 70.4919 141.461 70.7159 141.28C70.9399 141.099 71.1479 140.795 71.3399 140.368L71.8359 139.248L71.9959 139.008L75.2279 131.456H77.1479L73.1479 140.688C72.8813 141.328 72.5826 141.835 72.2519 142.208C71.9319 142.581 71.5693 142.843 71.1639 142.992C70.7693 143.141 70.3319 143.216 69.8519 143.216ZM71.6119 140.304L67.7559 131.456H69.8359L72.9719 138.832L71.6119 140.304ZM15.9806 160V148.8H20.5886C21.5806 148.8 22.4286 148.96 23.1326 149.28C23.8472 149.6 24.3966 150.059 24.7806 150.656C25.1646 151.253 25.3566 151.963 25.3566 152.784C25.3566 153.605 25.1646 154.315 24.7806 154.912C24.3966 155.509 23.8472 155.968 23.1326 156.288C22.4286 156.608 21.5806 156.768 20.5886 156.768H17.1326L18.0606 155.792V160H15.9806ZM18.0606 156.016L17.1326 155.008H20.4926C21.4099 155.008 22.0979 154.816 22.5566 154.432C23.0259 154.037 23.2606 153.488 23.2606 152.784C23.2606 152.069 23.0259 151.52 22.5566 151.136C22.0979 150.752 21.4099 150.56 20.4926 150.56H17.1326L18.0606 149.536V156.016ZM27.1636 160V151.456H29.0676V153.808L28.8436 153.12C29.0996 152.544 29.4996 152.107 30.0436 151.808C30.5982 151.509 31.2862 151.36 32.1076 151.36V153.264C32.0222 153.243 31.9422 153.232 31.8676 153.232C31.7929 153.221 31.7182 153.216 31.6436 153.216C30.8862 153.216 30.2836 153.44 29.8356 153.888C29.3876 154.325 29.1636 154.981 29.1636 155.856V160H27.1636ZM37.5661 160.112C36.6914 160.112 35.9127 159.925 35.2301 159.552C34.5474 159.168 34.0087 158.645 33.6141 157.984C33.2194 157.323 33.0221 156.571 33.0221 155.728C33.0221 154.875 33.2194 154.123 33.6141 153.472C34.0087 152.811 34.5474 152.293 35.2301 151.92C35.9127 151.547 36.6914 151.36 37.5661 151.36C38.4514 151.36 39.2354 151.547 39.9181 151.92C40.6114 152.293 41.1501 152.805 41.5341 153.456C41.9287 154.107 42.1261 154.864 42.1261 155.728C42.1261 156.571 41.9287 157.323 41.5341 157.984C41.1501 158.645 40.6114 159.168 39.9181 159.552C39.2354 159.925 38.4514 160.112 37.5661 160.112ZM37.5661 158.4C38.0567 158.4 38.4941 158.293 38.8781 158.08C39.2621 157.867 39.5607 157.557 39.7741 157.152C39.9981 156.747 40.1101 156.272 40.1101 155.728C40.1101 155.173 39.9981 154.699 39.7741 154.304C39.5607 153.899 39.2621 153.589 38.8781 153.376C38.4941 153.163 38.0621 153.056 37.5821 153.056C37.0914 153.056 36.6541 153.163 36.2701 153.376C35.8967 153.589 35.5981 153.899 35.3741 154.304C35.1501 154.699 35.0381 155.173 35.0381 155.728C35.0381 156.272 35.1501 156.747 35.3741 157.152C35.5981 157.557 35.8967 157.867 36.2701 158.08C36.6541 158.293 37.0861 158.4 37.5661 158.4ZM47.9586 160.112C47.0626 160.112 46.2626 159.925 45.5586 159.552C44.8652 159.168 44.3212 158.645 43.9266 157.984C43.5319 157.323 43.3346 156.571 43.3346 155.728C43.3346 154.875 43.5319 154.123 43.9266 153.472C44.3212 152.811 44.8652 152.293 45.5586 151.92C46.2626 151.547 47.0626 151.36 47.9586 151.36C48.7906 151.36 49.5212 151.531 50.1506 151.872C50.7906 152.203 51.2759 152.693 51.6066 153.344L50.0706 154.24C49.8146 153.835 49.4999 153.536 49.1266 153.344C48.7639 153.152 48.3692 153.056 47.9426 153.056C47.4519 153.056 47.0092 153.163 46.6146 153.376C46.2199 153.589 45.9106 153.899 45.6866 154.304C45.4626 154.699 45.3506 155.173 45.3506 155.728C45.3506 156.283 45.4626 156.763 45.6866 157.168C45.9106 157.563 46.2199 157.867 46.6146 158.08C47.0092 158.293 47.4519 158.4 47.9426 158.4C48.3692 158.4 48.7639 158.304 49.1266 158.112C49.4999 157.92 49.8146 157.621 50.0706 157.216L51.6066 158.112C51.2759 158.752 50.7906 159.248 50.1506 159.6C49.5212 159.941 48.7906 160.112 47.9586 160.112ZM57.2264 160.112C56.2771 160.112 55.4451 159.925 54.7304 159.552C54.0264 159.168 53.4771 158.645 53.0824 157.984C52.6984 157.323 52.5064 156.571 52.5064 155.728C52.5064 154.875 52.6931 154.123 53.0664 153.472C53.4504 152.811 53.9731 152.293 54.6344 151.92C55.3064 151.547 56.0691 151.36 56.9224 151.36C57.7544 151.36 58.4958 151.541 59.1464 151.904C59.7971 152.267 60.3091 152.779 60.6824 153.44C61.0558 154.101 61.2424 154.88 61.2424 155.776C61.2424 155.861 61.2371 155.957 61.2264 156.064C61.2264 156.171 61.2211 156.272 61.2104 156.368H54.0904V155.04H60.1544L59.3704 155.456C59.3811 154.965 59.2798 154.533 59.0664 154.16C58.8531 153.787 58.5598 153.493 58.1864 153.28C57.8238 153.067 57.4024 152.96 56.9224 152.96C56.4318 152.96 55.9998 153.067 55.6264 153.28C55.2638 153.493 54.9758 153.792 54.7624 154.176C54.5598 154.549 54.4584 154.992 54.4584 155.504V155.824C54.4584 156.336 54.5758 156.789 54.8104 157.184C55.0451 157.579 55.3758 157.883 55.8024 158.096C56.2291 158.309 56.7198 158.416 57.2744 158.416C57.7544 158.416 58.1864 158.341 58.5704 158.192C58.9544 158.043 59.2958 157.808 59.5944 157.488L60.6664 158.72C60.2824 159.168 59.7971 159.515 59.2104 159.76C58.6344 159.995 57.9731 160.112 57.2264 160.112ZM65.8036 160.112C65.0889 160.112 64.4009 160.021 63.7396 159.84C63.0889 159.648 62.5716 159.419 62.1876 159.152L62.9556 157.632C63.3396 157.877 63.7982 158.08 64.3316 158.24C64.8649 158.4 65.3982 158.48 65.9316 158.48C66.5609 158.48 67.0142 158.395 67.2916 158.224C67.5796 158.053 67.7236 157.824 67.7236 157.536C67.7236 157.301 67.6276 157.125 67.4356 157.008C67.2436 156.88 66.9929 156.784 66.6836 156.72C66.3742 156.656 66.0276 156.597 65.6436 156.544C65.2702 156.491 64.8916 156.421 64.5076 156.336C64.1342 156.24 63.7929 156.107 63.4836 155.936C63.1742 155.755 62.9236 155.515 62.7316 155.216C62.5396 154.917 62.4436 154.523 62.4436 154.032C62.4436 153.488 62.5982 153.019 62.9076 152.624C63.2169 152.219 63.6489 151.909 64.2036 151.696C64.7689 151.472 65.4356 151.36 66.2036 151.36C66.7796 151.36 67.3609 151.424 67.9476 151.552C68.5342 151.68 69.0196 151.861 69.4036 152.096L68.6356 153.616C68.2302 153.371 67.8196 153.205 67.4036 153.12C66.9982 153.024 66.5929 152.976 66.1876 152.976C65.5796 152.976 65.1262 153.067 64.8276 153.248C64.5396 153.429 64.3956 153.659 64.3956 153.936C64.3956 154.192 64.4916 154.384 64.6836 154.512C64.8756 154.64 65.1262 154.741 65.4356 154.816C65.7449 154.891 66.0862 154.955 66.4596 155.008C66.8436 155.051 67.2222 155.12 67.5956 155.216C67.9689 155.312 68.3102 155.445 68.6196 155.616C68.9396 155.776 69.1956 156.005 69.3876 156.304C69.5796 156.603 69.6756 156.992 69.6756 157.472C69.6756 158.005 69.5156 158.469 69.1956 158.864C68.8862 159.259 68.4436 159.568 67.8676 159.792C67.2916 160.005 66.6036 160.112 65.8036 160.112ZM74.0379 160.112C73.3233 160.112 72.6353 160.021 71.9739 159.84C71.3233 159.648 70.8059 159.419 70.4219 159.152L71.1899 157.632C71.5739 157.877 72.0326 158.08 72.5659 158.24C73.0993 158.4 73.6326 158.48 74.1659 158.48C74.7953 158.48 75.2486 158.395 75.5259 158.224C75.8139 158.053 75.9579 157.824 75.9579 157.536C75.9579 157.301 75.8619 157.125 75.6699 157.008C75.4779 156.88 75.2273 156.784 74.9179 156.72C74.6086 156.656 74.2619 156.597 73.8779 156.544C73.5046 156.491 73.1259 156.421 72.7419 156.336C72.3686 156.24 72.0273 156.107 71.7179 155.936C71.4086 155.755 71.1579 155.515 70.9659 155.216C70.7739 154.917 70.6779 154.523 70.6779 154.032C70.6779 153.488 70.8326 153.019 71.1419 152.624C71.4513 152.219 71.8833 151.909 72.4379 151.696C73.0033 151.472 73.6699 151.36 74.4379 151.36C75.0139 151.36 75.5953 151.424 76.1819 151.552C76.7686 151.68 77.2539 151.861 77.6379 152.096L76.8699 153.616C76.4646 153.371 76.0539 153.205 75.6379 153.12C75.2326 153.024 74.8273 152.976 74.4219 152.976C73.8139 152.976 73.3606 153.067 73.0619 153.248C72.7739 153.429 72.6299 153.659 72.6299 153.936C72.6299 154.192 72.7259 154.384 72.9179 154.512C73.1099 154.64 73.3606 154.741 73.6699 154.816C73.9793 154.891 74.3206 154.955 74.6939 155.008C75.0779 155.051 75.4566 155.12 75.8299 155.216C76.2033 155.312 76.5446 155.445 76.8539 155.616C77.1739 155.776 77.4299 156.005 77.6219 156.304C77.8139 156.603 77.9099 156.992 77.9099 157.472C77.9099 158.005 77.7499 158.469 77.4299 158.864C77.1206 159.259 76.6779 159.568 76.1019 159.792C75.5259 160.005 74.8379 160.112 74.0379 160.112Z" fill="black"/>
<path d="M8.94694 75.16C8.07227 75.16 7.26694 75.0213 6.53094 74.744C5.8056 74.456 5.17094 74.056 4.62694 73.544C4.08294 73.0213 3.6616 72.408 3.36294 71.704C3.06427 71 2.91494 70.232 2.91494 69.4C2.91494 68.568 3.06427 67.8 3.36294 67.096C3.6616 66.392 4.08294 65.784 4.62694 65.272C5.1816 64.7493 5.82694 64.3493 6.56294 64.072C7.29894 63.784 8.10427 63.64 8.97894 63.64C9.92827 63.64 10.7816 63.7947 11.5389 64.104C12.3069 64.4133 12.9523 64.8667 13.4749 65.464L12.1629 66.744C11.7256 66.3067 11.2509 65.9867 10.7389 65.784C10.2376 65.5707 9.68294 65.464 9.07494 65.464C8.48827 65.464 7.94427 65.56 7.44294 65.752C6.9416 65.944 6.5096 66.216 6.14694 66.568C5.78427 66.92 5.5016 67.336 5.29894 67.816C5.10694 68.296 5.01094 68.824 5.01094 69.4C5.01094 69.9653 5.10694 70.488 5.29894 70.968C5.5016 71.448 5.78427 71.8693 6.14694 72.232C6.5096 72.584 6.93627 72.856 7.42694 73.048C7.9176 73.24 8.4616 73.336 9.05894 73.336C9.6136 73.336 10.1469 73.2507 10.6589 73.08C11.1816 72.8987 11.6776 72.6 12.1469 72.184L13.3309 73.736C12.7443 74.2053 12.0616 74.5627 11.2829 74.808C10.5149 75.0427 9.73627 75.16 8.94694 75.16ZM11.3629 73.464V69.272H13.3309V73.736L11.3629 73.464ZM15.8823 75V66.456H17.8823V75H15.8823ZM16.8903 65.048C16.517 65.048 16.2076 64.9307 15.9623 64.696C15.7276 64.4613 15.6103 64.1787 15.6103 63.848C15.6103 63.5067 15.7276 63.224 15.9623 63C16.2076 62.7653 16.517 62.648 16.8903 62.648C17.2636 62.648 17.5676 62.76 17.8023 62.984C18.0476 63.1973 18.1703 63.4693 18.1703 63.8C18.1703 64.152 18.053 64.4507 17.8183 64.696C17.5836 64.9307 17.2743 65.048 16.8903 65.048ZM23.7233 75.112C22.7846 75.112 22.0593 74.872 21.5473 74.392C21.0353 73.9013 20.7793 73.1813 20.7793 72.232V64.568H22.7793V72.184C22.7793 72.5893 22.8806 72.904 23.0833 73.128C23.2966 73.352 23.59 73.464 23.9633 73.464C24.4113 73.464 24.7846 73.3467 25.0833 73.112L25.6433 74.536C25.4086 74.728 25.1206 74.872 24.7793 74.968C24.438 75.064 24.086 75.112 23.7233 75.112ZM19.3713 68.12V66.52H25.0673V68.12H19.3713ZM35.3526 63.8H37.4326V75H35.3526V63.8ZM29.5606 75H27.4806V63.8H29.5606V75ZM35.5126 70.2H29.3846V68.424H35.5126V70.2ZM43.8577 75.112C43.1324 75.112 42.4924 74.9787 41.9377 74.712C41.383 74.4347 40.951 74.0187 40.6417 73.464C40.3324 72.8987 40.1777 72.1893 40.1777 71.336V66.456H42.1777V71.064C42.1777 71.832 42.3484 72.408 42.6897 72.792C43.0417 73.1653 43.5377 73.352 44.1777 73.352C44.647 73.352 45.0524 73.256 45.3937 73.064C45.7457 72.872 46.0177 72.584 46.2097 72.2C46.4124 71.816 46.5137 71.3413 46.5137 70.776V66.456H48.5137V75H46.6097V72.696L46.9457 73.4C46.6577 73.9547 46.2364 74.3813 45.6817 74.68C45.127 74.968 44.519 75.112 43.8577 75.112ZM55.8683 75.112C55.143 75.112 54.4976 74.952 53.9323 74.632C53.367 74.312 52.919 73.832 52.5883 73.192C52.2683 72.5413 52.1083 71.72 52.1083 70.728C52.1083 69.7253 52.2736 68.904 52.6043 68.264C52.9456 67.624 53.399 67.1493 53.9643 66.84C54.5403 66.52 55.175 66.36 55.8683 66.36C56.711 66.36 57.4523 66.5413 58.0923 66.904C58.743 67.2667 59.255 67.7733 59.6283 68.424C60.0123 69.0747 60.2043 69.8427 60.2043 70.728C60.2043 71.6133 60.0123 72.3813 59.6283 73.032C59.255 73.6827 58.743 74.1947 58.0923 74.568C57.4523 74.9307 56.711 75.112 55.8683 75.112ZM51.1323 75V63.128H53.1323V68.44L52.9723 70.712L53.0363 72.984V75H51.1323ZM55.6443 73.4C56.1243 73.4 56.551 73.2933 56.9243 73.08C57.3083 72.8667 57.6123 72.5573 57.8363 72.152C58.0603 71.7467 58.1723 71.272 58.1723 70.728C58.1723 70.1733 58.0603 69.6987 57.8363 69.304C57.6123 68.8987 57.3083 68.5893 56.9243 68.376C56.551 68.1627 56.1243 68.056 55.6443 68.056C55.1643 68.056 54.7323 68.1627 54.3483 68.376C53.9643 68.5893 53.6603 68.8987 53.4363 69.304C53.2123 69.6987 53.1003 70.1733 53.1003 70.728C53.1003 71.272 53.2123 71.7467 53.4363 72.152C53.6603 72.5573 53.9643 72.8667 54.3483 73.08C54.7323 73.2933 55.1643 73.4 55.6443 73.4ZM0.310625 95L5.35063 83.8H7.39863L12.4546 95H10.2786L5.94263 84.904H6.77463L2.45463 95H0.310625ZM2.63063 92.408L3.19063 90.776H9.23863L9.79862 92.408H2.63063ZM17.5289 95.112C16.6329 95.112 15.8329 94.9253 15.1289 94.552C14.4355 94.168 13.8915 93.6453 13.4969 92.984C13.1022 92.3227 12.9049 91.5707 12.9049 90.728C12.9049 89.8747 13.1022 89.1227 13.4969 88.472C13.8915 87.8107 14.4355 87.2933 15.1289 86.92C15.8329 86.5467 16.6329 86.36 17.5289 86.36C18.3609 86.36 19.0915 86.5307 19.7209 86.872C20.3609 87.2027 20.8462 87.6933 21.1769 88.344L19.6409 89.24C19.3849 88.8347 19.0702 88.536 18.6969 88.344C18.3342 88.152 17.9395 88.056 17.5129 88.056C17.0222 88.056 16.5795 88.1627 16.1849 88.376C15.7902 88.5893 15.4809 88.8987 15.2569 89.304C15.0329 89.6987 14.9209 90.1733 14.9209 90.728C14.9209 91.2827 15.0329 91.7627 15.2569 92.168C15.4809 92.5627 15.7902 92.8667 16.1849 93.08C16.5795 93.2933 17.0222 93.4 17.5129 93.4C17.9395 93.4 18.3342 93.304 18.6969 93.112C19.0702 92.92 19.3849 92.6213 19.6409 92.216L21.1769 93.112C20.8462 93.752 20.3609 94.248 19.7209 94.6C19.0915 94.9413 18.3609 95.112 17.5289 95.112ZM26.2311 95.112C25.2925 95.112 24.5671 94.872 24.0551 94.392C23.5431 93.9013 23.2871 93.1813 23.2871 92.232V84.568H25.2871V92.184C25.2871 92.5893 25.3885 92.904 25.5911 93.128C25.8045 93.352 26.0978 93.464 26.4711 93.464C26.9191 93.464 27.2925 93.3467 27.5911 93.112L28.1511 94.536C27.9165 94.728 27.6285 94.872 27.2871 94.968C26.9458 95.064 26.5938 95.112 26.2311 95.112ZM21.8791 88.12V86.52H27.5751V88.12H21.8791ZM29.7964 95V86.456H31.7964V95H29.7964ZM30.8044 85.048C30.431 85.048 30.1217 84.9307 29.8764 84.696C29.6417 84.4613 29.5244 84.1787 29.5244 83.848C29.5244 83.5067 29.6417 83.224 29.8764 83C30.1217 82.7653 30.431 82.648 30.8044 82.648C31.1777 82.648 31.4817 82.76 31.7164 82.984C31.9617 83.1973 32.0844 83.4693 32.0844 83.8C32.0844 84.152 31.967 84.4507 31.7324 84.696C31.4977 84.9307 31.1884 85.048 30.8044 85.048ZM38.2614 95.112C37.3867 95.112 36.608 94.9253 35.9254 94.552C35.2427 94.168 34.704 93.6453 34.3094 92.984C33.9147 92.3227 33.7174 91.5707 33.7174 90.728C33.7174 89.8747 33.9147 89.1227 34.3094 88.472C34.704 87.8107 35.2427 87.2933 35.9254 86.92C36.608 86.5467 37.3867 86.36 38.2614 86.36C39.1467 86.36 39.9307 86.5467 40.6134 86.92C41.3067 87.2933 41.8454 87.8053 42.2294 88.456C42.624 89.1067 42.8214 89.864 42.8214 90.728C42.8214 91.5707 42.624 92.3227 42.2294 92.984C41.8454 93.6453 41.3067 94.168 40.6134 94.552C39.9307 94.9253 39.1467 95.112 38.2614 95.112ZM38.2614 93.4C38.752 93.4 39.1894 93.2933 39.5734 93.08C39.9574 92.8667 40.256 92.5573 40.4694 92.152C40.6934 91.7467 40.8054 91.272 40.8054 90.728C40.8054 90.1733 40.6934 89.6987 40.4694 89.304C40.256 88.8987 39.9574 88.5893 39.5734 88.376C39.1894 88.1627 38.7574 88.056 38.2774 88.056C37.7867 88.056 37.3494 88.1627 36.9654 88.376C36.592 88.5893 36.2934 88.8987 36.0694 89.304C35.8454 89.6987 35.7334 90.1733 35.7334 90.728C35.7334 91.272 35.8454 91.7467 36.0694 92.152C36.2934 92.5573 36.592 92.8667 36.9654 93.08C37.3494 93.2933 37.7814 93.4 38.2614 93.4ZM49.5819 86.36C50.2645 86.36 50.8725 86.4933 51.4059 86.76C51.9499 87.0267 52.3765 87.4373 52.6859 87.992C52.9952 88.536 53.1499 89.24 53.1499 90.104V95H51.1499V90.36C51.1499 89.6027 50.9685 89.0373 50.6059 88.664C50.2539 88.2907 49.7579 88.104 49.1179 88.104C48.6485 88.104 48.2325 88.2 47.8699 88.392C47.5072 88.584 47.2245 88.872 47.0219 89.256C46.8299 89.6293 46.7339 90.104 46.7339 90.68V95H44.7339V86.456H46.6379V88.76L46.3019 88.056C46.6005 87.512 47.0325 87.096 47.5979 86.808C48.1739 86.5093 48.8352 86.36 49.5819 86.36ZM58.327 95.112C57.6123 95.112 56.9243 95.0213 56.263 94.84C55.6123 94.648 55.095 94.4187 54.711 94.152L55.479 92.632C55.863 92.8773 56.3217 93.08 56.855 93.24C57.3883 93.4 57.9217 93.48 58.455 93.48C59.0843 93.48 59.5377 93.3947 59.815 93.224C60.103 93.0533 60.247 92.824 60.247 92.536C60.247 92.3013 60.151 92.1253 59.959 92.008C59.767 91.88 59.5163 91.784 59.207 91.72C58.8977 91.656 58.551 91.5973 58.167 91.544C57.7937 91.4907 57.415 91.4213 57.031 91.336C56.6577 91.24 56.3163 91.1067 56.007 90.936C55.6977 90.7547 55.447 90.5147 55.255 90.216C55.063 89.9173 54.967 89.5227 54.967 89.032C54.967 88.488 55.1217 88.0187 55.431 87.624C55.7403 87.2187 56.1723 86.9093 56.727 86.696C57.2923 86.472 57.959 86.36 58.727 86.36C59.303 86.36 59.8843 86.424 60.471 86.552C61.0577 86.68 61.543 86.8613 61.927 87.096L61.159 88.616C60.7537 88.3707 60.343 88.2053 59.927 88.12C59.5217 88.024 59.1163 87.976 58.711 87.976C58.103 87.976 57.6497 88.0667 57.351 88.248C57.063 88.4293 56.919 88.6587 56.919 88.936C56.919 89.192 57.015 89.384 57.207 89.512C57.399 89.64 57.6497 89.7413 57.959 89.816C58.2683 89.8907 58.6097 89.9547 58.983 90.008C59.367 90.0507 59.7457 90.12 60.119 90.216C60.4923 90.312 60.8337 90.4453 61.143 90.616C61.463 90.776 61.719 91.0053 61.911 91.304C62.103 91.6027 62.199 91.992 62.199 92.472C62.199 93.0053 62.039 93.4693 61.719 93.864C61.4097 94.2587 60.967 94.568 60.391 94.792C59.815 95.0053 59.127 95.112 58.327 95.112Z" fill="black"/>
<path d="M17.1134 19V7.8H22.0094C23.2254 7.8 24.292 8.03467 25.2094 8.504C26.1267 8.97333 26.8414 9.624 27.3534 10.456C27.8654 11.288 28.1214 12.2693 28.1214 13.4C28.1214 14.52 27.8654 15.5013 27.3534 16.344C26.8414 17.176 26.1267 17.8267 25.2094 18.296C24.292 18.7653 23.2254 19 22.0094 19H17.1134ZM19.1934 17.24H21.9134C22.756 17.24 23.4814 17.08 24.0894 16.76C24.708 16.44 25.1827 15.992 25.5134 15.416C25.8547 14.84 26.0254 14.168 26.0254 13.4C26.0254 12.6213 25.8547 11.9493 25.5134 11.384C25.1827 10.808 24.708 10.36 24.0894 10.04C23.4814 9.72 22.756 9.56 21.9134 9.56H19.1934V17.24ZM35.4041 19V17.272L35.2921 16.904V13.88C35.2921 13.2933 35.1161 12.84 34.7641 12.52C34.4121 12.1893 33.8788 12.024 33.1641 12.024C32.6841 12.024 32.2095 12.0987 31.7401 12.248C31.2815 12.3973 30.8921 12.6053 30.5721 12.872L29.7881 11.416C30.2468 11.064 30.7908 10.8027 31.4201 10.632C32.0601 10.4507 32.7215 10.36 33.4041 10.36C34.6415 10.36 35.5961 10.6587 36.2681 11.256C36.9508 11.8427 37.2921 12.7547 37.2921 13.992V19H35.4041ZM32.7161 19.112C32.0761 19.112 31.5161 19.0053 31.0361 18.792C30.5561 18.568 30.1828 18.264 29.9161 17.88C29.6601 17.4853 29.5321 17.0427 29.5321 16.552C29.5321 16.072 29.6441 15.64 29.8681 15.256C30.1028 14.872 30.4815 14.568 31.0041 14.344C31.5268 14.12 32.2201 14.008 33.0841 14.008H35.5641V15.336H33.2281C32.5455 15.336 32.0868 15.448 31.8521 15.672C31.6175 15.8853 31.5001 16.152 31.5001 16.472C31.5001 16.8347 31.6441 17.1227 31.9321 17.336C32.2201 17.5493 32.6201 17.656 33.1321 17.656C33.6228 17.656 34.0601 17.544 34.4441 17.32C34.8388 17.096 35.1215 16.7653 35.2921 16.328L35.6281 17.528C35.4361 18.0293 35.0895 18.4187 34.5881 18.696C34.0975 18.9733 33.4735 19.112 32.7161 19.112ZM42.4989 19.112C41.7842 19.112 41.0962 19.0213 40.4349 18.84C39.7842 18.648 39.2669 18.4187 38.8829 18.152L39.6509 16.632C40.0349 16.8773 40.4935 17.08 41.0269 17.24C41.5602 17.4 42.0935 17.48 42.6269 17.48C43.2562 17.48 43.7095 17.3947 43.9869 17.224C44.2749 17.0533 44.4189 16.824 44.4189 16.536C44.4189 16.3013 44.3229 16.1253 44.1309 16.008C43.9389 15.88 43.6882 15.784 43.3789 15.72C43.0695 15.656 42.7229 15.5973 42.3389 15.544C41.9655 15.4907 41.5869 15.4213 41.2029 15.336C40.8295 15.24 40.4882 15.1067 40.1789 14.936C39.8695 14.7547 39.6189 14.5147 39.4269 14.216C39.2349 13.9173 39.1389 13.5227 39.1389 13.032C39.1389 12.488 39.2935 12.0187 39.6029 11.624C39.9122 11.2187 40.3442 10.9093 40.8989 10.696C41.4642 10.472 42.1309 10.36 42.8989 10.36C43.4749 10.36 44.0562 10.424 44.6429 10.552C45.2295 10.68 45.7149 10.8613 46.0989 11.096L45.3309 12.616C44.9255 12.3707 44.5149 12.2053 44.0989 12.12C43.6935 12.024 43.2882 11.976 42.8829 11.976C42.2749 11.976 41.8215 12.0667 41.5229 12.248C41.2349 12.4293 41.0909 12.6587 41.0909 12.936C41.0909 13.192 41.1869 13.384 41.3789 13.512C41.5709 13.64 41.8215 13.7413 42.1309 13.816C42.4402 13.8907 42.7815 13.9547 43.1549 14.008C43.5389 14.0507 43.9175 14.12 44.2909 14.216C44.6642 14.312 45.0055 14.4453 45.3149 14.616C45.6349 14.776 45.8909 15.0053 46.0829 15.304C46.2749 15.6027 46.3709 15.992 46.3709 16.472C46.3709 17.0053 46.2109 17.4693 45.8909 17.864C45.5815 18.2587 45.1389 18.568 44.5629 18.792C43.9869 19.0053 43.2989 19.112 42.4989 19.112ZM52.9413 10.36C53.6239 10.36 54.2319 10.4933 54.7653 10.76C55.3093 11.0267 55.7359 11.4373 56.0453 11.992C56.3546 12.536 56.5093 13.24 56.5093 14.104V19H54.5093V14.36C54.5093 13.6027 54.3279 13.0373 53.9653 12.664C53.6133 12.2907 53.1173 12.104 52.4773 12.104C52.0079 12.104 51.5919 12.2 51.2293 12.392C50.8666 12.584 50.5839 12.872 50.3813 13.256C50.1893 13.6293 50.0933 14.104 50.0933 14.68V19H48.0933V7.128H50.0933V12.76L49.6613 12.056C49.9599 11.512 50.3919 11.096 50.9573 10.808C51.5333 10.5093 52.1946 10.36 52.9413 10.36ZM63.7824 19.112C63.057 19.112 62.4117 18.952 61.8464 18.632C61.281 18.312 60.833 17.832 60.5024 17.192C60.1824 16.5413 60.0224 15.72 60.0224 14.728C60.0224 13.7253 60.1877 12.904 60.5184 12.264C60.8597 11.624 61.313 11.1493 61.8784 10.84C62.4544 10.52 63.089 10.36 63.7824 10.36C64.625 10.36 65.3664 10.5413 66.0064 10.904C66.657 11.2667 67.169 11.7733 67.5424 12.424C67.9264 13.0747 68.1184 13.8427 68.1184 14.728C68.1184 15.6133 67.9264 16.3813 67.5424 17.032C67.169 17.6827 66.657 18.1947 66.0064 18.568C65.3664 18.9307 64.625 19.112 63.7824 19.112ZM59.0464 19V7.128H61.0464V12.44L60.8864 14.712L60.9504 16.984V19H59.0464ZM63.5584 17.4C64.0384 17.4 64.465 17.2933 64.8384 17.08C65.2224 16.8667 65.5264 16.5573 65.7504 16.152C65.9744 15.7467 66.0864 15.272 66.0864 14.728C66.0864 14.1733 65.9744 13.6987 65.7504 13.304C65.5264 12.8987 65.2224 12.5893 64.8384 12.376C64.465 12.1627 64.0384 12.056 63.5584 12.056C63.0784 12.056 62.6464 12.1627 62.2624 12.376C61.8784 12.5893 61.5744 12.8987 61.3504 13.304C61.1264 13.6987 61.0144 14.1733 61.0144 14.728C61.0144 15.272 61.1264 15.7467 61.3504 16.152C61.5744 16.5573 61.8784 16.8667 62.2624 17.08C62.6464 17.2933 63.0784 17.4 63.5584 17.4ZM73.8551 19.112C72.9805 19.112 72.2018 18.9253 71.5191 18.552C70.8365 18.168 70.2978 17.6453 69.9031 16.984C69.5085 16.3227 69.3111 15.5707 69.3111 14.728C69.3111 13.8747 69.5085 13.1227 69.9031 12.472C70.2978 11.8107 70.8365 11.2933 71.5191 10.92C72.2018 10.5467 72.9805 10.36 73.8551 10.36C74.7405 10.36 75.5245 10.5467 76.2071 10.92C76.9005 11.2933 77.4391 11.8053 77.8231 12.456C78.2178 13.1067 78.4151 13.864 78.4151 14.728C78.4151 15.5707 78.2178 16.3227 77.8231 16.984C77.4391 17.6453 76.9005 18.168 76.2071 18.552C75.5245 18.9253 74.7405 19.112 73.8551 19.112ZM73.8551 17.4C74.3458 17.4 74.7831 17.2933 75.1671 17.08C75.5511 16.8667 75.8498 16.5573 76.0631 16.152C76.2871 15.7467 76.3991 15.272 76.3991 14.728C76.3991 14.1733 76.2871 13.6987 76.0631 13.304C75.8498 12.8987 75.5511 12.5893 75.1671 12.376C74.7831 12.1627 74.3511 12.056 73.8711 12.056C73.3805 12.056 72.9431 12.1627 72.5591 12.376C72.1858 12.5893 71.8871 12.8987 71.6631 13.304C71.4391 13.6987 71.3271 14.1733 71.3271 14.728C71.3271 15.272 71.4391 15.7467 71.6631 16.152C71.8871 16.5573 72.1858 16.8667 72.5591 17.08C72.9431 17.2933 73.3751 17.4 73.8551 17.4ZM85.4823 19V17.272L85.3703 16.904V13.88C85.3703 13.2933 85.1943 12.84 84.8423 12.52C84.4903 12.1893 83.9569 12.024 83.2423 12.024C82.7623 12.024 82.2876 12.0987 81.8183 12.248C81.3596 12.3973 80.9703 12.6053 80.6503 12.872L79.8663 11.416C80.3249 11.064 80.8689 10.8027 81.4983 10.632C82.1383 10.4507 82.7996 10.36 83.4823 10.36C84.7196 10.36 85.6743 10.6587 86.3463 11.256C87.0289 11.8427 87.3703 12.7547 87.3703 13.992V19H85.4823ZM82.7943 19.112C82.1543 19.112 81.5943 19.0053 81.1143 18.792C80.6343 18.568 80.2609 18.264 79.9943 17.88C79.7383 17.4853 79.6103 17.0427 79.6103 16.552C79.6103 16.072 79.7223 15.64 79.9463 15.256C80.1809 14.872 80.5596 14.568 81.0823 14.344C81.6049 14.12 82.2983 14.008 83.1623 14.008H85.6423V15.336H83.3063C82.6236 15.336 82.1649 15.448 81.9303 15.672C81.6956 15.8853 81.5783 16.152 81.5783 16.472C81.5783 16.8347 81.7223 17.1227 82.0103 17.336C82.2983 17.5493 82.6983 17.656 83.2103 17.656C83.7009 17.656 84.1383 17.544 84.5223 17.32C84.9169 17.096 85.1996 16.7653 85.3703 16.328L85.7063 17.528C85.5143 18.0293 85.1676 18.4187 84.6663 18.696C84.1756 18.9733 83.5516 19.112 82.7943 19.112ZM89.937 19V10.456H91.841V12.808L91.617 12.12C91.873 11.544 92.273 11.1067 92.817 10.808C93.3717 10.5093 94.0597 10.36 94.881 10.36V12.264C94.7957 12.2427 94.7157 12.232 94.641 12.232C94.5663 12.2213 94.4917 12.216 94.417 12.216C93.6597 12.216 93.057 12.44 92.609 12.888C92.161 13.3253 91.937 13.9813 91.937 14.856V19H89.937ZM100.116 19.112C99.2942 19.112 98.5528 18.9307 97.8915 18.568C97.2408 18.1947 96.7288 17.6827 96.3555 17.032C95.9822 16.3813 95.7955 15.6133 95.7955 14.728C95.7955 13.8427 95.9822 13.0747 96.3555 12.424C96.7288 11.7733 97.2408 11.2667 97.8915 10.904C98.5528 10.5413 99.2942 10.36 100.116 10.36C100.83 10.36 101.47 10.52 102.036 10.84C102.601 11.1493 103.049 11.624 103.38 12.264C103.71 12.904 103.876 13.7253 103.876 14.728C103.876 15.72 103.716 16.5413 103.396 17.192C103.076 17.832 102.633 18.312 102.068 18.632C101.502 18.952 100.852 19.112 100.116 19.112ZM100.356 17.4C100.836 17.4 101.262 17.2933 101.636 17.08C102.02 16.8667 102.324 16.5573 102.548 16.152C102.782 15.7467 102.9 15.272 102.9 14.728C102.9 14.1733 102.782 13.6987 102.548 13.304C102.324 12.8987 102.02 12.5893 101.636 12.376C101.262 12.1627 100.836 12.056 100.356 12.056C99.8755 12.056 99.4435 12.1627 99.0595 12.376C98.6862 12.5893 98.3822 12.8987 98.1475 13.304C97.9235 13.6987 97.8115 14.1733 97.8115 14.728C97.8115 15.272 97.9235 15.7467 98.1475 16.152C98.3822 16.5573 98.6862 16.8667 99.0595 17.08C99.4435 17.2933 99.8755 17.4 100.356 17.4ZM102.948 19V16.984L103.028 14.712L102.868 12.44V7.128H104.852V19H102.948Z" fill="black"/>
</svg>
