<svg width="156" height="156" viewBox="0 0 156 156" fill="none" xmlns="http://www.w3.org/2000/svg">
<g clip-path="url(#clip0_537_24846)">
<path opacity="0.2" d="M69.5416 73.021L8.91797 38.3789" stroke="#4B5563" stroke-width="1.15474" stroke-linecap="round"/>
<path opacity="0.2" d="M69.5431 84.5703L10.0742 118.635" stroke="#4B5563" stroke-width="1.15474" stroke-linecap="round"/>
<path opacity="0.2" d="M79.9336 90.9219L79.9336 153.855" stroke="#4B5563" stroke-width="1.15474" stroke-linecap="round"/>
<path opacity="0.2" d="M89.75 84.5703L149.796 119.212" stroke="#4B5563" stroke-width="1.15474" stroke-linecap="round"/>
<path opacity="0.2" d="M89.75 73.021L149.796 38.3789" stroke="#4B5563" stroke-width="1.15474" stroke-linecap="round"/>
<path opacity="0.2" d="M79.9336 67.2488L79.9336 3.73828" stroke="#4B5563" stroke-width="1.15474" stroke-linecap="round"/>
<path d="M69.6357 52.5176C69.1743 52.254 68.5859 52.4146 68.3223 52.876C68.0587 53.3374 68.2193 53.9258 68.6807 54.1895L72.6504 56.4561C67.1094 58.0977 62.3056 61.6428 59.1045 66.4902C55.6431 71.7321 54.3176 78.0992 55.3984 84.2871C56.4794 90.4752 59.8852 96.0165 64.9189 99.7744C69.9527 103.532 76.2336 105.223 82.4736 104.5C88.7137 103.777 94.4417 100.696 98.4834 95.8867C102.525 91.0778 104.575 84.905 104.213 78.6338C103.851 72.3626 101.104 66.4672 96.5361 62.1553C92.0577 57.9279 86.1606 55.5356 80.0117 55.4434C79.3163 55.433 78.7539 55.9613 78.6865 56.624L78.6797 56.7578C78.6797 57.4438 79.1995 57.9943 79.8506 58.0693L79.9824 58.0771C85.4695 58.162 90.7319 60.2977 94.7285 64.0703C98.8076 67.9209 101.26 73.186 101.583 78.7861L101.607 79.3105C101.791 84.7294 99.9632 90.0323 96.4668 94.1924C92.8577 98.4865 87.743 101.238 82.1709 101.884C76.5987 102.529 70.9902 101.019 66.4951 97.6631C62.0001 94.3074 58.9585 89.3598 57.9932 83.834C57.0279 78.3082 58.2116 72.6223 61.3027 67.9414C64.0811 63.7342 68.2117 60.6264 72.9844 59.1094L70.8906 63.2959C70.653 63.7712 70.8459 64.3492 71.3213 64.5869C71.7966 64.8244 72.3747 64.6315 72.6123 64.1562L75.7568 57.8672C76.1606 57.0596 75.863 56.0769 75.0791 55.6289L69.6357 52.5176Z" fill="#4B5563"/>
<path d="M46.852 127.069V125.465L52.9999 117.428H55.4769L49.4181 125.465L48.2598 125.109H58.1499V127.069H46.852ZM53.6949 129.902V127.069L53.7661 125.109V122.596H55.9402V129.902H53.6949Z" fill="black"/>
<path d="M123.557 84.8672V83.3168L128.511 78.6124C128.927 78.2203 129.236 77.8758 129.438 77.5788C129.64 77.2818 129.771 77.0086 129.83 76.7591C129.901 76.4977 129.937 76.2542 129.937 76.0285C129.937 75.4582 129.741 75.0187 129.349 74.7098C128.957 74.389 128.381 74.2286 127.62 74.2286C127.014 74.2286 126.462 74.3356 125.963 74.5494C125.476 74.7632 125.054 75.0899 124.698 75.5295L123.076 74.2821C123.563 73.6287 124.217 73.1238 125.036 72.7674C125.868 72.3991 126.795 72.215 127.816 72.215C128.719 72.215 129.503 72.3635 130.169 72.6605C130.846 72.9456 131.362 73.3555 131.719 73.8901C132.087 74.4247 132.271 75.0602 132.271 75.7968C132.271 76.2007 132.218 76.6046 132.111 77.0086C132.004 77.4006 131.802 77.8164 131.505 78.256C131.208 78.6955 130.774 79.1885 130.204 79.735L125.945 83.7802L125.464 82.907H132.752V84.8672H123.557Z" fill="black"/>
<path d="M107.142 126.834C106.263 126.834 105.402 126.71 104.558 126.46C103.726 126.199 103.026 125.842 102.455 125.391L103.453 123.591C103.905 123.959 104.451 124.256 105.093 124.482C105.734 124.708 106.405 124.821 107.106 124.821C107.938 124.821 108.585 124.654 109.049 124.322C109.512 123.977 109.744 123.514 109.744 122.932C109.744 122.362 109.53 121.91 109.102 121.578C108.675 121.245 107.985 121.079 107.035 121.079H105.895V119.493L109.459 115.251L109.762 116.125H103.061V114.182H111.561V115.733L107.997 119.974L106.786 119.261H107.481C109.013 119.261 110.16 119.605 110.92 120.295C111.692 120.972 112.078 121.845 112.078 122.914C112.078 123.615 111.9 124.262 111.544 124.856C111.187 125.45 110.641 125.932 109.904 126.3C109.179 126.656 108.259 126.834 107.142 126.834Z" fill="black"/>
<path d="M26.2347 85.0454C25.3556 85.0454 24.4943 84.9206 23.6508 84.6712C22.8192 84.4098 22.1183 84.0534 21.5481 83.602L22.5282 81.8021C22.9796 82.1704 23.5261 82.4674 24.1676 82.6931C24.821 82.9189 25.4982 83.0317 26.1991 83.0317C27.0188 83.0317 27.6603 82.8595 28.1236 82.5149C28.5988 82.1704 28.8364 81.7071 28.8364 81.125C28.8364 80.7329 28.7355 80.3884 28.5335 80.0914C28.3434 79.7944 27.9989 79.5687 27.4999 79.4143C27.0129 79.2598 26.3416 79.1826 25.4863 79.1826H22.4747L23.1162 72.3932H30.4402V74.3356H23.9716L25.1833 73.2307L24.7022 78.3094L23.4904 77.2224H26.0031C27.2386 77.2224 28.2306 77.3887 28.979 77.7214C29.7393 78.0421 30.2917 78.4936 30.6363 79.0757C30.9927 79.6459 31.1709 80.2993 31.1709 81.0359C31.1709 81.7606 30.9927 82.4258 30.6363 83.0317C30.2799 83.6376 29.7334 84.1247 28.9968 84.493C28.2721 84.8612 27.3514 85.0454 26.2347 85.0454Z" fill="black"/>
<path d="M107.217 43.0078V31.4248L108.233 32.4762H104.58V30.5338H109.534V43.0078H107.217Z" fill="black"/>
<path d="M52.6914 41.7446C51.5628 41.7446 50.5945 41.507 49.7867 41.0318C48.9789 40.5447 48.3611 39.8438 47.9334 38.929C47.5057 38.0143 47.2919 36.8857 47.2919 35.5432C47.2919 34.1176 47.5473 32.9118 48.0582 31.9258C48.5809 30.9397 49.2996 30.1913 50.2144 29.6805C51.141 29.1696 52.2043 28.9142 53.4042 28.9142C54.0338 28.9142 54.6337 28.9795 55.204 29.1102C55.7861 29.2409 56.2791 29.4429 56.683 29.7161L55.8277 31.4625C55.4832 31.2367 55.1089 31.0823 54.705 30.9991C54.313 30.9041 53.8972 30.8566 53.4576 30.8566C52.2815 30.8566 51.3489 31.2189 50.6599 31.9436C49.9708 32.6683 49.6263 33.7375 49.6263 35.1512C49.6263 35.3769 49.6323 35.6442 49.6441 35.9531C49.656 36.2501 49.6976 36.553 49.7689 36.8619L49.0561 36.0778C49.2699 35.5908 49.561 35.1868 49.9293 34.8661C50.3094 34.5334 50.7549 34.284 51.2658 34.1176C51.7885 33.9513 52.3528 33.8682 52.9587 33.8682C53.7784 33.8682 54.509 34.0285 55.1505 34.3493C55.792 34.6582 56.3029 35.1037 56.683 35.6858C57.0632 36.256 57.2533 36.9273 57.2533 37.6995C57.2533 38.5192 57.0513 39.232 56.6474 39.8379C56.2435 40.4437 55.697 40.913 55.008 41.2456C54.3189 41.5783 53.5467 41.7446 52.6914 41.7446ZM52.5666 39.927C53.0418 39.927 53.4636 39.8438 53.8318 39.6775C54.2001 39.4993 54.4852 39.2498 54.6872 38.929C54.901 38.6083 55.008 38.2341 55.008 37.8064C55.008 37.153 54.7822 36.6362 54.3308 36.256C53.8794 35.8759 53.2735 35.6858 52.5132 35.6858C52.0142 35.6858 51.5746 35.7808 51.1945 35.9709C50.8262 36.1491 50.5292 36.3986 50.3035 36.7194C50.0896 37.0401 49.9827 37.4084 49.9827 37.8242C49.9827 38.2044 50.0837 38.5548 50.2857 38.8756C50.4876 39.1963 50.7787 39.4518 51.1588 39.6418C51.5509 39.8319 52.0201 39.927 52.5666 39.927Z" fill="black"/>
</g>
<defs>
<clipPath id="clip0_537_24846">
<rect width="156" height="156" fill="white"/>
</clipPath>
</defs>
</svg>
