<svg width="202" height="201" viewBox="0 0 202 201" fill="none" xmlns="http://www.w3.org/2000/svg">
<path d="M126.538 36.6836V23.3836H128.096L134.062 33.4346H133.226L139.116 23.3836H140.674L140.693 36.6836H138.869L138.85 26.2526H139.287L134.043 35.0686H133.169L127.887 26.2526H128.362V36.6836H126.538ZM148.731 36.7976C147.718 36.7976 146.819 36.5759 146.033 36.1326C145.248 35.6893 144.627 35.0813 144.171 34.3086C143.715 33.5233 143.487 32.6366 143.487 31.6486C143.487 30.6479 143.715 29.7613 144.171 28.9886C144.627 28.2159 145.248 27.6143 146.033 27.1836C146.819 26.7403 147.718 26.5186 148.731 26.5186C149.732 26.5186 150.625 26.7403 151.41 27.1836C152.208 27.6143 152.829 28.2159 153.272 28.9886C153.728 29.7486 153.956 30.6353 153.956 31.6486C153.956 32.6493 153.728 33.5359 153.272 34.3086C152.829 35.0813 152.208 35.6893 151.41 36.1326C150.625 36.5759 149.732 36.7976 148.731 36.7976ZM148.731 35.2016C149.377 35.2016 149.954 35.0559 150.46 34.7646C150.98 34.4733 151.385 34.0616 151.676 33.5296C151.968 32.9849 152.113 32.3579 152.113 31.6486C152.113 30.9266 151.968 30.3059 151.676 29.7866C151.385 29.2546 150.98 28.8429 150.46 28.5516C149.954 28.2603 149.377 28.1146 148.731 28.1146C148.085 28.1146 147.509 28.2603 147.002 28.5516C146.496 28.8429 146.09 29.2546 145.786 29.7866C145.482 30.3059 145.33 30.9266 145.33 31.6486C145.33 32.3579 145.482 32.9849 145.786 33.5296C146.09 34.0616 146.496 34.4733 147.002 34.7646C147.509 35.0559 148.085 35.2016 148.731 35.2016ZM156.479 36.6836V26.6136H158.227V29.3496L158.056 28.6656C158.335 27.9689 158.803 27.4369 159.462 27.0696C160.121 26.7023 160.931 26.5186 161.894 26.5186V28.2856C161.818 28.2729 161.742 28.2666 161.666 28.2666C161.603 28.2666 161.539 28.2666 161.476 28.2666C160.501 28.2666 159.728 28.5579 159.158 29.1406C158.588 29.7233 158.303 30.5656 158.303 31.6676V36.6836H156.479ZM168.533 36.7976C167.457 36.7976 166.507 36.5759 165.683 36.1326C164.873 35.6893 164.239 35.0813 163.783 34.3086C163.34 33.5359 163.118 32.6493 163.118 31.6486C163.118 30.6479 163.334 29.7613 163.764 28.9886C164.208 28.2159 164.809 27.6143 165.569 27.1836C166.342 26.7403 167.21 26.5186 168.172 26.5186C169.148 26.5186 170.009 26.7339 170.756 27.1646C171.504 27.5953 172.086 28.2033 172.504 28.9886C172.935 29.7613 173.15 30.6669 173.15 31.7056C173.15 31.7816 173.144 31.8703 173.131 31.9716C173.131 32.0729 173.125 32.1679 173.112 32.2566H164.543V30.9456H172.162L171.421 31.4016C171.434 30.7556 171.301 30.1793 171.022 29.6726C170.744 29.1659 170.357 28.7733 169.863 28.4946C169.382 28.2033 168.818 28.0576 168.172 28.0576C167.539 28.0576 166.975 28.2033 166.481 28.4946C165.987 28.7733 165.601 29.1723 165.322 29.6916C165.044 30.1983 164.904 30.7809 164.904 31.4396V31.7436C164.904 32.4149 165.056 33.0166 165.36 33.5486C165.677 34.0679 166.114 34.4733 166.671 34.7646C167.229 35.0559 167.868 35.2016 168.59 35.2016C169.186 35.2016 169.724 35.1003 170.205 34.8976C170.699 34.6949 171.13 34.3909 171.497 33.9856L172.504 35.1636C172.048 35.6956 171.478 36.1009 170.794 36.3796C170.123 36.6583 169.369 36.7976 168.533 36.7976Z" fill="#1F2937"/>
<path d="M15.2411 105.395V92.0945H17.1411V103.742H24.3421V105.395H15.2411ZM30.6105 105.509C29.5338 105.509 28.5838 105.287 27.7605 104.844C26.9498 104.4 26.3165 103.792 25.8605 103.02C25.4171 102.247 25.1955 101.36 25.1955 100.36C25.1955 99.3589 25.4108 98.4722 25.8415 97.6995C26.2848 96.9269 26.8865 96.3252 27.6465 95.8945C28.4191 95.4512 29.2868 95.2295 30.2495 95.2295C31.2248 95.2295 32.0861 95.4449 32.8335 95.8755C33.5808 96.3062 34.1635 96.9142 34.5815 97.6995C35.0121 98.4722 35.2275 99.3779 35.2275 100.417C35.2275 100.493 35.2211 100.581 35.2085 100.683C35.2085 100.784 35.2021 100.879 35.1895 100.968H26.6205V99.6565H34.2395L33.4985 100.113C33.5111 99.4665 33.3781 98.8902 33.0995 98.3835C32.8208 97.8769 32.4345 97.4842 31.9405 97.2055C31.4591 96.9142 30.8955 96.7685 30.2495 96.7685C29.6161 96.7685 29.0525 96.9142 28.5585 97.2055C28.0645 97.4842 27.6781 97.8832 27.3995 98.4025C27.1208 98.9092 26.9815 99.4919 26.9815 100.151V100.455C26.9815 101.126 27.1335 101.728 27.4375 102.26C27.7541 102.779 28.1911 103.184 28.7485 103.476C29.3058 103.767 29.9455 103.913 30.6675 103.913C31.2628 103.913 31.8011 103.811 32.2825 103.609C32.7765 103.406 33.2071 103.102 33.5745 102.697L34.5815 103.875C34.1255 104.407 33.5555 104.812 32.8715 105.091C32.2001 105.369 31.4465 105.509 30.6105 105.509ZM40.6483 105.509C39.8123 105.509 39.0143 105.395 38.2543 105.167C37.5069 104.939 36.9179 104.66 36.4873 104.331L37.2473 102.887C37.6779 103.178 38.2099 103.425 38.8433 103.628C39.4766 103.83 40.1226 103.932 40.7812 103.932C41.6299 103.932 42.2379 103.811 42.6053 103.571C42.9853 103.33 43.1753 102.994 43.1753 102.564C43.1753 102.247 43.0613 102 42.8333 101.823C42.6053 101.645 42.3013 101.512 41.9213 101.424C41.5539 101.335 41.1423 101.259 40.6863 101.196C40.2303 101.12 39.7743 101.031 39.3183 100.93C38.8623 100.816 38.4443 100.664 38.0643 100.474C37.6843 100.271 37.3803 99.9985 37.1523 99.6565C36.9243 99.3019 36.8103 98.8332 36.8103 98.2505C36.8103 97.6425 36.9813 97.1105 37.3233 96.6545C37.6653 96.1985 38.1466 95.8502 38.7673 95.6095C39.4006 95.3562 40.1479 95.2295 41.0093 95.2295C41.6679 95.2295 42.3329 95.3119 43.0043 95.4765C43.6883 95.6285 44.2456 95.8502 44.6763 96.1415L43.8973 97.5855C43.4413 97.2815 42.9663 97.0725 42.4723 96.9585C41.9783 96.8445 41.4843 96.7875 40.9903 96.7875C40.1923 96.7875 39.5969 96.9205 39.2043 97.1865C38.8116 97.4399 38.6153 97.7692 38.6153 98.1745C38.6153 98.5165 38.7293 98.7825 38.9573 98.9725C39.1979 99.1499 39.5019 99.2892 39.8693 99.3905C40.2493 99.4919 40.6673 99.5805 41.1233 99.6565C41.5793 99.7199 42.0353 99.8085 42.4913 99.9225C42.9473 100.024 43.3589 100.17 43.7263 100.36C44.1063 100.55 44.4103 100.816 44.6383 101.158C44.8789 101.5 44.9993 101.956 44.9993 102.526C44.9993 103.134 44.8219 103.659 44.4673 104.103C44.1126 104.546 43.6123 104.894 42.9663 105.148C42.3203 105.388 41.5476 105.509 40.6483 105.509ZM50.1668 105.509C49.3308 105.509 48.5328 105.395 47.7728 105.167C47.0255 104.939 46.4365 104.66 46.0058 104.331L46.7658 102.887C47.1965 103.178 47.7285 103.425 48.3618 103.628C48.9951 103.83 49.6411 103.932 50.2998 103.932C51.1485 103.932 51.7565 103.811 52.1238 103.571C52.5038 103.33 52.6938 102.994 52.6938 102.564C52.6938 102.247 52.5798 102 52.3518 101.823C52.1238 101.645 51.8198 101.512 51.4398 101.424C51.0725 101.335 50.6608 101.259 50.2048 101.196C49.7488 101.12 49.2928 101.031 48.8368 100.93C48.3808 100.816 47.9628 100.664 47.5828 100.474C47.2028 100.271 46.8988 99.9985 46.6708 99.6565C46.4428 99.3019 46.3288 98.8332 46.3288 98.2505C46.3288 97.6425 46.4998 97.1105 46.8418 96.6545C47.1838 96.1985 47.6651 95.8502 48.2858 95.6095C48.9191 95.3562 49.6665 95.2295 50.5278 95.2295C51.1865 95.2295 51.8515 95.3119 52.5228 95.4765C53.2068 95.6285 53.7641 95.8502 54.1948 96.1415L53.4158 97.5855C52.9598 97.2815 52.4848 97.0725 51.9908 96.9585C51.4968 96.8445 51.0028 96.7875 50.5088 96.7875C49.7108 96.7875 49.1155 96.9205 48.7228 97.1865C48.3301 97.4399 48.1338 97.7692 48.1338 98.1745C48.1338 98.5165 48.2478 98.7825 48.4758 98.9725C48.7165 99.1499 49.0205 99.2892 49.3878 99.3905C49.7678 99.4919 50.1858 99.5805 50.6418 99.6565C51.0978 99.7199 51.5538 99.8085 52.0098 99.9225C52.4658 100.024 52.8775 100.17 53.2448 100.36C53.6248 100.55 53.9288 100.816 54.1568 101.158C54.3975 101.5 54.5178 101.956 54.5178 102.526C54.5178 103.134 54.3405 103.659 53.9858 104.103C53.6311 104.546 53.1308 104.894 52.4848 105.148C51.8388 105.388 51.0661 105.509 50.1668 105.509Z" fill="#1F2937"/>
<path d="M114.628 42.9547C114.7 42.4072 114.315 41.9049 113.767 41.8328L104.844 40.658C104.297 40.586 103.794 40.9714 103.722 41.519C103.65 42.0665 104.036 42.5688 104.583 42.6409L112.515 43.6851L111.471 51.6167C111.398 52.1643 111.784 52.6666 112.331 52.7387C112.879 52.8108 113.381 52.4253 113.453 51.8777L114.628 42.9547ZM113.637 42.8242L113.028 42.0309L56.6999 85.2529L57.3086 86.0463L57.9174 86.8396L114.245 43.6176L113.637 42.8242Z" fill="url(#paint0_linear_565_18500)"/>
<circle cx="23.4219" cy="176.816" r="5.5" transform="rotate(180 23.4219 176.816)" fill="#9CA3AF"/>
<circle cx="49.6797" cy="158.816" r="5.5" transform="rotate(180 49.6797 158.816)" fill="#9CA3AF"/>
<circle cx="49.6797" cy="176.816" r="5.5" transform="rotate(180 49.6797 176.816)" fill="#9CA3AF"/>
<circle cx="75.9336" cy="140.816" r="5.5" transform="rotate(180 75.9336 140.816)" fill="#9CA3AF"/>
<circle cx="75.9336" cy="158.816" r="5.5" transform="rotate(180 75.9336 158.816)" fill="#9CA3AF"/>
<circle cx="75.9336" cy="176.816" r="5.5" transform="rotate(180 75.9336 176.816)" fill="#9CA3AF"/>
<circle cx="102.191" cy="122.816" r="5.5" transform="rotate(180 102.191 122.816)" fill="#9CA3AF"/>
<circle cx="102.191" cy="140.816" r="5.5" transform="rotate(180 102.191 140.816)" fill="#9CA3AF"/>
<circle cx="102.191" cy="158.816" r="5.5" transform="rotate(180 102.191 158.816)" fill="#9CA3AF"/>
<circle cx="102.191" cy="176.816" r="5.5" transform="rotate(180 102.191 176.816)" fill="#9CA3AF"/>
<circle cx="128.445" cy="104.816" r="5.5" transform="rotate(180 128.445 104.816)" fill="#9CA3AF"/>
<circle cx="128.445" cy="122.816" r="5.5" transform="rotate(180 128.445 122.816)" fill="#9CA3AF"/>
<circle cx="128.445" cy="140.816" r="5.5" transform="rotate(180 128.445 140.816)" fill="#9CA3AF"/>
<circle cx="128.445" cy="158.816" r="5.5" transform="rotate(180 128.445 158.816)" fill="#9CA3AF"/>
<circle cx="128.445" cy="176.816" r="5.5" transform="rotate(180 128.445 176.816)" fill="#9CA3AF"/>
<circle cx="154.703" cy="86.8164" r="5.5" transform="rotate(180 154.703 86.8164)" fill="#9CA3AF"/>
<circle cx="154.703" cy="104.816" r="5.5" transform="rotate(180 154.703 104.816)" fill="#9CA3AF"/>
<circle cx="154.703" cy="122.816" r="5.5" transform="rotate(180 154.703 122.816)" fill="#9CA3AF"/>
<circle cx="154.703" cy="140.816" r="5.5" transform="rotate(180 154.703 140.816)" fill="#9CA3AF"/>
<circle cx="154.703" cy="158.816" r="5.5" transform="rotate(180 154.703 158.816)" fill="#9CA3AF"/>
<circle cx="154.703" cy="176.816" r="5.5" transform="rotate(180 154.703 176.816)" fill="#9CA3AF"/>
<circle cx="180.957" cy="68.8164" r="5.5" transform="rotate(180 180.957 68.8164)" fill="#9CA3AF"/>
<circle cx="180.957" cy="86.8164" r="5.5" transform="rotate(180 180.957 86.8164)" fill="#9CA3AF"/>
<circle cx="180.957" cy="104.816" r="5.5" transform="rotate(180 180.957 104.816)" fill="#9CA3AF"/>
<circle cx="180.957" cy="122.816" r="5.5" transform="rotate(180 180.957 122.816)" fill="#9CA3AF"/>
<circle cx="180.957" cy="140.816" r="5.5" transform="rotate(180 180.957 140.816)" fill="#9CA3AF"/>
<circle cx="180.957" cy="158.816" r="5.5" transform="rotate(180 180.957 158.816)" fill="#9CA3AF"/>
<circle cx="180.957" cy="176.816" r="5.5" transform="rotate(180 180.957 176.816)" fill="#9CA3AF"/>
<defs>
<linearGradient id="paint0_linear_565_18500" x1="113.941" y1="43.2209" x2="57.613" y2="86.443" gradientUnits="userSpaceOnUse">
<stop stop-color="#475569"/>
<stop offset="1" stop-color="#E7E5E4"/>
</linearGradient>
</defs>
</svg>
