<svg width="212" height="217" viewBox="0 0 212 217" fill="none" xmlns="http://www.w3.org/2000/svg">
<circle cx="102.36" cy="116.719" r="63.03" stroke="#D1D5DB" stroke-width="0.66"/>
<path d="M94.9363 179.827L111.477 54.1914" stroke="#9CA3AF" stroke-width="0.528" stroke-linecap="round"/>
<path d="M119.2 55.8713L86.4023 178.273" stroke="#9CA3AF" stroke-width="0.528" stroke-linecap="round"/>
<path d="M126.97 58.5588L78.4766 175.633" stroke="#9CA3AF" stroke-width="0.528" stroke-linecap="round"/>
<path d="M133.919 61.9291L70.5586 171.672" stroke="#9CA3AF" stroke-width="0.528" stroke-linecap="round"/>
<path d="M141.099 65.8569L63.957 166.391" stroke="#9CA3AF" stroke-width="0.528" stroke-linecap="round"/>
<path d="M146.964 71.5048L57.3594 161.109" stroke="#9CA3AF" stroke-width="0.528" stroke-linecap="round"/>
<path d="M51.8686 155.095L152.402 77.9531" stroke="#9CA3AF" stroke-width="0.528" stroke-linecap="round"/>
<path d="M94.9539 180.234L94.3203 185.047" stroke="#6B7280" stroke-width="2.64" stroke-linecap="round"/>
<path d="M86.3739 178.174L85.5819 181.017" stroke="#D1D5DB" stroke-width="2.64" stroke-linecap="round"/>
<path d="M78.4274 175.852L77.1602 178.386" stroke="#D1D5DB" stroke-width="3.168" stroke-linecap="round"/>
<path d="M70.3024 171.465L69.0352 173.366" stroke="#D1D5DB" stroke-width="3.168" stroke-linecap="round"/>
<path d="M64.1235 165.82L62.2227 167.721" stroke="#D1D5DB" stroke-width="3.168" stroke-linecap="round"/>
<path d="M57.2602 161.543L55.3594 163.444" stroke="#D1D5DB" stroke-width="3.168" stroke-linecap="round"/>
<path d="M52.9797 154.574L50.4453 156.686" stroke="#D1D5DB" stroke-width="3.168" stroke-linecap="round"/>
<circle cx="111.595" cy="52.0619" r="3.3" transform="rotate(7.5 111.595 52.0619)" fill="#D1D5DB"/>
<circle cx="112.595" cy="44.472" r="3.3" transform="rotate(7.5 112.595 44.472)" fill="#9CA3AF"/>
<circle cx="113.595" cy="36.8822" r="3.3" transform="rotate(7.5 113.595 36.8822)" fill="#57534E"/>
<circle cx="114.591" cy="29.2923" r="3.3" transform="rotate(7.5 114.591 29.2923)" fill="#6B7280"/>
<circle cx="115.591" cy="21.6986" r="3.3" transform="rotate(7.5 115.591 21.6986)" fill="#9CA3AF"/>
<circle cx="119.888" cy="55.4128" r="3.3" transform="rotate(15 119.888 55.4128)" fill="#E5E7EB"/>
<circle cx="121.869" cy="48.0182" r="3.3" transform="rotate(15 121.869 48.0182)" fill="#D1D5DB"/>
<circle cx="123.853" cy="40.6237" r="3.3" transform="rotate(15 123.853 40.6237)" fill="#9CA3AF"/>
<circle cx="125.833" cy="33.2292" r="3.3" transform="rotate(15 125.833 33.2292)" fill="#57534E"/>
<circle cx="127.814" cy="25.8346" r="3.3" transform="rotate(15 127.814 25.8346)" fill="#6B7280"/>
<circle cx="129.794" cy="18.4401" r="3.3" transform="rotate(15 129.794 18.4401)" fill="#9CA3AF"/>
<circle cx="3.3" cy="3.3" r="3.3" transform="matrix(0.866025 0.5 0.5 -0.866025 152.484 23.25)" fill="#6B7280"/>
<circle cx="3.3" cy="3.3" r="3.3" transform="matrix(0.866025 0.5 0.5 -0.866025 148.656 29.8789)" fill="#57534E"/>
<circle cx="3.3" cy="3.3" r="3.3" transform="matrix(0.866025 0.5 0.5 -0.866025 144.828 36.5078)" fill="#57534E"/>
<circle cx="3.3" cy="3.3" r="3.3" transform="matrix(0.866025 0.5 0.5 -0.866025 141 43.1406)" fill="#57534E"/>
<circle cx="3.3" cy="3.3" r="3.3" transform="matrix(0.866025 0.5 0.5 -0.866025 137.172 49.7695)" fill="#9CA3AF"/>
<circle cx="3.3" cy="3.3" r="3.3" transform="matrix(0.866025 0.5 0.5 -0.866025 133.348 56.3984)" fill="#D1D5DB"/>
<circle cx="3.3" cy="3.3" r="3.3" transform="matrix(0.866025 0.5 0.5 -0.866025 129.52 63.0312)" fill="#E5E7EB"/>
<circle cx="3.3" cy="3.3" r="3.3" transform="matrix(0.707107 0.707107 0.707107 -0.707107 170.141 44.2891)" fill="#9CA3AF"/>
<circle cx="3.3" cy="3.3" r="3.3" transform="matrix(0.707107 0.707107 0.707107 -0.707107 164.727 49.7031)" fill="#9CA3AF"/>
<circle cx="3.3" cy="3.3" r="3.3" transform="matrix(0.707107 0.707107 0.707107 -0.707107 159.312 55.1172)" fill="#57534E"/>
<circle cx="3.3" cy="3.3" r="3.3" transform="matrix(0.707107 0.707107 0.707107 -0.707107 153.898 60.5312)" fill="#6B7280"/>
<circle cx="3.3" cy="3.3" r="3.3" transform="matrix(0.707107 0.707107 0.707107 -0.707107 148.484 65.9453)" fill="#9CA3AF"/>
<circle cx="3.3" cy="3.3" r="3.3" transform="matrix(0.707107 0.707107 0.707107 -0.707107 143.07 71.3555)" fill="#D1D5DB"/>
<circle cx="3.3" cy="3.3" r="3.3" transform="matrix(0.923879 0.382683 0.382683 -0.923879 134.699 32.3984)" fill="#9CA3AF"/>
<circle cx="3.3" cy="3.3" r="3.3" transform="matrix(0.923879 0.382683 0.382683 -0.923879 131.77 39.4727)" fill="#57534E"/>
<circle cx="3.3" cy="3.3" r="3.3" transform="matrix(0.923879 0.382683 0.382683 -0.923879 128.84 46.543)" fill="#9CA3AF"/>
<circle cx="3.3" cy="3.3" r="3.3" transform="matrix(0.923879 0.382683 0.382683 -0.923879 125.91 53.6172)" fill="#D1D5DB"/>
<circle cx="3.3" cy="3.3" r="3.3" transform="matrix(0.923879 0.382683 0.382683 -0.923879 122.98 60.6914)" fill="#E5E7EB"/>
<circle cx="141.176" cy="65.4824" r="3.3" transform="rotate(37.5 141.176 65.4824)" fill="#D1D5DB"/>
<circle cx="145.84" cy="59.4082" r="3.3" transform="rotate(37.5 145.84 59.4082)" fill="#9CA3AF"/>
<circle cx="150.5" cy="53.334" r="3.3" transform="rotate(37.5 150.5 53.334)" fill="#6B7280"/>
<circle cx="155.16" cy="47.2598" r="3.3" transform="rotate(37.5 155.16 47.2598)" fill="#57534E"/>
<circle cx="159.82" cy="41.1856" r="3.3" transform="rotate(37.5 159.82 41.1856)" fill="#9CA3AF"/>
<circle cx="3.3" cy="3.3" r="3.3" transform="matrix(0.608761 0.793353 0.793353 -0.608761 178.316 54.4531)" fill="#9CA3AF"/>
<circle cx="3.3" cy="3.3" r="3.3" transform="matrix(0.608761 0.793353 0.793353 -0.608761 172.242 59.1172)" fill="#6B7280"/>
<circle cx="3.3" cy="3.3" r="3.3" transform="matrix(0.608761 0.793353 0.793353 -0.608761 166.168 63.7773)" fill="#57534E"/>
<circle cx="3.3" cy="3.3" r="3.3" transform="matrix(0.608761 0.793353 0.793353 -0.608761 160.094 68.4375)" fill="#57534E"/>
<circle cx="3.3" cy="3.3" r="3.3" transform="matrix(0.608761 0.793353 0.793353 -0.608761 154.02 73.0977)" fill="#9CA3AF"/>
<circle cx="3.3" cy="3.3" r="3.3" transform="matrix(0.608761 0.793353 0.793353 -0.608761 147.949 77.7578)" fill="#E5E7EB"/>
<path d="M111.708 8.97491C111.068 8.97491 110.456 8.87891 109.872 8.68691C109.288 8.48691 108.828 8.23091 108.492 7.91891L108.936 6.98291C109.256 7.26291 109.664 7.49491 110.16 7.67891C110.656 7.86291 111.172 7.95491 111.708 7.95491C112.196 7.95491 112.592 7.89891 112.896 7.78691C113.2 7.67491 113.424 7.52291 113.568 7.33091C113.712 7.13091 113.784 6.90691 113.784 6.65891C113.784 6.37091 113.688 6.13891 113.496 5.96291C113.312 5.78691 113.068 5.64691 112.764 5.54291C112.468 5.43091 112.14 5.33491 111.78 5.25491C111.42 5.17491 111.056 5.08291 110.688 4.97891C110.328 4.86691 109.996 4.72691 109.692 4.55891C109.396 4.39091 109.156 4.16691 108.972 3.88691C108.788 3.59891 108.696 3.23091 108.696 2.78291C108.696 2.35091 108.808 1.95491 109.032 1.59491C109.264 1.22691 109.616 0.934906 110.088 0.718906C110.568 0.494906 111.176 0.382906 111.912 0.382906C112.4 0.382906 112.884 0.446906 113.364 0.574906C113.844 0.702906 114.26 0.886906 114.612 1.12691L114.216 2.08691C113.856 1.84691 113.476 1.67491 113.076 1.57091C112.676 1.45891 112.288 1.40291 111.912 1.40291C111.44 1.40291 111.052 1.46291 110.748 1.58291C110.444 1.70291 110.22 1.86291 110.076 2.06291C109.94 2.26291 109.872 2.48691 109.872 2.73491C109.872 3.03091 109.964 3.26691 110.148 3.44291C110.34 3.61891 110.584 3.75891 110.88 3.86291C111.184 3.96691 111.516 4.06291 111.876 4.15091C112.236 4.23091 112.596 4.32291 112.956 4.42691C113.324 4.53091 113.656 4.66691 113.952 4.83491C114.256 5.00291 114.5 5.22691 114.684 5.50691C114.868 5.78691 114.96 6.14691 114.96 6.58691C114.96 7.01091 114.844 7.40691 114.612 7.77491C114.38 8.13491 114.02 8.42691 113.532 8.65091C113.052 8.86691 112.444 8.97491 111.708 8.97491Z" fill="#EF4444"/>
<path d="M123.26 8.39844V-0.00156307H124.244L128.012 6.34644H127.484L131.204 -0.00156307H132.188L132.2 8.39844H131.048L131.036 1.81044H131.312L128 7.37844H127.448L124.112 1.81044H124.412V8.39844H123.26Z" fill="black"/>
<path d="M143.451 10.4766V3.12056H140.571V2.07656H147.519V3.12056H144.639V10.4766H143.451Z" fill="black"/>
<path d="M155.715 14.7969L152.907 6.39687H154.143L156.723 14.1489H156.099L158.775 6.39687H159.879L162.495 14.1489H161.895L164.511 6.39687H165.651L162.843 14.7969H161.583L159.135 7.60887H159.459L156.999 14.7969H155.715Z" fill="black"/>
<path d="M172.729 24.7188V17.3627H169.849V16.3187H176.797V17.3627H173.917V24.7188H172.729Z" fill="black"/>
<path d="M182.102 31.7282H186.434V32.7602H182.102V31.7282ZM182.222 36.1562H181.022V27.7562H186.95V28.8002H182.222V36.1562Z" fill="black"/>
<path d="M191.911 49.2132C191.271 49.2132 190.659 49.1172 190.075 48.9252C189.491 48.7252 189.031 48.4692 188.695 48.1572L189.139 47.2212C189.459 47.5012 189.867 47.7332 190.363 47.9172C190.859 48.1012 191.375 48.1932 191.911 48.1932C192.399 48.1932 192.795 48.1372 193.099 48.0252C193.403 47.9132 193.627 47.7612 193.771 47.5692C193.915 47.3692 193.987 47.1452 193.987 46.8972C193.987 46.6092 193.891 46.3772 193.699 46.2012C193.515 46.0252 193.271 45.8852 192.967 45.7812C192.671 45.6692 192.343 45.5732 191.983 45.4932C191.623 45.4132 191.259 45.3212 190.891 45.2172C190.531 45.1052 190.199 44.9652 189.895 44.7972C189.599 44.6292 189.359 44.4052 189.175 44.1252C188.991 43.8372 188.899 43.4692 188.899 43.0212C188.899 42.5892 189.011 42.1932 189.235 41.8332C189.467 41.4652 189.819 41.1732 190.291 40.9572C190.771 40.7332 191.379 40.6212 192.115 40.6212C192.603 40.6212 193.087 40.6852 193.567 40.8132C194.047 40.9412 194.463 41.1252 194.815 41.3652L194.419 42.3252C194.059 42.0852 193.679 41.9132 193.279 41.8092C192.879 41.6972 192.491 41.6412 192.115 41.6412C191.643 41.6412 191.255 41.7012 190.951 41.8212C190.647 41.9412 190.423 42.1012 190.279 42.3012C190.143 42.5012 190.075 42.7252 190.075 42.9732C190.075 43.2692 190.167 43.5052 190.351 43.6812C190.543 43.8572 190.787 43.9972 191.083 44.1012C191.387 44.2052 191.719 44.3012 192.079 44.3892C192.439 44.4692 192.799 44.5612 193.159 44.6652C193.527 44.7692 193.859 44.9052 194.155 45.0732C194.459 45.2412 194.703 45.4652 194.887 45.7452C195.071 46.0252 195.163 46.3852 195.163 46.8252C195.163 47.2492 195.047 47.6452 194.815 48.0132C194.583 48.3732 194.223 48.6652 193.735 48.8892C193.255 49.1052 192.647 49.2132 191.911 49.2132Z" fill="#3B82F6"/>
</svg>
