<svg width="213" height="222" viewBox="0 0 213 222" fill="none" xmlns="http://www.w3.org/2000/svg">
<circle cx="102.36" cy="121.719" r="63.03" stroke="#D1D5DB" stroke-width="0.66"/>
<path d="M94.9363 184.827L111.477 59.1914" stroke="#9CA3AF" stroke-width="0.528" stroke-linecap="round"/>
<path d="M119.2 60.8713L86.4023 183.273" stroke="#9CA3AF" stroke-width="0.528" stroke-linecap="round"/>
<path d="M126.97 63.5588L78.4766 180.633" stroke="#9CA3AF" stroke-width="0.528" stroke-linecap="round"/>
<path d="M133.919 66.9291L70.5586 176.672" stroke="#9CA3AF" stroke-width="0.528" stroke-linecap="round"/>
<path d="M141.099 70.8569L63.957 171.391" stroke="#9CA3AF" stroke-width="0.528" stroke-linecap="round"/>
<path d="M146.964 76.5048L57.3594 166.109" stroke="#9CA3AF" stroke-width="0.528" stroke-linecap="round"/>
<path d="M51.8686 160.095L152.402 82.9531" stroke="#9CA3AF" stroke-width="0.528" stroke-linecap="round"/>
<path d="M94.9539 185.234L94.3203 190.047" stroke="#6B7280" stroke-width="2.64" stroke-linecap="round"/>
<path d="M86.3739 183.174L85.5819 186.017" stroke="#D1D5DB" stroke-width="2.64" stroke-linecap="round"/>
<path d="M78.4274 180.852L77.1602 183.386" stroke="#D1D5DB" stroke-width="3.168" stroke-linecap="round"/>
<path d="M70.3024 176.465L69.0352 178.366" stroke="#D1D5DB" stroke-width="3.168" stroke-linecap="round"/>
<path d="M64.1235 170.82L62.2227 172.721" stroke="#D1D5DB" stroke-width="3.168" stroke-linecap="round"/>
<path d="M57.2602 166.543L55.3594 168.444" stroke="#D1D5DB" stroke-width="3.168" stroke-linecap="round"/>
<path d="M52.9797 159.574L50.4453 161.686" stroke="#D1D5DB" stroke-width="3.168" stroke-linecap="round"/>
<circle cx="111.595" cy="57.0619" r="3.3" transform="rotate(7.5 111.595 57.0619)" fill="#D1D5DB"/>
<circle cx="112.595" cy="49.472" r="3.3" transform="rotate(7.5 112.595 49.472)" fill="#9CA3AF"/>
<circle cx="113.595" cy="41.8822" r="3.3" transform="rotate(7.5 113.595 41.8822)" fill="#57534E"/>
<circle cx="114.591" cy="34.2923" r="3.3" transform="rotate(7.5 114.591 34.2923)" fill="#6B7280"/>
<circle cx="115.591" cy="26.6986" r="3.3" transform="rotate(7.5 115.591 26.6986)" fill="#9CA3AF"/>
<circle cx="119.888" cy="60.4128" r="3.3" transform="rotate(15 119.888 60.4128)" fill="#E5E7EB"/>
<circle cx="121.869" cy="53.0182" r="3.3" transform="rotate(15 121.869 53.0182)" fill="#D1D5DB"/>
<circle cx="123.853" cy="45.6237" r="3.3" transform="rotate(15 123.853 45.6237)" fill="#9CA3AF"/>
<circle cx="125.833" cy="38.2292" r="3.3" transform="rotate(15 125.833 38.2292)" fill="#57534E"/>
<circle cx="127.814" cy="30.8346" r="3.3" transform="rotate(15 127.814 30.8346)" fill="#6B7280"/>
<circle cx="129.794" cy="23.4401" r="3.3" transform="rotate(15 129.794 23.4401)" fill="#9CA3AF"/>
<circle cx="3.3" cy="3.3" r="3.3" transform="matrix(0.866025 0.5 0.5 -0.866025 152.484 28.25)" fill="#6B7280"/>
<circle cx="3.3" cy="3.3" r="3.3" transform="matrix(0.866025 0.5 0.5 -0.866025 148.656 34.8789)" fill="#57534E"/>
<circle cx="3.3" cy="3.3" r="3.3" transform="matrix(0.866025 0.5 0.5 -0.866025 144.828 41.5078)" fill="#57534E"/>
<circle cx="3.3" cy="3.3" r="3.3" transform="matrix(0.866025 0.5 0.5 -0.866025 141 48.1406)" fill="#57534E"/>
<circle cx="3.3" cy="3.3" r="3.3" transform="matrix(0.866025 0.5 0.5 -0.866025 137.172 54.7695)" fill="#9CA3AF"/>
<circle cx="3.3" cy="3.3" r="3.3" transform="matrix(0.866025 0.5 0.5 -0.866025 133.348 61.3984)" fill="#D1D5DB"/>
<circle cx="3.3" cy="3.3" r="3.3" transform="matrix(0.866025 0.5 0.5 -0.866025 129.52 68.0312)" fill="#E5E7EB"/>
<circle cx="3.3" cy="3.3" r="3.3" transform="matrix(0.707107 0.707107 0.707107 -0.707107 170.141 49.2891)" fill="#9CA3AF"/>
<circle cx="3.3" cy="3.3" r="3.3" transform="matrix(0.707107 0.707107 0.707107 -0.707107 164.727 54.7031)" fill="#9CA3AF"/>
<circle cx="3.3" cy="3.3" r="3.3" transform="matrix(0.707107 0.707107 0.707107 -0.707107 159.312 60.1172)" fill="#57534E"/>
<circle cx="3.3" cy="3.3" r="3.3" transform="matrix(0.707107 0.707107 0.707107 -0.707107 153.898 65.5312)" fill="#6B7280"/>
<circle cx="3.3" cy="3.3" r="3.3" transform="matrix(0.707107 0.707107 0.707107 -0.707107 148.484 70.9453)" fill="#9CA3AF"/>
<circle cx="3.3" cy="3.3" r="3.3" transform="matrix(0.707107 0.707107 0.707107 -0.707107 143.07 76.3555)" fill="#D1D5DB"/>
<circle cx="3.3" cy="3.3" r="3.3" transform="matrix(0.923879 0.382683 0.382683 -0.923879 134.699 37.3984)" fill="#9CA3AF"/>
<circle cx="3.3" cy="3.3" r="3.3" transform="matrix(0.923879 0.382683 0.382683 -0.923879 131.77 44.4727)" fill="#57534E"/>
<circle cx="3.3" cy="3.3" r="3.3" transform="matrix(0.923879 0.382683 0.382683 -0.923879 128.84 51.543)" fill="#9CA3AF"/>
<circle cx="3.3" cy="3.3" r="3.3" transform="matrix(0.923879 0.382683 0.382683 -0.923879 125.91 58.6172)" fill="#D1D5DB"/>
<circle cx="3.3" cy="3.3" r="3.3" transform="matrix(0.923879 0.382683 0.382683 -0.923879 122.98 65.6914)" fill="#E5E7EB"/>
<circle cx="141.176" cy="70.4824" r="3.3" transform="rotate(37.5 141.176 70.4824)" fill="#D1D5DB"/>
<circle cx="145.84" cy="64.4082" r="3.3" transform="rotate(37.5 145.84 64.4082)" fill="#9CA3AF"/>
<circle cx="150.5" cy="58.334" r="3.3" transform="rotate(37.5 150.5 58.334)" fill="#6B7280"/>
<circle cx="155.16" cy="52.2598" r="3.3" transform="rotate(37.5 155.16 52.2598)" fill="#57534E"/>
<circle cx="159.82" cy="46.1856" r="3.3" transform="rotate(37.5 159.82 46.1856)" fill="#9CA3AF"/>
<circle cx="3.3" cy="3.3" r="3.3" transform="matrix(0.608761 0.793353 0.793353 -0.608761 178.316 59.4531)" fill="#9CA3AF"/>
<circle cx="3.3" cy="3.3" r="3.3" transform="matrix(0.608761 0.793353 0.793353 -0.608761 172.242 64.1172)" fill="#6B7280"/>
<circle cx="3.3" cy="3.3" r="3.3" transform="matrix(0.608761 0.793353 0.793353 -0.608761 166.168 68.7773)" fill="#57534E"/>
<circle cx="3.3" cy="3.3" r="3.3" transform="matrix(0.608761 0.793353 0.793353 -0.608761 160.094 73.4375)" fill="#57534E"/>
<circle cx="3.3" cy="3.3" r="3.3" transform="matrix(0.608761 0.793353 0.793353 -0.608761 154.02 78.0977)" fill="#9CA3AF"/>
<circle cx="3.3" cy="3.3" r="3.3" transform="matrix(0.608761 0.793353 0.793353 -0.608761 147.949 82.7578)" fill="#E5E7EB"/>
<path d="M94.708 17.9749C94.068 17.9749 93.456 17.8789 92.872 17.6869C92.288 17.4869 91.828 17.2309 91.492 16.9189L91.936 15.9829C92.256 16.2629 92.664 16.4949 93.16 16.6789C93.656 16.8629 94.172 16.9549 94.708 16.9549C95.196 16.9549 95.592 16.8989 95.896 16.7869C96.2 16.6749 96.424 16.5229 96.568 16.3309C96.712 16.1309 96.784 15.9069 96.784 15.6589C96.784 15.3709 96.688 15.1389 96.496 14.9629C96.312 14.7869 96.068 14.6469 95.764 14.5429C95.468 14.4309 95.14 14.3349 94.78 14.2549C94.42 14.1749 94.056 14.0829 93.688 13.9789C93.328 13.8669 92.996 13.7269 92.692 13.5589C92.396 13.3909 92.156 13.1669 91.972 12.8869C91.788 12.5989 91.696 12.2309 91.696 11.7829C91.696 11.3509 91.808 10.9549 92.032 10.5949C92.264 10.2269 92.616 9.93491 93.088 9.71891C93.568 9.49491 94.176 9.38291 94.912 9.38291C95.4 9.38291 95.884 9.44691 96.364 9.57491C96.844 9.70291 97.26 9.88691 97.612 10.1269L97.216 11.0869C96.856 10.8469 96.476 10.6749 96.076 10.5709C95.676 10.4589 95.288 10.4029 94.912 10.4029C94.44 10.4029 94.052 10.4629 93.748 10.5829C93.444 10.7029 93.22 10.8629 93.076 11.0629C92.94 11.2629 92.872 11.4869 92.872 11.7349C92.872 12.0309 92.964 12.2669 93.148 12.4429C93.34 12.6189 93.584 12.7589 93.88 12.8629C94.184 12.9669 94.516 13.0629 94.876 13.1509C95.236 13.2309 95.596 13.3229 95.956 13.4269C96.324 13.5309 96.656 13.6669 96.952 13.8349C97.256 14.0029 97.5 14.2269 97.684 14.5069C97.868 14.7869 97.96 15.1469 97.96 15.5869C97.96 16.0109 97.844 16.4069 97.612 16.7749C97.38 17.1349 97.02 17.4269 96.532 17.6509C96.052 17.8669 95.444 17.9749 94.708 17.9749ZM102.221 17.9509C101.677 17.9509 101.197 17.8509 100.781 17.6509C100.373 17.4509 100.053 17.1469 99.8211 16.7389C99.5971 16.3229 99.4851 15.8029 99.4851 15.1789V11.5189H100.637V15.0469C100.637 15.6709 100.785 16.1389 101.081 16.4509C101.385 16.7629 101.809 16.9189 102.353 16.9189C102.753 16.9189 103.101 16.8389 103.397 16.6789C103.693 16.5109 103.921 16.2709 104.081 15.9589C104.241 15.6389 104.321 15.2549 104.321 14.8069V11.5189H105.473V17.8789H104.381V16.1629L104.561 16.6189C104.353 17.0429 104.041 17.3709 103.625 17.6029C103.209 17.8349 102.741 17.9509 102.221 17.9509ZM111.062 11.4589C111.582 11.4589 112.038 11.5589 112.43 11.7589C112.83 11.9589 113.142 12.2629 113.366 12.6709C113.59 13.0789 113.702 13.5949 113.702 14.2189V17.8789H112.55V14.3509C112.55 13.7349 112.398 13.2709 112.094 12.9589C111.798 12.6469 111.378 12.4909 110.834 12.4909C110.426 12.4909 110.07 12.5709 109.766 12.7309C109.462 12.8909 109.226 13.1269 109.058 13.4389C108.898 13.7509 108.818 14.1389 108.818 14.6029V17.8789H107.666V11.5189H108.77V13.2349L108.59 12.7789C108.798 12.3629 109.118 12.0389 109.55 11.8069C109.982 11.5749 110.486 11.4589 111.062 11.4589Z" fill="black"/>
<path d="M110.26 8.39844V-0.00156307H111.244L115.012 6.34644H114.484L118.204 -0.00156307H119.188L119.2 8.39844H118.048L118.036 1.81044H118.312L115 7.37844H114.448L111.112 1.81044H111.412V8.39844H110.26ZM124.277 8.47044C123.637 8.47044 123.069 8.33044 122.573 8.05044C122.077 7.77044 121.685 7.38644 121.397 6.89844C121.109 6.40244 120.965 5.84244 120.965 5.21844C120.965 4.58644 121.109 4.02644 121.397 3.53844C121.685 3.05044 122.077 2.67044 122.573 2.39844C123.069 2.11844 123.637 1.97844 124.277 1.97844C124.909 1.97844 125.473 2.11844 125.969 2.39844C126.473 2.67044 126.865 3.05044 127.145 3.53844C127.433 4.01844 127.577 4.57844 127.577 5.21844C127.577 5.85044 127.433 6.41044 127.145 6.89844C126.865 7.38644 126.473 7.77044 125.969 8.05044C125.473 8.33044 124.909 8.47044 124.277 8.47044ZM124.277 7.46244C124.685 7.46244 125.049 7.37044 125.369 7.18644C125.697 7.00244 125.953 6.74244 126.137 6.40644C126.321 6.06244 126.413 5.66644 126.413 5.21844C126.413 4.76244 126.321 4.37044 126.137 4.04244C125.953 3.70644 125.697 3.44644 125.369 3.26244C125.049 3.07844 124.685 2.98644 124.277 2.98644C123.869 2.98644 123.505 3.07844 123.185 3.26244C122.865 3.44644 122.609 3.70644 122.417 4.04244C122.225 4.37044 122.129 4.76244 122.129 5.21844C122.129 5.66644 122.225 6.06244 122.417 6.40644C122.609 6.74244 122.865 7.00244 123.185 7.18644C123.505 7.37044 123.869 7.46244 124.277 7.46244ZM132.566 1.97844C133.086 1.97844 133.542 2.07844 133.934 2.27844C134.334 2.47844 134.646 2.78244 134.87 3.19044C135.094 3.59844 135.206 4.11444 135.206 4.73844V8.39844H134.054V4.87044C134.054 4.25444 133.902 3.79044 133.598 3.47844C133.302 3.16644 132.882 3.01044 132.338 3.01044C131.93 3.01044 131.574 3.09044 131.27 3.25044C130.966 3.41044 130.73 3.64644 130.562 3.95844C130.402 4.27044 130.322 4.65844 130.322 5.12244V8.39844H129.17V2.03844H130.274V3.75444L130.094 3.29844C130.302 2.88244 130.622 2.55844 131.054 2.32644C131.486 2.09444 131.99 1.97844 132.566 1.97844Z" fill="black"/>
<path d="M136.451 19.4766V12.1206H133.571V11.0766H140.519V12.1206H137.639V19.4766H136.451ZM144.182 19.5486C143.638 19.5486 143.158 19.4486 142.742 19.2486C142.334 19.0486 142.014 18.7446 141.782 18.3366C141.558 17.9206 141.446 17.4006 141.446 16.7766V13.1166H142.598V16.6446C142.598 17.2686 142.746 17.7366 143.042 18.0486C143.346 18.3606 143.77 18.5166 144.314 18.5166C144.714 18.5166 145.062 18.4366 145.358 18.2766C145.654 18.1086 145.882 17.8686 146.042 17.5566C146.202 17.2366 146.282 16.8526 146.282 16.4046V13.1166H147.434V19.4766H146.342V17.7606L146.522 18.2166C146.314 18.6406 146.002 18.9686 145.586 19.2006C145.17 19.4326 144.702 19.5486 144.182 19.5486ZM152.459 19.5486C151.779 19.5486 151.179 19.4086 150.659 19.1286C150.147 18.8486 149.747 18.4646 149.459 17.9766C149.179 17.4886 149.039 16.9286 149.039 16.2966C149.039 15.6646 149.175 15.1046 149.447 14.6166C149.727 14.1286 150.107 13.7486 150.587 13.4766C151.075 13.1966 151.623 13.0566 152.231 13.0566C152.847 13.0566 153.391 13.1926 153.863 13.4646C154.335 13.7366 154.703 14.1206 154.967 14.6166C155.239 15.1046 155.375 15.6766 155.375 16.3326C155.375 16.3806 155.371 16.4366 155.363 16.5006C155.363 16.5646 155.359 16.6246 155.351 16.6806H149.939V15.8526H154.751L154.283 16.1406C154.291 15.7326 154.207 15.3686 154.031 15.0486C153.855 14.7286 153.611 14.4806 153.299 14.3046C152.995 14.1206 152.639 14.0286 152.231 14.0286C151.831 14.0286 151.475 14.1206 151.163 14.3046C150.851 14.4806 150.607 14.7326 150.431 15.0606C150.255 15.3806 150.167 15.7486 150.167 16.1646V16.3566C150.167 16.7806 150.263 17.1606 150.455 17.4966C150.655 17.8246 150.931 18.0806 151.283 18.2646C151.635 18.4486 152.039 18.5406 152.495 18.5406C152.871 18.5406 153.211 18.4766 153.515 18.3486C153.827 18.2206 154.099 18.0286 154.331 17.7726L154.967 18.5166C154.679 18.8526 154.319 19.1086 153.887 19.2846C153.463 19.4606 152.987 19.5486 152.459 19.5486Z" fill="black"/>
<path d="M162.715 18.7969L159.907 10.3969H161.143L163.723 18.1489H163.099L165.775 10.3969H166.879L169.495 18.1489H168.895L171.511 10.3969H172.651L169.843 18.7969H168.583L166.135 11.6089H166.459L163.999 18.7969H162.715ZM176.303 18.8689C175.623 18.8689 175.023 18.7289 174.503 18.4489C173.991 18.1689 173.591 17.7849 173.303 17.2969C173.023 16.8089 172.883 16.2489 172.883 15.6169C172.883 14.9849 173.019 14.4249 173.291 13.9369C173.571 13.4489 173.951 13.0689 174.431 12.7969C174.919 12.5169 175.467 12.3769 176.075 12.3769C176.691 12.3769 177.235 12.5129 177.707 12.7849C178.179 13.0569 178.547 13.4409 178.811 13.9369C179.083 14.4249 179.219 14.9969 179.219 15.6529C179.219 15.7009 179.215 15.7569 179.207 15.8209C179.207 15.8849 179.203 15.9449 179.195 16.0009H173.783V15.1729H178.595L178.127 15.4609C178.135 15.0529 178.051 14.6889 177.875 14.3689C177.699 14.0489 177.455 13.8009 177.143 13.6249C176.839 13.4409 176.483 13.3489 176.075 13.3489C175.675 13.3489 175.319 13.4409 175.007 13.6249C174.695 13.8009 174.451 14.0529 174.275 14.3809C174.099 14.7009 174.011 15.0689 174.011 15.4849V15.6769C174.011 16.1009 174.107 16.4809 174.299 16.8169C174.499 17.1449 174.775 17.4009 175.127 17.5849C175.479 17.7689 175.883 17.8609 176.339 17.8609C176.715 17.8609 177.055 17.7969 177.359 17.6689C177.671 17.5409 177.943 17.3489 178.175 17.0929L178.811 17.8369C178.523 18.1729 178.163 18.4289 177.731 18.6049C177.307 18.7809 176.831 18.8689 176.303 18.8689ZM183.447 18.8689C182.831 18.8689 182.279 18.7329 181.791 18.4609C181.311 18.1889 180.931 17.8089 180.651 17.3209C180.371 16.8329 180.231 16.2649 180.231 15.6169C180.231 14.9689 180.371 14.4049 180.651 13.9249C180.931 13.4369 181.311 13.0569 181.791 12.7849C182.279 12.5129 182.831 12.3769 183.447 12.3769C183.983 12.3769 184.467 12.4969 184.899 12.7369C185.331 12.9769 185.675 13.3369 185.931 13.8169C186.195 14.2969 186.327 14.8969 186.327 15.6169C186.327 16.3369 186.199 16.9369 185.943 17.4169C185.695 17.8969 185.355 18.2609 184.923 18.5089C184.491 18.7489 183.999 18.8689 183.447 18.8689ZM183.543 17.8609C183.943 17.8609 184.303 17.7689 184.623 17.5849C184.951 17.4009 185.207 17.1409 185.391 16.8049C185.583 16.4609 185.679 16.0649 185.679 15.6169C185.679 15.1609 185.583 14.7689 185.391 14.4409C185.207 14.1049 184.951 13.8449 184.623 13.6609C184.303 13.4769 183.943 13.3849 183.543 13.3849C183.135 13.3849 182.771 13.4769 182.451 13.6609C182.131 13.8449 181.875 14.1049 181.683 14.4409C181.491 14.7689 181.395 15.1609 181.395 15.6169C181.395 16.0649 181.491 16.4609 181.683 16.8049C181.875 17.1409 182.131 17.4009 182.451 17.5849C182.771 17.7689 183.135 17.8609 183.543 17.8609ZM185.715 18.7969V17.0809L185.787 15.6049L185.667 14.1289V9.89287H186.819V18.7969H185.715Z" fill="black"/>
<path d="M167.729 34.7188V27.3627H164.849V26.3187H171.797V27.3627H168.917V34.7188H167.729ZM176.332 28.2987C176.852 28.2987 177.308 28.3987 177.7 28.5987C178.1 28.7987 178.412 29.1027 178.636 29.5107C178.86 29.9187 178.972 30.4347 178.972 31.0587V34.7188H177.82V31.1908C177.82 30.5747 177.668 30.1107 177.364 29.7987C177.068 29.4867 176.648 29.3307 176.104 29.3307C175.696 29.3307 175.34 29.4107 175.036 29.5707C174.732 29.7307 174.496 29.9667 174.328 30.2787C174.168 30.5907 174.088 30.9787 174.088 31.4427V34.7188H172.936V25.8147H174.088V30.0747L173.86 29.6187C174.068 29.2027 174.388 28.8787 174.82 28.6467C175.252 28.4147 175.756 28.2987 176.332 28.2987ZM183.78 34.7908C183.236 34.7908 182.756 34.6907 182.34 34.4907C181.932 34.2907 181.612 33.9867 181.38 33.5787C181.156 33.1627 181.044 32.6427 181.044 32.0187V28.3587H182.196V31.8867C182.196 32.5107 182.344 32.9787 182.64 33.2907C182.944 33.6027 183.368 33.7587 183.912 33.7587C184.312 33.7587 184.66 33.6787 184.956 33.5187C185.252 33.3507 185.48 33.1107 185.64 32.7987C185.8 32.4787 185.88 32.0947 185.88 31.6467V28.3587H187.032V34.7188H185.94V33.0027L186.12 33.4587C185.912 33.8827 185.6 34.2107 185.184 34.4427C184.768 34.6747 184.3 34.7908 183.78 34.7908Z" fill="black"/>
<path d="M187.102 44.7282H191.434V45.7602H187.102V44.7282ZM187.222 49.1562H186.022V40.7562H191.95V41.8002H187.222V49.1562ZM193.354 49.1562V42.7962H194.458V44.5242L194.35 44.0922C194.526 43.6522 194.822 43.3162 195.238 43.0842C195.654 42.8522 196.166 42.7362 196.774 42.7362V43.8522C196.726 43.8442 196.678 43.8402 196.63 43.8402C196.59 43.8402 196.55 43.8402 196.51 43.8402C195.894 43.8402 195.406 44.0242 195.046 44.3922C194.686 44.7602 194.506 45.2922 194.506 45.9883V49.1562H193.354ZM198.194 49.1562V42.7962H199.346V49.1562H198.194ZM198.77 41.5722C198.546 41.5722 198.358 41.5002 198.206 41.3562C198.062 41.2122 197.99 41.0362 197.99 40.8282C197.99 40.6122 198.062 40.4322 198.206 40.2882C198.358 40.1442 198.546 40.0722 198.77 40.0722C198.994 40.0722 199.178 40.1442 199.322 40.2882C199.474 40.4242 199.55 40.5962 199.55 40.8042C199.55 41.0202 199.478 41.2042 199.334 41.3562C199.19 41.5002 199.002 41.5722 198.77 41.5722Z" fill="black"/>
<path d="M196.911 61.2132C196.271 61.2132 195.659 61.1172 195.075 60.9252C194.491 60.7252 194.031 60.4692 193.695 60.1572L194.139 59.2212C194.459 59.5012 194.867 59.7332 195.363 59.9172C195.859 60.1012 196.375 60.1932 196.911 60.1932C197.399 60.1932 197.795 60.1372 198.099 60.0252C198.403 59.9132 198.627 59.7612 198.771 59.5692C198.915 59.3692 198.987 59.1452 198.987 58.8972C198.987 58.6092 198.891 58.3772 198.699 58.2012C198.515 58.0252 198.271 57.8852 197.967 57.7812C197.671 57.6692 197.343 57.5732 196.983 57.4932C196.623 57.4132 196.259 57.3212 195.891 57.2172C195.531 57.1052 195.199 56.9652 194.895 56.7972C194.599 56.6292 194.359 56.4052 194.175 56.1252C193.991 55.8372 193.899 55.4692 193.899 55.0212C193.899 54.5892 194.011 54.1932 194.235 53.8332C194.467 53.4652 194.819 53.1732 195.291 52.9572C195.771 52.7332 196.379 52.6212 197.115 52.6212C197.603 52.6212 198.087 52.6852 198.567 52.8132C199.047 52.9412 199.463 53.1252 199.815 53.3652L199.419 54.3252C199.059 54.0852 198.679 53.9132 198.279 53.8092C197.879 53.6972 197.491 53.6412 197.115 53.6412C196.643 53.6412 196.255 53.7012 195.951 53.8212C195.647 53.9412 195.423 54.1012 195.279 54.3012C195.143 54.5012 195.075 54.7252 195.075 54.9732C195.075 55.2692 195.167 55.5052 195.351 55.6812C195.543 55.8572 195.787 55.9972 196.083 56.1012C196.387 56.2052 196.719 56.3012 197.079 56.3892C197.439 56.4692 197.799 56.5612 198.159 56.6652C198.527 56.7692 198.859 56.9052 199.155 57.0732C199.459 57.2412 199.703 57.4652 199.887 57.7452C200.071 58.0252 200.163 58.3852 200.163 58.8252C200.163 59.2492 200.047 59.6452 199.815 60.0132C199.583 60.3732 199.223 60.6652 198.735 60.8892C198.255 61.1052 197.647 61.2132 196.911 61.2132ZM205.696 61.1172V59.7732L205.636 59.5212V57.2292C205.636 56.7412 205.492 56.3652 205.204 56.1012C204.924 55.8292 204.5 55.6932 203.932 55.6932C203.556 55.6932 203.188 55.7572 202.828 55.8852C202.468 56.0052 202.164 56.1692 201.916 56.3772L201.436 55.5132C201.764 55.2492 202.156 55.0492 202.612 54.9132C203.076 54.7692 203.56 54.6972 204.064 54.6972C204.936 54.6972 205.608 54.9092 206.08 55.3332C206.552 55.7572 206.788 56.4052 206.788 57.2772V61.1172H205.696ZM203.608 61.1892C203.136 61.1892 202.72 61.1092 202.36 60.9492C202.008 60.7892 201.736 60.5692 201.544 60.2892C201.352 60.0012 201.256 59.6772 201.256 59.3172C201.256 58.9732 201.336 58.6612 201.496 58.3812C201.664 58.1012 201.932 57.8772 202.3 57.7092C202.676 57.5412 203.18 57.4572 203.812 57.4572H205.828V58.2852H203.86C203.284 58.2852 202.896 58.3812 202.696 58.5732C202.496 58.7652 202.396 58.9972 202.396 59.2692C202.396 59.5812 202.52 59.8332 202.768 60.0252C203.016 60.2092 203.36 60.3012 203.8 60.3012C204.232 60.3012 204.608 60.2052 204.928 60.0132C205.256 59.8212 205.492 59.5412 205.636 59.1732L205.864 59.9652C205.712 60.3412 205.444 60.6412 205.06 60.8652C204.676 61.0812 204.192 61.1892 203.608 61.1892ZM211.104 61.1892C210.464 61.1892 209.968 61.0172 209.616 60.6732C209.264 60.3292 209.088 59.8372 209.088 59.1972V53.3652H210.24V59.1492C210.24 59.4932 210.324 59.7572 210.492 59.9412C210.668 60.1252 210.916 60.2172 211.236 60.2172C211.596 60.2172 211.896 60.1172 212.136 59.9172L212.496 60.7452C212.32 60.8972 212.108 61.0092 211.86 61.0812C211.62 61.1532 211.368 61.1892 211.104 61.1892ZM208.008 55.7052V54.7572H212.064V55.7052H208.008Z" fill="black"/>
</svg>
